%TF.GenerationSoftware,KiCad,Pcbnew,10.0.0*%
%TF.CreationDate,2026-09-02T19:00:37+02:00*%
%TF.ProjectId,Zamek_RFID_Hardware,5a616d65-6b5f-4524-9649-445f48617264,rev?*%
%TF.SameCoordinates,Original*%
%TF.FileFunction,Copper,L2,Bot*%
%TF.FilePolarity,Positive*%
%FSLAX46Y46*%
G04 Gerber Fmt 4.6, Leading zero omitted, Abs format (unit mm)*
G04 Created by KiCad (PCBNEW 10.0.0) date 2026-09-02 19:00:37*
%MOMM*%
%LPD*%
G01*
G04 APERTURE LIST*
%TA.AperFunction,NonConductor*%
%ADD10C,0.150000*%
%TD*%
%TA.AperFunction,ComponentPad*%
%ADD11R,1.700000X1.700000*%
%TD*%
%TA.AperFunction,ComponentPad*%
%ADD12C,1.700000*%
%TD*%
%TA.AperFunction,ComponentPad*%
%ADD13R,1.800000X1.800000*%
%TD*%
%TA.AperFunction,ComponentPad*%
%ADD14C,1.800000*%
%TD*%
%TA.AperFunction,ComponentPad*%
%ADD15C,1.600000*%
%TD*%
%TA.AperFunction,ComponentPad*%
%ADD16R,1.600000X1.600000*%
%TD*%
%TA.AperFunction,ComponentPad*%
%ADD17O,1.600000X1.600000*%
%TD*%
%TA.AperFunction,ComponentPad*%
%ADD18R,2.000000X2.000000*%
%TD*%
%TA.AperFunction,ComponentPad*%
%ADD19C,2.000000*%
%TD*%
%TA.AperFunction,ViaPad*%
%ADD20C,0.600000*%
%TD*%
%TA.AperFunction,Conductor*%
%ADD21C,0.250000*%
%TD*%
G04 APERTURE END LIST*
D10*
X114692626Y-73385630D02*
X159027329Y-73385630D01*
X159027329Y-126500000D01*
X114692626Y-126500000D01*
X114692626Y-73385630D01*
D11*
%TO.P,J3,1,Pin_1_1*%
%TO.N,GND*%
X156120000Y-103870000D03*
D12*
%TO.P,J3,2,Pin_2_2*%
%TO.N,+5V*%
X156120000Y-106410000D03*
%TO.P,J3,3,Pin_3_3*%
%TO.N,/I2C_SDA*%
X156120000Y-108950000D03*
%TO.P,J3,4,Pin_4_4*%
%TO.N,/I2C_SCL*%
X156120000Y-111490000D03*
%TD*%
D11*
%TO.P,J4,1,Pin_1_1*%
%TO.N,/PRZEKA\u0179NIK*%
X155880000Y-117420000D03*
D12*
%TO.P,J4,2,Pin_2_2*%
%TO.N,GND*%
X155880000Y-119960000D03*
%TO.P,J4,3,Pin_3_3*%
%TO.N,+5V*%
X155880000Y-122500000D03*
%TD*%
D13*
%TO.P,D1,1,K_1*%
%TO.N,Net-(D1-K)*%
X151920000Y-82940000D03*
D14*
%TO.P,D1,2,A_2*%
%TO.N,GND*%
X154460000Y-82940000D03*
%TD*%
D11*
%TO.P,J1,1,Pin_1_1*%
%TO.N,+3.3V*%
X142570000Y-81500000D03*
D12*
%TO.P,J1,2,Pin_2_2*%
X142570000Y-84040000D03*
%TO.P,J1,3,Pin_3_3*%
%TO.N,GND*%
X142570000Y-86580000D03*
%TO.P,J1,4,Pin_4_4*%
%TO.N,unconnected-(J1-Pin_4-Pad4)*%
X142570000Y-89120000D03*
%TO.P,J1,5,Pin_5_5*%
%TO.N,/RFID_MISO*%
X142570000Y-91660000D03*
%TO.P,J1,6,Pin_6_6*%
%TO.N,/RFID_MOSI*%
X142570000Y-94200000D03*
%TO.P,J1,7,Pin_7_7*%
%TO.N,/RFID_SCK*%
X142570000Y-96740000D03*
%TO.P,J1,8,Pin_8_8*%
%TO.N,/RFID_SDA*%
X142570000Y-99280000D03*
%TD*%
D15*
%TO.P,R1,1*%
%TO.N,Net-(D1-K)*%
X141850000Y-117150000D03*
%TO.P,R1,2*%
%TO.N,/LED_CZERWONA*%
X152010000Y-117150000D03*
%TD*%
D11*
%TO.P,J2,1,Pin_1_1*%
%TO.N,/KEY_C4*%
X147160000Y-81500000D03*
D12*
%TO.P,J2,2,Pin_2_2*%
%TO.N,/KEY_C3*%
X147160000Y-84040000D03*
%TO.P,J2,3,Pin_3_3*%
%TO.N,/KEY_C2*%
X147160000Y-86580000D03*
%TO.P,J2,4,Pin_4_4*%
%TO.N,/KEY_C1*%
X147160000Y-89120000D03*
%TO.P,J2,5,Pin_5_5*%
%TO.N,/KEY_R1*%
X147160000Y-91660000D03*
%TO.P,J2,6,Pin_6_6*%
%TO.N,/KEY_R2*%
X147160000Y-94200000D03*
%TO.P,J2,7,Pin_7_7*%
%TO.N,/KEY_R3*%
X147160000Y-96740000D03*
%TO.P,J2,8,Pin_8_8*%
%TO.N,/KEY_R4*%
X147160000Y-99280000D03*
%TD*%
D15*
%TO.P,R2,1*%
%TO.N,Net-(D2-K)*%
X141850000Y-121200000D03*
%TO.P,R2,2*%
%TO.N,/LED_ZIELONA*%
X152010000Y-121200000D03*
%TD*%
D16*
%TO.P,A1,1,D1/TX_1*%
%TO.N,unconnected-(A1-D1{slash}TX-Pad1)*%
X122760000Y-83500000D03*
D17*
%TO.P,A1,2,D0/RX_2*%
%TO.N,unconnected-(A1-D0{slash}RX-Pad2)*%
X122760000Y-86040000D03*
%TO.P,A1,3,~{RESET}_3*%
%TO.N,unconnected-(A1-~{RESET}-Pad3)*%
X122760000Y-88580000D03*
%TO.P,A1,4,GND_4*%
%TO.N,GND*%
X122760000Y-91120000D03*
%TO.P,A1,5,D2_5*%
%TO.N,/KEY_C4*%
X122760000Y-93660000D03*
%TO.P,A1,6,D3_6*%
%TO.N,/KEY_C3*%
X122760000Y-96200000D03*
%TO.P,A1,7,D4_7*%
%TO.N,/KEY_C2*%
X122760000Y-98740000D03*
%TO.P,A1,8,D5_8*%
%TO.N,/KEY_C1*%
X122760000Y-101280000D03*
%TO.P,A1,9,D6_9*%
%TO.N,/KEY_R1*%
X122760000Y-103820000D03*
%TO.P,A1,10,D7_10*%
%TO.N,/KEY_R2*%
X122760000Y-106360000D03*
%TO.P,A1,11,D8_11*%
%TO.N,/KEY_R3*%
X122760000Y-108900000D03*
%TO.P,A1,12,D9_12*%
%TO.N,/KEY_R4*%
X122760000Y-111440000D03*
%TO.P,A1,13,D10_13*%
%TO.N,/RFID_SDA*%
X122760000Y-113980000D03*
%TO.P,A1,14,D11_14*%
%TO.N,/RFID_MOSI*%
X122760000Y-116520000D03*
%TO.P,A1,15,D12_15*%
%TO.N,/RFID_MISO*%
X122760000Y-119060000D03*
%TO.P,A1,16,D13_16*%
%TO.N,/RFID_SCK*%
X138000000Y-119060000D03*
%TO.P,A1,17,3V3_17*%
%TO.N,+3.3V*%
X138000000Y-116520000D03*
%TO.P,A1,18,AREF_18*%
%TO.N,unconnected-(A1-AREF-Pad18)*%
X138000000Y-113980000D03*
%TO.P,A1,19,A0_19*%
%TO.N,/BUZZER*%
X138000000Y-111440000D03*
%TO.P,A1,20,A1_20*%
%TO.N,/LED_ZIELONA*%
X138000000Y-108900000D03*
%TO.P,A1,21,A2_21*%
%TO.N,/LED_CZERWONA*%
X138000000Y-106360000D03*
%TO.P,A1,22,A3_22*%
%TO.N,/PRZEKA\u0179NIK*%
X138000000Y-103820000D03*
%TO.P,A1,23,A4_23*%
%TO.N,/I2C_SDA*%
X138000000Y-101280000D03*
%TO.P,A1,24,A5_24*%
%TO.N,/I2C_SCL*%
X138000000Y-98740000D03*
%TO.P,A1,25,A6_25*%
%TO.N,unconnected-(A1-A6-Pad25)*%
X138000000Y-96200000D03*
%TO.P,A1,26,A7_26*%
%TO.N,unconnected-(A1-A7-Pad26)*%
X138000000Y-93660000D03*
%TO.P,A1,27,+5V_27*%
%TO.N,+5V*%
X138000000Y-91120000D03*
%TO.P,A1,28,~{RESET}_28*%
%TO.N,unconnected-(A1-~{RESET}-Pad28)*%
X138000000Y-88580000D03*
%TO.P,A1,29,GND_29*%
%TO.N,GND*%
X138000000Y-86040000D03*
%TO.P,A1,30,VIN_30*%
%TO.N,unconnected-(A1-VIN-Pad30)*%
X138000000Y-83500000D03*
%TD*%
D13*
%TO.P,D2,1,K_1*%
%TO.N,Net-(D2-K)*%
X151920000Y-90410000D03*
D14*
%TO.P,D2,2,A_2*%
%TO.N,GND*%
X154460000Y-90410000D03*
%TD*%
D18*
%TO.P,BZ1,1,+_1*%
%TO.N,/BUZZER*%
X143250000Y-108350000D03*
D19*
%TO.P,BZ1,2,-_2*%
%TO.N,GND*%
X150850000Y-108350000D03*
%TD*%
D20*
%TO.N,/LED_ZIELONA*%
X151500000Y-119500000D03*
%TO.N,/LED_CZERWONA*%
X151000000Y-115000000D03*
%TO.N,/BUZZER*%
X141500000Y-108000000D03*
%TO.N,/KEY_C3*%
X146170000Y-82830001D03*
%TO.N,/KEY_C4*%
X145106536Y-78893464D03*
%TD*%
%TO.N,/LED_ZIELONA*%
D21*
X152010000Y-120010000D02*
X151500000Y-119500000D01*
X152010000Y-121200000D02*
X152010000Y-120010000D01*
%TO.N,GND*%
X149000000Y-99101701D02*
X147101701Y-101000000D01*
X157505000Y-123173097D02*
X157505000Y-86075000D01*
X135525000Y-88515000D02*
X135525000Y-120570584D01*
X153145000Y-81715000D02*
X150695000Y-81715000D01*
X157505000Y-86075000D02*
X153145000Y-81715000D01*
X155878097Y-124800000D02*
X157505000Y-123173097D01*
X149000000Y-83410000D02*
X149000000Y-99101701D01*
X138000000Y-86040000D02*
X135525000Y-88515000D01*
X150695000Y-81715000D02*
X149000000Y-83410000D01*
X139754416Y-124800000D02*
X155878097Y-124800000D01*
X147101701Y-101000000D02*
X146000000Y-101000000D01*
X135525000Y-120570584D02*
X139754416Y-124800000D01*
%TO.N,/RFID_MOSI*%
X140450000Y-79313604D02*
X139186396Y-78050000D01*
X140450000Y-92080000D02*
X140450000Y-79313604D01*
X121813604Y-78050000D02*
X120050000Y-79813604D01*
X142570000Y-94200000D02*
X140450000Y-92080000D01*
X120050000Y-79813604D02*
X120050000Y-113810000D01*
X120050000Y-113810000D02*
X122760000Y-116520000D01*
X139186396Y-78050000D02*
X121813604Y-78050000D01*
%TO.N,/LED_CZERWONA*%
X152010000Y-117150000D02*
X152010000Y-116010000D01*
X152010000Y-116010000D02*
X151000000Y-115000000D01*
%TO.N,/KEY_R2*%
X121921217Y-121085000D02*
X123598783Y-121085000D01*
X118250000Y-79068020D02*
X118250000Y-117413783D01*
X140306396Y-76250000D02*
X121068020Y-76250000D01*
X144645000Y-91685000D02*
X144645000Y-80588604D01*
X118250000Y-117413783D02*
X121921217Y-121085000D01*
X124785000Y-108385000D02*
X122760000Y-106360000D01*
X147160000Y-94200000D02*
X144645000Y-91685000D01*
X144645000Y-80588604D02*
X140306396Y-76250000D01*
X124785000Y-119898783D02*
X124785000Y-108385000D01*
X121068020Y-76250000D02*
X118250000Y-79068020D01*
X123598783Y-121085000D02*
X124785000Y-119898783D01*
%TO.N,/KEY_R1*%
X120535000Y-121535000D02*
X123785179Y-121535000D01*
X147160000Y-91660000D02*
X145095000Y-89595000D01*
X120881624Y-75800000D02*
X117500000Y-79181624D01*
X145095000Y-80402208D02*
X140492792Y-75800000D01*
X123785179Y-121535000D02*
X125235000Y-120085179D01*
X125235000Y-120085179D02*
X125235000Y-106295000D01*
X117500000Y-118500000D02*
X120535000Y-121535000D01*
X140492792Y-75800000D02*
X120881624Y-75800000D01*
X125235000Y-106295000D02*
X122760000Y-103820000D01*
X145095000Y-89595000D02*
X145095000Y-80402208D01*
X117500000Y-79181624D02*
X117500000Y-118500000D01*
%TO.N,/KEY_C2*%
X147160000Y-86580000D02*
X148335000Y-85405000D01*
X148335000Y-85405000D02*
X148335000Y-80325000D01*
X148335000Y-80325000D02*
X142910000Y-74900000D01*
X123642971Y-122950000D02*
X126135000Y-120457971D01*
X120508832Y-74900000D02*
X116600000Y-78808832D01*
X126135000Y-120457971D02*
X126135000Y-102115000D01*
X119950000Y-122950000D02*
X123642971Y-122950000D01*
X126135000Y-102115000D02*
X122760000Y-98740000D01*
X142910000Y-74900000D02*
X120508832Y-74900000D01*
X116600000Y-119600000D02*
X119950000Y-122950000D01*
X116600000Y-78808832D02*
X116600000Y-119600000D01*
%TO.N,/I2C_SDA*%
X136875000Y-120011396D02*
X136875000Y-102405000D01*
X153186396Y-123450000D02*
X140313604Y-123450000D01*
X140313604Y-123450000D02*
X136875000Y-120011396D01*
X156120000Y-108950000D02*
X153950000Y-111120000D01*
X136875000Y-102405000D02*
X138000000Y-101280000D01*
X153950000Y-111120000D02*
X153950000Y-122686396D01*
X153950000Y-122686396D02*
X153186396Y-123450000D01*
%TO.N,/KEY_R4*%
X122294009Y-120185000D02*
X123225991Y-120185000D01*
X142031396Y-90485000D02*
X141350000Y-89803604D01*
X139559188Y-77150000D02*
X121440812Y-77150000D01*
X121440812Y-77150000D02*
X119150000Y-79440812D01*
X123885000Y-112565000D02*
X122760000Y-111440000D01*
X123225991Y-120185000D02*
X123885000Y-119525991D01*
X123885000Y-119525991D02*
X123885000Y-112565000D01*
X147160000Y-99280000D02*
X143745000Y-95865000D01*
X119150000Y-117040991D02*
X122294009Y-120185000D01*
X119150000Y-79440812D02*
X119150000Y-117040991D01*
X143745000Y-91173299D02*
X143056701Y-90485000D01*
X143745000Y-95865000D02*
X143745000Y-91173299D01*
X141350000Y-89803604D02*
X141350000Y-78940812D01*
X143056701Y-90485000D02*
X142031396Y-90485000D01*
X141350000Y-78940812D02*
X139559188Y-77150000D01*
%TO.N,/BUZZER*%
X143250000Y-108350000D02*
X141850000Y-108350000D01*
X141850000Y-108350000D02*
X141500000Y-108000000D01*
%TO.N,/RFID_SCK*%
X143745000Y-97915000D02*
X143745000Y-100118604D01*
X142570000Y-96740000D02*
X143745000Y-97915000D01*
X143745000Y-100118604D02*
X139125000Y-104738604D01*
X139125000Y-117935000D02*
X138000000Y-119060000D01*
X139125000Y-104738604D02*
X139125000Y-117935000D01*
%TO.N,/RFID_SDA*%
X139000000Y-78500000D02*
X122000000Y-78500000D01*
X142570000Y-99280000D02*
X140000000Y-96710000D01*
X122000000Y-78500000D02*
X120500000Y-80000000D01*
X140000000Y-96710000D02*
X140000000Y-79500000D01*
X140000000Y-79500000D02*
X139000000Y-78500000D01*
X120500000Y-80000000D02*
X120500000Y-111720000D01*
X120500000Y-111720000D02*
X122760000Y-113980000D01*
%TO.N,/KEY_C3*%
X147160000Y-84040000D02*
X147160000Y-83820001D01*
X147160000Y-83820001D02*
X146170000Y-82830001D01*
%TO.N,/KEY_C1*%
X120695228Y-75350000D02*
X117050000Y-78995228D01*
X147160000Y-89120000D02*
X145545000Y-87505000D01*
X123456575Y-122500000D02*
X125685000Y-120271575D01*
X117050000Y-118686396D02*
X120863604Y-122500000D01*
X145545000Y-80215812D02*
X140679188Y-75350000D01*
X140679188Y-75350000D02*
X120695228Y-75350000D01*
X117050000Y-78995228D02*
X117050000Y-118686396D01*
X125685000Y-104205000D02*
X122760000Y-101280000D01*
X120863604Y-122500000D02*
X123456575Y-122500000D01*
X125685000Y-120271575D02*
X125685000Y-104205000D01*
X145545000Y-87505000D02*
X145545000Y-80215812D01*
%TO.N,/PRZEKA\u0179NIK*%
X135975000Y-99174009D02*
X137534009Y-97615000D01*
X139940812Y-124350000D02*
X135975000Y-120384188D01*
X137534009Y-97615000D02*
X138465991Y-97615000D01*
X135975000Y-120384188D02*
X135975000Y-99174009D01*
X157055000Y-118595000D02*
X157055000Y-122986701D01*
X157055000Y-122986701D02*
X155691701Y-124350000D01*
X155691701Y-124350000D02*
X139940812Y-124350000D01*
X138465991Y-97615000D02*
X139363604Y-98512613D01*
X139363604Y-98512613D02*
X139363604Y-102456396D01*
X139363604Y-102456396D02*
X138000000Y-103820000D01*
X155880000Y-117420000D02*
X157055000Y-118595000D01*
%TO.N,/KEY_R3*%
X122107613Y-120635000D02*
X123412387Y-120635000D01*
X121254416Y-76700000D02*
X118700000Y-79254416D01*
X144195000Y-80775000D02*
X140120000Y-76700000D01*
X124335000Y-119712387D02*
X124335000Y-110475000D01*
X124335000Y-110475000D02*
X122760000Y-108900000D01*
X123412387Y-120635000D02*
X124335000Y-119712387D01*
X144195000Y-93775000D02*
X144195000Y-80775000D01*
X140120000Y-76700000D02*
X121254416Y-76700000D01*
X118700000Y-79254416D02*
X118700000Y-117227387D01*
X147160000Y-96740000D02*
X144195000Y-93775000D01*
X118700000Y-117227387D02*
X122107613Y-120635000D01*
%TO.N,/RFID_MISO*%
X121627208Y-77600000D02*
X119600000Y-79627208D01*
X119600000Y-115900000D02*
X122760000Y-119060000D01*
X119600000Y-79627208D02*
X119600000Y-115900000D01*
X142570000Y-91660000D02*
X140900000Y-89990000D01*
X140900000Y-79127208D02*
X139372792Y-77600000D01*
X139372792Y-77600000D02*
X121627208Y-77600000D01*
X140900000Y-89990000D02*
X140900000Y-79127208D01*
%TO.N,/I2C_SCL*%
X140127208Y-123900000D02*
X136425000Y-120197792D01*
X153372792Y-123900000D02*
X140127208Y-123900000D01*
X136425000Y-100315000D02*
X138000000Y-98740000D01*
X136425000Y-120197792D02*
X136425000Y-100315000D01*
X154400000Y-113210000D02*
X154400000Y-122872792D01*
X156120000Y-111490000D02*
X154400000Y-113210000D01*
X154400000Y-122872792D02*
X153372792Y-123900000D01*
%TO.N,/KEY_C4*%
X147160000Y-80946928D02*
X145106536Y-78893464D01*
X147160000Y-81500000D02*
X147160000Y-80946928D01*
%TO.N,Net-(D1-K)*%
X143000000Y-101500000D02*
X148500000Y-101500000D01*
X149500000Y-85000000D02*
X151560000Y-82940000D01*
X141850000Y-117150000D02*
X140000000Y-115300000D01*
X149500000Y-100500000D02*
X149500000Y-85000000D01*
X140000000Y-115300000D02*
X140000000Y-104500000D01*
X148500000Y-101500000D02*
X149500000Y-100500000D01*
X140000000Y-104500000D02*
X143000000Y-101500000D01*
X151560000Y-82940000D02*
X151920000Y-82940000D01*
%TO.N,Net-(D2-K)*%
X153500000Y-122500000D02*
X153500000Y-105000000D01*
X141850000Y-121200000D02*
X140500000Y-122550000D01*
X153000000Y-123000000D02*
X153500000Y-122500000D01*
X140500000Y-122550000D02*
X140500000Y-123000000D01*
X150000000Y-92000000D02*
X151590000Y-90410000D01*
X140500000Y-123000000D02*
X153000000Y-123000000D01*
X153500000Y-105000000D02*
X150000000Y-101500000D01*
X150000000Y-101500000D02*
X150000000Y-92000000D01*
X151590000Y-90410000D02*
X151920000Y-90410000D01*
%TD*%
%TA.AperFunction,Conductor*%
%TO.N,GND*%
G36*
X149337994Y-101660422D02*
G01*
X149393928Y-101702293D01*
X149409222Y-101729151D01*
X149438598Y-101800071D01*
X149438603Y-101800081D01*
X149507928Y-101903832D01*
X149507931Y-101903836D01*
X152830181Y-105226085D01*
X152863666Y-105287408D01*
X152866500Y-105313766D01*
X152866500Y-115809708D01*
X152846815Y-115876747D01*
X152794011Y-115922502D01*
X152724853Y-115932446D01*
X152661297Y-115903421D01*
X152626483Y-115853481D01*
X152622875Y-115843920D01*
X152619155Y-115825215D01*
X152582469Y-115736647D01*
X152581708Y-115734809D01*
X152571403Y-115709929D01*
X152571400Y-115709924D01*
X152502072Y-115606166D01*
X152502069Y-115606163D01*
X151833167Y-114937263D01*
X151799682Y-114875940D01*
X151799246Y-114873849D01*
X151777430Y-114764169D01*
X151716483Y-114617032D01*
X151628003Y-114484611D01*
X151627998Y-114484605D01*
X151515394Y-114372001D01*
X151515387Y-114371995D01*
X151382969Y-114283517D01*
X151235831Y-114222570D01*
X151235823Y-114222568D01*
X151079634Y-114191500D01*
X151079630Y-114191500D01*
X150920370Y-114191500D01*
X150920365Y-114191500D01*
X150764176Y-114222568D01*
X150764168Y-114222570D01*
X150617030Y-114283517D01*
X150484612Y-114371995D01*
X150484605Y-114372001D01*
X150372001Y-114484605D01*
X150371995Y-114484612D01*
X150283517Y-114617030D01*
X150222570Y-114764168D01*
X150222568Y-114764176D01*
X150191500Y-114920365D01*
X150191500Y-115079634D01*
X150222568Y-115235823D01*
X150222570Y-115235831D01*
X150283517Y-115382969D01*
X150371995Y-115515387D01*
X150372001Y-115515394D01*
X150484605Y-115627998D01*
X150484612Y-115628004D01*
X150617030Y-115716482D01*
X150617031Y-115716482D01*
X150617032Y-115716483D01*
X150764169Y-115777430D01*
X150873774Y-115799231D01*
X150935683Y-115831615D01*
X150937263Y-115833167D01*
X151119117Y-116015022D01*
X151152602Y-116076345D01*
X151147618Y-116146037D01*
X151119118Y-116190384D01*
X151011925Y-116297577D01*
X150890873Y-116464193D01*
X150797367Y-116647705D01*
X150733719Y-116843591D01*
X150701500Y-117047019D01*
X150701500Y-117252980D01*
X150733719Y-117456408D01*
X150797367Y-117652294D01*
X150890873Y-117835806D01*
X151011926Y-118002423D01*
X151011930Y-118002428D01*
X151157571Y-118148069D01*
X151157576Y-118148073D01*
X151216892Y-118191168D01*
X151324197Y-118269129D01*
X151441128Y-118328709D01*
X151507705Y-118362632D01*
X151507707Y-118362632D01*
X151507710Y-118362634D01*
X151575019Y-118384504D01*
X151703591Y-118426280D01*
X151805305Y-118442390D01*
X151907019Y-118458500D01*
X151907020Y-118458500D01*
X152112980Y-118458500D01*
X152112981Y-118458500D01*
X152316408Y-118426280D01*
X152512290Y-118362634D01*
X152686206Y-118274018D01*
X152754874Y-118261123D01*
X152819614Y-118287399D01*
X152859872Y-118344505D01*
X152866500Y-118384504D01*
X152866500Y-119809708D01*
X152846815Y-119876747D01*
X152794011Y-119922502D01*
X152724853Y-119932446D01*
X152661297Y-119903421D01*
X152623523Y-119844643D01*
X152620883Y-119833900D01*
X152619156Y-119825220D01*
X152619155Y-119825219D01*
X152619155Y-119825215D01*
X152571400Y-119709925D01*
X152571399Y-119709924D01*
X152571396Y-119709918D01*
X152502072Y-119606168D01*
X152458194Y-119562290D01*
X152413833Y-119517929D01*
X152333168Y-119437264D01*
X152299683Y-119375941D01*
X152299232Y-119373774D01*
X152277431Y-119264176D01*
X152277430Y-119264169D01*
X152216483Y-119117032D01*
X152128003Y-118984611D01*
X152127998Y-118984605D01*
X152015394Y-118872001D01*
X152015387Y-118871995D01*
X151882969Y-118783517D01*
X151735831Y-118722570D01*
X151735823Y-118722568D01*
X151579634Y-118691500D01*
X151579630Y-118691500D01*
X151420370Y-118691500D01*
X151420365Y-118691500D01*
X151264176Y-118722568D01*
X151264168Y-118722570D01*
X151117030Y-118783517D01*
X150984612Y-118871995D01*
X150984605Y-118872001D01*
X150872001Y-118984605D01*
X150871995Y-118984612D01*
X150783517Y-119117030D01*
X150722570Y-119264168D01*
X150722568Y-119264176D01*
X150691500Y-119420365D01*
X150691500Y-119579634D01*
X150722568Y-119735823D01*
X150722570Y-119735831D01*
X150783517Y-119882969D01*
X150871995Y-120015387D01*
X150872001Y-120015394D01*
X150984605Y-120127998D01*
X150984610Y-120128002D01*
X150984611Y-120128003D01*
X151006977Y-120142947D01*
X151051783Y-120196559D01*
X151060492Y-120265884D01*
X151030338Y-120328911D01*
X151025772Y-120333729D01*
X151011928Y-120347573D01*
X150890873Y-120514193D01*
X150797367Y-120697705D01*
X150733719Y-120893591D01*
X150701500Y-121097019D01*
X150701500Y-121302980D01*
X150733719Y-121506408D01*
X150797367Y-121702294D01*
X150890873Y-121885806D01*
X151011926Y-122052423D01*
X151011930Y-122052428D01*
X151114321Y-122154819D01*
X151147806Y-122216142D01*
X151142822Y-122285834D01*
X151100950Y-122341767D01*
X151035486Y-122366184D01*
X151026640Y-122366500D01*
X142833360Y-122366500D01*
X142766321Y-122346815D01*
X142720566Y-122294011D01*
X142710622Y-122224853D01*
X142739647Y-122161297D01*
X142745679Y-122154819D01*
X142790885Y-122109613D01*
X142848068Y-122052430D01*
X142969129Y-121885803D01*
X143062634Y-121702290D01*
X143126280Y-121506408D01*
X143158500Y-121302981D01*
X143158500Y-121097019D01*
X143126280Y-120893592D01*
X143115952Y-120861807D01*
X143091978Y-120788021D01*
X143062634Y-120697710D01*
X143062632Y-120697707D01*
X143062632Y-120697705D01*
X143028709Y-120631128D01*
X142969129Y-120514197D01*
X142882947Y-120395577D01*
X142848073Y-120347576D01*
X142848069Y-120347571D01*
X142702428Y-120201930D01*
X142702423Y-120201926D01*
X142535806Y-120080873D01*
X142535805Y-120080872D01*
X142535803Y-120080871D01*
X142427772Y-120025826D01*
X142352294Y-119987367D01*
X142156408Y-119923719D01*
X141980794Y-119895905D01*
X141952981Y-119891500D01*
X141747019Y-119891500D01*
X141722550Y-119895375D01*
X141543591Y-119923719D01*
X141347705Y-119987367D01*
X141164193Y-120080873D01*
X140997576Y-120201926D01*
X140997571Y-120201930D01*
X140851930Y-120347571D01*
X140851926Y-120347576D01*
X140730873Y-120514193D01*
X140637367Y-120697705D01*
X140573719Y-120893591D01*
X140541500Y-121097019D01*
X140541500Y-121302980D01*
X140573949Y-121507858D01*
X140564994Y-121577152D01*
X140539157Y-121614937D01*
X140096167Y-122057929D01*
X140044483Y-122109613D01*
X139983160Y-122143098D01*
X139913468Y-122138114D01*
X139869121Y-122109613D01*
X138290522Y-120531014D01*
X138257037Y-120469691D01*
X138262021Y-120399999D01*
X138303893Y-120344066D01*
X138339881Y-120325403D01*
X138502290Y-120272634D01*
X138685803Y-120179129D01*
X138852430Y-120058068D01*
X138998068Y-119912430D01*
X139119129Y-119745803D01*
X139212634Y-119562290D01*
X139276280Y-119366408D01*
X139308500Y-119162981D01*
X139308500Y-118957019D01*
X139276280Y-118753592D01*
X139276279Y-118753591D01*
X139276050Y-118752140D01*
X139285005Y-118682847D01*
X139310839Y-118645063D01*
X139617071Y-118338833D01*
X139686400Y-118235075D01*
X139734155Y-118119785D01*
X139758500Y-117997394D01*
X139758500Y-117872606D01*
X139758500Y-116253766D01*
X139778185Y-116186727D01*
X139830989Y-116140972D01*
X139900147Y-116131028D01*
X139963703Y-116160053D01*
X139970181Y-116166085D01*
X140539157Y-116735061D01*
X140572642Y-116796384D01*
X140573949Y-116842139D01*
X140541500Y-117047018D01*
X140541500Y-117252980D01*
X140573719Y-117456408D01*
X140637367Y-117652294D01*
X140730873Y-117835806D01*
X140851926Y-118002423D01*
X140851930Y-118002428D01*
X140997571Y-118148069D01*
X140997576Y-118148073D01*
X141056892Y-118191168D01*
X141164197Y-118269129D01*
X141281128Y-118328709D01*
X141347705Y-118362632D01*
X141347707Y-118362632D01*
X141347710Y-118362634D01*
X141415019Y-118384504D01*
X141543591Y-118426280D01*
X141645305Y-118442390D01*
X141747019Y-118458500D01*
X141747020Y-118458500D01*
X141952980Y-118458500D01*
X141952981Y-118458500D01*
X142156408Y-118426280D01*
X142352290Y-118362634D01*
X142535803Y-118269129D01*
X142702430Y-118148068D01*
X142848068Y-118002430D01*
X142969129Y-117835803D01*
X143062634Y-117652290D01*
X143126280Y-117456408D01*
X143158500Y-117252981D01*
X143158500Y-117047019D01*
X143126280Y-116843592D01*
X143062634Y-116647710D01*
X143062632Y-116647707D01*
X143062632Y-116647705D01*
X142998256Y-116521362D01*
X142969129Y-116464197D01*
X142934852Y-116417019D01*
X142848073Y-116297576D01*
X142848069Y-116297571D01*
X142702428Y-116151930D01*
X142702423Y-116151926D01*
X142535806Y-116030873D01*
X142535805Y-116030872D01*
X142535803Y-116030871D01*
X142453649Y-115989011D01*
X142352294Y-115937367D01*
X142156408Y-115873719D01*
X141980794Y-115845905D01*
X141952981Y-115841500D01*
X141747019Y-115841500D01*
X141542139Y-115873949D01*
X141472846Y-115864994D01*
X141435061Y-115839157D01*
X140669819Y-115073915D01*
X140636334Y-115012592D01*
X140633500Y-114986234D01*
X140633500Y-108567225D01*
X140653185Y-108500186D01*
X140705989Y-108454431D01*
X140775147Y-108444487D01*
X140838703Y-108473512D01*
X140860603Y-108498336D01*
X140871997Y-108515389D01*
X140872001Y-108515394D01*
X140984605Y-108627998D01*
X140984612Y-108628004D01*
X141117030Y-108716482D01*
X141117031Y-108716482D01*
X141117032Y-108716483D01*
X141264169Y-108777430D01*
X141373772Y-108799231D01*
X141435681Y-108831613D01*
X141437208Y-108833113D01*
X141446167Y-108842072D01*
X141447682Y-108843084D01*
X141549921Y-108911399D01*
X141549923Y-108911399D01*
X141549925Y-108911401D01*
X141664952Y-108959046D01*
X141719356Y-109002886D01*
X141741421Y-109069180D01*
X141741500Y-109073607D01*
X141741500Y-109398654D01*
X141748011Y-109459202D01*
X141748011Y-109459204D01*
X141790329Y-109572658D01*
X141799111Y-109596204D01*
X141886739Y-109713261D01*
X142003796Y-109800889D01*
X142140799Y-109851989D01*
X142168050Y-109854918D01*
X142201345Y-109858499D01*
X142201362Y-109858500D01*
X144298638Y-109858500D01*
X144298654Y-109858499D01*
X144325692Y-109855591D01*
X144359201Y-109851989D01*
X144496204Y-109800889D01*
X144613261Y-109713261D01*
X144700889Y-109596204D01*
X144728437Y-109522345D01*
X144743462Y-109482064D01*
X144751988Y-109459204D01*
X144751988Y-109459203D01*
X144751989Y-109459201D01*
X144755591Y-109425692D01*
X144758499Y-109398654D01*
X144758500Y-109398637D01*
X144758500Y-108231947D01*
X149350000Y-108231947D01*
X149350000Y-108468052D01*
X149386934Y-108701247D01*
X149459897Y-108925802D01*
X149567087Y-109136174D01*
X149627338Y-109219104D01*
X149627340Y-109219105D01*
X150367037Y-108479408D01*
X150384075Y-108542993D01*
X150449901Y-108657007D01*
X150542993Y-108750099D01*
X150657007Y-108815925D01*
X150720590Y-108832962D01*
X149980893Y-109572658D01*
X150063828Y-109632914D01*
X150274197Y-109740102D01*
X150498752Y-109813065D01*
X150498751Y-109813065D01*
X150731948Y-109850000D01*
X150968052Y-109850000D01*
X151201247Y-109813065D01*
X151425802Y-109740102D01*
X151636163Y-109632918D01*
X151636169Y-109632914D01*
X151719104Y-109572658D01*
X151719105Y-109572658D01*
X150979408Y-108832962D01*
X151042993Y-108815925D01*
X151157007Y-108750099D01*
X151250099Y-108657007D01*
X151315925Y-108542993D01*
X151332962Y-108479409D01*
X152072658Y-109219105D01*
X152072658Y-109219104D01*
X152132914Y-109136169D01*
X152132918Y-109136163D01*
X152240102Y-108925802D01*
X152313065Y-108701247D01*
X152350000Y-108468052D01*
X152350000Y-108231947D01*
X152313065Y-107998752D01*
X152240102Y-107774197D01*
X152132914Y-107563828D01*
X152072658Y-107480894D01*
X152072658Y-107480893D01*
X151332962Y-108220590D01*
X151315925Y-108157007D01*
X151250099Y-108042993D01*
X151157007Y-107949901D01*
X151042993Y-107884075D01*
X150979409Y-107867037D01*
X151719105Y-107127340D01*
X151719104Y-107127338D01*
X151636174Y-107067087D01*
X151425802Y-106959897D01*
X151201247Y-106886934D01*
X151201248Y-106886934D01*
X150968052Y-106850000D01*
X150731948Y-106850000D01*
X150498752Y-106886934D01*
X150274197Y-106959897D01*
X150063830Y-107067084D01*
X149980894Y-107127340D01*
X150720591Y-107867037D01*
X150657007Y-107884075D01*
X150542993Y-107949901D01*
X150449901Y-108042993D01*
X150384075Y-108157007D01*
X150367037Y-108220591D01*
X149627340Y-107480894D01*
X149567084Y-107563830D01*
X149459897Y-107774197D01*
X149386934Y-107998752D01*
X149350000Y-108231947D01*
X144758500Y-108231947D01*
X144758500Y-107301362D01*
X144758499Y-107301345D01*
X144751989Y-107240798D01*
X144743461Y-107217935D01*
X144743460Y-107217932D01*
X144700889Y-107103796D01*
X144693492Y-107093915D01*
X144613261Y-106986739D01*
X144496204Y-106899111D01*
X144463557Y-106886934D01*
X144359203Y-106848011D01*
X144298654Y-106841500D01*
X144298638Y-106841500D01*
X142201362Y-106841500D01*
X142201345Y-106841500D01*
X142140797Y-106848011D01*
X142140795Y-106848011D01*
X142003795Y-106899111D01*
X141886739Y-106986739D01*
X141799111Y-107103795D01*
X141799108Y-107103800D01*
X141790374Y-107127217D01*
X141748501Y-107183149D01*
X141683036Y-107207564D01*
X141650004Y-107205498D01*
X141623666Y-107200259D01*
X141579630Y-107191500D01*
X141420370Y-107191500D01*
X141420365Y-107191500D01*
X141264176Y-107222568D01*
X141264168Y-107222570D01*
X141117030Y-107283517D01*
X140984612Y-107371995D01*
X140984605Y-107372001D01*
X140871998Y-107484608D01*
X140860602Y-107501665D01*
X140806989Y-107546470D01*
X140737664Y-107555177D01*
X140674637Y-107525022D01*
X140637918Y-107465579D01*
X140633500Y-107432774D01*
X140633500Y-104813766D01*
X140653185Y-104746727D01*
X140669819Y-104726085D01*
X143226086Y-102169819D01*
X143287409Y-102136334D01*
X143313767Y-102133500D01*
X148562395Y-102133500D01*
X148562396Y-102133499D01*
X148684785Y-102109155D01*
X148800075Y-102061400D01*
X148903833Y-101992071D01*
X149206983Y-101688920D01*
X149268303Y-101655438D01*
X149337994Y-101660422D01*
G37*
%TD.AperFunction*%
%TA.AperFunction,Conductor*%
G36*
X148785834Y-85952585D02*
G01*
X148841768Y-85994456D01*
X148866184Y-86059921D01*
X148851332Y-86128194D01*
X148830181Y-86156448D01*
X148723759Y-86262868D01*
X148866493Y-100184962D01*
X148847497Y-100252200D01*
X148830181Y-100273914D01*
X148273915Y-100830181D01*
X148212592Y-100863666D01*
X148186234Y-100866500D01*
X147402947Y-100866500D01*
X147335908Y-100846815D01*
X147290153Y-100794011D01*
X147280209Y-100724853D01*
X147309234Y-100661297D01*
X147368012Y-100623523D01*
X147383549Y-100620027D01*
X147478116Y-100605049D01*
X147681483Y-100538972D01*
X147872009Y-100441894D01*
X148045004Y-100316206D01*
X148196206Y-100165004D01*
X148321894Y-99992009D01*
X148418972Y-99801483D01*
X148485049Y-99598116D01*
X148518500Y-99386916D01*
X148518500Y-99173084D01*
X148485049Y-98961884D01*
X148440363Y-98824352D01*
X148418973Y-98758519D01*
X148418972Y-98758516D01*
X148369507Y-98661438D01*
X148321894Y-98567991D01*
X148196206Y-98394996D01*
X148045004Y-98243794D01*
X147872009Y-98118106D01*
X147872005Y-98118103D01*
X147868132Y-98115730D01*
X147821254Y-98063920D01*
X147809829Y-97994991D01*
X147837483Y-97930827D01*
X147868132Y-97904270D01*
X147872005Y-97901896D01*
X147872004Y-97901896D01*
X147872009Y-97901894D01*
X148045004Y-97776206D01*
X148196206Y-97625004D01*
X148321894Y-97452009D01*
X148418972Y-97261483D01*
X148485049Y-97058116D01*
X148518500Y-96846916D01*
X148518500Y-96633084D01*
X148485049Y-96421884D01*
X148446415Y-96302980D01*
X148418973Y-96218519D01*
X148418972Y-96218516D01*
X148369507Y-96121438D01*
X148321894Y-96027991D01*
X148196206Y-95854996D01*
X148045004Y-95703794D01*
X147872009Y-95578106D01*
X147872005Y-95578103D01*
X147868132Y-95575730D01*
X147821254Y-95523920D01*
X147809829Y-95454991D01*
X147837483Y-95390827D01*
X147868132Y-95364270D01*
X147872005Y-95361896D01*
X147872004Y-95361896D01*
X147872009Y-95361894D01*
X148045004Y-95236206D01*
X148196206Y-95085004D01*
X148321894Y-94912009D01*
X148418972Y-94721483D01*
X148485049Y-94518116D01*
X148518500Y-94306916D01*
X148518500Y-94093084D01*
X148485049Y-93881884D01*
X148446415Y-93762980D01*
X148418973Y-93678519D01*
X148418972Y-93678516D01*
X148369507Y-93581438D01*
X148321894Y-93487991D01*
X148196206Y-93314996D01*
X148045004Y-93163794D01*
X147872009Y-93038106D01*
X147872005Y-93038103D01*
X147868132Y-93035730D01*
X147821254Y-92983920D01*
X147809829Y-92914991D01*
X147837483Y-92850827D01*
X147868132Y-92824270D01*
X147872005Y-92821896D01*
X147872004Y-92821896D01*
X147872009Y-92821894D01*
X148045004Y-92696206D01*
X148196206Y-92545004D01*
X148321894Y-92372009D01*
X148418972Y-92181483D01*
X148485049Y-91978116D01*
X148518500Y-91766916D01*
X148518500Y-91553084D01*
X148485049Y-91341884D01*
X148441390Y-91207513D01*
X148418973Y-91138519D01*
X148418972Y-91138516D01*
X148369507Y-91041438D01*
X148321894Y-90947991D01*
X148196206Y-90774996D01*
X148045004Y-90623794D01*
X147872009Y-90498106D01*
X147872005Y-90498103D01*
X147868132Y-90495730D01*
X147821254Y-90443920D01*
X147809829Y-90374991D01*
X147837483Y-90310827D01*
X147868132Y-90284270D01*
X147872005Y-90281896D01*
X147872004Y-90281896D01*
X147872009Y-90281894D01*
X148045004Y-90156206D01*
X148196206Y-90005004D01*
X148321894Y-89832009D01*
X148418972Y-89641483D01*
X148485049Y-89438116D01*
X148518500Y-89226916D01*
X148518500Y-89013084D01*
X148485049Y-88801884D01*
X148418972Y-88598517D01*
X148418972Y-88598516D01*
X148369507Y-88501438D01*
X148321894Y-88407991D01*
X148196206Y-88234996D01*
X148045004Y-88083794D01*
X147872009Y-87958106D01*
X147872005Y-87958103D01*
X147868132Y-87955730D01*
X147821254Y-87903920D01*
X147809829Y-87834991D01*
X147837483Y-87770827D01*
X147868132Y-87744270D01*
X147872005Y-87741896D01*
X147872004Y-87741896D01*
X147872009Y-87741894D01*
X148045004Y-87616206D01*
X148196206Y-87465004D01*
X148321894Y-87292009D01*
X148418972Y-87101483D01*
X148485049Y-86898116D01*
X148518500Y-86686916D01*
X148518500Y-86473084D01*
X148485049Y-86261884D01*
X148481300Y-86250348D01*
X148479306Y-86180509D01*
X148511548Y-86124355D01*
X148654820Y-85981083D01*
X148716143Y-85947600D01*
X148785834Y-85952585D01*
G37*
%TD.AperFunction*%
%TA.AperFunction,Conductor*%
G36*
X158386868Y-73988815D02*
G01*
X158432623Y-74041619D01*
X158443829Y-74093130D01*
X158443829Y-125792500D01*
X158424144Y-125859539D01*
X158371340Y-125905294D01*
X158319829Y-125916500D01*
X115400126Y-125916500D01*
X115333087Y-125896815D01*
X115287332Y-125844011D01*
X115276126Y-125792500D01*
X115276126Y-78746433D01*
X115966500Y-78746433D01*
X115966500Y-119662398D01*
X115990843Y-119784777D01*
X115990845Y-119784785D01*
X116038598Y-119900072D01*
X116038603Y-119900081D01*
X116107928Y-120003832D01*
X116107931Y-120003836D01*
X119457929Y-123353833D01*
X119546164Y-123442068D01*
X119546168Y-123442072D01*
X119649918Y-123511396D01*
X119649924Y-123511399D01*
X119649925Y-123511400D01*
X119765215Y-123559155D01*
X119887601Y-123583499D01*
X119887605Y-123583500D01*
X119887606Y-123583500D01*
X123705366Y-123583500D01*
X123705367Y-123583499D01*
X123827756Y-123559155D01*
X123943046Y-123511400D01*
X124046804Y-123442071D01*
X126627071Y-120861804D01*
X126696400Y-120758046D01*
X126744155Y-120642756D01*
X126768500Y-120520365D01*
X126768500Y-120395577D01*
X126768500Y-102052606D01*
X126756459Y-101992071D01*
X126744157Y-101930222D01*
X126744154Y-101930213D01*
X126729567Y-101894996D01*
X126696401Y-101814925D01*
X126696399Y-101814923D01*
X126696399Y-101814921D01*
X126627072Y-101711167D01*
X126627069Y-101711163D01*
X124070842Y-99154938D01*
X124037357Y-99093615D01*
X124036050Y-99047859D01*
X124049668Y-98961883D01*
X124068500Y-98842981D01*
X124068500Y-98637019D01*
X124057567Y-98567990D01*
X124036280Y-98433591D01*
X123974611Y-98243796D01*
X123972634Y-98237710D01*
X123972632Y-98237707D01*
X123972632Y-98237705D01*
X123911692Y-98118106D01*
X123879129Y-98054197D01*
X123789496Y-97930827D01*
X123758073Y-97887576D01*
X123758069Y-97887571D01*
X123612428Y-97741930D01*
X123612423Y-97741926D01*
X123445806Y-97620873D01*
X123445805Y-97620872D01*
X123445803Y-97620871D01*
X123366540Y-97580484D01*
X123315745Y-97532510D01*
X123298950Y-97464689D01*
X123321487Y-97398554D01*
X123366541Y-97359515D01*
X123445803Y-97319129D01*
X123612430Y-97198068D01*
X123758068Y-97052430D01*
X123879129Y-96885803D01*
X123972634Y-96702290D01*
X124036280Y-96506408D01*
X124068500Y-96302981D01*
X124068500Y-96097019D01*
X124036280Y-95893592D01*
X124023739Y-95854996D01*
X123974611Y-95703796D01*
X123972634Y-95697710D01*
X123972632Y-95697707D01*
X123972632Y-95697705D01*
X123938709Y-95631128D01*
X123879129Y-95514197D01*
X123789496Y-95390827D01*
X123758073Y-95347576D01*
X123758069Y-95347571D01*
X123612428Y-95201930D01*
X123612423Y-95201926D01*
X123445806Y-95080873D01*
X123445805Y-95080872D01*
X123445803Y-95080871D01*
X123366540Y-95040484D01*
X123315745Y-94992510D01*
X123298950Y-94924689D01*
X123321487Y-94858554D01*
X123366541Y-94819515D01*
X123445803Y-94779129D01*
X123612430Y-94658068D01*
X123758068Y-94512430D01*
X123879129Y-94345803D01*
X123972634Y-94162290D01*
X124036280Y-93966408D01*
X124068500Y-93762981D01*
X124068500Y-93557019D01*
X124036280Y-93353592D01*
X124023739Y-93314996D01*
X123974611Y-93163796D01*
X123972634Y-93157710D01*
X123972632Y-93157707D01*
X123972632Y-93157705D01*
X123938709Y-93091128D01*
X123879129Y-92974197D01*
X123789496Y-92850827D01*
X123758073Y-92807576D01*
X123758069Y-92807571D01*
X123612428Y-92661930D01*
X123612423Y-92661926D01*
X123445806Y-92540873D01*
X123445805Y-92540872D01*
X123445803Y-92540871D01*
X123366541Y-92500485D01*
X123357180Y-92495715D01*
X123306384Y-92447740D01*
X123289589Y-92379919D01*
X123312127Y-92313784D01*
X123357181Y-92274745D01*
X123441347Y-92231861D01*
X123606894Y-92111582D01*
X123606895Y-92111582D01*
X123751582Y-91966895D01*
X123751582Y-91966894D01*
X123871859Y-91801349D01*
X123964755Y-91619029D01*
X124027990Y-91424413D01*
X124036609Y-91370000D01*
X123193012Y-91370000D01*
X123225925Y-91312993D01*
X123260000Y-91185826D01*
X123260000Y-91054174D01*
X123225925Y-90927007D01*
X123193012Y-90870000D01*
X124036609Y-90870000D01*
X124027990Y-90815586D01*
X123964755Y-90620970D01*
X123871859Y-90438650D01*
X123751582Y-90273105D01*
X123751582Y-90273104D01*
X123606895Y-90128417D01*
X123441349Y-90008140D01*
X123357180Y-89965254D01*
X123306384Y-89917280D01*
X123289589Y-89849459D01*
X123312126Y-89783324D01*
X123357179Y-89744284D01*
X123445803Y-89699129D01*
X123612430Y-89578068D01*
X123758068Y-89432430D01*
X123879129Y-89265803D01*
X123972634Y-89082290D01*
X124036280Y-88886408D01*
X124068500Y-88682981D01*
X124068500Y-88477019D01*
X124036280Y-88273592D01*
X124023739Y-88234996D01*
X123974611Y-88083796D01*
X123972634Y-88077710D01*
X123972632Y-88077707D01*
X123972632Y-88077705D01*
X123938709Y-88011128D01*
X123879129Y-87894197D01*
X123789496Y-87770827D01*
X123758073Y-87727576D01*
X123758069Y-87727571D01*
X123612428Y-87581930D01*
X123612423Y-87581926D01*
X123445806Y-87460873D01*
X123445805Y-87460872D01*
X123445803Y-87460871D01*
X123366540Y-87420484D01*
X123315745Y-87372510D01*
X123298950Y-87304689D01*
X123321487Y-87238554D01*
X123366541Y-87199515D01*
X123445803Y-87159129D01*
X123612430Y-87038068D01*
X123758068Y-86892430D01*
X123879129Y-86725803D01*
X123972634Y-86542290D01*
X124036280Y-86346408D01*
X124068500Y-86142981D01*
X124068500Y-85937019D01*
X124064854Y-85914000D01*
X124036280Y-85733591D01*
X124005838Y-85639901D01*
X123972634Y-85537710D01*
X123972632Y-85537707D01*
X123972632Y-85537705D01*
X123911692Y-85418106D01*
X123879129Y-85354197D01*
X123786051Y-85226085D01*
X123758073Y-85187576D01*
X123758069Y-85187571D01*
X123612426Y-85041928D01*
X123592477Y-85027435D01*
X123549810Y-84972106D01*
X123543830Y-84902492D01*
X123576436Y-84840697D01*
X123637274Y-84806339D01*
X123652092Y-84803828D01*
X123669201Y-84801989D01*
X123669206Y-84801987D01*
X123669207Y-84801987D01*
X123695535Y-84792166D01*
X123806204Y-84750889D01*
X123923261Y-84663261D01*
X124010889Y-84546204D01*
X124061989Y-84409201D01*
X124065591Y-84375692D01*
X124068499Y-84348654D01*
X124068500Y-84348637D01*
X124068500Y-82651362D01*
X124068499Y-82651345D01*
X124064286Y-82612164D01*
X124061989Y-82590799D01*
X124060365Y-82586446D01*
X124028841Y-82501926D01*
X124010889Y-82453796D01*
X123923261Y-82336739D01*
X123806204Y-82249111D01*
X123669203Y-82198011D01*
X123608654Y-82191500D01*
X123608638Y-82191500D01*
X121911362Y-82191500D01*
X121911345Y-82191500D01*
X121850797Y-82198011D01*
X121850795Y-82198011D01*
X121713795Y-82249111D01*
X121596739Y-82336739D01*
X121509111Y-82453795D01*
X121458011Y-82590795D01*
X121458011Y-82590797D01*
X121451500Y-82651345D01*
X121451500Y-84348654D01*
X121458011Y-84409202D01*
X121458011Y-84409204D01*
X121494835Y-84507929D01*
X121509111Y-84546204D01*
X121596739Y-84663261D01*
X121713796Y-84750889D01*
X121763584Y-84769459D01*
X121850795Y-84801988D01*
X121850798Y-84801989D01*
X121867893Y-84803827D01*
X121932444Y-84830565D01*
X121972293Y-84887957D01*
X121974786Y-84957782D01*
X121939134Y-85017871D01*
X121927524Y-85027434D01*
X121907571Y-85041930D01*
X121761930Y-85187571D01*
X121761926Y-85187576D01*
X121640873Y-85354193D01*
X121547367Y-85537705D01*
X121483719Y-85733591D01*
X121451500Y-85937019D01*
X121451500Y-86142980D01*
X121483719Y-86346408D01*
X121547367Y-86542294D01*
X121592564Y-86630996D01*
X121621056Y-86686915D01*
X121640873Y-86725806D01*
X121761926Y-86892423D01*
X121761930Y-86892428D01*
X121907571Y-87038069D01*
X121907576Y-87038073D01*
X122074195Y-87159128D01*
X122153459Y-87199516D01*
X122204254Y-87247490D01*
X122221049Y-87315311D01*
X122198511Y-87381446D01*
X122153459Y-87420484D01*
X122074195Y-87460871D01*
X121907576Y-87581926D01*
X121907571Y-87581930D01*
X121761930Y-87727571D01*
X121761926Y-87727576D01*
X121640873Y-87894193D01*
X121547367Y-88077705D01*
X121483719Y-88273591D01*
X121451500Y-88477019D01*
X121451500Y-88682980D01*
X121483719Y-88886408D01*
X121547367Y-89082294D01*
X121593545Y-89172921D01*
X121639848Y-89263796D01*
X121640873Y-89265806D01*
X121761926Y-89432423D01*
X121761930Y-89432428D01*
X121907571Y-89578069D01*
X121907576Y-89578073D01*
X122031863Y-89668372D01*
X122074197Y-89699129D01*
X122162819Y-89744284D01*
X122213615Y-89792259D01*
X122230410Y-89860080D01*
X122207873Y-89926214D01*
X122162819Y-89965254D01*
X122078650Y-90008140D01*
X121913105Y-90128417D01*
X121913104Y-90128417D01*
X121768417Y-90273104D01*
X121768417Y-90273105D01*
X121648140Y-90438650D01*
X121555244Y-90620970D01*
X121492009Y-90815586D01*
X121483391Y-90870000D01*
X122326988Y-90870000D01*
X122294075Y-90927007D01*
X122260000Y-91054174D01*
X122260000Y-91185826D01*
X122294075Y-91312993D01*
X122326988Y-91370000D01*
X121483391Y-91370000D01*
X121492009Y-91424413D01*
X121555244Y-91619029D01*
X121648140Y-91801349D01*
X121768417Y-91966894D01*
X121768417Y-91966895D01*
X121913104Y-92111582D01*
X122078652Y-92231861D01*
X122162818Y-92274745D01*
X122213614Y-92322719D01*
X122230410Y-92390540D01*
X122207873Y-92456675D01*
X122162820Y-92495714D01*
X122074195Y-92540871D01*
X121907576Y-92661926D01*
X121907571Y-92661930D01*
X121761930Y-92807571D01*
X121761926Y-92807576D01*
X121640873Y-92974193D01*
X121547367Y-93157705D01*
X121483719Y-93353591D01*
X121451500Y-93557019D01*
X121451500Y-93762980D01*
X121483719Y-93966408D01*
X121547367Y-94162294D01*
X121611671Y-94288496D01*
X121621056Y-94306915D01*
X121640873Y-94345806D01*
X121761926Y-94512423D01*
X121761930Y-94512428D01*
X121907571Y-94658069D01*
X121907576Y-94658073D01*
X122074195Y-94779128D01*
X122153459Y-94819516D01*
X122204254Y-94867490D01*
X122221049Y-94935311D01*
X122198511Y-95001446D01*
X122153459Y-95040484D01*
X122074195Y-95080871D01*
X121907576Y-95201926D01*
X121907571Y-95201930D01*
X121761930Y-95347571D01*
X121761926Y-95347576D01*
X121640873Y-95514193D01*
X121547367Y-95697705D01*
X121483719Y-95893591D01*
X121451500Y-96097019D01*
X121451500Y-96302980D01*
X121483719Y-96506408D01*
X121547367Y-96702294D01*
X121609072Y-96823395D01*
X121621056Y-96846915D01*
X121640873Y-96885806D01*
X121761926Y-97052423D01*
X121761930Y-97052428D01*
X121907571Y-97198069D01*
X121907576Y-97198073D01*
X122074195Y-97319128D01*
X122153459Y-97359516D01*
X122204254Y-97407490D01*
X122221049Y-97475311D01*
X122198511Y-97541446D01*
X122153459Y-97580484D01*
X122074195Y-97620871D01*
X121907576Y-97741926D01*
X121907571Y-97741930D01*
X121761930Y-97887571D01*
X121761926Y-97887576D01*
X121640873Y-98054193D01*
X121547367Y-98237705D01*
X121483719Y-98433591D01*
X121451500Y-98637019D01*
X121451500Y-98842980D01*
X121483719Y-99046408D01*
X121547367Y-99242294D01*
X121611671Y-99368496D01*
X121621056Y-99386915D01*
X121640873Y-99425806D01*
X121761926Y-99592423D01*
X121761930Y-99592428D01*
X121907571Y-99738069D01*
X121907576Y-99738073D01*
X122074195Y-99859128D01*
X122153459Y-99899516D01*
X122204254Y-99947490D01*
X122221049Y-100015311D01*
X122198511Y-100081446D01*
X122153459Y-100120484D01*
X122074195Y-100160871D01*
X121907576Y-100281926D01*
X121907571Y-100281930D01*
X121761930Y-100427571D01*
X121761926Y-100427576D01*
X121640873Y-100594193D01*
X121547367Y-100777705D01*
X121483719Y-100973591D01*
X121451500Y-101177019D01*
X121451500Y-101382980D01*
X121483719Y-101586408D01*
X121547367Y-101782294D01*
X121563994Y-101814925D01*
X121622741Y-101930222D01*
X121640873Y-101965806D01*
X121761926Y-102132423D01*
X121761930Y-102132428D01*
X121907571Y-102278069D01*
X121907576Y-102278073D01*
X122074195Y-102399128D01*
X122153459Y-102439516D01*
X122204254Y-102487490D01*
X122221049Y-102555311D01*
X122198511Y-102621446D01*
X122153459Y-102660484D01*
X122074195Y-102700871D01*
X121907576Y-102821926D01*
X121907571Y-102821930D01*
X121761930Y-102967571D01*
X121761926Y-102967576D01*
X121640873Y-103134193D01*
X121547367Y-103317705D01*
X121483719Y-103513591D01*
X121458793Y-103670972D01*
X121451500Y-103717019D01*
X121451500Y-103922981D01*
X121455905Y-103950794D01*
X121483719Y-104126408D01*
X121547367Y-104322294D01*
X121640873Y-104505806D01*
X121761926Y-104672423D01*
X121761930Y-104672428D01*
X121907571Y-104818069D01*
X121907576Y-104818073D01*
X122074195Y-104939128D01*
X122153459Y-104979516D01*
X122204254Y-105027490D01*
X122221049Y-105095311D01*
X122198511Y-105161446D01*
X122153459Y-105200484D01*
X122074195Y-105240871D01*
X121907576Y-105361926D01*
X121907571Y-105361930D01*
X121761930Y-105507571D01*
X121761926Y-105507576D01*
X121640873Y-105674193D01*
X121547367Y-105857705D01*
X121483719Y-106053591D01*
X121451500Y-106257019D01*
X121451500Y-106462980D01*
X121483719Y-106666408D01*
X121547367Y-106862294D01*
X121597099Y-106959897D01*
X121620709Y-107006234D01*
X121640873Y-107045806D01*
X121761926Y-107212423D01*
X121761930Y-107212428D01*
X121907571Y-107358069D01*
X121907576Y-107358073D01*
X122074195Y-107479128D01*
X122153459Y-107519516D01*
X122204254Y-107567490D01*
X122221049Y-107635311D01*
X122198511Y-107701446D01*
X122153459Y-107740484D01*
X122074195Y-107780871D01*
X121907576Y-107901926D01*
X121907571Y-107901930D01*
X121761930Y-108047571D01*
X121761926Y-108047576D01*
X121640873Y-108214193D01*
X121547367Y-108397705D01*
X121483719Y-108593591D01*
X121451500Y-108797019D01*
X121451500Y-109002980D01*
X121483719Y-109206408D01*
X121547367Y-109402294D01*
X121588013Y-109482064D01*
X121634173Y-109572658D01*
X121640873Y-109585806D01*
X121761926Y-109752423D01*
X121761930Y-109752428D01*
X121907571Y-109898069D01*
X121907576Y-109898073D01*
X122074195Y-110019128D01*
X122153459Y-110059516D01*
X122204254Y-110107490D01*
X122221049Y-110175311D01*
X122198511Y-110241446D01*
X122153459Y-110280484D01*
X122074195Y-110320871D01*
X121907576Y-110441926D01*
X121907571Y-110441930D01*
X121761930Y-110587571D01*
X121761926Y-110587576D01*
X121640873Y-110754193D01*
X121547367Y-110937705D01*
X121483719Y-111133591D01*
X121451500Y-111337019D01*
X121451500Y-111476233D01*
X121431815Y-111543272D01*
X121379011Y-111589027D01*
X121309853Y-111598971D01*
X121246297Y-111569946D01*
X121239819Y-111563914D01*
X121169819Y-111493914D01*
X121136334Y-111432591D01*
X121133500Y-111406233D01*
X121133500Y-80313766D01*
X121153185Y-80246727D01*
X121169819Y-80226085D01*
X122226085Y-79169819D01*
X122287408Y-79136334D01*
X122313766Y-79133500D01*
X138686234Y-79133500D01*
X138753273Y-79153185D01*
X138773915Y-79169819D01*
X139330181Y-79726085D01*
X139363666Y-79787408D01*
X139366500Y-79813766D01*
X139366500Y-82783192D01*
X139346815Y-82850231D01*
X139294011Y-82895986D01*
X139224853Y-82905930D01*
X139161297Y-82876905D01*
X139132016Y-82839488D01*
X139119128Y-82814195D01*
X138998073Y-82647576D01*
X138998069Y-82647571D01*
X138852428Y-82501930D01*
X138852423Y-82501926D01*
X138685806Y-82380873D01*
X138685805Y-82380872D01*
X138685803Y-82380871D01*
X138628496Y-82351671D01*
X138502294Y-82287367D01*
X138306408Y-82223719D01*
X138130794Y-82195905D01*
X138102981Y-82191500D01*
X137897019Y-82191500D01*
X137872550Y-82195375D01*
X137693591Y-82223719D01*
X137497705Y-82287367D01*
X137314193Y-82380873D01*
X137147576Y-82501926D01*
X137147571Y-82501930D01*
X137001930Y-82647571D01*
X137001926Y-82647576D01*
X136880873Y-82814193D01*
X136787367Y-82997705D01*
X136723719Y-83193591D01*
X136691500Y-83397019D01*
X136691500Y-83602980D01*
X136723719Y-83806408D01*
X136787367Y-84002294D01*
X136880873Y-84185806D01*
X137001926Y-84352423D01*
X137001930Y-84352428D01*
X137147571Y-84498069D01*
X137147576Y-84498073D01*
X137282592Y-84596167D01*
X137314197Y-84619129D01*
X137402819Y-84664284D01*
X137453615Y-84712259D01*
X137470410Y-84780080D01*
X137447873Y-84846214D01*
X137402819Y-84885254D01*
X137318650Y-84928140D01*
X137153105Y-85048417D01*
X137153104Y-85048417D01*
X137008417Y-85193104D01*
X137008417Y-85193105D01*
X136888140Y-85358650D01*
X136795244Y-85540970D01*
X136732009Y-85735586D01*
X136723391Y-85790000D01*
X137566988Y-85790000D01*
X137534075Y-85847007D01*
X137500000Y-85974174D01*
X137500000Y-86105826D01*
X137534075Y-86232993D01*
X137566988Y-86290000D01*
X136723391Y-86290000D01*
X136732009Y-86344413D01*
X136795244Y-86539029D01*
X136888140Y-86721349D01*
X137008417Y-86886894D01*
X137008417Y-86886895D01*
X137153104Y-87031582D01*
X137318652Y-87151861D01*
X137402818Y-87194745D01*
X137453614Y-87242719D01*
X137470410Y-87310540D01*
X137447873Y-87376675D01*
X137402820Y-87415714D01*
X137314195Y-87460871D01*
X137147576Y-87581926D01*
X137147571Y-87581930D01*
X137001930Y-87727571D01*
X137001926Y-87727576D01*
X136880873Y-87894193D01*
X136787367Y-88077705D01*
X136723719Y-88273591D01*
X136691500Y-88477019D01*
X136691500Y-88682980D01*
X136723719Y-88886408D01*
X136787367Y-89082294D01*
X136833545Y-89172921D01*
X136879848Y-89263796D01*
X136880873Y-89265806D01*
X137001926Y-89432423D01*
X137001930Y-89432428D01*
X137147571Y-89578069D01*
X137147576Y-89578073D01*
X137314195Y-89699128D01*
X137393459Y-89739516D01*
X137444254Y-89787490D01*
X137461049Y-89855311D01*
X137438511Y-89921446D01*
X137393459Y-89960484D01*
X137314195Y-90000871D01*
X137147576Y-90121926D01*
X137147571Y-90121930D01*
X137001930Y-90267571D01*
X137001926Y-90267576D01*
X136880873Y-90434193D01*
X136787367Y-90617705D01*
X136723719Y-90813591D01*
X136691500Y-91017019D01*
X136691500Y-91222980D01*
X136723719Y-91426408D01*
X136787367Y-91622294D01*
X136851671Y-91748496D01*
X136861056Y-91766915D01*
X136880873Y-91805806D01*
X137001926Y-91972423D01*
X137001930Y-91972428D01*
X137147571Y-92118069D01*
X137147576Y-92118073D01*
X137314195Y-92239128D01*
X137393459Y-92279516D01*
X137444254Y-92327490D01*
X137461049Y-92395311D01*
X137438511Y-92461446D01*
X137393459Y-92500484D01*
X137314195Y-92540871D01*
X137147576Y-92661926D01*
X137147571Y-92661930D01*
X137001930Y-92807571D01*
X137001926Y-92807576D01*
X136880873Y-92974193D01*
X136787367Y-93157705D01*
X136723719Y-93353591D01*
X136691500Y-93557019D01*
X136691500Y-93762980D01*
X136723719Y-93966408D01*
X136787367Y-94162294D01*
X136851671Y-94288496D01*
X136861056Y-94306915D01*
X136880873Y-94345806D01*
X137001926Y-94512423D01*
X137001930Y-94512428D01*
X137147571Y-94658069D01*
X137147576Y-94658073D01*
X137314195Y-94779128D01*
X137393459Y-94819516D01*
X137444254Y-94867490D01*
X137461049Y-94935311D01*
X137438511Y-95001446D01*
X137393459Y-95040484D01*
X137314195Y-95080871D01*
X137147576Y-95201926D01*
X137147571Y-95201930D01*
X137001930Y-95347571D01*
X137001926Y-95347576D01*
X136880873Y-95514193D01*
X136787367Y-95697705D01*
X136723719Y-95893591D01*
X136691500Y-96097019D01*
X136691500Y-96302980D01*
X136723719Y-96506408D01*
X136787367Y-96702294D01*
X136849072Y-96823395D01*
X136861056Y-96846915D01*
X136880873Y-96885806D01*
X137001926Y-97052423D01*
X137001930Y-97052428D01*
X137013622Y-97064120D01*
X137047107Y-97125443D01*
X137042123Y-97195135D01*
X137013622Y-97239482D01*
X136258114Y-97994991D01*
X135571167Y-98681938D01*
X135527047Y-98726058D01*
X135482927Y-98770177D01*
X135413603Y-98873927D01*
X135413598Y-98873936D01*
X135365845Y-98989223D01*
X135365843Y-98989231D01*
X135341500Y-99111610D01*
X135341500Y-120446586D01*
X135365843Y-120568965D01*
X135365845Y-120568973D01*
X135413598Y-120684260D01*
X135413603Y-120684269D01*
X135482928Y-120788020D01*
X135482931Y-120788024D01*
X139448741Y-124753833D01*
X139536976Y-124842068D01*
X139536980Y-124842072D01*
X139640730Y-124911396D01*
X139640736Y-124911399D01*
X139640737Y-124911400D01*
X139756027Y-124959155D01*
X139878413Y-124983499D01*
X139878417Y-124983500D01*
X139878418Y-124983500D01*
X155754096Y-124983500D01*
X155754097Y-124983499D01*
X155876486Y-124959155D01*
X155991776Y-124911400D01*
X156095534Y-124842071D01*
X157547071Y-123390534D01*
X157616400Y-123286776D01*
X157664155Y-123171486D01*
X157688500Y-123049095D01*
X157688500Y-122924307D01*
X157688500Y-118532606D01*
X157664155Y-118410215D01*
X157616400Y-118294925D01*
X157616399Y-118294924D01*
X157616396Y-118294918D01*
X157547072Y-118191168D01*
X157503972Y-118148068D01*
X157458833Y-118102929D01*
X157274819Y-117918915D01*
X157241334Y-117857592D01*
X157238500Y-117831234D01*
X157238500Y-116521362D01*
X157238499Y-116521345D01*
X157232354Y-116464197D01*
X157231989Y-116460799D01*
X157180889Y-116323796D01*
X157093261Y-116206739D01*
X156976204Y-116119111D01*
X156839203Y-116068011D01*
X156778654Y-116061500D01*
X156778638Y-116061500D01*
X155157500Y-116061500D01*
X155090461Y-116041815D01*
X155044706Y-115989011D01*
X155033500Y-115937500D01*
X155033500Y-113523765D01*
X155053185Y-113456726D01*
X155069815Y-113436088D01*
X155664353Y-112841549D01*
X155725674Y-112808066D01*
X155790348Y-112811300D01*
X155801884Y-112815049D01*
X156013084Y-112848500D01*
X156013085Y-112848500D01*
X156226915Y-112848500D01*
X156226916Y-112848500D01*
X156438116Y-112815049D01*
X156641483Y-112748972D01*
X156832009Y-112651894D01*
X157005004Y-112526206D01*
X157156206Y-112375004D01*
X157281894Y-112202009D01*
X157378972Y-112011483D01*
X157445049Y-111808116D01*
X157478500Y-111596916D01*
X157478500Y-111383084D01*
X157445049Y-111171884D01*
X157378972Y-110968517D01*
X157378972Y-110968516D01*
X157281893Y-110777990D01*
X157156206Y-110604996D01*
X157005004Y-110453794D01*
X156832009Y-110328106D01*
X156832005Y-110328103D01*
X156828132Y-110325730D01*
X156781254Y-110273920D01*
X156769829Y-110204991D01*
X156797483Y-110140827D01*
X156828132Y-110114270D01*
X156832005Y-110111896D01*
X156832004Y-110111896D01*
X156832009Y-110111894D01*
X157005004Y-109986206D01*
X157156206Y-109835004D01*
X157281894Y-109662009D01*
X157378972Y-109471483D01*
X157445049Y-109268116D01*
X157478500Y-109056916D01*
X157478500Y-108843084D01*
X157445049Y-108631884D01*
X157407198Y-108515389D01*
X157378973Y-108428519D01*
X157378972Y-108428516D01*
X157281893Y-108237990D01*
X157156206Y-108064996D01*
X157005004Y-107913794D01*
X156832009Y-107788106D01*
X156832005Y-107788103D01*
X156828132Y-107785730D01*
X156781254Y-107733920D01*
X156769829Y-107664991D01*
X156797483Y-107600827D01*
X156828132Y-107574270D01*
X156832005Y-107571896D01*
X156832004Y-107571896D01*
X156832009Y-107571894D01*
X157005004Y-107446206D01*
X157156206Y-107295004D01*
X157281894Y-107122009D01*
X157378972Y-106931483D01*
X157445049Y-106728116D01*
X157478500Y-106516916D01*
X157478500Y-106303084D01*
X157445049Y-106091884D01*
X157378972Y-105888517D01*
X157378972Y-105888516D01*
X157281893Y-105697990D01*
X157156206Y-105524996D01*
X157044421Y-105413211D01*
X157010936Y-105351888D01*
X157015920Y-105282196D01*
X157057792Y-105226263D01*
X157088770Y-105209348D01*
X157212084Y-105163355D01*
X157212093Y-105163350D01*
X157327187Y-105077190D01*
X157327190Y-105077187D01*
X157413350Y-104962093D01*
X157413354Y-104962086D01*
X157463596Y-104827379D01*
X157463598Y-104827372D01*
X157469999Y-104767844D01*
X157470000Y-104767827D01*
X157470000Y-104120000D01*
X156553012Y-104120000D01*
X156585925Y-104062993D01*
X156620000Y-103935826D01*
X156620000Y-103804174D01*
X156585925Y-103677007D01*
X156553012Y-103620000D01*
X157470000Y-103620000D01*
X157470000Y-102972172D01*
X157469999Y-102972155D01*
X157463598Y-102912627D01*
X157463596Y-102912620D01*
X157413354Y-102777913D01*
X157413350Y-102777906D01*
X157327190Y-102662812D01*
X157327187Y-102662809D01*
X157212093Y-102576649D01*
X157212086Y-102576645D01*
X157077379Y-102526403D01*
X157077372Y-102526401D01*
X157017844Y-102520000D01*
X156370000Y-102520000D01*
X156370000Y-103436988D01*
X156312993Y-103404075D01*
X156185826Y-103370000D01*
X156054174Y-103370000D01*
X155927007Y-103404075D01*
X155870000Y-103436988D01*
X155870000Y-102520000D01*
X155222155Y-102520000D01*
X155162627Y-102526401D01*
X155162620Y-102526403D01*
X155027913Y-102576645D01*
X155027906Y-102576649D01*
X154912812Y-102662809D01*
X154912809Y-102662812D01*
X154826649Y-102777906D01*
X154826645Y-102777913D01*
X154776403Y-102912620D01*
X154776401Y-102912627D01*
X154770000Y-102972155D01*
X154770000Y-103620000D01*
X155686988Y-103620000D01*
X155654075Y-103677007D01*
X155620000Y-103804174D01*
X155620000Y-103935826D01*
X155654075Y-104062993D01*
X155686988Y-104120000D01*
X154770000Y-104120000D01*
X154770000Y-104767844D01*
X154776401Y-104827372D01*
X154776403Y-104827379D01*
X154826645Y-104962086D01*
X154826649Y-104962093D01*
X154912809Y-105077187D01*
X154912812Y-105077190D01*
X155027906Y-105163350D01*
X155027913Y-105163354D01*
X155151230Y-105209348D01*
X155207164Y-105251219D01*
X155231581Y-105316683D01*
X155216730Y-105384956D01*
X155195579Y-105413211D01*
X155083793Y-105524997D01*
X154958106Y-105697990D01*
X154861027Y-105888516D01*
X154861026Y-105888519D01*
X154794951Y-106091882D01*
X154761500Y-106303084D01*
X154761500Y-106516915D01*
X154794951Y-106728117D01*
X154861026Y-106931480D01*
X154861027Y-106931483D01*
X154943791Y-107093915D01*
X154958106Y-107122009D01*
X155083794Y-107295004D01*
X155234996Y-107446206D01*
X155372998Y-107546470D01*
X155407991Y-107571894D01*
X155411873Y-107574273D01*
X155458748Y-107626086D01*
X155470169Y-107695016D01*
X155442512Y-107759178D01*
X155411873Y-107785727D01*
X155407991Y-107788105D01*
X155234993Y-107913796D01*
X155083796Y-108064993D01*
X154958106Y-108237990D01*
X154861027Y-108428516D01*
X154861026Y-108428519D01*
X154794951Y-108631882D01*
X154781552Y-108716482D01*
X154761500Y-108843084D01*
X154761500Y-109056916D01*
X154764144Y-109073607D01*
X154794951Y-109268119D01*
X154794951Y-109268120D01*
X154798698Y-109279652D01*
X154800691Y-109349493D01*
X154768447Y-109405647D01*
X154345181Y-109828914D01*
X154283858Y-109862399D01*
X154214167Y-109857415D01*
X154158233Y-109815544D01*
X154133816Y-109750079D01*
X154133500Y-109741233D01*
X154133500Y-104937605D01*
X154133499Y-104937601D01*
X154129249Y-104916233D01*
X154109155Y-104815215D01*
X154061400Y-104699925D01*
X154061399Y-104699924D01*
X154061396Y-104699918D01*
X153992072Y-104596168D01*
X153992071Y-104596167D01*
X153903833Y-104507929D01*
X150669819Y-101273915D01*
X150636334Y-101212592D01*
X150633500Y-101186234D01*
X150633500Y-92313766D01*
X150653185Y-92246727D01*
X150669819Y-92226085D01*
X151041085Y-91854819D01*
X151102408Y-91821334D01*
X151128766Y-91818500D01*
X152868638Y-91818500D01*
X152868654Y-91818499D01*
X152895692Y-91815591D01*
X152929201Y-91811989D01*
X153066204Y-91760889D01*
X153183261Y-91673261D01*
X153270889Y-91556204D01*
X153307177Y-91458915D01*
X153321988Y-91419204D01*
X153321988Y-91419203D01*
X153321989Y-91419201D01*
X153327146Y-91371234D01*
X153328499Y-91358654D01*
X153328500Y-91358637D01*
X153328500Y-91239308D01*
X153348185Y-91172269D01*
X153364819Y-91151627D01*
X154017861Y-90498584D01*
X154040667Y-90583694D01*
X154099910Y-90686306D01*
X154183694Y-90770090D01*
X154286306Y-90829333D01*
X154371414Y-90852137D01*
X153662485Y-91561065D01*
X153662485Y-91561066D01*
X153726243Y-91607388D01*
X153922589Y-91707432D01*
X154132164Y-91775526D01*
X154349819Y-91810000D01*
X154570181Y-91810000D01*
X154787835Y-91775526D01*
X154997410Y-91707432D01*
X155193760Y-91607386D01*
X155257513Y-91561066D01*
X155257514Y-91561066D01*
X154548585Y-90852138D01*
X154633694Y-90829333D01*
X154736306Y-90770090D01*
X154820090Y-90686306D01*
X154879333Y-90583694D01*
X154902137Y-90498585D01*
X155611066Y-91207514D01*
X155611066Y-91207513D01*
X155657386Y-91143760D01*
X155757432Y-90947410D01*
X155825526Y-90737835D01*
X155860000Y-90520181D01*
X155860000Y-90299818D01*
X155825526Y-90082164D01*
X155757432Y-89872589D01*
X155657388Y-89676243D01*
X155611066Y-89612485D01*
X155611065Y-89612485D01*
X154902137Y-90321413D01*
X154879333Y-90236306D01*
X154820090Y-90133694D01*
X154736306Y-90049910D01*
X154633694Y-89990667D01*
X154548583Y-89967861D01*
X155257513Y-89258932D01*
X155193756Y-89212611D01*
X154997410Y-89112567D01*
X154787835Y-89044473D01*
X154570181Y-89010000D01*
X154349819Y-89010000D01*
X154132164Y-89044473D01*
X153922589Y-89112567D01*
X153726233Y-89212616D01*
X153662485Y-89258931D01*
X153662485Y-89258932D01*
X154371414Y-89967861D01*
X154286306Y-89990667D01*
X154183694Y-90049910D01*
X154099910Y-90133694D01*
X154040667Y-90236306D01*
X154017861Y-90321414D01*
X153364819Y-89668372D01*
X153331334Y-89607049D01*
X153328500Y-89580691D01*
X153328500Y-89461362D01*
X153328499Y-89461345D01*
X153325157Y-89430270D01*
X153321989Y-89400799D01*
X153270889Y-89263796D01*
X153183261Y-89146739D01*
X153066204Y-89059111D01*
X152929203Y-89008011D01*
X152868654Y-89001500D01*
X152868638Y-89001500D01*
X150971362Y-89001500D01*
X150971345Y-89001500D01*
X150910797Y-89008011D01*
X150910795Y-89008011D01*
X150773795Y-89059111D01*
X150656739Y-89146739D01*
X150569111Y-89263795D01*
X150518011Y-89400795D01*
X150518011Y-89400797D01*
X150511500Y-89461345D01*
X150511500Y-90541233D01*
X150491815Y-90608272D01*
X150475181Y-90628914D01*
X150345181Y-90758914D01*
X150283858Y-90792399D01*
X150214166Y-90787415D01*
X150158233Y-90745543D01*
X150133816Y-90680079D01*
X150133500Y-90671233D01*
X150133500Y-85313766D01*
X150153185Y-85246727D01*
X150169819Y-85226085D01*
X151011085Y-84384819D01*
X151072408Y-84351334D01*
X151098766Y-84348500D01*
X152868638Y-84348500D01*
X152868654Y-84348499D01*
X152895692Y-84345591D01*
X152929201Y-84341989D01*
X153066204Y-84290889D01*
X153183261Y-84203261D01*
X153270889Y-84086204D01*
X153321989Y-83949201D01*
X153325591Y-83915692D01*
X153328499Y-83888654D01*
X153328500Y-83888637D01*
X153328500Y-83769308D01*
X153348185Y-83702269D01*
X153364819Y-83681627D01*
X154017861Y-83028584D01*
X154040667Y-83113694D01*
X154099910Y-83216306D01*
X154183694Y-83300090D01*
X154286306Y-83359333D01*
X154371414Y-83382137D01*
X153662485Y-84091065D01*
X153662485Y-84091066D01*
X153726243Y-84137388D01*
X153922589Y-84237432D01*
X154132164Y-84305526D01*
X154349819Y-84340000D01*
X154570181Y-84340000D01*
X154787835Y-84305526D01*
X154997410Y-84237432D01*
X155193760Y-84137386D01*
X155257513Y-84091066D01*
X155257514Y-84091066D01*
X154548585Y-83382138D01*
X154633694Y-83359333D01*
X154736306Y-83300090D01*
X154820090Y-83216306D01*
X154879333Y-83113694D01*
X154902137Y-83028585D01*
X155611066Y-83737514D01*
X155611066Y-83737513D01*
X155657386Y-83673760D01*
X155757432Y-83477410D01*
X155825526Y-83267835D01*
X155860000Y-83050181D01*
X155860000Y-82829818D01*
X155825526Y-82612164D01*
X155757432Y-82402589D01*
X155657388Y-82206243D01*
X155611066Y-82142485D01*
X155611065Y-82142485D01*
X154902137Y-82851413D01*
X154879333Y-82766306D01*
X154820090Y-82663694D01*
X154736306Y-82579910D01*
X154633694Y-82520667D01*
X154548583Y-82497861D01*
X155257513Y-81788932D01*
X155193756Y-81742611D01*
X154997410Y-81642567D01*
X154787835Y-81574473D01*
X154570181Y-81540000D01*
X154349819Y-81540000D01*
X154132164Y-81574473D01*
X153922589Y-81642567D01*
X153726233Y-81742616D01*
X153662485Y-81788931D01*
X153662485Y-81788932D01*
X154371414Y-82497861D01*
X154286306Y-82520667D01*
X154183694Y-82579910D01*
X154099910Y-82663694D01*
X154040667Y-82766306D01*
X154017861Y-82851414D01*
X153364819Y-82198372D01*
X153331334Y-82137049D01*
X153328500Y-82110691D01*
X153328500Y-81991362D01*
X153328499Y-81991345D01*
X153325157Y-81960270D01*
X153321989Y-81930799D01*
X153270889Y-81793796D01*
X153183261Y-81676739D01*
X153066204Y-81589111D01*
X152929203Y-81538011D01*
X152868654Y-81531500D01*
X152868638Y-81531500D01*
X150971362Y-81531500D01*
X150971345Y-81531500D01*
X150910797Y-81538011D01*
X150910795Y-81538011D01*
X150773795Y-81589111D01*
X150656739Y-81676739D01*
X150569111Y-81793795D01*
X150518011Y-81930795D01*
X150518011Y-81930797D01*
X150511500Y-81991345D01*
X150511500Y-83041234D01*
X150491815Y-83108273D01*
X150475181Y-83128915D01*
X149180181Y-84423915D01*
X149118858Y-84457400D01*
X149049166Y-84452416D01*
X148993233Y-84410544D01*
X148968816Y-84345080D01*
X148968500Y-84336234D01*
X148968500Y-80262605D01*
X148968499Y-80262601D01*
X148965341Y-80246727D01*
X148944155Y-80140215D01*
X148916857Y-80074312D01*
X148916857Y-80074311D01*
X148896404Y-80024931D01*
X148896402Y-80024927D01*
X148896401Y-80024925D01*
X148873828Y-79991142D01*
X148827072Y-79921166D01*
X148827069Y-79921163D01*
X143313836Y-74407931D01*
X143313832Y-74407928D01*
X143210081Y-74338603D01*
X143210072Y-74338598D01*
X143094785Y-74290845D01*
X143094777Y-74290843D01*
X142972398Y-74266500D01*
X142972394Y-74266500D01*
X120571226Y-74266500D01*
X120446438Y-74266500D01*
X120446433Y-74266500D01*
X120324054Y-74290843D01*
X120324046Y-74290845D01*
X120208759Y-74338598D01*
X120208750Y-74338603D01*
X120104999Y-74407928D01*
X120104995Y-74407931D01*
X116620567Y-77892361D01*
X116196167Y-78316761D01*
X116152047Y-78360881D01*
X116107927Y-78405000D01*
X116038603Y-78508750D01*
X116038598Y-78508759D01*
X115990845Y-78624046D01*
X115990843Y-78624054D01*
X115966500Y-78746433D01*
X115276126Y-78746433D01*
X115276126Y-74093130D01*
X115295811Y-74026091D01*
X115348615Y-73980336D01*
X115400126Y-73969130D01*
X158319829Y-73969130D01*
X158386868Y-73988815D01*
G37*
%TD.AperFunction*%
%TD*%
M02*
