%TF.GenerationSoftware,KiCad,Pcbnew,10.0.0*%
%TF.CreationDate,2026-09-02T19:00:37+02:00*%
%TF.ProjectId,Zamek_RFID_Hardware,5a616d65-6b5f-4524-9649-445f48617264,rev?*%
%TF.SameCoordinates,Original*%
%TF.FileFunction,Copper,L1,Top*%
%TF.FilePolarity,Positive*%
%FSLAX46Y46*%
G04 Gerber Fmt 4.6, Leading zero omitted, Abs format (unit mm)*
G04 Created by KiCad (PCBNEW 10.0.0) date 2026-09-02 19:00:37*
%MOMM*%
%LPD*%
G01*
G04 APERTURE LIST*
%TA.AperFunction,ComponentPad*%
%ADD10R,1.700000X1.700000*%
%TD*%
%TA.AperFunction,ComponentPad*%
%ADD11C,1.700000*%
%TD*%
%TA.AperFunction,ComponentPad*%
%ADD12R,1.800000X1.800000*%
%TD*%
%TA.AperFunction,ComponentPad*%
%ADD13C,1.800000*%
%TD*%
%TA.AperFunction,ComponentPad*%
%ADD14C,1.600000*%
%TD*%
%TA.AperFunction,ComponentPad*%
%ADD15R,1.600000X1.600000*%
%TD*%
%TA.AperFunction,ComponentPad*%
%ADD16O,1.600000X1.600000*%
%TD*%
%TA.AperFunction,ComponentPad*%
%ADD17R,2.000000X2.000000*%
%TD*%
%TA.AperFunction,ComponentPad*%
%ADD18C,2.000000*%
%TD*%
%TA.AperFunction,ViaPad*%
%ADD19C,0.600000*%
%TD*%
%TA.AperFunction,Conductor*%
%ADD20C,0.250000*%
%TD*%
G04 APERTURE END LIST*
D10*
%TO.P,J3,1,Pin_1_1*%
%TO.N,GND*%
X156120000Y-103870000D03*
D11*
%TO.P,J3,2,Pin_2_2*%
%TO.N,+5V*%
X156120000Y-106410000D03*
%TO.P,J3,3,Pin_3_3*%
%TO.N,/I2C_SDA*%
X156120000Y-108950000D03*
%TO.P,J3,4,Pin_4_4*%
%TO.N,/I2C_SCL*%
X156120000Y-111490000D03*
%TD*%
D10*
%TO.P,J4,1,Pin_1_1*%
%TO.N,/PRZEKA\u0179NIK*%
X155880000Y-117420000D03*
D11*
%TO.P,J4,2,Pin_2_2*%
%TO.N,GND*%
X155880000Y-119960000D03*
%TO.P,J4,3,Pin_3_3*%
%TO.N,+5V*%
X155880000Y-122500000D03*
%TD*%
D12*
%TO.P,D1,1,K_1*%
%TO.N,Net-(D1-K)*%
X151920000Y-82940000D03*
D13*
%TO.P,D1,2,A_2*%
%TO.N,GND*%
X154460000Y-82940000D03*
%TD*%
D10*
%TO.P,J1,1,Pin_1_1*%
%TO.N,+3.3V*%
X142570000Y-81500000D03*
D11*
%TO.P,J1,2,Pin_2_2*%
X142570000Y-84040000D03*
%TO.P,J1,3,Pin_3_3*%
%TO.N,GND*%
X142570000Y-86580000D03*
%TO.P,J1,4,Pin_4_4*%
%TO.N,unconnected-(J1-Pin_4-Pad4)*%
X142570000Y-89120000D03*
%TO.P,J1,5,Pin_5_5*%
%TO.N,/RFID_MISO*%
X142570000Y-91660000D03*
%TO.P,J1,6,Pin_6_6*%
%TO.N,/RFID_MOSI*%
X142570000Y-94200000D03*
%TO.P,J1,7,Pin_7_7*%
%TO.N,/RFID_SCK*%
X142570000Y-96740000D03*
%TO.P,J1,8,Pin_8_8*%
%TO.N,/RFID_SDA*%
X142570000Y-99280000D03*
%TD*%
D14*
%TO.P,R1,1*%
%TO.N,Net-(D1-K)*%
X141850000Y-117150000D03*
%TO.P,R1,2*%
%TO.N,/LED_CZERWONA*%
X152010000Y-117150000D03*
%TD*%
D10*
%TO.P,J2,1,Pin_1_1*%
%TO.N,/KEY_C4*%
X147160000Y-81500000D03*
D11*
%TO.P,J2,2,Pin_2_2*%
%TO.N,/KEY_C3*%
X147160000Y-84040000D03*
%TO.P,J2,3,Pin_3_3*%
%TO.N,/KEY_C2*%
X147160000Y-86580000D03*
%TO.P,J2,4,Pin_4_4*%
%TO.N,/KEY_C1*%
X147160000Y-89120000D03*
%TO.P,J2,5,Pin_5_5*%
%TO.N,/KEY_R1*%
X147160000Y-91660000D03*
%TO.P,J2,6,Pin_6_6*%
%TO.N,/KEY_R2*%
X147160000Y-94200000D03*
%TO.P,J2,7,Pin_7_7*%
%TO.N,/KEY_R3*%
X147160000Y-96740000D03*
%TO.P,J2,8,Pin_8_8*%
%TO.N,/KEY_R4*%
X147160000Y-99280000D03*
%TD*%
D14*
%TO.P,R2,1*%
%TO.N,Net-(D2-K)*%
X141850000Y-121200000D03*
%TO.P,R2,2*%
%TO.N,/LED_ZIELONA*%
X152010000Y-121200000D03*
%TD*%
D15*
%TO.P,A1,1,D1/TX_1*%
%TO.N,unconnected-(A1-D1{slash}TX-Pad1)*%
X122760000Y-83500000D03*
D16*
%TO.P,A1,2,D0/RX_2*%
%TO.N,unconnected-(A1-D0{slash}RX-Pad2)*%
X122760000Y-86040000D03*
%TO.P,A1,3,~{RESET}_3*%
%TO.N,unconnected-(A1-~{RESET}-Pad3)*%
X122760000Y-88580000D03*
%TO.P,A1,4,GND_4*%
%TO.N,GND*%
X122760000Y-91120000D03*
%TO.P,A1,5,D2_5*%
%TO.N,/KEY_C4*%
X122760000Y-93660000D03*
%TO.P,A1,6,D3_6*%
%TO.N,/KEY_C3*%
X122760000Y-96200000D03*
%TO.P,A1,7,D4_7*%
%TO.N,/KEY_C2*%
X122760000Y-98740000D03*
%TO.P,A1,8,D5_8*%
%TO.N,/KEY_C1*%
X122760000Y-101280000D03*
%TO.P,A1,9,D6_9*%
%TO.N,/KEY_R1*%
X122760000Y-103820000D03*
%TO.P,A1,10,D7_10*%
%TO.N,/KEY_R2*%
X122760000Y-106360000D03*
%TO.P,A1,11,D8_11*%
%TO.N,/KEY_R3*%
X122760000Y-108900000D03*
%TO.P,A1,12,D9_12*%
%TO.N,/KEY_R4*%
X122760000Y-111440000D03*
%TO.P,A1,13,D10_13*%
%TO.N,/RFID_SDA*%
X122760000Y-113980000D03*
%TO.P,A1,14,D11_14*%
%TO.N,/RFID_MOSI*%
X122760000Y-116520000D03*
%TO.P,A1,15,D12_15*%
%TO.N,/RFID_MISO*%
X122760000Y-119060000D03*
%TO.P,A1,16,D13_16*%
%TO.N,/RFID_SCK*%
X138000000Y-119060000D03*
%TO.P,A1,17,3V3_17*%
%TO.N,+3.3V*%
X138000000Y-116520000D03*
%TO.P,A1,18,AREF_18*%
%TO.N,unconnected-(A1-AREF-Pad18)*%
X138000000Y-113980000D03*
%TO.P,A1,19,A0_19*%
%TO.N,/BUZZER*%
X138000000Y-111440000D03*
%TO.P,A1,20,A1_20*%
%TO.N,/LED_ZIELONA*%
X138000000Y-108900000D03*
%TO.P,A1,21,A2_21*%
%TO.N,/LED_CZERWONA*%
X138000000Y-106360000D03*
%TO.P,A1,22,A3_22*%
%TO.N,/PRZEKA\u0179NIK*%
X138000000Y-103820000D03*
%TO.P,A1,23,A4_23*%
%TO.N,/I2C_SDA*%
X138000000Y-101280000D03*
%TO.P,A1,24,A5_24*%
%TO.N,/I2C_SCL*%
X138000000Y-98740000D03*
%TO.P,A1,25,A6_25*%
%TO.N,unconnected-(A1-A6-Pad25)*%
X138000000Y-96200000D03*
%TO.P,A1,26,A7_26*%
%TO.N,unconnected-(A1-A7-Pad26)*%
X138000000Y-93660000D03*
%TO.P,A1,27,+5V_27*%
%TO.N,+5V*%
X138000000Y-91120000D03*
%TO.P,A1,28,~{RESET}_28*%
%TO.N,unconnected-(A1-~{RESET}-Pad28)*%
X138000000Y-88580000D03*
%TO.P,A1,29,GND_29*%
%TO.N,GND*%
X138000000Y-86040000D03*
%TO.P,A1,30,VIN_30*%
%TO.N,unconnected-(A1-VIN-Pad30)*%
X138000000Y-83500000D03*
%TD*%
D12*
%TO.P,D2,1,K_1*%
%TO.N,Net-(D2-K)*%
X151920000Y-90410000D03*
D13*
%TO.P,D2,2,A_2*%
%TO.N,GND*%
X154460000Y-90410000D03*
%TD*%
D17*
%TO.P,BZ1,1,+_1*%
%TO.N,/BUZZER*%
X143250000Y-108350000D03*
D18*
%TO.P,BZ1,2,-_2*%
%TO.N,GND*%
X150850000Y-108350000D03*
%TD*%
D19*
%TO.N,/LED_ZIELONA*%
X151500000Y-119500000D03*
%TO.N,/LED_CZERWONA*%
X151000000Y-115000000D03*
%TO.N,/BUZZER*%
X141500000Y-108000000D03*
%TO.N,/KEY_C3*%
X146170000Y-82830001D03*
%TO.N,/KEY_C4*%
X145106536Y-78893464D03*
%TD*%
%TO.N,+5V*%
D20*
X139008604Y-117645000D02*
X141313604Y-119950000D01*
X157295000Y-107585000D02*
X156120000Y-106410000D01*
X135975000Y-116085991D02*
X137534009Y-117645000D01*
X135975000Y-93145000D02*
X135975000Y-116085991D01*
X157295000Y-121085000D02*
X157295000Y-107585000D01*
X149169009Y-119950000D02*
X151719009Y-122500000D01*
X138000000Y-91120000D02*
X135975000Y-93145000D01*
X137534009Y-117645000D02*
X139008604Y-117645000D01*
X155880000Y-122500000D02*
X157295000Y-121085000D01*
X151719009Y-122500000D02*
X155880000Y-122500000D01*
X141313604Y-119950000D02*
X149169009Y-119950000D01*
%TO.N,/LED_ZIELONA*%
X141500000Y-119500000D02*
X140000000Y-118000000D01*
X151500000Y-119500000D02*
X141500000Y-119500000D01*
X140000000Y-110900000D02*
X138000000Y-108900000D01*
X140000000Y-118000000D02*
X140000000Y-110900000D01*
%TO.N,GND*%
X149455000Y-87945000D02*
X154460000Y-82940000D01*
X157745000Y-122296701D02*
X157745000Y-86225000D01*
X135525000Y-118175991D02*
X141024009Y-123675000D01*
X143935000Y-87945000D02*
X149455000Y-87945000D01*
X155880000Y-119960000D02*
X153135000Y-117215000D01*
X153135000Y-110635000D02*
X150850000Y-108350000D01*
X135525000Y-88515000D02*
X135525000Y-118175991D01*
X142570000Y-86580000D02*
X143935000Y-87945000D01*
X153135000Y-117215000D02*
X153135000Y-110635000D01*
X138000000Y-86040000D02*
X135525000Y-88515000D01*
X155330000Y-103870000D02*
X150850000Y-108350000D01*
X141024009Y-123675000D02*
X156366701Y-123675000D01*
X157745000Y-86225000D02*
X154460000Y-82940000D01*
X156120000Y-103870000D02*
X155330000Y-103870000D01*
X156366701Y-123675000D02*
X157745000Y-122296701D01*
%TO.N,/LED_CZERWONA*%
X146640000Y-115000000D02*
X138000000Y-106360000D01*
X151000000Y-115000000D02*
X146640000Y-115000000D01*
%TO.N,/BUZZER*%
X137534009Y-105235000D02*
X136875000Y-105894009D01*
X136875000Y-110315000D02*
X138000000Y-111440000D01*
X138735000Y-105235000D02*
X137534009Y-105235000D01*
X136875000Y-105894009D02*
X136875000Y-110315000D01*
X141500000Y-108000000D02*
X138735000Y-105235000D01*
%TO.N,+3.3V*%
X136425000Y-114945000D02*
X138000000Y-116520000D01*
X138465991Y-102695000D02*
X137534009Y-102695000D01*
X139125000Y-102035991D02*
X138465991Y-102695000D01*
X142570000Y-81500000D02*
X142570000Y-84040000D01*
X142570000Y-84040000D02*
X139125000Y-87485000D01*
X137534009Y-102695000D02*
X136425000Y-103804009D01*
X136425000Y-103804009D02*
X136425000Y-114945000D01*
X139125000Y-87485000D02*
X139125000Y-102035991D01*
%TO.N,/KEY_C3*%
X141839999Y-78500000D02*
X122500000Y-78500000D01*
X120500000Y-80500000D02*
X120500000Y-93940000D01*
X122500000Y-78500000D02*
X120500000Y-80500000D01*
X146170000Y-82830001D02*
X141839999Y-78500000D01*
X120500000Y-93940000D02*
X122760000Y-96200000D01*
%TO.N,/KEY_C4*%
X122294009Y-97325000D02*
X123225991Y-97325000D01*
X120000000Y-80000000D02*
X120000000Y-95030991D01*
X123885000Y-96665991D02*
X123885000Y-94785000D01*
X123885000Y-94785000D02*
X122760000Y-93660000D01*
X144213072Y-78000000D02*
X122000000Y-78000000D01*
X120000000Y-95030991D02*
X122294009Y-97325000D01*
X122000000Y-78000000D02*
X120000000Y-80000000D01*
X145106536Y-78893464D02*
X144213072Y-78000000D01*
X123225991Y-97325000D02*
X123885000Y-96665991D01*
%TD*%
M02*
