%TF.GenerationSoftware,KiCad,Pcbnew,10.0.0*%
%TF.CreationDate,2026-09-02T19:00:38+02:00*%
%TF.ProjectId,Zamek_RFID_Hardware,5a616d65-6b5f-4524-9649-445f48617264,rev?*%
%TF.SameCoordinates,Original*%
%TF.FileFunction,Soldermask,Top*%
%TF.FilePolarity,Negative*%
%FSLAX46Y46*%
G04 Gerber Fmt 4.6, Leading zero omitted, Abs format (unit mm)*
G04 Created by KiCad (PCBNEW 10.0.0) date 2026-09-02 19:00:38*
%MOMM*%
%LPD*%
G01*
G04 APERTURE LIST*
%ADD10R,1.700000X1.700000*%
%ADD11C,1.700000*%
%ADD12R,1.800000X1.800000*%
%ADD13C,1.800000*%
%ADD14C,1.600000*%
%ADD15R,1.600000X1.600000*%
%ADD16O,1.600000X1.600000*%
%ADD17R,2.000000X2.000000*%
%ADD18C,2.000000*%
G04 APERTURE END LIST*
D10*
%TO.C,J3*%
X156120000Y-103870000D03*
D11*
X156120000Y-106410000D03*
X156120000Y-108950000D03*
X156120000Y-111490000D03*
%TD*%
D10*
%TO.C,J4*%
X155880000Y-117420000D03*
D11*
X155880000Y-119960000D03*
X155880000Y-122500000D03*
%TD*%
D12*
%TO.C,D1*%
X151920000Y-82940000D03*
D13*
X154460000Y-82940000D03*
%TD*%
D10*
%TO.C,J1*%
X142570000Y-81500000D03*
D11*
X142570000Y-84040000D03*
X142570000Y-86580000D03*
X142570000Y-89120000D03*
X142570000Y-91660000D03*
X142570000Y-94200000D03*
X142570000Y-96740000D03*
X142570000Y-99280000D03*
%TD*%
D14*
%TO.C,R1*%
X141850000Y-117150000D03*
X152010000Y-117150000D03*
%TD*%
D10*
%TO.C,J2*%
X147160000Y-81500000D03*
D11*
X147160000Y-84040000D03*
X147160000Y-86580000D03*
X147160000Y-89120000D03*
X147160000Y-91660000D03*
X147160000Y-94200000D03*
X147160000Y-96740000D03*
X147160000Y-99280000D03*
%TD*%
D14*
%TO.C,R2*%
X141850000Y-121200000D03*
X152010000Y-121200000D03*
%TD*%
D15*
%TO.C,A1*%
X122760000Y-83500000D03*
D16*
X122760000Y-86040000D03*
X122760000Y-88580000D03*
X122760000Y-91120000D03*
X122760000Y-93660000D03*
X122760000Y-96200000D03*
X122760000Y-98740000D03*
X122760000Y-101280000D03*
X122760000Y-103820000D03*
X122760000Y-106360000D03*
X122760000Y-108900000D03*
X122760000Y-111440000D03*
X122760000Y-113980000D03*
X122760000Y-116520000D03*
X122760000Y-119060000D03*
X138000000Y-119060000D03*
X138000000Y-116520000D03*
X138000000Y-113980000D03*
X138000000Y-111440000D03*
X138000000Y-108900000D03*
X138000000Y-106360000D03*
X138000000Y-103820000D03*
X138000000Y-101280000D03*
X138000000Y-98740000D03*
X138000000Y-96200000D03*
X138000000Y-93660000D03*
X138000000Y-91120000D03*
X138000000Y-88580000D03*
X138000000Y-86040000D03*
X138000000Y-83500000D03*
%TD*%
D12*
%TO.C,D2*%
X151920000Y-90410000D03*
D13*
X154460000Y-90410000D03*
%TD*%
D17*
%TO.C,BZ1*%
X143250000Y-108350000D03*
D18*
X150850000Y-108350000D03*
%TD*%
M02*
