M48
; DRILL file KiCad 10.0.0 date 2026-09-02T18:44:42
; FORMAT={-:-/ absolute / metric / decimal}
; #@! TF.CreationDate,2026-09-02T18:44:42+02:00
; #@! TF.GenerationSoftware,Kicad,Pcbnew,10.0.0
; #@! TF.FileFunction,Plated,1,2,PTH
FMAT,2
METRIC
; #@! TA.AperFunction,Plated,PTH,ViaDrill
T1C0.400
; #@! TA.AperFunction,Plated,PTH,ComponentDrill
T2C0.800
; #@! TA.AperFunction,Plated,PTH,ComponentDrill
T3C0.900
; #@! TA.AperFunction,Plated,PTH,ComponentDrill
T4C1.000
%
G90
G05
T1
X141.5Y-108.0
X145.107Y-78.893
X146.17Y-82.83
X151.0Y-115.0
X151.5Y-119.5
T2
X141.85Y-117.15
X141.85Y-121.2
X152.01Y-117.15
X152.01Y-121.2
T3
X151.92Y-82.94
X151.92Y-90.41
X154.46Y-82.94
X154.46Y-90.41
T4
X122.76Y-83.5
X122.76Y-86.04
X122.76Y-88.58
X122.76Y-91.12
X122.76Y-93.66
X122.76Y-96.2
X122.76Y-98.74
X122.76Y-101.28
X122.76Y-103.82
X122.76Y-106.36
X122.76Y-108.9
X122.76Y-111.44
X122.76Y-113.98
X122.76Y-116.52
X122.76Y-119.06
X138.0Y-83.5
X138.0Y-86.04
X138.0Y-88.58
X138.0Y-91.12
X138.0Y-93.66
X138.0Y-96.2
X138.0Y-98.74
X138.0Y-101.28
X138.0Y-103.82
X138.0Y-106.36
X138.0Y-108.9
X138.0Y-111.44
X138.0Y-113.98
X138.0Y-116.52
X138.0Y-119.06
X142.57Y-81.5
X142.57Y-84.04
X142.57Y-86.58
X142.57Y-89.12
X142.57Y-91.66
X142.57Y-94.2
X142.57Y-96.74
X142.57Y-99.28
X143.25Y-108.35
X147.16Y-81.5
X147.16Y-84.04
X147.16Y-86.58
X147.16Y-89.12
X147.16Y-91.66
X147.16Y-94.2
X147.16Y-96.74
X147.16Y-99.28
X150.85Y-108.35
X155.88Y-117.42
X155.88Y-119.96
X155.88Y-122.5
X156.12Y-103.87
X156.12Y-106.41
X156.12Y-108.95
X156.12Y-111.49
M30
