%TF.GenerationSoftware,KiCad,Pcbnew,10.0.0*%
%TF.CreationDate,2026-09-02T19:00:38+02:00*%
%TF.ProjectId,Zamek_RFID_Hardware,5a616d65-6b5f-4524-9649-445f48617264,rev?*%
%TF.SameCoordinates,Original*%
%TF.FileFunction,Legend,Top*%
%TF.FilePolarity,Positive*%
%FSLAX46Y46*%
G04 Gerber Fmt 4.6, Leading zero omitted, Abs format (unit mm)*
G04 Created by KiCad (PCBNEW 10.0.0) date 2026-09-02 19:00:38*
%MOMM*%
%LPD*%
G01*
G04 APERTURE LIST*
%ADD10C,0.150000*%
%ADD11C,0.120000*%
G04 APERTURE END LIST*
D10*
X155786666Y-100944819D02*
X155786666Y-101659104D01*
X155786666Y-101659104D02*
X155739047Y-101801961D01*
X155739047Y-101801961D02*
X155643809Y-101897200D01*
X155643809Y-101897200D02*
X155500952Y-101944819D01*
X155500952Y-101944819D02*
X155405714Y-101944819D01*
X156167619Y-100944819D02*
X156786666Y-100944819D01*
X156786666Y-100944819D02*
X156453333Y-101325771D01*
X156453333Y-101325771D02*
X156596190Y-101325771D01*
X156596190Y-101325771D02*
X156691428Y-101373390D01*
X156691428Y-101373390D02*
X156739047Y-101421009D01*
X156739047Y-101421009D02*
X156786666Y-101516247D01*
X156786666Y-101516247D02*
X156786666Y-101754342D01*
X156786666Y-101754342D02*
X156739047Y-101849580D01*
X156739047Y-101849580D02*
X156691428Y-101897200D01*
X156691428Y-101897200D02*
X156596190Y-101944819D01*
X156596190Y-101944819D02*
X156310476Y-101944819D01*
X156310476Y-101944819D02*
X156215238Y-101897200D01*
X156215238Y-101897200D02*
X156167619Y-101849580D01*
X155546666Y-114494819D02*
X155546666Y-115209104D01*
X155546666Y-115209104D02*
X155499047Y-115351961D01*
X155499047Y-115351961D02*
X155403809Y-115447200D01*
X155403809Y-115447200D02*
X155260952Y-115494819D01*
X155260952Y-115494819D02*
X155165714Y-115494819D01*
X156451428Y-114828152D02*
X156451428Y-115494819D01*
X156213333Y-114447200D02*
X155975238Y-115161485D01*
X155975238Y-115161485D02*
X156594285Y-115161485D01*
X152451905Y-79434819D02*
X152451905Y-78434819D01*
X152451905Y-78434819D02*
X152690000Y-78434819D01*
X152690000Y-78434819D02*
X152832857Y-78482438D01*
X152832857Y-78482438D02*
X152928095Y-78577676D01*
X152928095Y-78577676D02*
X152975714Y-78672914D01*
X152975714Y-78672914D02*
X153023333Y-78863390D01*
X153023333Y-78863390D02*
X153023333Y-79006247D01*
X153023333Y-79006247D02*
X152975714Y-79196723D01*
X152975714Y-79196723D02*
X152928095Y-79291961D01*
X152928095Y-79291961D02*
X152832857Y-79387200D01*
X152832857Y-79387200D02*
X152690000Y-79434819D01*
X152690000Y-79434819D02*
X152451905Y-79434819D01*
X153975714Y-79434819D02*
X153404286Y-79434819D01*
X153690000Y-79434819D02*
X153690000Y-78434819D01*
X153690000Y-78434819D02*
X153594762Y-78577676D01*
X153594762Y-78577676D02*
X153499524Y-78672914D01*
X153499524Y-78672914D02*
X153404286Y-78720533D01*
X142236666Y-78574819D02*
X142236666Y-79289104D01*
X142236666Y-79289104D02*
X142189047Y-79431961D01*
X142189047Y-79431961D02*
X142093809Y-79527200D01*
X142093809Y-79527200D02*
X141950952Y-79574819D01*
X141950952Y-79574819D02*
X141855714Y-79574819D01*
X143236666Y-79574819D02*
X142665238Y-79574819D01*
X142950952Y-79574819D02*
X142950952Y-78574819D01*
X142950952Y-78574819D02*
X142855714Y-78717676D01*
X142855714Y-78717676D02*
X142760476Y-78812914D01*
X142760476Y-78812914D02*
X142665238Y-78860533D01*
X146763333Y-115234819D02*
X146430000Y-114758628D01*
X146191905Y-115234819D02*
X146191905Y-114234819D01*
X146191905Y-114234819D02*
X146572857Y-114234819D01*
X146572857Y-114234819D02*
X146668095Y-114282438D01*
X146668095Y-114282438D02*
X146715714Y-114330057D01*
X146715714Y-114330057D02*
X146763333Y-114425295D01*
X146763333Y-114425295D02*
X146763333Y-114568152D01*
X146763333Y-114568152D02*
X146715714Y-114663390D01*
X146715714Y-114663390D02*
X146668095Y-114711009D01*
X146668095Y-114711009D02*
X146572857Y-114758628D01*
X146572857Y-114758628D02*
X146191905Y-114758628D01*
X147715714Y-115234819D02*
X147144286Y-115234819D01*
X147430000Y-115234819D02*
X147430000Y-114234819D01*
X147430000Y-114234819D02*
X147334762Y-114377676D01*
X147334762Y-114377676D02*
X147239524Y-114472914D01*
X147239524Y-114472914D02*
X147144286Y-114520533D01*
X146826666Y-78574819D02*
X146826666Y-79289104D01*
X146826666Y-79289104D02*
X146779047Y-79431961D01*
X146779047Y-79431961D02*
X146683809Y-79527200D01*
X146683809Y-79527200D02*
X146540952Y-79574819D01*
X146540952Y-79574819D02*
X146445714Y-79574819D01*
X147255238Y-78670057D02*
X147302857Y-78622438D01*
X147302857Y-78622438D02*
X147398095Y-78574819D01*
X147398095Y-78574819D02*
X147636190Y-78574819D01*
X147636190Y-78574819D02*
X147731428Y-78622438D01*
X147731428Y-78622438D02*
X147779047Y-78670057D01*
X147779047Y-78670057D02*
X147826666Y-78765295D01*
X147826666Y-78765295D02*
X147826666Y-78860533D01*
X147826666Y-78860533D02*
X147779047Y-79003390D01*
X147779047Y-79003390D02*
X147207619Y-79574819D01*
X147207619Y-79574819D02*
X147826666Y-79574819D01*
X146763333Y-119284819D02*
X146430000Y-118808628D01*
X146191905Y-119284819D02*
X146191905Y-118284819D01*
X146191905Y-118284819D02*
X146572857Y-118284819D01*
X146572857Y-118284819D02*
X146668095Y-118332438D01*
X146668095Y-118332438D02*
X146715714Y-118380057D01*
X146715714Y-118380057D02*
X146763333Y-118475295D01*
X146763333Y-118475295D02*
X146763333Y-118618152D01*
X146763333Y-118618152D02*
X146715714Y-118713390D01*
X146715714Y-118713390D02*
X146668095Y-118761009D01*
X146668095Y-118761009D02*
X146572857Y-118808628D01*
X146572857Y-118808628D02*
X146191905Y-118808628D01*
X147144286Y-118380057D02*
X147191905Y-118332438D01*
X147191905Y-118332438D02*
X147287143Y-118284819D01*
X147287143Y-118284819D02*
X147525238Y-118284819D01*
X147525238Y-118284819D02*
X147620476Y-118332438D01*
X147620476Y-118332438D02*
X147668095Y-118380057D01*
X147668095Y-118380057D02*
X147715714Y-118475295D01*
X147715714Y-118475295D02*
X147715714Y-118570533D01*
X147715714Y-118570533D02*
X147668095Y-118713390D01*
X147668095Y-118713390D02*
X147096667Y-119284819D01*
X147096667Y-119284819D02*
X147715714Y-119284819D01*
X129665714Y-78589104D02*
X130141904Y-78589104D01*
X129570476Y-78874819D02*
X129903809Y-77874819D01*
X129903809Y-77874819D02*
X130237142Y-78874819D01*
X131094285Y-78874819D02*
X130522857Y-78874819D01*
X130808571Y-78874819D02*
X130808571Y-77874819D01*
X130808571Y-77874819D02*
X130713333Y-78017676D01*
X130713333Y-78017676D02*
X130618095Y-78112914D01*
X130618095Y-78112914D02*
X130522857Y-78160533D01*
X129118095Y-118514819D02*
X129118095Y-119324342D01*
X129118095Y-119324342D02*
X129165714Y-119419580D01*
X129165714Y-119419580D02*
X129213333Y-119467200D01*
X129213333Y-119467200D02*
X129308571Y-119514819D01*
X129308571Y-119514819D02*
X129499047Y-119514819D01*
X129499047Y-119514819D02*
X129594285Y-119467200D01*
X129594285Y-119467200D02*
X129641904Y-119419580D01*
X129641904Y-119419580D02*
X129689523Y-119324342D01*
X129689523Y-119324342D02*
X129689523Y-118514819D01*
X130118095Y-119467200D02*
X130260952Y-119514819D01*
X130260952Y-119514819D02*
X130499047Y-119514819D01*
X130499047Y-119514819D02*
X130594285Y-119467200D01*
X130594285Y-119467200D02*
X130641904Y-119419580D01*
X130641904Y-119419580D02*
X130689523Y-119324342D01*
X130689523Y-119324342D02*
X130689523Y-119229104D01*
X130689523Y-119229104D02*
X130641904Y-119133866D01*
X130641904Y-119133866D02*
X130594285Y-119086247D01*
X130594285Y-119086247D02*
X130499047Y-119038628D01*
X130499047Y-119038628D02*
X130308571Y-118991009D01*
X130308571Y-118991009D02*
X130213333Y-118943390D01*
X130213333Y-118943390D02*
X130165714Y-118895771D01*
X130165714Y-118895771D02*
X130118095Y-118800533D01*
X130118095Y-118800533D02*
X130118095Y-118705295D01*
X130118095Y-118705295D02*
X130165714Y-118610057D01*
X130165714Y-118610057D02*
X130213333Y-118562438D01*
X130213333Y-118562438D02*
X130308571Y-118514819D01*
X130308571Y-118514819D02*
X130546666Y-118514819D01*
X130546666Y-118514819D02*
X130689523Y-118562438D01*
X131451428Y-118991009D02*
X131594285Y-119038628D01*
X131594285Y-119038628D02*
X131641904Y-119086247D01*
X131641904Y-119086247D02*
X131689523Y-119181485D01*
X131689523Y-119181485D02*
X131689523Y-119324342D01*
X131689523Y-119324342D02*
X131641904Y-119419580D01*
X131641904Y-119419580D02*
X131594285Y-119467200D01*
X131594285Y-119467200D02*
X131499047Y-119514819D01*
X131499047Y-119514819D02*
X131118095Y-119514819D01*
X131118095Y-119514819D02*
X131118095Y-118514819D01*
X131118095Y-118514819D02*
X131451428Y-118514819D01*
X131451428Y-118514819D02*
X131546666Y-118562438D01*
X131546666Y-118562438D02*
X131594285Y-118610057D01*
X131594285Y-118610057D02*
X131641904Y-118705295D01*
X131641904Y-118705295D02*
X131641904Y-118800533D01*
X131641904Y-118800533D02*
X131594285Y-118895771D01*
X131594285Y-118895771D02*
X131546666Y-118943390D01*
X131546666Y-118943390D02*
X131451428Y-118991009D01*
X131451428Y-118991009D02*
X131118095Y-118991009D01*
X152451905Y-86904819D02*
X152451905Y-85904819D01*
X152451905Y-85904819D02*
X152690000Y-85904819D01*
X152690000Y-85904819D02*
X152832857Y-85952438D01*
X152832857Y-85952438D02*
X152928095Y-86047676D01*
X152928095Y-86047676D02*
X152975714Y-86142914D01*
X152975714Y-86142914D02*
X153023333Y-86333390D01*
X153023333Y-86333390D02*
X153023333Y-86476247D01*
X153023333Y-86476247D02*
X152975714Y-86666723D01*
X152975714Y-86666723D02*
X152928095Y-86761961D01*
X152928095Y-86761961D02*
X152832857Y-86857200D01*
X152832857Y-86857200D02*
X152690000Y-86904819D01*
X152690000Y-86904819D02*
X152451905Y-86904819D01*
X153404286Y-86000057D02*
X153451905Y-85952438D01*
X153451905Y-85952438D02*
X153547143Y-85904819D01*
X153547143Y-85904819D02*
X153785238Y-85904819D01*
X153785238Y-85904819D02*
X153880476Y-85952438D01*
X153880476Y-85952438D02*
X153928095Y-86000057D01*
X153928095Y-86000057D02*
X153975714Y-86095295D01*
X153975714Y-86095295D02*
X153975714Y-86190533D01*
X153975714Y-86190533D02*
X153928095Y-86333390D01*
X153928095Y-86333390D02*
X153356667Y-86904819D01*
X153356667Y-86904819D02*
X153975714Y-86904819D01*
X146169047Y-101081009D02*
X146311904Y-101128628D01*
X146311904Y-101128628D02*
X146359523Y-101176247D01*
X146359523Y-101176247D02*
X146407142Y-101271485D01*
X146407142Y-101271485D02*
X146407142Y-101414342D01*
X146407142Y-101414342D02*
X146359523Y-101509580D01*
X146359523Y-101509580D02*
X146311904Y-101557200D01*
X146311904Y-101557200D02*
X146216666Y-101604819D01*
X146216666Y-101604819D02*
X145835714Y-101604819D01*
X145835714Y-101604819D02*
X145835714Y-100604819D01*
X145835714Y-100604819D02*
X146169047Y-100604819D01*
X146169047Y-100604819D02*
X146264285Y-100652438D01*
X146264285Y-100652438D02*
X146311904Y-100700057D01*
X146311904Y-100700057D02*
X146359523Y-100795295D01*
X146359523Y-100795295D02*
X146359523Y-100890533D01*
X146359523Y-100890533D02*
X146311904Y-100985771D01*
X146311904Y-100985771D02*
X146264285Y-101033390D01*
X146264285Y-101033390D02*
X146169047Y-101081009D01*
X146169047Y-101081009D02*
X145835714Y-101081009D01*
X146740476Y-100604819D02*
X147407142Y-100604819D01*
X147407142Y-100604819D02*
X146740476Y-101604819D01*
X146740476Y-101604819D02*
X147407142Y-101604819D01*
X148311904Y-101604819D02*
X147740476Y-101604819D01*
X148026190Y-101604819D02*
X148026190Y-100604819D01*
X148026190Y-100604819D02*
X147930952Y-100747676D01*
X147930952Y-100747676D02*
X147835714Y-100842914D01*
X147835714Y-100842914D02*
X147740476Y-100890533D01*
X142859048Y-105883866D02*
X143620953Y-105883866D01*
X143240000Y-106264819D02*
X143240000Y-105502914D01*
%TO.C,J3*%
D11*
X154740000Y-102490000D02*
X156120000Y-102490000D01*
X154740000Y-103870000D02*
X154740000Y-102490000D01*
X154740000Y-105140000D02*
X154740000Y-112870000D01*
X154740000Y-105140000D02*
X157500000Y-105140000D01*
X154740000Y-112870000D02*
X157500000Y-112870000D01*
X157500000Y-105140000D02*
X157500000Y-112870000D01*
%TO.C,J4*%
X154500000Y-116040000D02*
X155880000Y-116040000D01*
X154500000Y-117420000D02*
X154500000Y-116040000D01*
X154500000Y-118690000D02*
X154500000Y-123880000D01*
X154500000Y-118690000D02*
X157260000Y-118690000D01*
X154500000Y-123880000D02*
X157260000Y-123880000D01*
X157260000Y-118690000D02*
X157260000Y-123880000D01*
%TO.C,D1*%
X150630000Y-81395000D02*
X150630000Y-84485000D01*
X150630000Y-81395170D02*
G75*
G02*
X156180000Y-82940000I2560000J-1544830D01*
G01*
X156180000Y-82940000D02*
G75*
G02*
X150630000Y-84484830I-2990000J0D01*
G01*
X155690000Y-82940000D02*
G75*
G02*
X150690000Y-82940000I-2500000J0D01*
G01*
X150690000Y-82940000D02*
G75*
G02*
X155690000Y-82940000I2500000J0D01*
G01*
%TO.C,J1*%
X141190000Y-80120000D02*
X142570000Y-80120000D01*
X141190000Y-81500000D02*
X141190000Y-80120000D01*
X141190000Y-82770000D02*
X141190000Y-100660000D01*
X141190000Y-82770000D02*
X143950000Y-82770000D01*
X141190000Y-100660000D02*
X143950000Y-100660000D01*
X143950000Y-82770000D02*
X143950000Y-100660000D01*
%TO.C,R1*%
X142890000Y-117150000D02*
X143660000Y-117150000D01*
X150970000Y-117150000D02*
X150200000Y-117150000D01*
X143660000Y-115780000D02*
X150200000Y-115780000D01*
X150200000Y-118520000D01*
X143660000Y-118520000D01*
X143660000Y-115780000D01*
%TO.C,J2*%
X145780000Y-80120000D02*
X147160000Y-80120000D01*
X145780000Y-81500000D02*
X145780000Y-80120000D01*
X145780000Y-82770000D02*
X145780000Y-100660000D01*
X145780000Y-82770000D02*
X148540000Y-82770000D01*
X145780000Y-100660000D02*
X148540000Y-100660000D01*
X148540000Y-82770000D02*
X148540000Y-100660000D01*
%TO.C,R2*%
X142890000Y-121200000D02*
X143660000Y-121200000D01*
X150970000Y-121200000D02*
X150200000Y-121200000D01*
X143660000Y-119830000D02*
X150200000Y-119830000D01*
X150200000Y-122570000D01*
X143660000Y-122570000D01*
X143660000Y-119830000D01*
%TO.C,A1*%
X121360000Y-79560000D02*
X121360000Y-82230000D01*
X121360000Y-84770000D02*
X121360000Y-123000000D01*
X121360000Y-123000000D02*
X126440000Y-123000000D01*
X124030000Y-82230000D02*
X121360000Y-82230000D01*
X124030000Y-84770000D02*
X121360000Y-84770000D01*
X124030000Y-84770000D02*
X124030000Y-82230000D01*
X124030000Y-84770000D02*
X124030000Y-120330000D01*
X124030000Y-120330000D02*
X121360000Y-120330000D01*
X126440000Y-115120000D02*
X134320000Y-115120000D01*
X126440000Y-125540000D02*
X126440000Y-115120000D01*
X134320000Y-115120000D02*
X134320000Y-125540000D01*
X134320000Y-125540000D02*
X126440000Y-125540000D01*
X136730000Y-82230000D02*
X136730000Y-120330000D01*
X136730000Y-82230000D02*
X139400000Y-82230000D01*
X136730000Y-120330000D02*
X139400000Y-120330000D01*
X139400000Y-79560000D02*
X121360000Y-79560000D01*
X139400000Y-123000000D02*
X134320000Y-123000000D01*
X139400000Y-123000000D02*
X139400000Y-79560000D01*
%TO.C,D2*%
X150630000Y-88865000D02*
X150630000Y-91955000D01*
X150630000Y-88865170D02*
G75*
G02*
X156180000Y-90410000I2560000J-1544830D01*
G01*
X156180000Y-90410000D02*
G75*
G02*
X150630000Y-91954830I-2990000J0D01*
G01*
X155690000Y-90410000D02*
G75*
G02*
X150690000Y-90410000I-2500000J0D01*
G01*
X150690000Y-90410000D02*
G75*
G02*
X155690000Y-90410000I2500000J0D01*
G01*
%TO.C,BZ1*%
X153150000Y-108350000D02*
G75*
G02*
X140950000Y-108350000I-6100000J0D01*
G01*
X140950000Y-108350000D02*
G75*
G02*
X153150000Y-108350000I6100000J0D01*
G01*
%TD*%
M02*
