%TF.GenerationSoftware,KiCad,Pcbnew,10.0.0*%
%TF.CreationDate,2026-09-27T22:37:56+02:00*%
%TF.ProjectId,Zamek_RFID_Hardware,5a616d65-6b5f-4524-9649-445f48617264,rev?*%
%TF.SameCoordinates,Original*%
%TF.FileFunction,Copper,L2,Bot*%
%TF.FilePolarity,Positive*%
%FSLAX46Y46*%
G04 Gerber Fmt 4.6, Leading zero omitted, Abs format (unit mm)*
G04 Created by KiCad (PCBNEW 10.0.0) date 2026-09-27 22:37:56*
%MOMM*%
%LPD*%
G01*
G04 APERTURE LIST*
G04 Aperture macros list*
%AMRoundRect*
0 Rectangle with rounded corners*
0 $1 Rounding radius*
0 $2 $3 $4 $5 $6 $7 $8 $9 X,Y pos of 4 corners*
0 Add a 4 corners polygon primitive as box body*
4,1,4,$2,$3,$4,$5,$6,$7,$8,$9,$2,$3,0*
0 Add four circle primitives for the rounded corners*
1,1,$1+$1,$2,$3*
1,1,$1+$1,$4,$5*
1,1,$1+$1,$6,$7*
1,1,$1+$1,$8,$9*
0 Add four rect primitives between the rounded corners*
20,1,$1+$1,$2,$3,$4,$5,0*
20,1,$1+$1,$4,$5,$6,$7,0*
20,1,$1+$1,$6,$7,$8,$9,0*
20,1,$1+$1,$8,$9,$2,$3,0*%
G04 Aperture macros list end*
%TA.AperFunction,ComponentPad*%
%ADD10R,1.050000X1.500000*%
%TD*%
%TA.AperFunction,ComponentPad*%
%ADD11O,1.050000X1.500000*%
%TD*%
%TA.AperFunction,ComponentPad*%
%ADD12C,1.600000*%
%TD*%
%TA.AperFunction,ComponentPad*%
%ADD13R,1.700000X1.700000*%
%TD*%
%TA.AperFunction,ComponentPad*%
%ADD14C,1.700000*%
%TD*%
%TA.AperFunction,ComponentPad*%
%ADD15C,2.000000*%
%TD*%
%TA.AperFunction,ComponentPad*%
%ADD16RoundRect,0.250000X-0.550000X-0.550000X0.550000X-0.550000X0.550000X0.550000X-0.550000X0.550000X0*%
%TD*%
%TA.AperFunction,ComponentPad*%
%ADD17RoundRect,0.250000X0.550000X0.550000X-0.550000X0.550000X-0.550000X-0.550000X0.550000X-0.550000X0*%
%TD*%
%TA.AperFunction,ComponentPad*%
%ADD18R,1.800000X1.800000*%
%TD*%
%TA.AperFunction,ComponentPad*%
%ADD19C,1.800000*%
%TD*%
%TA.AperFunction,ComponentPad*%
%ADD20R,1.600000X1.600000*%
%TD*%
%TA.AperFunction,ComponentPad*%
%ADD21O,1.600000X1.600000*%
%TD*%
%TA.AperFunction,ComponentPad*%
%ADD22R,2.000000X2.000000*%
%TD*%
%TA.AperFunction,Conductor*%
%ADD23C,0.250000*%
%TD*%
G04 APERTURE END LIST*
D10*
%TO.P,Q1,1,C_1*%
%TO.N,Net-(BZ1--)*%
X161000000Y-106000000D03*
D11*
%TO.P,Q1,2,B_2*%
%TO.N,Net-(Q1-B)*%
X159730000Y-106000000D03*
%TO.P,Q1,3,E_3*%
%TO.N,GND*%
X158460000Y-106000000D03*
%TD*%
D12*
%TO.P,R6,1*%
%TO.N,GND*%
X154299999Y-109780000D03*
%TO.P,R6,2*%
%TO.N,/RFID_MOSI_3V3*%
X154299999Y-119940000D03*
%TD*%
D13*
%TO.P,J3,1,Pin_1_1*%
%TO.N,GND*%
X143000000Y-72500000D03*
D14*
%TO.P,J3,2,Pin_2_2*%
%TO.N,+5V*%
X145540000Y-72500000D03*
%TO.P,J3,3,Pin_3_3*%
%TO.N,/I2C_SDA*%
X148080000Y-72500000D03*
%TO.P,J3,4,Pin_4_4*%
%TO.N,/I2C_SCL*%
X150620000Y-72500000D03*
%TD*%
D13*
%TO.P,J4,1,Pin_1_1*%
%TO.N,/RELAY*%
X178500000Y-81000000D03*
D14*
%TO.P,J4,2,Pin_2_2*%
%TO.N,GND*%
X178500000Y-83540000D03*
%TO.P,J4,3,Pin_3_3*%
%TO.N,+5V*%
X178500000Y-86080000D03*
%TD*%
D15*
%TO.P,TP3,1,1_1*%
%TO.N,+5V*%
X172500000Y-117000000D03*
%TD*%
D12*
%TO.P,C4,1*%
%TO.N,+3.3V*%
X143500000Y-119500000D03*
%TO.P,C4,2*%
%TO.N,GND*%
X148500000Y-119500000D03*
%TD*%
%TO.P,R3,1*%
%TO.N,/RFID_SDA*%
X163600000Y-109780000D03*
%TO.P,R3,2*%
%TO.N,/RFID_SDA_3V3*%
X163600000Y-119940000D03*
%TD*%
D16*
%TO.P,C1,1*%
%TO.N,+5V*%
X168000000Y-85000000D03*
D12*
%TO.P,C1,2*%
%TO.N,GND*%
X170500000Y-85000000D03*
%TD*%
%TO.P,C2,1*%
%TO.N,+5V*%
X174500000Y-79000000D03*
%TO.P,C2,2*%
%TO.N,GND*%
X174500000Y-84000000D03*
%TD*%
D16*
%TO.P,C3,1*%
%TO.N,+3.3V*%
X144000000Y-114500000D03*
D12*
%TO.P,C3,2*%
%TO.N,GND*%
X146000000Y-114500000D03*
%TD*%
D17*
%TO.P,D3,1,K_1*%
%TO.N,+5V*%
X174000000Y-106000000D03*
D12*
%TO.P,D3,2,A_2*%
%TO.N,Net-(BZ1--)*%
X166380000Y-106000000D03*
%TD*%
D18*
%TO.P,D1,1,K_1*%
%TO.N,GND*%
X159500000Y-73500000D03*
D19*
%TO.P,D1,2,A_2*%
%TO.N,Net-(D1-A)*%
X156960000Y-73500000D03*
%TD*%
D12*
%TO.P,R7,1*%
%TO.N,/RFID_SCK*%
X157399999Y-109780000D03*
%TO.P,R7,2*%
%TO.N,/RFID_SCK_3V3*%
X157399999Y-119940000D03*
%TD*%
%TO.P,R9,1*%
%TO.N,Net-(Q1-B)*%
X162300000Y-100500000D03*
%TO.P,R9,2*%
%TO.N,/BUZZER*%
X152140000Y-100500000D03*
%TD*%
D15*
%TO.P,TP1,1,1_1*%
%TO.N,+3.3V*%
X166000000Y-123160000D03*
%TD*%
D13*
%TO.P,J1,1,Pin_1_1*%
%TO.N,+3.3V*%
X143500000Y-123160000D03*
D14*
%TO.P,J1,2,Pin_2_2*%
X146040000Y-123160000D03*
%TO.P,J1,3,Pin_3_3*%
%TO.N,GND*%
X148580000Y-123160000D03*
%TO.P,J1,4,Pin_4_4*%
%TO.N,unconnected-(J1-Pin_4-Pad4)*%
X151120000Y-123160000D03*
%TO.P,J1,5,Pin_5_5*%
%TO.N,/RFID_MISO*%
X153660000Y-123160000D03*
%TO.P,J1,6,Pin_6_6*%
%TO.N,/RFID_MOSI_3V3*%
X156200000Y-123160000D03*
%TO.P,J1,7,Pin_7_7*%
%TO.N,/RFID_SCK_3V3*%
X158740000Y-123160000D03*
%TO.P,J1,8,Pin_8_8*%
%TO.N,/RFID_SDA_3V3*%
X161280000Y-123160000D03*
%TD*%
D12*
%TO.P,R8,1*%
%TO.N,GND*%
X160500000Y-109780000D03*
%TO.P,R8,2*%
%TO.N,/RFID_SCK_3V3*%
X160500000Y-119940000D03*
%TD*%
D15*
%TO.P,TP2,1,1_1*%
%TO.N,GND*%
X169500000Y-123160000D03*
%TD*%
D12*
%TO.P,R5,1*%
%TO.N,GND*%
X166700000Y-109780000D03*
%TO.P,R5,2*%
%TO.N,/RFID_SDA_3V3*%
X166700000Y-119940000D03*
%TD*%
%TO.P,R1,1*%
%TO.N,Net-(D1-A)*%
X156500000Y-78500000D03*
%TO.P,R1,2*%
%TO.N,/LED_CZERWONA*%
X156500000Y-88660000D03*
%TD*%
%TO.P,R4,1*%
%TO.N,/RFID_MOSI*%
X151200000Y-109780000D03*
%TO.P,R4,2*%
%TO.N,/RFID_MOSI_3V3*%
X151200000Y-119940000D03*
%TD*%
D13*
%TO.P,J2,1,Pin_1_1*%
%TO.N,/KEY_C4*%
X114000000Y-94160000D03*
D14*
%TO.P,J2,2,Pin_2_2*%
%TO.N,/KEY_C3*%
X114000000Y-96700000D03*
%TO.P,J2,3,Pin_3_3*%
%TO.N,/KEY_C2*%
X114000000Y-99240000D03*
%TO.P,J2,4,Pin_4_4*%
%TO.N,/KEY_C1*%
X114000000Y-101780000D03*
%TO.P,J2,5,Pin_5_5*%
%TO.N,/KEY_R1*%
X114000000Y-104320000D03*
%TO.P,J2,6,Pin_6_6*%
%TO.N,/KEY_R2*%
X114000000Y-106860000D03*
%TO.P,J2,7,Pin_7_7*%
%TO.N,/KEY_R3*%
X114000000Y-109400000D03*
%TO.P,J2,8,Pin_8_8*%
%TO.N,/KEY_R4*%
X114000000Y-111940000D03*
%TD*%
D12*
%TO.P,R2,1*%
%TO.N,Net-(D2-A)*%
X164000000Y-78500000D03*
%TO.P,R2,2*%
%TO.N,/LED_ZIELONA*%
X164000000Y-88660000D03*
%TD*%
D20*
%TO.P,A1,1,D1/TX_1*%
%TO.N,unconnected-(A1-D1{slash}TX-Pad1)*%
X124000000Y-84000000D03*
D21*
%TO.P,A1,2,D0/RX_2*%
%TO.N,unconnected-(A1-D0{slash}RX-Pad2)*%
X124000000Y-86540000D03*
%TO.P,A1,3,~{RESET}_3*%
%TO.N,unconnected-(A1-~{RESET}-Pad3)*%
X124000000Y-89080000D03*
%TO.P,A1,4,GND_4*%
%TO.N,GND*%
X124000000Y-91620000D03*
%TO.P,A1,5,D2_5*%
%TO.N,/KEY_C4*%
X124000000Y-94160000D03*
%TO.P,A1,6,D3_6*%
%TO.N,/KEY_C3*%
X124000000Y-96700000D03*
%TO.P,A1,7,D4_7*%
%TO.N,/KEY_C2*%
X124000000Y-99240000D03*
%TO.P,A1,8,D5_8*%
%TO.N,/KEY_C1*%
X124000000Y-101780000D03*
%TO.P,A1,9,D6_9*%
%TO.N,/KEY_R1*%
X124000000Y-104320000D03*
%TO.P,A1,10,D7_10*%
%TO.N,/KEY_R2*%
X124000000Y-106860000D03*
%TO.P,A1,11,D8_11*%
%TO.N,/KEY_R3*%
X124000000Y-109400000D03*
%TO.P,A1,12,D9_12*%
%TO.N,/KEY_R4*%
X124000000Y-111940000D03*
%TO.P,A1,13,D10_13*%
%TO.N,/RFID_SDA*%
X124000000Y-114480000D03*
%TO.P,A1,14,D11_14*%
%TO.N,/RFID_MOSI*%
X124000000Y-117020000D03*
%TO.P,A1,15,D12_15*%
%TO.N,/RFID_MISO*%
X124000000Y-119560000D03*
%TO.P,A1,16,D13_16*%
%TO.N,/RFID_SCK*%
X139240000Y-119560000D03*
%TO.P,A1,17,3V3_17*%
%TO.N,+3.3V*%
X139240000Y-117020000D03*
%TO.P,A1,18,AREF_18*%
%TO.N,unconnected-(A1-AREF-Pad18)*%
X139240000Y-114480000D03*
%TO.P,A1,19,A0_19*%
%TO.N,/BUZZER*%
X139240000Y-111940000D03*
%TO.P,A1,20,A1_20*%
%TO.N,/LED_ZIELONA*%
X139240000Y-109400000D03*
%TO.P,A1,21,A2_21*%
%TO.N,/LED_CZERWONA*%
X139240000Y-106860000D03*
%TO.P,A1,22,A3_22*%
%TO.N,/RELAY*%
X139240000Y-104320000D03*
%TO.P,A1,23,A4_23*%
%TO.N,/I2C_SDA*%
X139240000Y-101780000D03*
%TO.P,A1,24,A5_24*%
%TO.N,/I2C_SCL*%
X139240000Y-99240000D03*
%TO.P,A1,25,A6_25*%
%TO.N,unconnected-(A1-A6-Pad25)*%
X139240000Y-96700000D03*
%TO.P,A1,26,A7_26*%
%TO.N,unconnected-(A1-A7-Pad26)*%
X139240000Y-94160000D03*
%TO.P,A1,27,+5V_27*%
%TO.N,+5V*%
X139240000Y-91620000D03*
%TO.P,A1,28,~{RESET}_28*%
%TO.N,unconnected-(A1-~{RESET}-Pad28)*%
X139240000Y-89080000D03*
%TO.P,A1,29,GND_29*%
%TO.N,GND*%
X139240000Y-86540000D03*
%TO.P,A1,30,VIN_30*%
%TO.N,unconnected-(A1-VIN-Pad30)*%
X139240000Y-84000000D03*
%TD*%
D18*
%TO.P,D2,1,K_1*%
%TO.N,GND*%
X166000000Y-73500000D03*
D19*
%TO.P,D2,2,A_2*%
%TO.N,Net-(D2-A)*%
X163460000Y-73500000D03*
%TD*%
D22*
%TO.P,BZ1,1,+_1*%
%TO.N,+5V*%
X174000000Y-97000000D03*
D15*
%TO.P,BZ1,2,-_2*%
%TO.N,Net-(BZ1--)*%
X166400000Y-97000000D03*
%TD*%
%TO.N,/I2C_SDA*%
D23*
X148080000Y-92940000D02*
X148080000Y-72500000D01*
X139240000Y-101780000D02*
X148080000Y-92940000D01*
%TO.N,/RELAY*%
X152000000Y-91560000D02*
X152000000Y-78000000D01*
X139240000Y-104320000D02*
X152000000Y-91560000D01*
X178500000Y-78000000D02*
X178500000Y-81000000D01*
X153000000Y-77000000D02*
X177500000Y-77000000D01*
X152000000Y-78000000D02*
X153000000Y-77000000D01*
X177500000Y-77000000D02*
X178500000Y-78000000D01*
%TO.N,/RFID_SCK*%
X159055000Y-117780000D02*
X159055000Y-111430000D01*
X157745000Y-118375000D02*
X157785000Y-118415000D01*
X140425000Y-118375000D02*
X157745000Y-118375000D01*
X158420000Y-118415000D02*
X159055000Y-117780000D01*
X157785000Y-118415000D02*
X158420000Y-118415000D01*
X159049999Y-111430000D02*
X157399999Y-109780000D01*
X139240000Y-119560000D02*
X140425000Y-118375000D01*
X159055000Y-111430000D02*
X159049999Y-111430000D01*
%TO.N,/RFID_MISO*%
X124000000Y-119560000D02*
X125125000Y-120685000D01*
X125125000Y-120685000D02*
X150306701Y-120685000D01*
X152781701Y-123160000D02*
X153660000Y-123160000D01*
X150306701Y-120685000D02*
X152781701Y-123160000D01*
%TO.N,/LED_CZERWONA*%
X156500000Y-89600000D02*
X156500000Y-88660000D01*
X139240000Y-106860000D02*
X156500000Y-89600000D01*
%TO.N,/LED_ZIELONA*%
X139240000Y-109400000D02*
X159980000Y-88660000D01*
X159980000Y-88660000D02*
X164000000Y-88660000D01*
%TD*%
%TA.AperFunction,Conductor*%
%TO.N,GND*%
G36*
X181442539Y-69520185D02*
G01*
X181488294Y-69572989D01*
X181499500Y-69624500D01*
X181499500Y-125535500D01*
X181479815Y-125602539D01*
X181427011Y-125648294D01*
X181375500Y-125659500D01*
X110624500Y-125659500D01*
X110557461Y-125639815D01*
X110511706Y-125587011D01*
X110500500Y-125535500D01*
X110500500Y-122538711D01*
X111649500Y-122538711D01*
X111649500Y-122781288D01*
X111680763Y-123018764D01*
X111681162Y-123021789D01*
X111693932Y-123069446D01*
X111743947Y-123256104D01*
X111815733Y-123429409D01*
X111836776Y-123480212D01*
X111958064Y-123690289D01*
X111958066Y-123690292D01*
X111958067Y-123690293D01*
X112105733Y-123882736D01*
X112105739Y-123882743D01*
X112277256Y-124054260D01*
X112277263Y-124054266D01*
X112310789Y-124079991D01*
X112469711Y-124201936D01*
X112679788Y-124323224D01*
X112903900Y-124416054D01*
X113138211Y-124478838D01*
X113318586Y-124502584D01*
X113378711Y-124510500D01*
X113378712Y-124510500D01*
X113621289Y-124510500D01*
X113669388Y-124504167D01*
X113861789Y-124478838D01*
X114096100Y-124416054D01*
X114320212Y-124323224D01*
X114530289Y-124201936D01*
X114722738Y-124054265D01*
X114894265Y-123882738D01*
X115041936Y-123690289D01*
X115163224Y-123480212D01*
X115256054Y-123256100D01*
X115318838Y-123021789D01*
X115350500Y-122781288D01*
X115350500Y-122538712D01*
X115318838Y-122298211D01*
X115256054Y-122063900D01*
X115163224Y-121839788D01*
X115041936Y-121629711D01*
X114894265Y-121437262D01*
X114894260Y-121437256D01*
X114722743Y-121265739D01*
X114722736Y-121265733D01*
X114530293Y-121118067D01*
X114530292Y-121118066D01*
X114530289Y-121118064D01*
X114320212Y-120996776D01*
X114320205Y-120996773D01*
X114096104Y-120903947D01*
X113861785Y-120841161D01*
X113621289Y-120809500D01*
X113621288Y-120809500D01*
X113378712Y-120809500D01*
X113378711Y-120809500D01*
X113138214Y-120841161D01*
X112903895Y-120903947D01*
X112679794Y-120996773D01*
X112679785Y-120996777D01*
X112469706Y-121118067D01*
X112277263Y-121265733D01*
X112277256Y-121265739D01*
X112105739Y-121437256D01*
X112105733Y-121437263D01*
X111958067Y-121629706D01*
X111836777Y-121839785D01*
X111836773Y-121839794D01*
X111743947Y-122063895D01*
X111681161Y-122298214D01*
X111649500Y-122538711D01*
X110500500Y-122538711D01*
X110500500Y-119473389D01*
X122899500Y-119473389D01*
X122899500Y-119646611D01*
X122926598Y-119817701D01*
X122979067Y-119979184D01*
X122980128Y-119982447D01*
X123005843Y-120032915D01*
X123058768Y-120136788D01*
X123160586Y-120276928D01*
X123283072Y-120399414D01*
X123423212Y-120501232D01*
X123577555Y-120579873D01*
X123742299Y-120633402D01*
X123913389Y-120660500D01*
X123913390Y-120660500D01*
X124086610Y-120660500D01*
X124086611Y-120660500D01*
X124257701Y-120633402D01*
X124346918Y-120604412D01*
X124416756Y-120602418D01*
X124472915Y-120634663D01*
X124780174Y-120941921D01*
X124780184Y-120941932D01*
X124784514Y-120946262D01*
X124784515Y-120946263D01*
X124863737Y-121025485D01*
X124960763Y-121081503D01*
X125068981Y-121110500D01*
X125068982Y-121110500D01*
X150079091Y-121110500D01*
X150146130Y-121130185D01*
X150166772Y-121146819D01*
X150863888Y-121843935D01*
X150897373Y-121905258D01*
X150892389Y-121974950D01*
X150850517Y-122030883D01*
X150814525Y-122049547D01*
X150678363Y-122093787D01*
X150678360Y-122093788D01*
X150517002Y-122176006D01*
X150370505Y-122282441D01*
X150370500Y-122282445D01*
X150242445Y-122410500D01*
X150242441Y-122410505D01*
X150136004Y-122557004D01*
X150068908Y-122688685D01*
X150020933Y-122739480D01*
X149953112Y-122756275D01*
X149886977Y-122733737D01*
X149843527Y-122679021D01*
X149840492Y-122670705D01*
X149831094Y-122641780D01*
X149734624Y-122452449D01*
X149695270Y-122398282D01*
X149695269Y-122398282D01*
X149062962Y-123030590D01*
X149045925Y-122967007D01*
X148980099Y-122852993D01*
X148887007Y-122759901D01*
X148772993Y-122694075D01*
X148709409Y-122677037D01*
X149341716Y-122044728D01*
X149287550Y-122005375D01*
X149098217Y-121908904D01*
X148896129Y-121843242D01*
X148686246Y-121810000D01*
X148473754Y-121810000D01*
X148263872Y-121843242D01*
X148263869Y-121843242D01*
X148061782Y-121908904D01*
X147872439Y-122005380D01*
X147818282Y-122044727D01*
X147818282Y-122044728D01*
X148450591Y-122677037D01*
X148387007Y-122694075D01*
X148272993Y-122759901D01*
X148179901Y-122852993D01*
X148114075Y-122967007D01*
X148097037Y-123030591D01*
X147464728Y-122398282D01*
X147464727Y-122398282D01*
X147425380Y-122452439D01*
X147328905Y-122641781D01*
X147319506Y-122670708D01*
X147280068Y-122728383D01*
X147215709Y-122755581D01*
X147146862Y-122743666D01*
X147095387Y-122696421D01*
X147091090Y-122688684D01*
X147067191Y-122641780D01*
X147023996Y-122557006D01*
X146980042Y-122496508D01*
X146917558Y-122410505D01*
X146917554Y-122410500D01*
X146789499Y-122282445D01*
X146789494Y-122282441D01*
X146665432Y-122192305D01*
X146642996Y-122176005D01*
X146481639Y-122093788D01*
X146481636Y-122093787D01*
X146309410Y-122037829D01*
X146130551Y-122009500D01*
X146130546Y-122009500D01*
X145949454Y-122009500D01*
X145949449Y-122009500D01*
X145770589Y-122037829D01*
X145598363Y-122093787D01*
X145598360Y-122093788D01*
X145437002Y-122176006D01*
X145290505Y-122282441D01*
X145290500Y-122282445D01*
X145162445Y-122410500D01*
X145162441Y-122410505D01*
X145056006Y-122557002D01*
X144973788Y-122718360D01*
X144973787Y-122718363D01*
X144917829Y-122890589D01*
X144896972Y-123022271D01*
X144867042Y-123085405D01*
X144807731Y-123122336D01*
X144737868Y-123121338D01*
X144679636Y-123082728D01*
X144651522Y-123018764D01*
X144650499Y-123002872D01*
X144650499Y-122265143D01*
X144650499Y-122265136D01*
X144650497Y-122265117D01*
X144647586Y-122240012D01*
X144647585Y-122240010D01*
X144647585Y-122240009D01*
X144602206Y-122137235D01*
X144522765Y-122057794D01*
X144499934Y-122047713D01*
X144419992Y-122012415D01*
X144394865Y-122009500D01*
X142605143Y-122009500D01*
X142605117Y-122009502D01*
X142580012Y-122012413D01*
X142580008Y-122012415D01*
X142477235Y-122057793D01*
X142397794Y-122137234D01*
X142352415Y-122240006D01*
X142352415Y-122240008D01*
X142349500Y-122265131D01*
X142349500Y-124054856D01*
X142349502Y-124054882D01*
X142352413Y-124079987D01*
X142352415Y-124079991D01*
X142397793Y-124182764D01*
X142397794Y-124182765D01*
X142477235Y-124262206D01*
X142580009Y-124307585D01*
X142605135Y-124310500D01*
X144394864Y-124310499D01*
X144394879Y-124310497D01*
X144394882Y-124310497D01*
X144419987Y-124307586D01*
X144419988Y-124307585D01*
X144419991Y-124307585D01*
X144522765Y-124262206D01*
X144602206Y-124182765D01*
X144647585Y-124079991D01*
X144650500Y-124054865D01*
X144650499Y-123317125D01*
X144670183Y-123250089D01*
X144722987Y-123204334D01*
X144792146Y-123194390D01*
X144855702Y-123223415D01*
X144893476Y-123282193D01*
X144896972Y-123297729D01*
X144917829Y-123429410D01*
X144973787Y-123601636D01*
X144973788Y-123601639D01*
X145056006Y-123762997D01*
X145162441Y-123909494D01*
X145162445Y-123909499D01*
X145290500Y-124037554D01*
X145290505Y-124037558D01*
X145414565Y-124127692D01*
X145437006Y-124143996D01*
X145513094Y-124182765D01*
X145598360Y-124226211D01*
X145598363Y-124226212D01*
X145684476Y-124254191D01*
X145770591Y-124282171D01*
X145853429Y-124295291D01*
X145949449Y-124310500D01*
X145949454Y-124310500D01*
X146130551Y-124310500D01*
X146217259Y-124296765D01*
X146309409Y-124282171D01*
X146481639Y-124226211D01*
X146642994Y-124143996D01*
X146765669Y-124054868D01*
X146789495Y-124037558D01*
X146789497Y-124037555D01*
X146789501Y-124037553D01*
X146917553Y-123909501D01*
X147023996Y-123762994D01*
X147091090Y-123631314D01*
X147139065Y-123580519D01*
X147206886Y-123563724D01*
X147273021Y-123586262D01*
X147316472Y-123640977D01*
X147319506Y-123649292D01*
X147328904Y-123678217D01*
X147425375Y-123867550D01*
X147464728Y-123921716D01*
X148097037Y-123289408D01*
X148114075Y-123352993D01*
X148179901Y-123467007D01*
X148272993Y-123560099D01*
X148387007Y-123625925D01*
X148450590Y-123642962D01*
X147818282Y-124275269D01*
X147818282Y-124275270D01*
X147872449Y-124314624D01*
X148061782Y-124411095D01*
X148263870Y-124476757D01*
X148473754Y-124510000D01*
X148686246Y-124510000D01*
X148896127Y-124476757D01*
X148896130Y-124476757D01*
X149098217Y-124411095D01*
X149287554Y-124314622D01*
X149341716Y-124275270D01*
X149341717Y-124275270D01*
X148709408Y-123642962D01*
X148772993Y-123625925D01*
X148887007Y-123560099D01*
X148980099Y-123467007D01*
X149045925Y-123352993D01*
X149062962Y-123289409D01*
X149695270Y-123921717D01*
X149695270Y-123921716D01*
X149734622Y-123867554D01*
X149831095Y-123678217D01*
X149840492Y-123649295D01*
X149879928Y-123591618D01*
X149944286Y-123564419D01*
X150013133Y-123576331D01*
X150064610Y-123623574D01*
X150068908Y-123631314D01*
X150136004Y-123762995D01*
X150242441Y-123909494D01*
X150242445Y-123909499D01*
X150370500Y-124037554D01*
X150370505Y-124037558D01*
X150494565Y-124127692D01*
X150517006Y-124143996D01*
X150593094Y-124182765D01*
X150678360Y-124226211D01*
X150678363Y-124226212D01*
X150764476Y-124254191D01*
X150850591Y-124282171D01*
X150933429Y-124295291D01*
X151029449Y-124310500D01*
X151029454Y-124310500D01*
X151210551Y-124310500D01*
X151297259Y-124296765D01*
X151389409Y-124282171D01*
X151561639Y-124226211D01*
X151722994Y-124143996D01*
X151869501Y-124037553D01*
X151997553Y-123909501D01*
X152103996Y-123762994D01*
X152186211Y-123601639D01*
X152230454Y-123465470D01*
X152269888Y-123407799D01*
X152334246Y-123380600D01*
X152403093Y-123392514D01*
X152432288Y-123412490D01*
X152434201Y-123414248D01*
X152520438Y-123500485D01*
X152540888Y-123512291D01*
X152550953Y-123521541D01*
X152562208Y-123540232D01*
X152577263Y-123556021D01*
X152584976Y-123574517D01*
X152585566Y-123576331D01*
X152593791Y-123601644D01*
X152676006Y-123762997D01*
X152782441Y-123909494D01*
X152782445Y-123909499D01*
X152910500Y-124037554D01*
X152910505Y-124037558D01*
X153034565Y-124127692D01*
X153057006Y-124143996D01*
X153133094Y-124182765D01*
X153218360Y-124226211D01*
X153218363Y-124226212D01*
X153304476Y-124254191D01*
X153390591Y-124282171D01*
X153473429Y-124295291D01*
X153569449Y-124310500D01*
X153569454Y-124310500D01*
X153750551Y-124310500D01*
X153837259Y-124296765D01*
X153929409Y-124282171D01*
X154101639Y-124226211D01*
X154262994Y-124143996D01*
X154409501Y-124037553D01*
X154537553Y-123909501D01*
X154643996Y-123762994D01*
X154726211Y-123601639D01*
X154782171Y-123429409D01*
X154796422Y-123339425D01*
X154807527Y-123269321D01*
X154837456Y-123206186D01*
X154896768Y-123169255D01*
X154966630Y-123170253D01*
X155024863Y-123208863D01*
X155052473Y-123269321D01*
X155077829Y-123429410D01*
X155133787Y-123601636D01*
X155133788Y-123601639D01*
X155216006Y-123762997D01*
X155322441Y-123909494D01*
X155322445Y-123909499D01*
X155450500Y-124037554D01*
X155450505Y-124037558D01*
X155574565Y-124127692D01*
X155597006Y-124143996D01*
X155673094Y-124182765D01*
X155758360Y-124226211D01*
X155758363Y-124226212D01*
X155844476Y-124254191D01*
X155930591Y-124282171D01*
X156013429Y-124295291D01*
X156109449Y-124310500D01*
X156109454Y-124310500D01*
X156290551Y-124310500D01*
X156377259Y-124296765D01*
X156469409Y-124282171D01*
X156641639Y-124226211D01*
X156802994Y-124143996D01*
X156949501Y-124037553D01*
X157077553Y-123909501D01*
X157183996Y-123762994D01*
X157266211Y-123601639D01*
X157322171Y-123429409D01*
X157336422Y-123339425D01*
X157347527Y-123269321D01*
X157377456Y-123206186D01*
X157436768Y-123169255D01*
X157506630Y-123170253D01*
X157564863Y-123208863D01*
X157592473Y-123269321D01*
X157617829Y-123429410D01*
X157673787Y-123601636D01*
X157673788Y-123601639D01*
X157756006Y-123762997D01*
X157862441Y-123909494D01*
X157862445Y-123909499D01*
X157990500Y-124037554D01*
X157990505Y-124037558D01*
X158114565Y-124127692D01*
X158137006Y-124143996D01*
X158213094Y-124182765D01*
X158298360Y-124226211D01*
X158298363Y-124226212D01*
X158384476Y-124254191D01*
X158470591Y-124282171D01*
X158553429Y-124295291D01*
X158649449Y-124310500D01*
X158649454Y-124310500D01*
X158830551Y-124310500D01*
X158917259Y-124296765D01*
X159009409Y-124282171D01*
X159181639Y-124226211D01*
X159342994Y-124143996D01*
X159489501Y-124037553D01*
X159617553Y-123909501D01*
X159723996Y-123762994D01*
X159806211Y-123601639D01*
X159862171Y-123429409D01*
X159876422Y-123339425D01*
X159887527Y-123269321D01*
X159917456Y-123206186D01*
X159976768Y-123169255D01*
X160046630Y-123170253D01*
X160104863Y-123208863D01*
X160132473Y-123269321D01*
X160157829Y-123429410D01*
X160213787Y-123601636D01*
X160213788Y-123601639D01*
X160296006Y-123762997D01*
X160402441Y-123909494D01*
X160402445Y-123909499D01*
X160530500Y-124037554D01*
X160530505Y-124037558D01*
X160654565Y-124127692D01*
X160677006Y-124143996D01*
X160753094Y-124182765D01*
X160838360Y-124226211D01*
X160838363Y-124226212D01*
X160924476Y-124254191D01*
X161010591Y-124282171D01*
X161093429Y-124295291D01*
X161189449Y-124310500D01*
X161189454Y-124310500D01*
X161370551Y-124310500D01*
X161457259Y-124296765D01*
X161549409Y-124282171D01*
X161721639Y-124226211D01*
X161882994Y-124143996D01*
X162029501Y-124037553D01*
X162157553Y-123909501D01*
X162263996Y-123762994D01*
X162346211Y-123601639D01*
X162402171Y-123429409D01*
X162416765Y-123337259D01*
X162430500Y-123250551D01*
X162430500Y-123069447D01*
X162430499Y-123069446D01*
X162428630Y-123057648D01*
X164699500Y-123057648D01*
X164699500Y-123262351D01*
X164731522Y-123464534D01*
X164794781Y-123659223D01*
X164887715Y-123841613D01*
X165008028Y-124007213D01*
X165152786Y-124151971D01*
X165267184Y-124235084D01*
X165318390Y-124272287D01*
X165434607Y-124331503D01*
X165500776Y-124365218D01*
X165500778Y-124365218D01*
X165500781Y-124365220D01*
X165554450Y-124382658D01*
X165695465Y-124428477D01*
X165786616Y-124442914D01*
X165897648Y-124460500D01*
X165897649Y-124460500D01*
X166102351Y-124460500D01*
X166102352Y-124460500D01*
X166304534Y-124428477D01*
X166499219Y-124365220D01*
X166681610Y-124272287D01*
X166847219Y-124151966D01*
X166991966Y-124007219D01*
X166991968Y-124007215D01*
X166991971Y-124007213D01*
X167054087Y-123921716D01*
X167112287Y-123841610D01*
X167205220Y-123659219D01*
X167268477Y-123464534D01*
X167300500Y-123262352D01*
X167300500Y-123057648D01*
X167298013Y-123041947D01*
X168000000Y-123041947D01*
X168000000Y-123278052D01*
X168036934Y-123511247D01*
X168109897Y-123735802D01*
X168217087Y-123946174D01*
X168277338Y-124029104D01*
X168277340Y-124029105D01*
X169017037Y-123289408D01*
X169034075Y-123352993D01*
X169099901Y-123467007D01*
X169192993Y-123560099D01*
X169307007Y-123625925D01*
X169370590Y-123642962D01*
X168630893Y-124382658D01*
X168713828Y-124442914D01*
X168924197Y-124550102D01*
X169148752Y-124623065D01*
X169148751Y-124623065D01*
X169381948Y-124660000D01*
X169618052Y-124660000D01*
X169851247Y-124623065D01*
X170075802Y-124550102D01*
X170286163Y-124442918D01*
X170286169Y-124442914D01*
X170369104Y-124382658D01*
X170369105Y-124382658D01*
X169629408Y-123642962D01*
X169692993Y-123625925D01*
X169807007Y-123560099D01*
X169900099Y-123467007D01*
X169965925Y-123352993D01*
X169982962Y-123289408D01*
X170722658Y-124029105D01*
X170722658Y-124029104D01*
X170782914Y-123946169D01*
X170782918Y-123946163D01*
X170890102Y-123735802D01*
X170963065Y-123511247D01*
X171000000Y-123278052D01*
X171000000Y-123041947D01*
X170963065Y-122808752D01*
X170890103Y-122584200D01*
X170890101Y-122584195D01*
X170866926Y-122538711D01*
X176649500Y-122538711D01*
X176649500Y-122781288D01*
X176680763Y-123018764D01*
X176681162Y-123021789D01*
X176693932Y-123069446D01*
X176743947Y-123256104D01*
X176815733Y-123429409D01*
X176836776Y-123480212D01*
X176958064Y-123690289D01*
X176958066Y-123690292D01*
X176958067Y-123690293D01*
X177105733Y-123882736D01*
X177105739Y-123882743D01*
X177277256Y-124054260D01*
X177277263Y-124054266D01*
X177310789Y-124079991D01*
X177469711Y-124201936D01*
X177679788Y-124323224D01*
X177903900Y-124416054D01*
X178138211Y-124478838D01*
X178318586Y-124502584D01*
X178378711Y-124510500D01*
X178378712Y-124510500D01*
X178621289Y-124510500D01*
X178669388Y-124504167D01*
X178861789Y-124478838D01*
X179096100Y-124416054D01*
X179320212Y-124323224D01*
X179530289Y-124201936D01*
X179722738Y-124054265D01*
X179894265Y-123882738D01*
X180041936Y-123690289D01*
X180163224Y-123480212D01*
X180256054Y-123256100D01*
X180318838Y-123021789D01*
X180350500Y-122781288D01*
X180350500Y-122538712D01*
X180318838Y-122298211D01*
X180256054Y-122063900D01*
X180163224Y-121839788D01*
X180041936Y-121629711D01*
X179894265Y-121437262D01*
X179894260Y-121437256D01*
X179722743Y-121265739D01*
X179722736Y-121265733D01*
X179530293Y-121118067D01*
X179530292Y-121118066D01*
X179530289Y-121118064D01*
X179320212Y-120996776D01*
X179320205Y-120996773D01*
X179096104Y-120903947D01*
X178861785Y-120841161D01*
X178621289Y-120809500D01*
X178621288Y-120809500D01*
X178378712Y-120809500D01*
X178378711Y-120809500D01*
X178138214Y-120841161D01*
X177903895Y-120903947D01*
X177679794Y-120996773D01*
X177679785Y-120996777D01*
X177469706Y-121118067D01*
X177277263Y-121265733D01*
X177277256Y-121265739D01*
X177105739Y-121437256D01*
X177105733Y-121437263D01*
X176958067Y-121629706D01*
X176836777Y-121839785D01*
X176836773Y-121839794D01*
X176743947Y-122063895D01*
X176681161Y-122298214D01*
X176649500Y-122538711D01*
X170866926Y-122538711D01*
X170782914Y-122373828D01*
X170722658Y-122290894D01*
X170722658Y-122290893D01*
X169982962Y-123030590D01*
X169965925Y-122967007D01*
X169900099Y-122852993D01*
X169807007Y-122759901D01*
X169692993Y-122694075D01*
X169629409Y-122677037D01*
X170369105Y-121937340D01*
X170369104Y-121937338D01*
X170286174Y-121877087D01*
X170075802Y-121769897D01*
X169851247Y-121696934D01*
X169851248Y-121696934D01*
X169618052Y-121660000D01*
X169381948Y-121660000D01*
X169148752Y-121696934D01*
X168924197Y-121769897D01*
X168713830Y-121877084D01*
X168630894Y-121937340D01*
X169370591Y-122677037D01*
X169307007Y-122694075D01*
X169192993Y-122759901D01*
X169099901Y-122852993D01*
X169034075Y-122967007D01*
X169017037Y-123030591D01*
X168277340Y-122290894D01*
X168217084Y-122373830D01*
X168109897Y-122584197D01*
X168036934Y-122808752D01*
X168000000Y-123041947D01*
X167298013Y-123041947D01*
X167268477Y-122855466D01*
X167267673Y-122852993D01*
X167227185Y-122728383D01*
X167205220Y-122660781D01*
X167205218Y-122660778D01*
X167205218Y-122660776D01*
X167152342Y-122557002D01*
X167112287Y-122478390D01*
X167073910Y-122425568D01*
X166991971Y-122312786D01*
X166847219Y-122168034D01*
X166804826Y-122137234D01*
X166732817Y-122084917D01*
X166732816Y-122084915D01*
X166681613Y-122047715D01*
X166681612Y-122047714D01*
X166681610Y-122047713D01*
X166598527Y-122005380D01*
X166499223Y-121954781D01*
X166304534Y-121891522D01*
X166129995Y-121863878D01*
X166102352Y-121859500D01*
X165897648Y-121859500D01*
X165873329Y-121863351D01*
X165695465Y-121891522D01*
X165500776Y-121954781D01*
X165318386Y-122047715D01*
X165152786Y-122168028D01*
X165008028Y-122312786D01*
X164887715Y-122478386D01*
X164794781Y-122660776D01*
X164731522Y-122855465D01*
X164699500Y-123057648D01*
X162428630Y-123057648D01*
X162402171Y-122890589D01*
X162346212Y-122718363D01*
X162346211Y-122718360D01*
X162307191Y-122641780D01*
X162263996Y-122557006D01*
X162220042Y-122496508D01*
X162157558Y-122410505D01*
X162157554Y-122410500D01*
X162029499Y-122282445D01*
X162029494Y-122282441D01*
X161882997Y-122176006D01*
X161882996Y-122176005D01*
X161882994Y-122176004D01*
X161806906Y-122137235D01*
X161721639Y-122093788D01*
X161721636Y-122093787D01*
X161549410Y-122037829D01*
X161370551Y-122009500D01*
X161370546Y-122009500D01*
X161189454Y-122009500D01*
X161189449Y-122009500D01*
X161010589Y-122037829D01*
X160838363Y-122093787D01*
X160838360Y-122093788D01*
X160677002Y-122176006D01*
X160530505Y-122282441D01*
X160530500Y-122282445D01*
X160402445Y-122410500D01*
X160402441Y-122410505D01*
X160296006Y-122557002D01*
X160213788Y-122718360D01*
X160213787Y-122718363D01*
X160157829Y-122890589D01*
X160132473Y-123050678D01*
X160102544Y-123113813D01*
X160043232Y-123150744D01*
X159973369Y-123149746D01*
X159915137Y-123111136D01*
X159887527Y-123050678D01*
X159873740Y-122963639D01*
X159862171Y-122890591D01*
X159818530Y-122756275D01*
X159806212Y-122718363D01*
X159806211Y-122718360D01*
X159767191Y-122641780D01*
X159723996Y-122557006D01*
X159680042Y-122496508D01*
X159617558Y-122410505D01*
X159617554Y-122410500D01*
X159489499Y-122282445D01*
X159489494Y-122282441D01*
X159342997Y-122176006D01*
X159342996Y-122176005D01*
X159342994Y-122176004D01*
X159266906Y-122137235D01*
X159181639Y-122093788D01*
X159181636Y-122093787D01*
X159009410Y-122037829D01*
X158830551Y-122009500D01*
X158830546Y-122009500D01*
X158649454Y-122009500D01*
X158649449Y-122009500D01*
X158470589Y-122037829D01*
X158298363Y-122093787D01*
X158298360Y-122093788D01*
X158137002Y-122176006D01*
X157990505Y-122282441D01*
X157990500Y-122282445D01*
X157862445Y-122410500D01*
X157862441Y-122410505D01*
X157756006Y-122557002D01*
X157673788Y-122718360D01*
X157673787Y-122718363D01*
X157617829Y-122890589D01*
X157592473Y-123050678D01*
X157562544Y-123113813D01*
X157503232Y-123150744D01*
X157433369Y-123149746D01*
X157375137Y-123111136D01*
X157347527Y-123050678D01*
X157333740Y-122963639D01*
X157322171Y-122890591D01*
X157278530Y-122756275D01*
X157266212Y-122718363D01*
X157266211Y-122718360D01*
X157227191Y-122641780D01*
X157183996Y-122557006D01*
X157140042Y-122496508D01*
X157077558Y-122410505D01*
X157077554Y-122410500D01*
X156949499Y-122282445D01*
X156949494Y-122282441D01*
X156802997Y-122176006D01*
X156802996Y-122176005D01*
X156802994Y-122176004D01*
X156726906Y-122137235D01*
X156641639Y-122093788D01*
X156641636Y-122093787D01*
X156469410Y-122037829D01*
X156290551Y-122009500D01*
X156290546Y-122009500D01*
X156109454Y-122009500D01*
X156109449Y-122009500D01*
X155930589Y-122037829D01*
X155758363Y-122093787D01*
X155758360Y-122093788D01*
X155597002Y-122176006D01*
X155450505Y-122282441D01*
X155450500Y-122282445D01*
X155322445Y-122410500D01*
X155322441Y-122410505D01*
X155216006Y-122557002D01*
X155133788Y-122718360D01*
X155133787Y-122718363D01*
X155077829Y-122890589D01*
X155052473Y-123050678D01*
X155022544Y-123113813D01*
X154963232Y-123150744D01*
X154893369Y-123149746D01*
X154835137Y-123111136D01*
X154807527Y-123050678D01*
X154793740Y-122963639D01*
X154782171Y-122890591D01*
X154738530Y-122756275D01*
X154726212Y-122718363D01*
X154726211Y-122718360D01*
X154687191Y-122641780D01*
X154643996Y-122557006D01*
X154600042Y-122496508D01*
X154537558Y-122410505D01*
X154537554Y-122410500D01*
X154409499Y-122282445D01*
X154409494Y-122282441D01*
X154262997Y-122176006D01*
X154262996Y-122176005D01*
X154262994Y-122176004D01*
X154186906Y-122137235D01*
X154101639Y-122093788D01*
X154101636Y-122093787D01*
X153929410Y-122037829D01*
X153750551Y-122009500D01*
X153750546Y-122009500D01*
X153569454Y-122009500D01*
X153569449Y-122009500D01*
X153390589Y-122037829D01*
X153218363Y-122093787D01*
X153218360Y-122093788D01*
X153057002Y-122176006D01*
X152910506Y-122282440D01*
X152795878Y-122397068D01*
X152734555Y-122430552D01*
X152664863Y-122425568D01*
X152620516Y-122397067D01*
X151434093Y-121210644D01*
X151400608Y-121149321D01*
X151405592Y-121079629D01*
X151447464Y-121023696D01*
X151483450Y-121005035D01*
X151622445Y-120959873D01*
X151776788Y-120881232D01*
X151916928Y-120779414D01*
X152039414Y-120656928D01*
X152141232Y-120516788D01*
X152219873Y-120362445D01*
X152273402Y-120197701D01*
X152300500Y-120026611D01*
X152300500Y-119853389D01*
X152273402Y-119682299D01*
X152219873Y-119517555D01*
X152141232Y-119363212D01*
X152039414Y-119223072D01*
X151916928Y-119100586D01*
X151812641Y-119024816D01*
X151769977Y-118969488D01*
X151763998Y-118899874D01*
X151796604Y-118838079D01*
X151857443Y-118803722D01*
X151885528Y-118800500D01*
X153614471Y-118800500D01*
X153681510Y-118820185D01*
X153727265Y-118872989D01*
X153737209Y-118942147D01*
X153708184Y-119005703D01*
X153687359Y-119024815D01*
X153583071Y-119100586D01*
X153583069Y-119100588D01*
X153583068Y-119100588D01*
X153460587Y-119223069D01*
X153460587Y-119223070D01*
X153460585Y-119223072D01*
X153446616Y-119242299D01*
X153358767Y-119363211D01*
X153280127Y-119517552D01*
X153226596Y-119682302D01*
X153216570Y-119745606D01*
X153199499Y-119853389D01*
X153199499Y-120026611D01*
X153226597Y-120197701D01*
X153280126Y-120362445D01*
X153358767Y-120516788D01*
X153460585Y-120656928D01*
X153583071Y-120779414D01*
X153723211Y-120881232D01*
X153877554Y-120959873D01*
X154042298Y-121013402D01*
X154213388Y-121040500D01*
X154213389Y-121040500D01*
X154386609Y-121040500D01*
X154386610Y-121040500D01*
X154557700Y-121013402D01*
X154722444Y-120959873D01*
X154876787Y-120881232D01*
X155016927Y-120779414D01*
X155139413Y-120656928D01*
X155241231Y-120516788D01*
X155319872Y-120362445D01*
X155373401Y-120197701D01*
X155400499Y-120026611D01*
X155400499Y-119853389D01*
X155373401Y-119682299D01*
X155319872Y-119517555D01*
X155241231Y-119363212D01*
X155139413Y-119223072D01*
X155016927Y-119100586D01*
X154912640Y-119024816D01*
X154869976Y-118969488D01*
X154863997Y-118899874D01*
X154896603Y-118838079D01*
X154957442Y-118803722D01*
X154985527Y-118800500D01*
X156714471Y-118800500D01*
X156781510Y-118820185D01*
X156827265Y-118872989D01*
X156837209Y-118942147D01*
X156808184Y-119005703D01*
X156787359Y-119024815D01*
X156683071Y-119100586D01*
X156683069Y-119100588D01*
X156683068Y-119100588D01*
X156560587Y-119223069D01*
X156560587Y-119223070D01*
X156560585Y-119223072D01*
X156546616Y-119242299D01*
X156458767Y-119363211D01*
X156380127Y-119517552D01*
X156326596Y-119682302D01*
X156316570Y-119745606D01*
X156299499Y-119853389D01*
X156299499Y-120026611D01*
X156326597Y-120197701D01*
X156380126Y-120362445D01*
X156458767Y-120516788D01*
X156560585Y-120656928D01*
X156683071Y-120779414D01*
X156823211Y-120881232D01*
X156977554Y-120959873D01*
X157142298Y-121013402D01*
X157313388Y-121040500D01*
X157313389Y-121040500D01*
X157486609Y-121040500D01*
X157486610Y-121040500D01*
X157657700Y-121013402D01*
X157822444Y-120959873D01*
X157976787Y-120881232D01*
X158116927Y-120779414D01*
X158239413Y-120656928D01*
X158341231Y-120516788D01*
X158419872Y-120362445D01*
X158473401Y-120197701D01*
X158500499Y-120026611D01*
X158500499Y-119853389D01*
X159399500Y-119853389D01*
X159399500Y-120026611D01*
X159426598Y-120197701D01*
X159480127Y-120362445D01*
X159558768Y-120516788D01*
X159660586Y-120656928D01*
X159783072Y-120779414D01*
X159923212Y-120881232D01*
X160077555Y-120959873D01*
X160242299Y-121013402D01*
X160413389Y-121040500D01*
X160413390Y-121040500D01*
X160586610Y-121040500D01*
X160586611Y-121040500D01*
X160757701Y-121013402D01*
X160922445Y-120959873D01*
X161076788Y-120881232D01*
X161216928Y-120779414D01*
X161339414Y-120656928D01*
X161441232Y-120516788D01*
X161519873Y-120362445D01*
X161573402Y-120197701D01*
X161600500Y-120026611D01*
X161600500Y-119853389D01*
X162499500Y-119853389D01*
X162499500Y-120026611D01*
X162526598Y-120197701D01*
X162580127Y-120362445D01*
X162658768Y-120516788D01*
X162760586Y-120656928D01*
X162883072Y-120779414D01*
X163023212Y-120881232D01*
X163177555Y-120959873D01*
X163342299Y-121013402D01*
X163513389Y-121040500D01*
X163513390Y-121040500D01*
X163686610Y-121040500D01*
X163686611Y-121040500D01*
X163857701Y-121013402D01*
X164022445Y-120959873D01*
X164176788Y-120881232D01*
X164316928Y-120779414D01*
X164439414Y-120656928D01*
X164541232Y-120516788D01*
X164619873Y-120362445D01*
X164673402Y-120197701D01*
X164700500Y-120026611D01*
X164700500Y-119853389D01*
X165599500Y-119853389D01*
X165599500Y-120026611D01*
X165626598Y-120197701D01*
X165680127Y-120362445D01*
X165758768Y-120516788D01*
X165860586Y-120656928D01*
X165983072Y-120779414D01*
X166123212Y-120881232D01*
X166277555Y-120959873D01*
X166442299Y-121013402D01*
X166613389Y-121040500D01*
X166613390Y-121040500D01*
X166786610Y-121040500D01*
X166786611Y-121040500D01*
X166957701Y-121013402D01*
X167122445Y-120959873D01*
X167276788Y-120881232D01*
X167416928Y-120779414D01*
X167539414Y-120656928D01*
X167641232Y-120516788D01*
X167719873Y-120362445D01*
X167773402Y-120197701D01*
X167800500Y-120026611D01*
X167800500Y-119853389D01*
X167773402Y-119682299D01*
X167719873Y-119517555D01*
X167641232Y-119363212D01*
X167539414Y-119223072D01*
X167416928Y-119100586D01*
X167276788Y-118998768D01*
X167122445Y-118920127D01*
X166957701Y-118866598D01*
X166957699Y-118866597D01*
X166957698Y-118866597D01*
X166826271Y-118845781D01*
X166786611Y-118839500D01*
X166613389Y-118839500D01*
X166573728Y-118845781D01*
X166442302Y-118866597D01*
X166277552Y-118920128D01*
X166123211Y-118998768D01*
X166087357Y-119024818D01*
X165983072Y-119100586D01*
X165983070Y-119100588D01*
X165983069Y-119100588D01*
X165860588Y-119223069D01*
X165860588Y-119223070D01*
X165860586Y-119223072D01*
X165846617Y-119242299D01*
X165758768Y-119363211D01*
X165680128Y-119517552D01*
X165626597Y-119682302D01*
X165616571Y-119745606D01*
X165599500Y-119853389D01*
X164700500Y-119853389D01*
X164673402Y-119682299D01*
X164619873Y-119517555D01*
X164541232Y-119363212D01*
X164439414Y-119223072D01*
X164316928Y-119100586D01*
X164176788Y-118998768D01*
X164022445Y-118920127D01*
X163857701Y-118866598D01*
X163857699Y-118866597D01*
X163857698Y-118866597D01*
X163726271Y-118845781D01*
X163686611Y-118839500D01*
X163513389Y-118839500D01*
X163473728Y-118845781D01*
X163342302Y-118866597D01*
X163177552Y-118920128D01*
X163023211Y-118998768D01*
X162987357Y-119024818D01*
X162883072Y-119100586D01*
X162883070Y-119100588D01*
X162883069Y-119100588D01*
X162760588Y-119223069D01*
X162760588Y-119223070D01*
X162760586Y-119223072D01*
X162746617Y-119242299D01*
X162658768Y-119363211D01*
X162580128Y-119517552D01*
X162526597Y-119682302D01*
X162516571Y-119745606D01*
X162499500Y-119853389D01*
X161600500Y-119853389D01*
X161573402Y-119682299D01*
X161519873Y-119517555D01*
X161441232Y-119363212D01*
X161339414Y-119223072D01*
X161216928Y-119100586D01*
X161076788Y-118998768D01*
X160922445Y-118920127D01*
X160757701Y-118866598D01*
X160757699Y-118866597D01*
X160757698Y-118866597D01*
X160626271Y-118845781D01*
X160586611Y-118839500D01*
X160413389Y-118839500D01*
X160373728Y-118845781D01*
X160242302Y-118866597D01*
X160077552Y-118920128D01*
X159923211Y-118998768D01*
X159887357Y-119024818D01*
X159783072Y-119100586D01*
X159783070Y-119100588D01*
X159783069Y-119100588D01*
X159660588Y-119223069D01*
X159660588Y-119223070D01*
X159660586Y-119223072D01*
X159646617Y-119242299D01*
X159558768Y-119363211D01*
X159480128Y-119517552D01*
X159426597Y-119682302D01*
X159416571Y-119745606D01*
X159399500Y-119853389D01*
X158500499Y-119853389D01*
X158473401Y-119682299D01*
X158419872Y-119517555D01*
X158341231Y-119363212D01*
X158239413Y-119223072D01*
X158116927Y-119100586D01*
X158067695Y-119064816D01*
X158025031Y-119009488D01*
X158019052Y-118939874D01*
X158051658Y-118878079D01*
X158112497Y-118843722D01*
X158140582Y-118840500D01*
X158476016Y-118840500D01*
X158476018Y-118840500D01*
X158584237Y-118811503D01*
X158681263Y-118755485D01*
X159395485Y-118041263D01*
X159451503Y-117944237D01*
X159480500Y-117836018D01*
X159480500Y-117723981D01*
X159480500Y-116897648D01*
X171199500Y-116897648D01*
X171199500Y-117102352D01*
X171200175Y-117106611D01*
X171231522Y-117304534D01*
X171294781Y-117499223D01*
X171387715Y-117681613D01*
X171508028Y-117847213D01*
X171652786Y-117991971D01*
X171792397Y-118093402D01*
X171818390Y-118112287D01*
X171934607Y-118171503D01*
X172000776Y-118205218D01*
X172000778Y-118205218D01*
X172000781Y-118205220D01*
X172105137Y-118239127D01*
X172195465Y-118268477D01*
X172296557Y-118284488D01*
X172397648Y-118300500D01*
X172397649Y-118300500D01*
X172602351Y-118300500D01*
X172602352Y-118300500D01*
X172804534Y-118268477D01*
X172999219Y-118205220D01*
X173181610Y-118112287D01*
X173279367Y-118041263D01*
X173347213Y-117991971D01*
X173347215Y-117991968D01*
X173347219Y-117991966D01*
X173491966Y-117847219D01*
X173491968Y-117847215D01*
X173491971Y-117847213D01*
X173572095Y-117736930D01*
X173612287Y-117681610D01*
X173705220Y-117499219D01*
X173768477Y-117304534D01*
X173800500Y-117102352D01*
X173800500Y-116897648D01*
X173779063Y-116762302D01*
X173768477Y-116695465D01*
X173705218Y-116500776D01*
X173671503Y-116434607D01*
X173612287Y-116318390D01*
X173601158Y-116303072D01*
X173491971Y-116152786D01*
X173347213Y-116008028D01*
X173181613Y-115887715D01*
X173181612Y-115887714D01*
X173181610Y-115887713D01*
X173124653Y-115858691D01*
X172999223Y-115794781D01*
X172804534Y-115731522D01*
X172629995Y-115703878D01*
X172602352Y-115699500D01*
X172397648Y-115699500D01*
X172373329Y-115703351D01*
X172195465Y-115731522D01*
X172000776Y-115794781D01*
X171818386Y-115887715D01*
X171652786Y-116008028D01*
X171508028Y-116152786D01*
X171387715Y-116318386D01*
X171294781Y-116500776D01*
X171231522Y-116695465D01*
X171199500Y-116897648D01*
X159480500Y-116897648D01*
X159480500Y-111373982D01*
X159451503Y-111265763D01*
X159395485Y-111168737D01*
X159316263Y-111089515D01*
X159316260Y-111089513D01*
X159309814Y-111084567D01*
X159310025Y-111084291D01*
X159292884Y-111071138D01*
X159121642Y-110899896D01*
X158858514Y-110636768D01*
X158474662Y-110252915D01*
X158441177Y-110191592D01*
X158444411Y-110126918D01*
X158473401Y-110037701D01*
X158500499Y-109866611D01*
X158500499Y-109693389D01*
X158498011Y-109677682D01*
X159200000Y-109677682D01*
X159200000Y-109882317D01*
X159232009Y-110084417D01*
X159295244Y-110279031D01*
X159388141Y-110461350D01*
X159388147Y-110461359D01*
X159420523Y-110505921D01*
X159420524Y-110505922D01*
X160100000Y-109826446D01*
X160100000Y-109832661D01*
X160127259Y-109934394D01*
X160179920Y-110025606D01*
X160254394Y-110100080D01*
X160345606Y-110152741D01*
X160447339Y-110180000D01*
X160453553Y-110180000D01*
X159774076Y-110859474D01*
X159818650Y-110891859D01*
X160000968Y-110984755D01*
X160195582Y-111047990D01*
X160397683Y-111080000D01*
X160602317Y-111080000D01*
X160804417Y-111047990D01*
X160999031Y-110984755D01*
X161181349Y-110891859D01*
X161225921Y-110859474D01*
X160546447Y-110180000D01*
X160552661Y-110180000D01*
X160654394Y-110152741D01*
X160745606Y-110100080D01*
X160820080Y-110025606D01*
X160872741Y-109934394D01*
X160900000Y-109832661D01*
X160900000Y-109826448D01*
X161579474Y-110505922D01*
X161579474Y-110505921D01*
X161611859Y-110461349D01*
X161704755Y-110279031D01*
X161767990Y-110084417D01*
X161800000Y-109882317D01*
X161800000Y-109693389D01*
X162499500Y-109693389D01*
X162499500Y-109866611D01*
X162526598Y-110037701D01*
X162580127Y-110202445D01*
X162658768Y-110356788D01*
X162760586Y-110496928D01*
X162883072Y-110619414D01*
X163023212Y-110721232D01*
X163177555Y-110799873D01*
X163342299Y-110853402D01*
X163513389Y-110880500D01*
X163513390Y-110880500D01*
X163686610Y-110880500D01*
X163686611Y-110880500D01*
X163857701Y-110853402D01*
X164022445Y-110799873D01*
X164176788Y-110721232D01*
X164316928Y-110619414D01*
X164439414Y-110496928D01*
X164541232Y-110356788D01*
X164619873Y-110202445D01*
X164673402Y-110037701D01*
X164700500Y-109866611D01*
X164700500Y-109693389D01*
X164698012Y-109677682D01*
X165400000Y-109677682D01*
X165400000Y-109882317D01*
X165432009Y-110084417D01*
X165495244Y-110279031D01*
X165588141Y-110461350D01*
X165588147Y-110461359D01*
X165620523Y-110505921D01*
X165620524Y-110505922D01*
X166300000Y-109826446D01*
X166300000Y-109832661D01*
X166327259Y-109934394D01*
X166379920Y-110025606D01*
X166454394Y-110100080D01*
X166545606Y-110152741D01*
X166647339Y-110180000D01*
X166653553Y-110180000D01*
X165974076Y-110859474D01*
X166018650Y-110891859D01*
X166200968Y-110984755D01*
X166395582Y-111047990D01*
X166597683Y-111080000D01*
X166802317Y-111080000D01*
X167004417Y-111047990D01*
X167199031Y-110984755D01*
X167381349Y-110891859D01*
X167425921Y-110859474D01*
X166746447Y-110180000D01*
X166752661Y-110180000D01*
X166854394Y-110152741D01*
X166945606Y-110100080D01*
X167020080Y-110025606D01*
X167072741Y-109934394D01*
X167100000Y-109832661D01*
X167100000Y-109826448D01*
X167779474Y-110505922D01*
X167779474Y-110505921D01*
X167811859Y-110461349D01*
X167904755Y-110279031D01*
X167967990Y-110084417D01*
X168000000Y-109882317D01*
X168000000Y-109677682D01*
X167967990Y-109475582D01*
X167904755Y-109280968D01*
X167811859Y-109098650D01*
X167779474Y-109054077D01*
X167779474Y-109054076D01*
X167100000Y-109733551D01*
X167100000Y-109727339D01*
X167072741Y-109625606D01*
X167020080Y-109534394D01*
X166945606Y-109459920D01*
X166854394Y-109407259D01*
X166752661Y-109380000D01*
X166746446Y-109380000D01*
X167425922Y-108700524D01*
X167425921Y-108700523D01*
X167381359Y-108668147D01*
X167381350Y-108668141D01*
X167199031Y-108575244D01*
X167004417Y-108512009D01*
X166802317Y-108480000D01*
X166597683Y-108480000D01*
X166395582Y-108512009D01*
X166200968Y-108575244D01*
X166018644Y-108668143D01*
X165974077Y-108700523D01*
X165974077Y-108700524D01*
X166653554Y-109380000D01*
X166647339Y-109380000D01*
X166545606Y-109407259D01*
X166454394Y-109459920D01*
X166379920Y-109534394D01*
X166327259Y-109625606D01*
X166300000Y-109727339D01*
X166300000Y-109733553D01*
X165620524Y-109054077D01*
X165620523Y-109054077D01*
X165588143Y-109098644D01*
X165495244Y-109280968D01*
X165432009Y-109475582D01*
X165400000Y-109677682D01*
X164698012Y-109677682D01*
X164673402Y-109522299D01*
X164619873Y-109357555D01*
X164541232Y-109203212D01*
X164439414Y-109063072D01*
X164316928Y-108940586D01*
X164176788Y-108838768D01*
X164176789Y-108838768D01*
X164176787Y-108838767D01*
X164022447Y-108760128D01*
X164022446Y-108760127D01*
X164022445Y-108760127D01*
X163857701Y-108706598D01*
X163857699Y-108706597D01*
X163857698Y-108706597D01*
X163726271Y-108685781D01*
X163686611Y-108679500D01*
X163513389Y-108679500D01*
X163473728Y-108685781D01*
X163342302Y-108706597D01*
X163177552Y-108760128D01*
X163023211Y-108838768D01*
X162943256Y-108896859D01*
X162883072Y-108940586D01*
X162883070Y-108940588D01*
X162883069Y-108940588D01*
X162760588Y-109063069D01*
X162760588Y-109063070D01*
X162760586Y-109063072D01*
X162734737Y-109098650D01*
X162658768Y-109203211D01*
X162580128Y-109357552D01*
X162526597Y-109522302D01*
X162524682Y-109534394D01*
X162499500Y-109693389D01*
X161800000Y-109693389D01*
X161800000Y-109677682D01*
X161767990Y-109475582D01*
X161704755Y-109280968D01*
X161611859Y-109098650D01*
X161579474Y-109054077D01*
X161579474Y-109054076D01*
X160900000Y-109733551D01*
X160900000Y-109727339D01*
X160872741Y-109625606D01*
X160820080Y-109534394D01*
X160745606Y-109459920D01*
X160654394Y-109407259D01*
X160552661Y-109380000D01*
X160546446Y-109380000D01*
X161225922Y-108700524D01*
X161225921Y-108700523D01*
X161181359Y-108668147D01*
X161181350Y-108668141D01*
X160999031Y-108575244D01*
X160804417Y-108512009D01*
X160602317Y-108480000D01*
X160397683Y-108480000D01*
X160195582Y-108512009D01*
X160000968Y-108575244D01*
X159818644Y-108668143D01*
X159774077Y-108700523D01*
X159774077Y-108700524D01*
X160453554Y-109380000D01*
X160447339Y-109380000D01*
X160345606Y-109407259D01*
X160254394Y-109459920D01*
X160179920Y-109534394D01*
X160127259Y-109625606D01*
X160100000Y-109727339D01*
X160100000Y-109733553D01*
X159420524Y-109054077D01*
X159420523Y-109054077D01*
X159388143Y-109098644D01*
X159295244Y-109280968D01*
X159232009Y-109475582D01*
X159200000Y-109677682D01*
X158498011Y-109677682D01*
X158473401Y-109522299D01*
X158419872Y-109357555D01*
X158341231Y-109203212D01*
X158239413Y-109063072D01*
X158116927Y-108940586D01*
X157976787Y-108838768D01*
X157976788Y-108838768D01*
X157976786Y-108838767D01*
X157822446Y-108760128D01*
X157822445Y-108760127D01*
X157822444Y-108760127D01*
X157657700Y-108706598D01*
X157657698Y-108706597D01*
X157657697Y-108706597D01*
X157526270Y-108685781D01*
X157486610Y-108679500D01*
X157313388Y-108679500D01*
X157273727Y-108685781D01*
X157142301Y-108706597D01*
X156977551Y-108760128D01*
X156823210Y-108838768D01*
X156743255Y-108896859D01*
X156683071Y-108940586D01*
X156683069Y-108940588D01*
X156683068Y-108940588D01*
X156560587Y-109063069D01*
X156560587Y-109063070D01*
X156560585Y-109063072D01*
X156534736Y-109098650D01*
X156458767Y-109203211D01*
X156380127Y-109357552D01*
X156326596Y-109522302D01*
X156324681Y-109534394D01*
X156299499Y-109693389D01*
X156299499Y-109866611D01*
X156326597Y-110037701D01*
X156380126Y-110202445D01*
X156458767Y-110356788D01*
X156560585Y-110496928D01*
X156683071Y-110619414D01*
X156823211Y-110721232D01*
X156977554Y-110799873D01*
X157142298Y-110853402D01*
X157313388Y-110880500D01*
X157313389Y-110880500D01*
X157486609Y-110880500D01*
X157486610Y-110880500D01*
X157657700Y-110853402D01*
X157746917Y-110824412D01*
X157816755Y-110822418D01*
X157872914Y-110854663D01*
X158593181Y-111574929D01*
X158626666Y-111636252D01*
X158629500Y-111662610D01*
X158629500Y-117552390D01*
X158609815Y-117619429D01*
X158593181Y-117640071D01*
X158280071Y-117953181D01*
X158218748Y-117986666D01*
X158192390Y-117989500D01*
X157960465Y-117989500D01*
X157913012Y-117980061D01*
X157909237Y-117978497D01*
X157801018Y-117949500D01*
X140481018Y-117949500D01*
X140368982Y-117949500D01*
X140260763Y-117978497D01*
X140260760Y-117978498D01*
X140163740Y-118034513D01*
X140163734Y-118034517D01*
X139712915Y-118485335D01*
X139651592Y-118518820D01*
X139586916Y-118515585D01*
X139497704Y-118486598D01*
X139369383Y-118466274D01*
X139326611Y-118459500D01*
X139153389Y-118459500D01*
X139113728Y-118465781D01*
X138982302Y-118486597D01*
X138817552Y-118540128D01*
X138663211Y-118618768D01*
X138583256Y-118676859D01*
X138523072Y-118720586D01*
X138523070Y-118720588D01*
X138523069Y-118720588D01*
X138400588Y-118843069D01*
X138400588Y-118843070D01*
X138400586Y-118843072D01*
X138378850Y-118872989D01*
X138298768Y-118983211D01*
X138220128Y-119137552D01*
X138220127Y-119137554D01*
X138220127Y-119137555D01*
X138206362Y-119179920D01*
X138166597Y-119302302D01*
X138156950Y-119363211D01*
X138139500Y-119473389D01*
X138139500Y-119646611D01*
X138166598Y-119817701D01*
X138219067Y-119979184D01*
X138220129Y-119982450D01*
X138269428Y-120079206D01*
X138282324Y-120147875D01*
X138256047Y-120212615D01*
X138198941Y-120252872D01*
X138158943Y-120259500D01*
X125352609Y-120259500D01*
X125285570Y-120239815D01*
X125264928Y-120223181D01*
X125074663Y-120032915D01*
X125041178Y-119971592D01*
X125044412Y-119906918D01*
X125073402Y-119817701D01*
X125100500Y-119646611D01*
X125100500Y-119473389D01*
X125073402Y-119302299D01*
X125019873Y-119137555D01*
X124941232Y-118983212D01*
X124839414Y-118843072D01*
X124716928Y-118720586D01*
X124576788Y-118618768D01*
X124422445Y-118540127D01*
X124257701Y-118486598D01*
X124257699Y-118486597D01*
X124257698Y-118486597D01*
X124126271Y-118465781D01*
X124086611Y-118459500D01*
X123913389Y-118459500D01*
X123873728Y-118465781D01*
X123742302Y-118486597D01*
X123577552Y-118540128D01*
X123423211Y-118618768D01*
X123343256Y-118676859D01*
X123283072Y-118720586D01*
X123283070Y-118720588D01*
X123283069Y-118720588D01*
X123160588Y-118843069D01*
X123160588Y-118843070D01*
X123160586Y-118843072D01*
X123138850Y-118872989D01*
X123058768Y-118983211D01*
X122980128Y-119137552D01*
X122980127Y-119137554D01*
X122980127Y-119137555D01*
X122966362Y-119179920D01*
X122926597Y-119302302D01*
X122916950Y-119363211D01*
X122899500Y-119473389D01*
X110500500Y-119473389D01*
X110500500Y-116933389D01*
X122899500Y-116933389D01*
X122899500Y-117106611D01*
X122926598Y-117277701D01*
X122980127Y-117442445D01*
X123058768Y-117596788D01*
X123160586Y-117736928D01*
X123283072Y-117859414D01*
X123423212Y-117961232D01*
X123577555Y-118039873D01*
X123742299Y-118093402D01*
X123913389Y-118120500D01*
X123913390Y-118120500D01*
X124086610Y-118120500D01*
X124086611Y-118120500D01*
X124257701Y-118093402D01*
X124422445Y-118039873D01*
X124576788Y-117961232D01*
X124716928Y-117859414D01*
X124839414Y-117736928D01*
X124941232Y-117596788D01*
X125019873Y-117442445D01*
X125073402Y-117277701D01*
X125100500Y-117106611D01*
X125100500Y-116933389D01*
X138139500Y-116933389D01*
X138139500Y-117106611D01*
X138166598Y-117277701D01*
X138220127Y-117442445D01*
X138298768Y-117596788D01*
X138400586Y-117736928D01*
X138523072Y-117859414D01*
X138663212Y-117961232D01*
X138817555Y-118039873D01*
X138982299Y-118093402D01*
X139153389Y-118120500D01*
X139153390Y-118120500D01*
X139326610Y-118120500D01*
X139326611Y-118120500D01*
X139497701Y-118093402D01*
X139662445Y-118039873D01*
X139816788Y-117961232D01*
X139956928Y-117859414D01*
X140079414Y-117736928D01*
X140181232Y-117596788D01*
X140259873Y-117442445D01*
X140313402Y-117277701D01*
X140340500Y-117106611D01*
X140340500Y-116933389D01*
X140313402Y-116762299D01*
X140259873Y-116597555D01*
X140181232Y-116443212D01*
X140079414Y-116303072D01*
X139956928Y-116180586D01*
X139816788Y-116078768D01*
X139662447Y-116000128D01*
X139662446Y-116000127D01*
X139662445Y-116000127D01*
X139497701Y-115946598D01*
X139497699Y-115946597D01*
X139497698Y-115946597D01*
X139366271Y-115925781D01*
X139326611Y-115919500D01*
X139153389Y-115919500D01*
X139113728Y-115925781D01*
X138982302Y-115946597D01*
X138817552Y-116000128D01*
X138663211Y-116078768D01*
X138583256Y-116136859D01*
X138523072Y-116180586D01*
X138523070Y-116180588D01*
X138523069Y-116180588D01*
X138400588Y-116303069D01*
X138400588Y-116303070D01*
X138400586Y-116303072D01*
X138389460Y-116318386D01*
X138298768Y-116443211D01*
X138220128Y-116597552D01*
X138166597Y-116762302D01*
X138145161Y-116897648D01*
X138139500Y-116933389D01*
X125100500Y-116933389D01*
X125073402Y-116762299D01*
X125019873Y-116597555D01*
X124941232Y-116443212D01*
X124839414Y-116303072D01*
X124716928Y-116180586D01*
X124576788Y-116078768D01*
X124422447Y-116000128D01*
X124422446Y-116000127D01*
X124422445Y-116000127D01*
X124257701Y-115946598D01*
X124257699Y-115946597D01*
X124257698Y-115946597D01*
X124126271Y-115925781D01*
X124086611Y-115919500D01*
X123913389Y-115919500D01*
X123873728Y-115925781D01*
X123742302Y-115946597D01*
X123577552Y-116000128D01*
X123423211Y-116078768D01*
X123343256Y-116136859D01*
X123283072Y-116180586D01*
X123283070Y-116180588D01*
X123283069Y-116180588D01*
X123160588Y-116303069D01*
X123160588Y-116303070D01*
X123160586Y-116303072D01*
X123149460Y-116318386D01*
X123058768Y-116443211D01*
X122980128Y-116597552D01*
X122926597Y-116762302D01*
X122905161Y-116897648D01*
X122899500Y-116933389D01*
X110500500Y-116933389D01*
X110500500Y-114393389D01*
X122899500Y-114393389D01*
X122899500Y-114566611D01*
X122926598Y-114737701D01*
X122980127Y-114902445D01*
X123058768Y-115056788D01*
X123160586Y-115196928D01*
X123283072Y-115319414D01*
X123423212Y-115421232D01*
X123577555Y-115499873D01*
X123742299Y-115553402D01*
X123913389Y-115580500D01*
X123913390Y-115580500D01*
X124086610Y-115580500D01*
X124086611Y-115580500D01*
X124257701Y-115553402D01*
X124422445Y-115499873D01*
X124576788Y-115421232D01*
X124716928Y-115319414D01*
X124839414Y-115196928D01*
X124941232Y-115056788D01*
X125019873Y-114902445D01*
X125073402Y-114737701D01*
X125100500Y-114566611D01*
X125100500Y-114393389D01*
X138139500Y-114393389D01*
X138139500Y-114566611D01*
X138166598Y-114737701D01*
X138220127Y-114902445D01*
X138298768Y-115056788D01*
X138400586Y-115196928D01*
X138523072Y-115319414D01*
X138663212Y-115421232D01*
X138817555Y-115499873D01*
X138982299Y-115553402D01*
X139153389Y-115580500D01*
X139153390Y-115580500D01*
X139326610Y-115580500D01*
X139326611Y-115580500D01*
X139497701Y-115553402D01*
X139662445Y-115499873D01*
X139816788Y-115421232D01*
X139956928Y-115319414D01*
X140079414Y-115196928D01*
X140181232Y-115056788D01*
X140259873Y-114902445D01*
X140313402Y-114737701D01*
X140340500Y-114566611D01*
X140340500Y-114393389D01*
X140313402Y-114222299D01*
X140259873Y-114057555D01*
X140194380Y-113929017D01*
X140183110Y-113906898D01*
X142899500Y-113906898D01*
X142899500Y-115093102D01*
X142905126Y-115139954D01*
X142910122Y-115181561D01*
X142965639Y-115322343D01*
X143057077Y-115442922D01*
X143177656Y-115534360D01*
X143177657Y-115534360D01*
X143177658Y-115534361D01*
X143318436Y-115589877D01*
X143406898Y-115600500D01*
X143406903Y-115600500D01*
X144593097Y-115600500D01*
X144593102Y-115600500D01*
X144681564Y-115589877D01*
X144822342Y-115534361D01*
X144942922Y-115442922D01*
X145034361Y-115322342D01*
X145089877Y-115181564D01*
X145100500Y-115093102D01*
X145100500Y-115093085D01*
X145100689Y-115089932D01*
X145124344Y-115024188D01*
X145136787Y-115009658D01*
X145600000Y-114546445D01*
X145600000Y-114552661D01*
X145627259Y-114654394D01*
X145679920Y-114745606D01*
X145754394Y-114820080D01*
X145845606Y-114872741D01*
X145947339Y-114900000D01*
X145953553Y-114900000D01*
X145274076Y-115579474D01*
X145318650Y-115611859D01*
X145500968Y-115704755D01*
X145695582Y-115767990D01*
X145897683Y-115800000D01*
X146102317Y-115800000D01*
X146304417Y-115767990D01*
X146499031Y-115704755D01*
X146681349Y-115611859D01*
X146725921Y-115579474D01*
X146046447Y-114900000D01*
X146052661Y-114900000D01*
X146154394Y-114872741D01*
X146245606Y-114820080D01*
X146320080Y-114745606D01*
X146372741Y-114654394D01*
X146400000Y-114552661D01*
X146400000Y-114546448D01*
X147079474Y-115225922D01*
X147079474Y-115225921D01*
X147111859Y-115181349D01*
X147204755Y-114999031D01*
X147267990Y-114804417D01*
X147300000Y-114602317D01*
X147300000Y-114397682D01*
X147267990Y-114195582D01*
X147204755Y-114000968D01*
X147111859Y-113818650D01*
X147079474Y-113774077D01*
X147079474Y-113774076D01*
X146400000Y-114453551D01*
X146400000Y-114447339D01*
X146372741Y-114345606D01*
X146320080Y-114254394D01*
X146245606Y-114179920D01*
X146154394Y-114127259D01*
X146052661Y-114100000D01*
X146046446Y-114100000D01*
X146725922Y-113420524D01*
X146725921Y-113420523D01*
X146681359Y-113388147D01*
X146681350Y-113388141D01*
X146499031Y-113295244D01*
X146304417Y-113232009D01*
X146102317Y-113200000D01*
X145897683Y-113200000D01*
X145695582Y-113232009D01*
X145500968Y-113295244D01*
X145318644Y-113388143D01*
X145274077Y-113420523D01*
X145274077Y-113420524D01*
X145953554Y-114100000D01*
X145947339Y-114100000D01*
X145845606Y-114127259D01*
X145754394Y-114179920D01*
X145679920Y-114254394D01*
X145627259Y-114345606D01*
X145600000Y-114447339D01*
X145600000Y-114453553D01*
X145136787Y-113990340D01*
X145103302Y-113929017D01*
X145100690Y-113910068D01*
X145100501Y-113906912D01*
X145100500Y-113906903D01*
X145100500Y-113906898D01*
X145089877Y-113818436D01*
X145034361Y-113677658D01*
X145034360Y-113677657D01*
X145034360Y-113677656D01*
X144942922Y-113557077D01*
X144822343Y-113465639D01*
X144681561Y-113410122D01*
X144635926Y-113404642D01*
X144593102Y-113399500D01*
X143406898Y-113399500D01*
X143367853Y-113404188D01*
X143318438Y-113410122D01*
X143177656Y-113465639D01*
X143057077Y-113557077D01*
X142965639Y-113677656D01*
X142910122Y-113818438D01*
X142910097Y-113818650D01*
X142899500Y-113906898D01*
X140183110Y-113906898D01*
X140181233Y-113903213D01*
X140165937Y-113882160D01*
X140079414Y-113763072D01*
X139956928Y-113640586D01*
X139816788Y-113538768D01*
X139662445Y-113460127D01*
X139497701Y-113406598D01*
X139497699Y-113406597D01*
X139497698Y-113406597D01*
X139366271Y-113385781D01*
X139326611Y-113379500D01*
X139153389Y-113379500D01*
X139113728Y-113385781D01*
X138982302Y-113406597D01*
X138817552Y-113460128D01*
X138663211Y-113538768D01*
X138583256Y-113596859D01*
X138523072Y-113640586D01*
X138523070Y-113640588D01*
X138523069Y-113640588D01*
X138400588Y-113763069D01*
X138400588Y-113763070D01*
X138400586Y-113763072D01*
X138360362Y-113818436D01*
X138298768Y-113903211D01*
X138220128Y-114057552D01*
X138166597Y-114222302D01*
X138147068Y-114345606D01*
X138139500Y-114393389D01*
X125100500Y-114393389D01*
X125073402Y-114222299D01*
X125019873Y-114057555D01*
X124941232Y-113903212D01*
X124839414Y-113763072D01*
X124716928Y-113640586D01*
X124576788Y-113538768D01*
X124422445Y-113460127D01*
X124257701Y-113406598D01*
X124257699Y-113406597D01*
X124257698Y-113406597D01*
X124126271Y-113385781D01*
X124086611Y-113379500D01*
X123913389Y-113379500D01*
X123873728Y-113385781D01*
X123742302Y-113406597D01*
X123577552Y-113460128D01*
X123423211Y-113538768D01*
X123343256Y-113596859D01*
X123283072Y-113640586D01*
X123283070Y-113640588D01*
X123283069Y-113640588D01*
X123160588Y-113763069D01*
X123160588Y-113763070D01*
X123160586Y-113763072D01*
X123120362Y-113818436D01*
X123058768Y-113903211D01*
X122980128Y-114057552D01*
X122926597Y-114222302D01*
X122907068Y-114345606D01*
X122899500Y-114393389D01*
X110500500Y-114393389D01*
X110500500Y-93265131D01*
X112849500Y-93265131D01*
X112849500Y-95054856D01*
X112849502Y-95054882D01*
X112852413Y-95079987D01*
X112852415Y-95079991D01*
X112897793Y-95182764D01*
X112897794Y-95182765D01*
X112977235Y-95262206D01*
X113080009Y-95307585D01*
X113105135Y-95310500D01*
X113842873Y-95310499D01*
X113909910Y-95330183D01*
X113955665Y-95382987D01*
X113965609Y-95452146D01*
X113936584Y-95515702D01*
X113877806Y-95553476D01*
X113862270Y-95556972D01*
X113730589Y-95577829D01*
X113558363Y-95633787D01*
X113558360Y-95633788D01*
X113397002Y-95716006D01*
X113250505Y-95822441D01*
X113250500Y-95822445D01*
X113122445Y-95950500D01*
X113122441Y-95950505D01*
X113016006Y-96097002D01*
X112933788Y-96258360D01*
X112933787Y-96258363D01*
X112877829Y-96430589D01*
X112849500Y-96609448D01*
X112849500Y-96790551D01*
X112877829Y-96969410D01*
X112933787Y-97141636D01*
X112933788Y-97141639D01*
X112989664Y-97251300D01*
X113002651Y-97276788D01*
X113016006Y-97302997D01*
X113122441Y-97449494D01*
X113122445Y-97449499D01*
X113250500Y-97577554D01*
X113250505Y-97577558D01*
X113338146Y-97641232D01*
X113397006Y-97683996D01*
X113502484Y-97737740D01*
X113558360Y-97766211D01*
X113558363Y-97766212D01*
X113644476Y-97794191D01*
X113730591Y-97822171D01*
X113803639Y-97833740D01*
X113890678Y-97847527D01*
X113953813Y-97877456D01*
X113990744Y-97936768D01*
X113989746Y-98006631D01*
X113951136Y-98064863D01*
X113890678Y-98092473D01*
X113730589Y-98117829D01*
X113558363Y-98173787D01*
X113558360Y-98173788D01*
X113397002Y-98256006D01*
X113250505Y-98362441D01*
X113250500Y-98362445D01*
X113122445Y-98490500D01*
X113122441Y-98490505D01*
X113016006Y-98637002D01*
X112933788Y-98798360D01*
X112933787Y-98798363D01*
X112877829Y-98970589D01*
X112849500Y-99149448D01*
X112849500Y-99330551D01*
X112877829Y-99509410D01*
X112933787Y-99681636D01*
X112933788Y-99681639D01*
X112985470Y-99783069D01*
X113002651Y-99816788D01*
X113016006Y-99842997D01*
X113122441Y-99989494D01*
X113122445Y-99989499D01*
X113250500Y-100117554D01*
X113250505Y-100117558D01*
X113338146Y-100181232D01*
X113397006Y-100223996D01*
X113502484Y-100277740D01*
X113558360Y-100306211D01*
X113558363Y-100306212D01*
X113644476Y-100334191D01*
X113730591Y-100362171D01*
X113803639Y-100373740D01*
X113890678Y-100387527D01*
X113953813Y-100417456D01*
X113990744Y-100476768D01*
X113989746Y-100546631D01*
X113951136Y-100604863D01*
X113890678Y-100632473D01*
X113730589Y-100657829D01*
X113558363Y-100713787D01*
X113558360Y-100713788D01*
X113397002Y-100796006D01*
X113250505Y-100902441D01*
X113250500Y-100902445D01*
X113122445Y-101030500D01*
X113122441Y-101030505D01*
X113016006Y-101177002D01*
X112933788Y-101338360D01*
X112933787Y-101338363D01*
X112877829Y-101510589D01*
X112849500Y-101689448D01*
X112849500Y-101870551D01*
X112877829Y-102049410D01*
X112933787Y-102221636D01*
X112933788Y-102221639D01*
X112989664Y-102331300D01*
X113002651Y-102356788D01*
X113016006Y-102382997D01*
X113122441Y-102529494D01*
X113122445Y-102529499D01*
X113250500Y-102657554D01*
X113250505Y-102657558D01*
X113338146Y-102721232D01*
X113397006Y-102763996D01*
X113502484Y-102817740D01*
X113558360Y-102846211D01*
X113558363Y-102846212D01*
X113644476Y-102874191D01*
X113730591Y-102902171D01*
X113803639Y-102913740D01*
X113890678Y-102927527D01*
X113953813Y-102957456D01*
X113990744Y-103016768D01*
X113989746Y-103086631D01*
X113951136Y-103144863D01*
X113890678Y-103172473D01*
X113730589Y-103197829D01*
X113558363Y-103253787D01*
X113558360Y-103253788D01*
X113397002Y-103336006D01*
X113250505Y-103442441D01*
X113250500Y-103442445D01*
X113122445Y-103570500D01*
X113122441Y-103570505D01*
X113016006Y-103717002D01*
X112933788Y-103878360D01*
X112933787Y-103878363D01*
X112877829Y-104050589D01*
X112849500Y-104229448D01*
X112849500Y-104410551D01*
X112877829Y-104589410D01*
X112933787Y-104761636D01*
X112933788Y-104761639D01*
X112987296Y-104866652D01*
X113009445Y-104910122D01*
X113016006Y-104922997D01*
X113122441Y-105069494D01*
X113122445Y-105069499D01*
X113250500Y-105197554D01*
X113250505Y-105197558D01*
X113338146Y-105261232D01*
X113397006Y-105303996D01*
X113502484Y-105357740D01*
X113558360Y-105386211D01*
X113558363Y-105386212D01*
X113622030Y-105406898D01*
X113730591Y-105442171D01*
X113803639Y-105453740D01*
X113890678Y-105467527D01*
X113953813Y-105497456D01*
X113990744Y-105556768D01*
X113989746Y-105626631D01*
X113951136Y-105684863D01*
X113890678Y-105712473D01*
X113730589Y-105737829D01*
X113558363Y-105793787D01*
X113558360Y-105793788D01*
X113397002Y-105876006D01*
X113250505Y-105982441D01*
X113250500Y-105982445D01*
X113122445Y-106110500D01*
X113122441Y-106110505D01*
X113016006Y-106257002D01*
X112933788Y-106418360D01*
X112933787Y-106418363D01*
X112877829Y-106590589D01*
X112849500Y-106769448D01*
X112849500Y-106950551D01*
X112877829Y-107129410D01*
X112933787Y-107301636D01*
X112933788Y-107301639D01*
X112989664Y-107411300D01*
X113002651Y-107436788D01*
X113016006Y-107462997D01*
X113122441Y-107609494D01*
X113122445Y-107609499D01*
X113250500Y-107737554D01*
X113250505Y-107737558D01*
X113338146Y-107801232D01*
X113397006Y-107843996D01*
X113502484Y-107897740D01*
X113558360Y-107926211D01*
X113558363Y-107926212D01*
X113644476Y-107954191D01*
X113730591Y-107982171D01*
X113803639Y-107993740D01*
X113890678Y-108007527D01*
X113953813Y-108037456D01*
X113990744Y-108096768D01*
X113989746Y-108166631D01*
X113951136Y-108224863D01*
X113890678Y-108252473D01*
X113730589Y-108277829D01*
X113558363Y-108333787D01*
X113558360Y-108333788D01*
X113397002Y-108416006D01*
X113250505Y-108522441D01*
X113250500Y-108522445D01*
X113122445Y-108650500D01*
X113122441Y-108650505D01*
X113016006Y-108797002D01*
X112933788Y-108958360D01*
X112933787Y-108958363D01*
X112877829Y-109130589D01*
X112849500Y-109309448D01*
X112849500Y-109490551D01*
X112877829Y-109669410D01*
X112933787Y-109841636D01*
X112933788Y-109841639D01*
X112981050Y-109934394D01*
X113002651Y-109976788D01*
X113016006Y-110002997D01*
X113122441Y-110149494D01*
X113122445Y-110149499D01*
X113250500Y-110277554D01*
X113250505Y-110277558D01*
X113338146Y-110341232D01*
X113397006Y-110383996D01*
X113502484Y-110437740D01*
X113558360Y-110466211D01*
X113558363Y-110466212D01*
X113644476Y-110494191D01*
X113730591Y-110522171D01*
X113803639Y-110533740D01*
X113890678Y-110547527D01*
X113953813Y-110577456D01*
X113990744Y-110636768D01*
X113989746Y-110706631D01*
X113951136Y-110764863D01*
X113890678Y-110792473D01*
X113730589Y-110817829D01*
X113558363Y-110873787D01*
X113558360Y-110873788D01*
X113397002Y-110956006D01*
X113250505Y-111062441D01*
X113250500Y-111062445D01*
X113122445Y-111190500D01*
X113122441Y-111190505D01*
X113016006Y-111337002D01*
X112933788Y-111498360D01*
X112933787Y-111498363D01*
X112877829Y-111670589D01*
X112849500Y-111849448D01*
X112849500Y-112030551D01*
X112877829Y-112209410D01*
X112933787Y-112381636D01*
X112933788Y-112381639D01*
X112989664Y-112491300D01*
X113002651Y-112516788D01*
X113016006Y-112542997D01*
X113122441Y-112689494D01*
X113122445Y-112689499D01*
X113250500Y-112817554D01*
X113250505Y-112817558D01*
X113338146Y-112881232D01*
X113397006Y-112923996D01*
X113502484Y-112977740D01*
X113558360Y-113006211D01*
X113558363Y-113006212D01*
X113644476Y-113034191D01*
X113730591Y-113062171D01*
X113813429Y-113075291D01*
X113909449Y-113090500D01*
X113909454Y-113090500D01*
X114090551Y-113090500D01*
X114177259Y-113076765D01*
X114269409Y-113062171D01*
X114441639Y-113006211D01*
X114602994Y-112923996D01*
X114749501Y-112817553D01*
X114877553Y-112689501D01*
X114983996Y-112542994D01*
X115066211Y-112381639D01*
X115122171Y-112209409D01*
X115136765Y-112117259D01*
X115150500Y-112030551D01*
X115150500Y-111853389D01*
X122899500Y-111853389D01*
X122899500Y-112026611D01*
X122926598Y-112197701D01*
X122980127Y-112362445D01*
X123058768Y-112516788D01*
X123160586Y-112656928D01*
X123283072Y-112779414D01*
X123423212Y-112881232D01*
X123577555Y-112959873D01*
X123742299Y-113013402D01*
X123913389Y-113040500D01*
X123913390Y-113040500D01*
X124086610Y-113040500D01*
X124086611Y-113040500D01*
X124257701Y-113013402D01*
X124422445Y-112959873D01*
X124576788Y-112881232D01*
X124716928Y-112779414D01*
X124839414Y-112656928D01*
X124941232Y-112516788D01*
X125019873Y-112362445D01*
X125073402Y-112197701D01*
X125100500Y-112026611D01*
X125100500Y-111853389D01*
X138139500Y-111853389D01*
X138139500Y-112026611D01*
X138166598Y-112197701D01*
X138220127Y-112362445D01*
X138298768Y-112516788D01*
X138400586Y-112656928D01*
X138523072Y-112779414D01*
X138663212Y-112881232D01*
X138817555Y-112959873D01*
X138982299Y-113013402D01*
X139153389Y-113040500D01*
X139153390Y-113040500D01*
X139326610Y-113040500D01*
X139326611Y-113040500D01*
X139497701Y-113013402D01*
X139662445Y-112959873D01*
X139816788Y-112881232D01*
X139956928Y-112779414D01*
X140079414Y-112656928D01*
X140181232Y-112516788D01*
X140259873Y-112362445D01*
X140313402Y-112197701D01*
X140340500Y-112026611D01*
X140340500Y-111853389D01*
X140313402Y-111682299D01*
X140259873Y-111517555D01*
X140181232Y-111363212D01*
X140079414Y-111223072D01*
X139956928Y-111100586D01*
X139816788Y-110998768D01*
X139662445Y-110920127D01*
X139497701Y-110866598D01*
X139497699Y-110866597D01*
X139497698Y-110866597D01*
X139366271Y-110845781D01*
X139326611Y-110839500D01*
X139153389Y-110839500D01*
X139113728Y-110845781D01*
X138982302Y-110866597D01*
X138817552Y-110920128D01*
X138663211Y-110998768D01*
X138595464Y-111047990D01*
X138523072Y-111100586D01*
X138523070Y-111100588D01*
X138523069Y-111100588D01*
X138400588Y-111223069D01*
X138400588Y-111223070D01*
X138400586Y-111223072D01*
X138369571Y-111265760D01*
X138298768Y-111363211D01*
X138220128Y-111517552D01*
X138166597Y-111682302D01*
X138140124Y-111849448D01*
X138139500Y-111853389D01*
X125100500Y-111853389D01*
X125073402Y-111682299D01*
X125019873Y-111517555D01*
X124941232Y-111363212D01*
X124839414Y-111223072D01*
X124716928Y-111100586D01*
X124576788Y-110998768D01*
X124422445Y-110920127D01*
X124257701Y-110866598D01*
X124257699Y-110866597D01*
X124257698Y-110866597D01*
X124126271Y-110845781D01*
X124086611Y-110839500D01*
X123913389Y-110839500D01*
X123873728Y-110845781D01*
X123742302Y-110866597D01*
X123577552Y-110920128D01*
X123423211Y-110998768D01*
X123355464Y-111047990D01*
X123283072Y-111100586D01*
X123283070Y-111100588D01*
X123283069Y-111100588D01*
X123160588Y-111223069D01*
X123160588Y-111223070D01*
X123160586Y-111223072D01*
X123129571Y-111265760D01*
X123058768Y-111363211D01*
X122980128Y-111517552D01*
X122926597Y-111682302D01*
X122900124Y-111849448D01*
X122899500Y-111853389D01*
X115150500Y-111853389D01*
X115150500Y-111849448D01*
X115134019Y-111745397D01*
X115122171Y-111670591D01*
X115091089Y-111574929D01*
X115066212Y-111498363D01*
X115066211Y-111498360D01*
X115002836Y-111373982D01*
X114983996Y-111337006D01*
X114901219Y-111223072D01*
X114877558Y-111190505D01*
X114877554Y-111190500D01*
X114749499Y-111062445D01*
X114749494Y-111062441D01*
X114602997Y-110956006D01*
X114602996Y-110956005D01*
X114602994Y-110956004D01*
X114532582Y-110920127D01*
X114441639Y-110873788D01*
X114441636Y-110873787D01*
X114269410Y-110817829D01*
X114109321Y-110792473D01*
X114046186Y-110762544D01*
X114009255Y-110703232D01*
X114010253Y-110633370D01*
X114048863Y-110575137D01*
X114109321Y-110547527D01*
X114179425Y-110536422D01*
X114269409Y-110522171D01*
X114441639Y-110466211D01*
X114602994Y-110383996D01*
X114749501Y-110277553D01*
X114877553Y-110149501D01*
X114983996Y-110002994D01*
X115066211Y-109841639D01*
X115122171Y-109669409D01*
X115136765Y-109577259D01*
X115150500Y-109490551D01*
X115150500Y-109313389D01*
X122899500Y-109313389D01*
X122899500Y-109486610D01*
X122926596Y-109657692D01*
X122926598Y-109657701D01*
X122966335Y-109779999D01*
X122980128Y-109822447D01*
X123010633Y-109882317D01*
X123058768Y-109976788D01*
X123160586Y-110116928D01*
X123283072Y-110239414D01*
X123423212Y-110341232D01*
X123577555Y-110419873D01*
X123742299Y-110473402D01*
X123913389Y-110500500D01*
X123913390Y-110500500D01*
X124086610Y-110500500D01*
X124086611Y-110500500D01*
X124257701Y-110473402D01*
X124422445Y-110419873D01*
X124576788Y-110341232D01*
X124716928Y-110239414D01*
X124839414Y-110116928D01*
X124941232Y-109976788D01*
X125019873Y-109822445D01*
X125073402Y-109657701D01*
X125100500Y-109486611D01*
X125100500Y-109313389D01*
X138139500Y-109313389D01*
X138139500Y-109486610D01*
X138166596Y-109657692D01*
X138166598Y-109657701D01*
X138206335Y-109779999D01*
X138220128Y-109822447D01*
X138250633Y-109882317D01*
X138298768Y-109976788D01*
X138400586Y-110116928D01*
X138523072Y-110239414D01*
X138663212Y-110341232D01*
X138817555Y-110419873D01*
X138982299Y-110473402D01*
X139153389Y-110500500D01*
X139153390Y-110500500D01*
X139326610Y-110500500D01*
X139326611Y-110500500D01*
X139497701Y-110473402D01*
X139662445Y-110419873D01*
X139816788Y-110341232D01*
X139956928Y-110239414D01*
X140079414Y-110116928D01*
X140181232Y-109976788D01*
X140259873Y-109822445D01*
X140301806Y-109693389D01*
X150099500Y-109693389D01*
X150099500Y-109866611D01*
X150126598Y-110037701D01*
X150180127Y-110202445D01*
X150258768Y-110356788D01*
X150360586Y-110496928D01*
X150483072Y-110619414D01*
X150623212Y-110721232D01*
X150777555Y-110799873D01*
X150942299Y-110853402D01*
X151113389Y-110880500D01*
X151113390Y-110880500D01*
X151286610Y-110880500D01*
X151286611Y-110880500D01*
X151457701Y-110853402D01*
X151622445Y-110799873D01*
X151776788Y-110721232D01*
X151916928Y-110619414D01*
X152039414Y-110496928D01*
X152141232Y-110356788D01*
X152219873Y-110202445D01*
X152273402Y-110037701D01*
X152300500Y-109866611D01*
X152300500Y-109693389D01*
X152298012Y-109677682D01*
X152999999Y-109677682D01*
X152999999Y-109882317D01*
X153032008Y-110084417D01*
X153095243Y-110279031D01*
X153188140Y-110461350D01*
X153188146Y-110461359D01*
X153220522Y-110505921D01*
X153220523Y-110505922D01*
X153899999Y-109826446D01*
X153899999Y-109832661D01*
X153927258Y-109934394D01*
X153979919Y-110025606D01*
X154054393Y-110100080D01*
X154145605Y-110152741D01*
X154247338Y-110180000D01*
X154253552Y-110180000D01*
X153574075Y-110859474D01*
X153618649Y-110891859D01*
X153800967Y-110984755D01*
X153995581Y-111047990D01*
X154197682Y-111080000D01*
X154402316Y-111080000D01*
X154604416Y-111047990D01*
X154799030Y-110984755D01*
X154981348Y-110891859D01*
X155025920Y-110859474D01*
X154346446Y-110180000D01*
X154352660Y-110180000D01*
X154454393Y-110152741D01*
X154545605Y-110100080D01*
X154620079Y-110025606D01*
X154672740Y-109934394D01*
X154699999Y-109832661D01*
X154699999Y-109826447D01*
X155379473Y-110505921D01*
X155411858Y-110461349D01*
X155504754Y-110279031D01*
X155567989Y-110084417D01*
X155599999Y-109882317D01*
X155599999Y-109677682D01*
X155567989Y-109475582D01*
X155504754Y-109280968D01*
X155411858Y-109098650D01*
X155379473Y-109054077D01*
X155379473Y-109054076D01*
X154699999Y-109733551D01*
X154699999Y-109727339D01*
X154672740Y-109625606D01*
X154620079Y-109534394D01*
X154545605Y-109459920D01*
X154454393Y-109407259D01*
X154352660Y-109380000D01*
X154346445Y-109380000D01*
X155025921Y-108700524D01*
X155025920Y-108700523D01*
X154981358Y-108668147D01*
X154981349Y-108668141D01*
X154799030Y-108575244D01*
X154604416Y-108512009D01*
X154402316Y-108480000D01*
X154197682Y-108480000D01*
X153995581Y-108512009D01*
X153800967Y-108575244D01*
X153618643Y-108668143D01*
X153574076Y-108700523D01*
X153574076Y-108700524D01*
X154253553Y-109380000D01*
X154247338Y-109380000D01*
X154145605Y-109407259D01*
X154054393Y-109459920D01*
X153979919Y-109534394D01*
X153927258Y-109625606D01*
X153899999Y-109727339D01*
X153899999Y-109733553D01*
X153220523Y-109054077D01*
X153220522Y-109054077D01*
X153188142Y-109098644D01*
X153095243Y-109280968D01*
X153032008Y-109475582D01*
X152999999Y-109677682D01*
X152298012Y-109677682D01*
X152273402Y-109522299D01*
X152219873Y-109357555D01*
X152141232Y-109203212D01*
X152039414Y-109063072D01*
X151916928Y-108940586D01*
X151776788Y-108838768D01*
X151776789Y-108838768D01*
X151776787Y-108838767D01*
X151622447Y-108760128D01*
X151622446Y-108760127D01*
X151622445Y-108760127D01*
X151457701Y-108706598D01*
X151457699Y-108706597D01*
X151457698Y-108706597D01*
X151326271Y-108685781D01*
X151286611Y-108679500D01*
X151113389Y-108679500D01*
X151073728Y-108685781D01*
X150942302Y-108706597D01*
X150777552Y-108760128D01*
X150623211Y-108838768D01*
X150543256Y-108896859D01*
X150483072Y-108940586D01*
X150483070Y-108940588D01*
X150483069Y-108940588D01*
X150360588Y-109063069D01*
X150360588Y-109063070D01*
X150360586Y-109063072D01*
X150334737Y-109098650D01*
X150258768Y-109203211D01*
X150180128Y-109357552D01*
X150126597Y-109522302D01*
X150124682Y-109534394D01*
X150099500Y-109693389D01*
X140301806Y-109693389D01*
X140313402Y-109657701D01*
X140340500Y-109486611D01*
X140340500Y-109313389D01*
X140313402Y-109142299D01*
X140284412Y-109053081D01*
X140282418Y-108983241D01*
X140314661Y-108927085D01*
X143567705Y-105674041D01*
X157435000Y-105674041D01*
X157435000Y-105750000D01*
X158179670Y-105750000D01*
X158159925Y-105769745D01*
X158110556Y-105855255D01*
X158085000Y-105950630D01*
X158085000Y-106049370D01*
X158110556Y-106144745D01*
X158159925Y-106230255D01*
X158179670Y-106250000D01*
X157435000Y-106250000D01*
X157435000Y-106325958D01*
X157474387Y-106523974D01*
X157474390Y-106523983D01*
X157551652Y-106710513D01*
X157551659Y-106710526D01*
X157663829Y-106878399D01*
X157663832Y-106878403D01*
X157806596Y-107021167D01*
X157806600Y-107021170D01*
X157974473Y-107133340D01*
X157974486Y-107133347D01*
X158161016Y-107210609D01*
X158161025Y-107210612D01*
X158210000Y-107220353D01*
X158210000Y-106280330D01*
X158229745Y-106300075D01*
X158315255Y-106349444D01*
X158410630Y-106375000D01*
X158509370Y-106375000D01*
X158604745Y-106349444D01*
X158690255Y-106300075D01*
X158710000Y-106280330D01*
X158710000Y-107220352D01*
X158758974Y-107210612D01*
X158758983Y-107210609D01*
X158945513Y-107133347D01*
X158945526Y-107133340D01*
X159113395Y-107021173D01*
X159170533Y-106964035D01*
X159231856Y-106930550D01*
X159301548Y-106935534D01*
X159327104Y-106948613D01*
X159338979Y-106956548D01*
X159338981Y-106956549D01*
X159338983Y-106956550D01*
X159449205Y-107002205D01*
X159489211Y-107018776D01*
X159489215Y-107018776D01*
X159489216Y-107018777D01*
X159648692Y-107050500D01*
X159648695Y-107050500D01*
X159811307Y-107050500D01*
X159918598Y-107029157D01*
X159970789Y-107018776D01*
X160121021Y-106956548D01*
X160121026Y-106956544D01*
X160126388Y-106953679D01*
X160127483Y-106955728D01*
X160184273Y-106937911D01*
X160251664Y-106956357D01*
X160274238Y-106974209D01*
X160302235Y-107002206D01*
X160405009Y-107047585D01*
X160430135Y-107050500D01*
X161569864Y-107050499D01*
X161569879Y-107050497D01*
X161569882Y-107050497D01*
X161594987Y-107047586D01*
X161594988Y-107047585D01*
X161594991Y-107047585D01*
X161697765Y-107002206D01*
X161777206Y-106922765D01*
X161822585Y-106819991D01*
X161825500Y-106794865D01*
X161825499Y-105913389D01*
X165279500Y-105913389D01*
X165279500Y-106086611D01*
X165306598Y-106257701D01*
X165360127Y-106422445D01*
X165438768Y-106576788D01*
X165540586Y-106716928D01*
X165663072Y-106839414D01*
X165803212Y-106941232D01*
X165957555Y-107019873D01*
X166122299Y-107073402D01*
X166293389Y-107100500D01*
X166293390Y-107100500D01*
X166466610Y-107100500D01*
X166466611Y-107100500D01*
X166637701Y-107073402D01*
X166802445Y-107019873D01*
X166956788Y-106941232D01*
X167096928Y-106839414D01*
X167219414Y-106716928D01*
X167321232Y-106576788D01*
X167399873Y-106422445D01*
X167453402Y-106257701D01*
X167480500Y-106086611D01*
X167480500Y-105913389D01*
X167453402Y-105742299D01*
X167399873Y-105577555D01*
X167387550Y-105553370D01*
X167339716Y-105459488D01*
X167339715Y-105459487D01*
X167321231Y-105423211D01*
X167309379Y-105406898D01*
X172899500Y-105406898D01*
X172899500Y-106593102D01*
X172905126Y-106639954D01*
X172910122Y-106681561D01*
X172965639Y-106822343D01*
X173057077Y-106942922D01*
X173177656Y-107034360D01*
X173177657Y-107034360D01*
X173177658Y-107034361D01*
X173318436Y-107089877D01*
X173406898Y-107100500D01*
X173406903Y-107100500D01*
X174593097Y-107100500D01*
X174593102Y-107100500D01*
X174681564Y-107089877D01*
X174822342Y-107034361D01*
X174942922Y-106942922D01*
X175034361Y-106822342D01*
X175089877Y-106681564D01*
X175100500Y-106593102D01*
X175100500Y-105406898D01*
X175089877Y-105318436D01*
X175034361Y-105177658D01*
X175034360Y-105177657D01*
X175034360Y-105177656D01*
X174942922Y-105057077D01*
X174822343Y-104965639D01*
X174681561Y-104910122D01*
X174635926Y-104904642D01*
X174593102Y-104899500D01*
X173406898Y-104899500D01*
X173367853Y-104904188D01*
X173318438Y-104910122D01*
X173177656Y-104965639D01*
X173057077Y-105057077D01*
X172965639Y-105177656D01*
X172910122Y-105318438D01*
X172904188Y-105367853D01*
X172899500Y-105406898D01*
X167309379Y-105406898D01*
X167219414Y-105283072D01*
X167096928Y-105160586D01*
X166956788Y-105058768D01*
X166802445Y-104980127D01*
X166637701Y-104926598D01*
X166637699Y-104926597D01*
X166637698Y-104926597D01*
X166506271Y-104905781D01*
X166466611Y-104899500D01*
X166293389Y-104899500D01*
X166253728Y-104905781D01*
X166122302Y-104926597D01*
X165957552Y-104980128D01*
X165803211Y-105058768D01*
X165777794Y-105077235D01*
X165663072Y-105160586D01*
X165663070Y-105160588D01*
X165663069Y-105160588D01*
X165540588Y-105283069D01*
X165540588Y-105283070D01*
X165540586Y-105283072D01*
X165514891Y-105318438D01*
X165438768Y-105423211D01*
X165360128Y-105577552D01*
X165306597Y-105742302D01*
X165285421Y-105876004D01*
X165279500Y-105913389D01*
X161825499Y-105913389D01*
X161825499Y-105205136D01*
X161825497Y-105205117D01*
X161822586Y-105180012D01*
X161822585Y-105180010D01*
X161822585Y-105180009D01*
X161777206Y-105077235D01*
X161697765Y-104997794D01*
X161660240Y-104981225D01*
X161594992Y-104952415D01*
X161569865Y-104949500D01*
X160430143Y-104949500D01*
X160430117Y-104949502D01*
X160405012Y-104952413D01*
X160405008Y-104952415D01*
X160302235Y-104997793D01*
X160302233Y-104997794D01*
X160274238Y-105025790D01*
X160212914Y-105059275D01*
X160143223Y-105054289D01*
X160126661Y-105045816D01*
X160126391Y-105046322D01*
X160121019Y-105043450D01*
X159970793Y-104981225D01*
X159970783Y-104981222D01*
X159811307Y-104949500D01*
X159811305Y-104949500D01*
X159648695Y-104949500D01*
X159648693Y-104949500D01*
X159489216Y-104981222D01*
X159489206Y-104981225D01*
X159338980Y-105043450D01*
X159338979Y-105043451D01*
X159327100Y-105051388D01*
X159260422Y-105072262D01*
X159193043Y-105053774D01*
X159170534Y-105035963D01*
X159113403Y-104978832D01*
X159113399Y-104978829D01*
X158945526Y-104866659D01*
X158945513Y-104866652D01*
X158758984Y-104789390D01*
X158758977Y-104789388D01*
X158710000Y-104779645D01*
X158710000Y-105719670D01*
X158690255Y-105699925D01*
X158604745Y-105650556D01*
X158509370Y-105625000D01*
X158410630Y-105625000D01*
X158315255Y-105650556D01*
X158229745Y-105699925D01*
X158210000Y-105719670D01*
X158210000Y-104779646D01*
X158209999Y-104779645D01*
X158161022Y-104789388D01*
X158161015Y-104789390D01*
X157974486Y-104866652D01*
X157974473Y-104866659D01*
X157806600Y-104978829D01*
X157806596Y-104978832D01*
X157663832Y-105121596D01*
X157663829Y-105121600D01*
X157551659Y-105289473D01*
X157551652Y-105289486D01*
X157474390Y-105476016D01*
X157474387Y-105476025D01*
X157435000Y-105674041D01*
X143567705Y-105674041D01*
X148828357Y-100413389D01*
X151039500Y-100413389D01*
X151039500Y-100586610D01*
X151063607Y-100738820D01*
X151066598Y-100757701D01*
X151120127Y-100922445D01*
X151198768Y-101076788D01*
X151300586Y-101216928D01*
X151423072Y-101339414D01*
X151563212Y-101441232D01*
X151717555Y-101519873D01*
X151882299Y-101573402D01*
X152053389Y-101600500D01*
X152053390Y-101600500D01*
X152226610Y-101600500D01*
X152226611Y-101600500D01*
X152397701Y-101573402D01*
X152562445Y-101519873D01*
X152716788Y-101441232D01*
X152856928Y-101339414D01*
X152979414Y-101216928D01*
X153081232Y-101076788D01*
X153159873Y-100922445D01*
X153213402Y-100757701D01*
X153240500Y-100586611D01*
X153240500Y-100413389D01*
X161199500Y-100413389D01*
X161199500Y-100586610D01*
X161223607Y-100738820D01*
X161226598Y-100757701D01*
X161280127Y-100922445D01*
X161358768Y-101076788D01*
X161460586Y-101216928D01*
X161583072Y-101339414D01*
X161723212Y-101441232D01*
X161877555Y-101519873D01*
X162042299Y-101573402D01*
X162213389Y-101600500D01*
X162213390Y-101600500D01*
X162386610Y-101600500D01*
X162386611Y-101600500D01*
X162557701Y-101573402D01*
X162722445Y-101519873D01*
X162876788Y-101441232D01*
X163016928Y-101339414D01*
X163139414Y-101216928D01*
X163241232Y-101076788D01*
X163319873Y-100922445D01*
X163373402Y-100757701D01*
X163400500Y-100586611D01*
X163400500Y-100413389D01*
X163373402Y-100242299D01*
X163319873Y-100077555D01*
X163241232Y-99923212D01*
X163139414Y-99783072D01*
X163016928Y-99660586D01*
X162876788Y-99558768D01*
X162722445Y-99480127D01*
X162557701Y-99426598D01*
X162557699Y-99426597D01*
X162557698Y-99426597D01*
X162426271Y-99405781D01*
X162386611Y-99399500D01*
X162213389Y-99399500D01*
X162173728Y-99405781D01*
X162042302Y-99426597D01*
X161877552Y-99480128D01*
X161723211Y-99558768D01*
X161643256Y-99616859D01*
X161583072Y-99660586D01*
X161583070Y-99660588D01*
X161583069Y-99660588D01*
X161460588Y-99783069D01*
X161460588Y-99783070D01*
X161460586Y-99783072D01*
X161436090Y-99816788D01*
X161358768Y-99923211D01*
X161280128Y-100077552D01*
X161226597Y-100242302D01*
X161199500Y-100413389D01*
X153240500Y-100413389D01*
X153213402Y-100242299D01*
X153159873Y-100077555D01*
X153081232Y-99923212D01*
X152979414Y-99783072D01*
X152856928Y-99660586D01*
X152716788Y-99558768D01*
X152562445Y-99480127D01*
X152397701Y-99426598D01*
X152397699Y-99426597D01*
X152397698Y-99426597D01*
X152266271Y-99405781D01*
X152226611Y-99399500D01*
X152053389Y-99399500D01*
X152013728Y-99405781D01*
X151882302Y-99426597D01*
X151717552Y-99480128D01*
X151563211Y-99558768D01*
X151483256Y-99616859D01*
X151423072Y-99660586D01*
X151423070Y-99660588D01*
X151423069Y-99660588D01*
X151300588Y-99783069D01*
X151300588Y-99783070D01*
X151300586Y-99783072D01*
X151276090Y-99816788D01*
X151198768Y-99923211D01*
X151120128Y-100077552D01*
X151066597Y-100242302D01*
X151039500Y-100413389D01*
X148828357Y-100413389D01*
X152344098Y-96897648D01*
X165099500Y-96897648D01*
X165099500Y-97102352D01*
X165102683Y-97122447D01*
X165131522Y-97304534D01*
X165194781Y-97499223D01*
X165287715Y-97681613D01*
X165408028Y-97847213D01*
X165552786Y-97991971D01*
X165687026Y-98089500D01*
X165718390Y-98112287D01*
X165824979Y-98166597D01*
X165900776Y-98205218D01*
X165900778Y-98205218D01*
X165900781Y-98205220D01*
X166005137Y-98239127D01*
X166095465Y-98268477D01*
X166196557Y-98284488D01*
X166297648Y-98300500D01*
X166297649Y-98300500D01*
X166502351Y-98300500D01*
X166502352Y-98300500D01*
X166704534Y-98268477D01*
X166899219Y-98205220D01*
X167081610Y-98112287D01*
X167174590Y-98044732D01*
X167247213Y-97991971D01*
X167247215Y-97991968D01*
X167247219Y-97991966D01*
X167391966Y-97847219D01*
X167391968Y-97847215D01*
X167391971Y-97847213D01*
X167445597Y-97773402D01*
X167512287Y-97681610D01*
X167605220Y-97499219D01*
X167668477Y-97304534D01*
X167700500Y-97102352D01*
X167700500Y-96897648D01*
X167683537Y-96790551D01*
X167668477Y-96695465D01*
X167605218Y-96500776D01*
X167569455Y-96430589D01*
X167512287Y-96318390D01*
X167482617Y-96277552D01*
X167391971Y-96152786D01*
X167247213Y-96008028D01*
X167174405Y-95955131D01*
X172699500Y-95955131D01*
X172699500Y-98044856D01*
X172699502Y-98044882D01*
X172702413Y-98069987D01*
X172702415Y-98069991D01*
X172747793Y-98172764D01*
X172747794Y-98172765D01*
X172827235Y-98252206D01*
X172930009Y-98297585D01*
X172955135Y-98300500D01*
X175044864Y-98300499D01*
X175044879Y-98300497D01*
X175044882Y-98300497D01*
X175069987Y-98297586D01*
X175069988Y-98297585D01*
X175069991Y-98297585D01*
X175172765Y-98252206D01*
X175252206Y-98172765D01*
X175297585Y-98069991D01*
X175300500Y-98044865D01*
X175300499Y-95955136D01*
X175299962Y-95950505D01*
X175297586Y-95930012D01*
X175297585Y-95930010D01*
X175297585Y-95930009D01*
X175252206Y-95827235D01*
X175172765Y-95747794D01*
X175135915Y-95731523D01*
X175069992Y-95702415D01*
X175044865Y-95699500D01*
X172955143Y-95699500D01*
X172955117Y-95699502D01*
X172930012Y-95702413D01*
X172930008Y-95702415D01*
X172827235Y-95747793D01*
X172747794Y-95827234D01*
X172702415Y-95930006D01*
X172702415Y-95930008D01*
X172699500Y-95955131D01*
X167174405Y-95955131D01*
X167081613Y-95887715D01*
X167081612Y-95887714D01*
X167081610Y-95887713D01*
X167024653Y-95858691D01*
X166899223Y-95794781D01*
X166704534Y-95731522D01*
X166520756Y-95702415D01*
X166502352Y-95699500D01*
X166297648Y-95699500D01*
X166279244Y-95702415D01*
X166095465Y-95731522D01*
X165900776Y-95794781D01*
X165718386Y-95887715D01*
X165552786Y-96008028D01*
X165408028Y-96152786D01*
X165287715Y-96318386D01*
X165194781Y-96500776D01*
X165131522Y-96695465D01*
X165114159Y-96805095D01*
X165099500Y-96897648D01*
X152344098Y-96897648D01*
X160119928Y-89121819D01*
X160181251Y-89088334D01*
X160207609Y-89085500D01*
X162905697Y-89085500D01*
X162972736Y-89105185D01*
X163016180Y-89153204D01*
X163023011Y-89166610D01*
X163058766Y-89236784D01*
X163058770Y-89236792D01*
X163101100Y-89295053D01*
X163160586Y-89376928D01*
X163283072Y-89499414D01*
X163423212Y-89601232D01*
X163577555Y-89679873D01*
X163742299Y-89733402D01*
X163913389Y-89760500D01*
X163913390Y-89760500D01*
X164086610Y-89760500D01*
X164086611Y-89760500D01*
X164257701Y-89733402D01*
X164422445Y-89679873D01*
X164576788Y-89601232D01*
X164716928Y-89499414D01*
X164839414Y-89376928D01*
X164941232Y-89236788D01*
X165019873Y-89082445D01*
X165073402Y-88917701D01*
X165100500Y-88746611D01*
X165100500Y-88573389D01*
X165073402Y-88402299D01*
X165019873Y-88237555D01*
X164941232Y-88083212D01*
X164839414Y-87943072D01*
X164716928Y-87820586D01*
X164576788Y-87718768D01*
X164422445Y-87640127D01*
X164257701Y-87586598D01*
X164257699Y-87586597D01*
X164257698Y-87586597D01*
X164126271Y-87565781D01*
X164086611Y-87559500D01*
X163913389Y-87559500D01*
X163873728Y-87565781D01*
X163742302Y-87586597D01*
X163577552Y-87640128D01*
X163423211Y-87718768D01*
X163387444Y-87744755D01*
X163283072Y-87820586D01*
X163283070Y-87820588D01*
X163283069Y-87820588D01*
X163160588Y-87943069D01*
X163160588Y-87943070D01*
X163160586Y-87943072D01*
X163141316Y-87969595D01*
X163058770Y-88083207D01*
X163058768Y-88083212D01*
X163016180Y-88166795D01*
X162968208Y-88217590D01*
X162905697Y-88234500D01*
X160036018Y-88234500D01*
X159923981Y-88234500D01*
X159815763Y-88263497D01*
X159815761Y-88263498D01*
X159815760Y-88263498D01*
X159718740Y-88319513D01*
X159718734Y-88319517D01*
X159639513Y-88398739D01*
X139712915Y-108325335D01*
X139651592Y-108358820D01*
X139586916Y-108355585D01*
X139497704Y-108326598D01*
X139369383Y-108306274D01*
X139326611Y-108299500D01*
X139153389Y-108299500D01*
X139113728Y-108305781D01*
X138982302Y-108326597D01*
X138817552Y-108380128D01*
X138663211Y-108458768D01*
X138589932Y-108512009D01*
X138523072Y-108560586D01*
X138523070Y-108560588D01*
X138523069Y-108560588D01*
X138400588Y-108683069D01*
X138400588Y-108683070D01*
X138400586Y-108683072D01*
X138356859Y-108743256D01*
X138298768Y-108823211D01*
X138220128Y-108977552D01*
X138220127Y-108977554D01*
X138220127Y-108977555D01*
X138195587Y-109053082D01*
X138166597Y-109142302D01*
X138139500Y-109313389D01*
X125100500Y-109313389D01*
X125073402Y-109142299D01*
X125019873Y-108977555D01*
X124941232Y-108823212D01*
X124839414Y-108683072D01*
X124716928Y-108560586D01*
X124576788Y-108458768D01*
X124422445Y-108380127D01*
X124257701Y-108326598D01*
X124257699Y-108326597D01*
X124257698Y-108326597D01*
X124126271Y-108305781D01*
X124086611Y-108299500D01*
X123913389Y-108299500D01*
X123873728Y-108305781D01*
X123742302Y-108326597D01*
X123577552Y-108380128D01*
X123423211Y-108458768D01*
X123349932Y-108512009D01*
X123283072Y-108560586D01*
X123283070Y-108560588D01*
X123283069Y-108560588D01*
X123160588Y-108683069D01*
X123160588Y-108683070D01*
X123160586Y-108683072D01*
X123116859Y-108743256D01*
X123058768Y-108823211D01*
X122980128Y-108977552D01*
X122980127Y-108977554D01*
X122980127Y-108977555D01*
X122955587Y-109053082D01*
X122926597Y-109142302D01*
X122899500Y-109313389D01*
X115150500Y-109313389D01*
X115150500Y-109309448D01*
X115133673Y-109203211D01*
X115122171Y-109130591D01*
X115073507Y-108980815D01*
X115066212Y-108958363D01*
X115066211Y-108958360D01*
X115010030Y-108848101D01*
X114983996Y-108797006D01*
X114918311Y-108706598D01*
X114877558Y-108650505D01*
X114877554Y-108650500D01*
X114749499Y-108522445D01*
X114749494Y-108522441D01*
X114602997Y-108416006D01*
X114602996Y-108416005D01*
X114602994Y-108416004D01*
X114530502Y-108379067D01*
X114441639Y-108333788D01*
X114441636Y-108333787D01*
X114269410Y-108277829D01*
X114109321Y-108252473D01*
X114046186Y-108222544D01*
X114009255Y-108163232D01*
X114010253Y-108093370D01*
X114048863Y-108035137D01*
X114109321Y-108007527D01*
X114179425Y-107996422D01*
X114269409Y-107982171D01*
X114441639Y-107926211D01*
X114602994Y-107843996D01*
X114749501Y-107737553D01*
X114877553Y-107609501D01*
X114983996Y-107462994D01*
X115066211Y-107301639D01*
X115122171Y-107129409D01*
X115139693Y-107018777D01*
X115150500Y-106950551D01*
X115150500Y-106773389D01*
X122899500Y-106773389D01*
X122899500Y-106946611D01*
X122900944Y-106955728D01*
X122923873Y-107100500D01*
X122926598Y-107117701D01*
X122980127Y-107282445D01*
X123058768Y-107436788D01*
X123160586Y-107576928D01*
X123283072Y-107699414D01*
X123423212Y-107801232D01*
X123577555Y-107879873D01*
X123742299Y-107933402D01*
X123913389Y-107960500D01*
X123913390Y-107960500D01*
X124086610Y-107960500D01*
X124086611Y-107960500D01*
X124257701Y-107933402D01*
X124422445Y-107879873D01*
X124576788Y-107801232D01*
X124716928Y-107699414D01*
X124839414Y-107576928D01*
X124941232Y-107436788D01*
X125019873Y-107282445D01*
X125073402Y-107117701D01*
X125100500Y-106946611D01*
X125100500Y-106773389D01*
X138139500Y-106773389D01*
X138139500Y-106946611D01*
X138140944Y-106955728D01*
X138163873Y-107100500D01*
X138166598Y-107117701D01*
X138220127Y-107282445D01*
X138298768Y-107436788D01*
X138400586Y-107576928D01*
X138523072Y-107699414D01*
X138663212Y-107801232D01*
X138817555Y-107879873D01*
X138982299Y-107933402D01*
X139153389Y-107960500D01*
X139153390Y-107960500D01*
X139326610Y-107960500D01*
X139326611Y-107960500D01*
X139497701Y-107933402D01*
X139662445Y-107879873D01*
X139816788Y-107801232D01*
X139956928Y-107699414D01*
X140079414Y-107576928D01*
X140181232Y-107436788D01*
X140259873Y-107282445D01*
X140313402Y-107117701D01*
X140340500Y-106946611D01*
X140340500Y-106773389D01*
X140313402Y-106602299D01*
X140284412Y-106513081D01*
X140282418Y-106443241D01*
X140314661Y-106387085D01*
X156840485Y-89861263D01*
X156896503Y-89764237D01*
X156904290Y-89735170D01*
X156940654Y-89675511D01*
X156967772Y-89656778D01*
X157076786Y-89601233D01*
X157076785Y-89601233D01*
X157076788Y-89601232D01*
X157216928Y-89499414D01*
X157339414Y-89376928D01*
X157441232Y-89236788D01*
X157519873Y-89082445D01*
X157573402Y-88917701D01*
X157600500Y-88746611D01*
X157600500Y-88573389D01*
X157573402Y-88402299D01*
X157519873Y-88237555D01*
X157441232Y-88083212D01*
X157339414Y-87943072D01*
X157216928Y-87820586D01*
X157076788Y-87718768D01*
X156922445Y-87640127D01*
X156757701Y-87586598D01*
X156757699Y-87586597D01*
X156757698Y-87586597D01*
X156626271Y-87565781D01*
X156586611Y-87559500D01*
X156413389Y-87559500D01*
X156373728Y-87565781D01*
X156242302Y-87586597D01*
X156077552Y-87640128D01*
X155923211Y-87718768D01*
X155887444Y-87744755D01*
X155783072Y-87820586D01*
X155783070Y-87820588D01*
X155783069Y-87820588D01*
X155660588Y-87943069D01*
X155660588Y-87943070D01*
X155660586Y-87943072D01*
X155624038Y-87993376D01*
X155558768Y-88083211D01*
X155480128Y-88237552D01*
X155426597Y-88402302D01*
X155399500Y-88573389D01*
X155399500Y-88746610D01*
X155426597Y-88917697D01*
X155480128Y-89082447D01*
X155500189Y-89121819D01*
X155558768Y-89236788D01*
X155660586Y-89376928D01*
X155783072Y-89499414D01*
X155790583Y-89504871D01*
X155833248Y-89560195D01*
X155839230Y-89629809D01*
X155806627Y-89691605D01*
X155805380Y-89692870D01*
X139712915Y-105785335D01*
X139651592Y-105818820D01*
X139586916Y-105815585D01*
X139497704Y-105786598D01*
X139369383Y-105766274D01*
X139326611Y-105759500D01*
X139153389Y-105759500D01*
X139113728Y-105765781D01*
X138982302Y-105786597D01*
X138817552Y-105840128D01*
X138663211Y-105918768D01*
X138583256Y-105976859D01*
X138523072Y-106020586D01*
X138523070Y-106020588D01*
X138523069Y-106020588D01*
X138400588Y-106143069D01*
X138400588Y-106143070D01*
X138400586Y-106143072D01*
X138356859Y-106203256D01*
X138298768Y-106283211D01*
X138220128Y-106437552D01*
X138220127Y-106437554D01*
X138220127Y-106437555D01*
X138210953Y-106465789D01*
X138166597Y-106602302D01*
X138148442Y-106716929D01*
X138139500Y-106773389D01*
X125100500Y-106773389D01*
X125073402Y-106602299D01*
X125019873Y-106437555D01*
X124941232Y-106283212D01*
X124839414Y-106143072D01*
X124716928Y-106020586D01*
X124576788Y-105918768D01*
X124422445Y-105840127D01*
X124257701Y-105786598D01*
X124257699Y-105786597D01*
X124257698Y-105786597D01*
X124126271Y-105765781D01*
X124086611Y-105759500D01*
X123913389Y-105759500D01*
X123873728Y-105765781D01*
X123742302Y-105786597D01*
X123577552Y-105840128D01*
X123423211Y-105918768D01*
X123343256Y-105976859D01*
X123283072Y-106020586D01*
X123283070Y-106020588D01*
X123283069Y-106020588D01*
X123160588Y-106143069D01*
X123160588Y-106143070D01*
X123160586Y-106143072D01*
X123116859Y-106203256D01*
X123058768Y-106283211D01*
X122980128Y-106437552D01*
X122980127Y-106437554D01*
X122980127Y-106437555D01*
X122970953Y-106465789D01*
X122926597Y-106602302D01*
X122908442Y-106716929D01*
X122899500Y-106773389D01*
X115150500Y-106773389D01*
X115150500Y-106769448D01*
X115134019Y-106665397D01*
X115122171Y-106590591D01*
X115073507Y-106440815D01*
X115066212Y-106418363D01*
X115066211Y-106418360D01*
X115009115Y-106306305D01*
X114983996Y-106257006D01*
X114964560Y-106230255D01*
X114877558Y-106110505D01*
X114877554Y-106110500D01*
X114749499Y-105982445D01*
X114749494Y-105982441D01*
X114602997Y-105876006D01*
X114602996Y-105876005D01*
X114602994Y-105876004D01*
X114530502Y-105839067D01*
X114441639Y-105793788D01*
X114441636Y-105793787D01*
X114269410Y-105737829D01*
X114109321Y-105712473D01*
X114046186Y-105682544D01*
X114009255Y-105623232D01*
X114010253Y-105553370D01*
X114048863Y-105495137D01*
X114109321Y-105467527D01*
X114179425Y-105456422D01*
X114269409Y-105442171D01*
X114441639Y-105386211D01*
X114602994Y-105303996D01*
X114749501Y-105197553D01*
X114877553Y-105069501D01*
X114983996Y-104922994D01*
X115066211Y-104761639D01*
X115122171Y-104589409D01*
X115136765Y-104497259D01*
X115150500Y-104410551D01*
X115150500Y-104233389D01*
X122899500Y-104233389D01*
X122899500Y-104406611D01*
X122926598Y-104577701D01*
X122980127Y-104742445D01*
X123058768Y-104896788D01*
X123160586Y-105036928D01*
X123283072Y-105159414D01*
X123423212Y-105261232D01*
X123577555Y-105339873D01*
X123742299Y-105393402D01*
X123913389Y-105420500D01*
X123913390Y-105420500D01*
X124086610Y-105420500D01*
X124086611Y-105420500D01*
X124257701Y-105393402D01*
X124422445Y-105339873D01*
X124576788Y-105261232D01*
X124716928Y-105159414D01*
X124839414Y-105036928D01*
X124941232Y-104896788D01*
X125019873Y-104742445D01*
X125073402Y-104577701D01*
X125100500Y-104406611D01*
X125100500Y-104233389D01*
X138139500Y-104233389D01*
X138139500Y-104406611D01*
X138166598Y-104577701D01*
X138220127Y-104742445D01*
X138298768Y-104896788D01*
X138400586Y-105036928D01*
X138523072Y-105159414D01*
X138663212Y-105261232D01*
X138817555Y-105339873D01*
X138982299Y-105393402D01*
X139153389Y-105420500D01*
X139153390Y-105420500D01*
X139326610Y-105420500D01*
X139326611Y-105420500D01*
X139497701Y-105393402D01*
X139662445Y-105339873D01*
X139816788Y-105261232D01*
X139956928Y-105159414D01*
X140079414Y-105036928D01*
X140181232Y-104896788D01*
X140259873Y-104742445D01*
X140313402Y-104577701D01*
X140340500Y-104406611D01*
X140340500Y-104233389D01*
X140313402Y-104062299D01*
X140284412Y-103973081D01*
X140282418Y-103903241D01*
X140314661Y-103847085D01*
X152340485Y-91821263D01*
X152396503Y-91724237D01*
X152425500Y-91616018D01*
X152425500Y-91503982D01*
X152425500Y-84406898D01*
X166899500Y-84406898D01*
X166899500Y-85593102D01*
X166904935Y-85638360D01*
X166910122Y-85681561D01*
X166965639Y-85822343D01*
X167057077Y-85942922D01*
X167177656Y-86034360D01*
X167177657Y-86034360D01*
X167177658Y-86034361D01*
X167318436Y-86089877D01*
X167406898Y-86100500D01*
X167406903Y-86100500D01*
X168593097Y-86100500D01*
X168593102Y-86100500D01*
X168681564Y-86089877D01*
X168822342Y-86034361D01*
X168942922Y-85942922D01*
X169034361Y-85822342D01*
X169089877Y-85681564D01*
X169098197Y-85612278D01*
X169125733Y-85548066D01*
X169183615Y-85508933D01*
X169253466Y-85507305D01*
X169313108Y-85543700D01*
X169331797Y-85570769D01*
X169388141Y-85681350D01*
X169388147Y-85681359D01*
X169420523Y-85725921D01*
X169420524Y-85725922D01*
X170100000Y-85046446D01*
X170100000Y-85052661D01*
X170127259Y-85154394D01*
X170179920Y-85245606D01*
X170254394Y-85320080D01*
X170345606Y-85372741D01*
X170447339Y-85400000D01*
X170453553Y-85400000D01*
X169774076Y-86079474D01*
X169818650Y-86111859D01*
X170000968Y-86204755D01*
X170195582Y-86267990D01*
X170397683Y-86300000D01*
X170602317Y-86300000D01*
X170804417Y-86267990D01*
X170999031Y-86204755D01*
X171181349Y-86111859D01*
X171225921Y-86079474D01*
X171225922Y-86079474D01*
X171218711Y-86072263D01*
X170546447Y-85400000D01*
X170552661Y-85400000D01*
X170654394Y-85372741D01*
X170745606Y-85320080D01*
X170820080Y-85245606D01*
X170872741Y-85154394D01*
X170900000Y-85052661D01*
X170900000Y-85046448D01*
X171579474Y-85725922D01*
X171579474Y-85725921D01*
X171611859Y-85681349D01*
X171704755Y-85499031D01*
X171767990Y-85304417D01*
X171800000Y-85102317D01*
X171800000Y-84897682D01*
X171767990Y-84695582D01*
X171704755Y-84500968D01*
X171611859Y-84318650D01*
X171579474Y-84274077D01*
X171579474Y-84274076D01*
X170900000Y-84953551D01*
X170900000Y-84947339D01*
X170872741Y-84845606D01*
X170820080Y-84754394D01*
X170745606Y-84679920D01*
X170654394Y-84627259D01*
X170552661Y-84600000D01*
X170546446Y-84600000D01*
X171225922Y-83920524D01*
X171225921Y-83920523D01*
X171194483Y-83897682D01*
X173200000Y-83897682D01*
X173200000Y-84102317D01*
X173232009Y-84304417D01*
X173295244Y-84499031D01*
X173388141Y-84681350D01*
X173388147Y-84681359D01*
X173420523Y-84725921D01*
X173420524Y-84725922D01*
X174100000Y-84046446D01*
X174100000Y-84052661D01*
X174127259Y-84154394D01*
X174179920Y-84245606D01*
X174254394Y-84320080D01*
X174345606Y-84372741D01*
X174447339Y-84400000D01*
X174453553Y-84400000D01*
X173774076Y-85079474D01*
X173818650Y-85111859D01*
X174000968Y-85204755D01*
X174195582Y-85267990D01*
X174397683Y-85300000D01*
X174602317Y-85300000D01*
X174804417Y-85267990D01*
X174999031Y-85204755D01*
X175181349Y-85111859D01*
X175225921Y-85079474D01*
X174546447Y-84400000D01*
X174552661Y-84400000D01*
X174654394Y-84372741D01*
X174745606Y-84320080D01*
X174820080Y-84245606D01*
X174872741Y-84154394D01*
X174900000Y-84052661D01*
X174900000Y-84046447D01*
X175579474Y-84725921D01*
X175611859Y-84681349D01*
X175704755Y-84499031D01*
X175767990Y-84304417D01*
X175800000Y-84102317D01*
X175800000Y-83897682D01*
X175767990Y-83695582D01*
X175704754Y-83500966D01*
X175696709Y-83485177D01*
X175696708Y-83485176D01*
X175611859Y-83318650D01*
X175579474Y-83274077D01*
X175579474Y-83274076D01*
X174900000Y-83953551D01*
X174900000Y-83947339D01*
X174872741Y-83845606D01*
X174820080Y-83754394D01*
X174745606Y-83679920D01*
X174654394Y-83627259D01*
X174552661Y-83600000D01*
X174546446Y-83600000D01*
X175225922Y-82920524D01*
X175225921Y-82920523D01*
X175181359Y-82888147D01*
X175181350Y-82888141D01*
X174999031Y-82795244D01*
X174804417Y-82732009D01*
X174602317Y-82700000D01*
X174397683Y-82700000D01*
X174195582Y-82732009D01*
X174000968Y-82795244D01*
X173818644Y-82888143D01*
X173774077Y-82920523D01*
X173774077Y-82920524D01*
X174453554Y-83600000D01*
X174447339Y-83600000D01*
X174345606Y-83627259D01*
X174254394Y-83679920D01*
X174179920Y-83754394D01*
X174127259Y-83845606D01*
X174100000Y-83947339D01*
X174100000Y-83953553D01*
X173420524Y-83274077D01*
X173420523Y-83274077D01*
X173388143Y-83318644D01*
X173295244Y-83500968D01*
X173232009Y-83695582D01*
X173200000Y-83897682D01*
X171194483Y-83897682D01*
X171181359Y-83888147D01*
X171181350Y-83888141D01*
X170999031Y-83795244D01*
X170804417Y-83732009D01*
X170602317Y-83700000D01*
X170397683Y-83700000D01*
X170195582Y-83732009D01*
X170000968Y-83795244D01*
X169818644Y-83888143D01*
X169774077Y-83920523D01*
X169774077Y-83920524D01*
X170453554Y-84600000D01*
X170447339Y-84600000D01*
X170345606Y-84627259D01*
X170254394Y-84679920D01*
X170179920Y-84754394D01*
X170127259Y-84845606D01*
X170100000Y-84947339D01*
X170100000Y-84953553D01*
X169420524Y-84274077D01*
X169420523Y-84274077D01*
X169388143Y-84318645D01*
X169388138Y-84318653D01*
X169331796Y-84429230D01*
X169283822Y-84480026D01*
X169216001Y-84496821D01*
X169149866Y-84474283D01*
X169106415Y-84419568D01*
X169098197Y-84387723D01*
X169089877Y-84318436D01*
X169034361Y-84177658D01*
X169034360Y-84177657D01*
X169034360Y-84177656D01*
X168942922Y-84057077D01*
X168822343Y-83965639D01*
X168681561Y-83910122D01*
X168635926Y-83904642D01*
X168593102Y-83899500D01*
X167406898Y-83899500D01*
X167367853Y-83904188D01*
X167318438Y-83910122D01*
X167177656Y-83965639D01*
X167057077Y-84057077D01*
X166965639Y-84177656D01*
X166910122Y-84318438D01*
X166905906Y-84353553D01*
X166899500Y-84406898D01*
X152425500Y-84406898D01*
X152425500Y-78227610D01*
X152445185Y-78160571D01*
X152461819Y-78139929D01*
X153139929Y-77461819D01*
X153201252Y-77428334D01*
X153227610Y-77425500D01*
X155725008Y-77425500D01*
X155792047Y-77445185D01*
X155837802Y-77497989D01*
X155847746Y-77567147D01*
X155818721Y-77630703D01*
X155797893Y-77649818D01*
X155783075Y-77660583D01*
X155783069Y-77660588D01*
X155660588Y-77783069D01*
X155660588Y-77783070D01*
X155660586Y-77783072D01*
X155622306Y-77835760D01*
X155558768Y-77923211D01*
X155480128Y-78077552D01*
X155426597Y-78242302D01*
X155399500Y-78413389D01*
X155399500Y-78586610D01*
X155426597Y-78757697D01*
X155426597Y-78757699D01*
X155426598Y-78757701D01*
X155480127Y-78922445D01*
X155558768Y-79076788D01*
X155660586Y-79216928D01*
X155783072Y-79339414D01*
X155923212Y-79441232D01*
X156077555Y-79519873D01*
X156242299Y-79573402D01*
X156413389Y-79600500D01*
X156413390Y-79600500D01*
X156586610Y-79600500D01*
X156586611Y-79600500D01*
X156757701Y-79573402D01*
X156922445Y-79519873D01*
X157076788Y-79441232D01*
X157216928Y-79339414D01*
X157339414Y-79216928D01*
X157441232Y-79076788D01*
X157519873Y-78922445D01*
X157573402Y-78757701D01*
X157600500Y-78586611D01*
X157600500Y-78413389D01*
X157573402Y-78242299D01*
X157519873Y-78077555D01*
X157441232Y-77923212D01*
X157339414Y-77783072D01*
X157216928Y-77660586D01*
X157202106Y-77649817D01*
X157159441Y-77594489D01*
X157153462Y-77524875D01*
X157186067Y-77463080D01*
X157246906Y-77428723D01*
X157274992Y-77425500D01*
X163225008Y-77425500D01*
X163292047Y-77445185D01*
X163337802Y-77497989D01*
X163347746Y-77567147D01*
X163318721Y-77630703D01*
X163297893Y-77649818D01*
X163283075Y-77660583D01*
X163283069Y-77660588D01*
X163160588Y-77783069D01*
X163160588Y-77783070D01*
X163160586Y-77783072D01*
X163122306Y-77835760D01*
X163058768Y-77923211D01*
X162980128Y-78077552D01*
X162926597Y-78242302D01*
X162899500Y-78413389D01*
X162899500Y-78586610D01*
X162926597Y-78757697D01*
X162926597Y-78757699D01*
X162926598Y-78757701D01*
X162980127Y-78922445D01*
X163058768Y-79076788D01*
X163160586Y-79216928D01*
X163283072Y-79339414D01*
X163423212Y-79441232D01*
X163577555Y-79519873D01*
X163742299Y-79573402D01*
X163913389Y-79600500D01*
X163913390Y-79600500D01*
X164086610Y-79600500D01*
X164086611Y-79600500D01*
X164257701Y-79573402D01*
X164422445Y-79519873D01*
X164576788Y-79441232D01*
X164716928Y-79339414D01*
X164839414Y-79216928D01*
X164941232Y-79076788D01*
X165019873Y-78922445D01*
X165022815Y-78913389D01*
X173399500Y-78913389D01*
X173399500Y-79086610D01*
X173420140Y-79216930D01*
X173426598Y-79257701D01*
X173480127Y-79422445D01*
X173558768Y-79576788D01*
X173660586Y-79716928D01*
X173783072Y-79839414D01*
X173923212Y-79941232D01*
X174077555Y-80019873D01*
X174242299Y-80073402D01*
X174413389Y-80100500D01*
X174413390Y-80100500D01*
X174586610Y-80100500D01*
X174586611Y-80100500D01*
X174757701Y-80073402D01*
X174922445Y-80019873D01*
X175076788Y-79941232D01*
X175216928Y-79839414D01*
X175339414Y-79716928D01*
X175441232Y-79576788D01*
X175519873Y-79422445D01*
X175573402Y-79257701D01*
X175600500Y-79086611D01*
X175600500Y-78913389D01*
X175573402Y-78742299D01*
X175519873Y-78577555D01*
X175441232Y-78423212D01*
X175339414Y-78283072D01*
X175216928Y-78160586D01*
X175076788Y-78058768D01*
X174922445Y-77980127D01*
X174757701Y-77926598D01*
X174757699Y-77926597D01*
X174757698Y-77926597D01*
X174626271Y-77905781D01*
X174586611Y-77899500D01*
X174413389Y-77899500D01*
X174373728Y-77905781D01*
X174242302Y-77926597D01*
X174077552Y-77980128D01*
X173923211Y-78058768D01*
X173843256Y-78116859D01*
X173783072Y-78160586D01*
X173783070Y-78160588D01*
X173783069Y-78160588D01*
X173660588Y-78283069D01*
X173660588Y-78283070D01*
X173660586Y-78283072D01*
X173616859Y-78343256D01*
X173558768Y-78423211D01*
X173480128Y-78577552D01*
X173426597Y-78742302D01*
X173399500Y-78913389D01*
X165022815Y-78913389D01*
X165073402Y-78757701D01*
X165100500Y-78586611D01*
X165100500Y-78413389D01*
X165073402Y-78242299D01*
X165019873Y-78077555D01*
X164941232Y-77923212D01*
X164839414Y-77783072D01*
X164716928Y-77660586D01*
X164702106Y-77649817D01*
X164659441Y-77594489D01*
X164653462Y-77524875D01*
X164686067Y-77463080D01*
X164746906Y-77428723D01*
X164774992Y-77425500D01*
X177272390Y-77425500D01*
X177339429Y-77445185D01*
X177360071Y-77461819D01*
X178038181Y-78139929D01*
X178071666Y-78201252D01*
X178074500Y-78227610D01*
X178074500Y-79725500D01*
X178054815Y-79792539D01*
X178002011Y-79838294D01*
X177950500Y-79849500D01*
X177605143Y-79849500D01*
X177605117Y-79849502D01*
X177580012Y-79852413D01*
X177580008Y-79852415D01*
X177477235Y-79897793D01*
X177397794Y-79977234D01*
X177352415Y-80080006D01*
X177352415Y-80080008D01*
X177349500Y-80105131D01*
X177349500Y-81894856D01*
X177349502Y-81894882D01*
X177352413Y-81919987D01*
X177352415Y-81919991D01*
X177397793Y-82022764D01*
X177397794Y-82022765D01*
X177477235Y-82102206D01*
X177580009Y-82147585D01*
X177605135Y-82150500D01*
X177736923Y-82150499D01*
X177803960Y-82170183D01*
X177849715Y-82222987D01*
X177859659Y-82292145D01*
X177830635Y-82355701D01*
X177796387Y-82382507D01*
X177796590Y-82382838D01*
X177793715Y-82384599D01*
X177793239Y-82384972D01*
X177792451Y-82385373D01*
X177792440Y-82385380D01*
X177738282Y-82424727D01*
X177738282Y-82424728D01*
X178370591Y-83057037D01*
X178307007Y-83074075D01*
X178192993Y-83139901D01*
X178099901Y-83232993D01*
X178034075Y-83347007D01*
X178017037Y-83410591D01*
X177384728Y-82778282D01*
X177384727Y-82778282D01*
X177345380Y-82832439D01*
X177248904Y-83021782D01*
X177183242Y-83223869D01*
X177183242Y-83223872D01*
X177150000Y-83433753D01*
X177150000Y-83646246D01*
X177183242Y-83856127D01*
X177183242Y-83856130D01*
X177248904Y-84058217D01*
X177345375Y-84247550D01*
X177384728Y-84301716D01*
X178017037Y-83669408D01*
X178034075Y-83732993D01*
X178099901Y-83847007D01*
X178192993Y-83940099D01*
X178307007Y-84005925D01*
X178370590Y-84022962D01*
X177738282Y-84655269D01*
X177738282Y-84655270D01*
X177792449Y-84694624D01*
X177981780Y-84791094D01*
X178010705Y-84800492D01*
X178068381Y-84839929D01*
X178095580Y-84904287D01*
X178083667Y-84973134D01*
X178036424Y-85024610D01*
X178028685Y-85028908D01*
X177897004Y-85096004D01*
X177750505Y-85202441D01*
X177750500Y-85202445D01*
X177622445Y-85330500D01*
X177622441Y-85330505D01*
X177516006Y-85477002D01*
X177433788Y-85638360D01*
X177433787Y-85638363D01*
X177377829Y-85810589D01*
X177349500Y-85989448D01*
X177349500Y-86170551D01*
X177377829Y-86349410D01*
X177433787Y-86521636D01*
X177433788Y-86521639D01*
X177516006Y-86682997D01*
X177622441Y-86829494D01*
X177622445Y-86829499D01*
X177750500Y-86957554D01*
X177750505Y-86957558D01*
X177862642Y-87039029D01*
X177897006Y-87063996D01*
X178002484Y-87117740D01*
X178058360Y-87146211D01*
X178058363Y-87146212D01*
X178144476Y-87174191D01*
X178230591Y-87202171D01*
X178313429Y-87215291D01*
X178409449Y-87230500D01*
X178409454Y-87230500D01*
X178590551Y-87230500D01*
X178677259Y-87216765D01*
X178769409Y-87202171D01*
X178941639Y-87146211D01*
X179102994Y-87063996D01*
X179249501Y-86957553D01*
X179377553Y-86829501D01*
X179483996Y-86682994D01*
X179566211Y-86521639D01*
X179622171Y-86349409D01*
X179640199Y-86235586D01*
X179650500Y-86170551D01*
X179650500Y-85989448D01*
X179629783Y-85858650D01*
X179622171Y-85810591D01*
X179594191Y-85724476D01*
X179566212Y-85638363D01*
X179566211Y-85638360D01*
X179520203Y-85548066D01*
X179483996Y-85477006D01*
X179470396Y-85458287D01*
X179377558Y-85330505D01*
X179377554Y-85330500D01*
X179249499Y-85202445D01*
X179249494Y-85202441D01*
X179102995Y-85096004D01*
X178971314Y-85028908D01*
X178920519Y-84980934D01*
X178903724Y-84913113D01*
X178926262Y-84846978D01*
X178980977Y-84803527D01*
X178989295Y-84800492D01*
X179018217Y-84791095D01*
X179207554Y-84694622D01*
X179261716Y-84655270D01*
X179261717Y-84655270D01*
X178629408Y-84022962D01*
X178692993Y-84005925D01*
X178807007Y-83940099D01*
X178900099Y-83847007D01*
X178965925Y-83732993D01*
X178982962Y-83669409D01*
X179615270Y-84301717D01*
X179615270Y-84301716D01*
X179654622Y-84247554D01*
X179751095Y-84058217D01*
X179816757Y-83856130D01*
X179816757Y-83856127D01*
X179850000Y-83646246D01*
X179850000Y-83433753D01*
X179816757Y-83223872D01*
X179816757Y-83223869D01*
X179751095Y-83021782D01*
X179654624Y-82832449D01*
X179615270Y-82778282D01*
X179615269Y-82778282D01*
X178982962Y-83410590D01*
X178965925Y-83347007D01*
X178900099Y-83232993D01*
X178807007Y-83139901D01*
X178692993Y-83074075D01*
X178629409Y-83057037D01*
X179261716Y-82424728D01*
X179207550Y-82385375D01*
X179206786Y-82384986D01*
X179206546Y-82384759D01*
X179203396Y-82382829D01*
X179203801Y-82382167D01*
X179155988Y-82337013D01*
X179139191Y-82269192D01*
X179161726Y-82203057D01*
X179216440Y-82159604D01*
X179263076Y-82150499D01*
X179394864Y-82150499D01*
X179394879Y-82150497D01*
X179394882Y-82150497D01*
X179419987Y-82147586D01*
X179419988Y-82147585D01*
X179419991Y-82147585D01*
X179522765Y-82102206D01*
X179602206Y-82022765D01*
X179647585Y-81919991D01*
X179650500Y-81894865D01*
X179650499Y-80105136D01*
X179650497Y-80105117D01*
X179647586Y-80080012D01*
X179647585Y-80080010D01*
X179647585Y-80080009D01*
X179602206Y-79977235D01*
X179522765Y-79897794D01*
X179522763Y-79897793D01*
X179419992Y-79852415D01*
X179394868Y-79849500D01*
X179394865Y-79849500D01*
X179049500Y-79849500D01*
X178982461Y-79829815D01*
X178936706Y-79777011D01*
X178925500Y-79725500D01*
X178925500Y-77943984D01*
X178925500Y-77943982D01*
X178896503Y-77835763D01*
X178840485Y-77738737D01*
X178761263Y-77659515D01*
X177761263Y-76659515D01*
X177664237Y-76603497D01*
X177556018Y-76574500D01*
X153056019Y-76574500D01*
X152943982Y-76574500D01*
X152835763Y-76603497D01*
X152835760Y-76603498D01*
X152738740Y-76659513D01*
X152738734Y-76659517D01*
X151659517Y-77738734D01*
X151659513Y-77738740D01*
X151603498Y-77835760D01*
X151603497Y-77835763D01*
X151574500Y-77943982D01*
X151574500Y-91332389D01*
X151554815Y-91399428D01*
X151538181Y-91420070D01*
X139712915Y-103245335D01*
X139651592Y-103278820D01*
X139586916Y-103275585D01*
X139497704Y-103246598D01*
X139369383Y-103226274D01*
X139326611Y-103219500D01*
X139153389Y-103219500D01*
X139113728Y-103225781D01*
X138982302Y-103246597D01*
X138817552Y-103300128D01*
X138663211Y-103378768D01*
X138583256Y-103436859D01*
X138523072Y-103480586D01*
X138523070Y-103480588D01*
X138523069Y-103480588D01*
X138400588Y-103603069D01*
X138400588Y-103603070D01*
X138400586Y-103603072D01*
X138356859Y-103663256D01*
X138298768Y-103743211D01*
X138220128Y-103897552D01*
X138220127Y-103897554D01*
X138220127Y-103897555D01*
X138195587Y-103973082D01*
X138166597Y-104062302D01*
X138140124Y-104229448D01*
X138139500Y-104233389D01*
X125100500Y-104233389D01*
X125073402Y-104062299D01*
X125019873Y-103897555D01*
X124941232Y-103743212D01*
X124839414Y-103603072D01*
X124716928Y-103480586D01*
X124576788Y-103378768D01*
X124422445Y-103300127D01*
X124257701Y-103246598D01*
X124257699Y-103246597D01*
X124257698Y-103246597D01*
X124126271Y-103225781D01*
X124086611Y-103219500D01*
X123913389Y-103219500D01*
X123873728Y-103225781D01*
X123742302Y-103246597D01*
X123577552Y-103300128D01*
X123423211Y-103378768D01*
X123343256Y-103436859D01*
X123283072Y-103480586D01*
X123283070Y-103480588D01*
X123283069Y-103480588D01*
X123160588Y-103603069D01*
X123160588Y-103603070D01*
X123160586Y-103603072D01*
X123116859Y-103663256D01*
X123058768Y-103743211D01*
X122980128Y-103897552D01*
X122980127Y-103897554D01*
X122980127Y-103897555D01*
X122955587Y-103973082D01*
X122926597Y-104062302D01*
X122900124Y-104229448D01*
X122899500Y-104233389D01*
X115150500Y-104233389D01*
X115150500Y-104229448D01*
X115134019Y-104125397D01*
X115122171Y-104050591D01*
X115073507Y-103900815D01*
X115066212Y-103878363D01*
X115066211Y-103878360D01*
X115037740Y-103822484D01*
X114983996Y-103717006D01*
X114901219Y-103603072D01*
X114877558Y-103570505D01*
X114877554Y-103570500D01*
X114749499Y-103442445D01*
X114749494Y-103442441D01*
X114602997Y-103336006D01*
X114602996Y-103336005D01*
X114602994Y-103336004D01*
X114530502Y-103299067D01*
X114441639Y-103253788D01*
X114441636Y-103253787D01*
X114269410Y-103197829D01*
X114109321Y-103172473D01*
X114046186Y-103142544D01*
X114009255Y-103083232D01*
X114010253Y-103013370D01*
X114048863Y-102955137D01*
X114109321Y-102927527D01*
X114179425Y-102916422D01*
X114269409Y-102902171D01*
X114441639Y-102846211D01*
X114602994Y-102763996D01*
X114749501Y-102657553D01*
X114877553Y-102529501D01*
X114983996Y-102382994D01*
X115066211Y-102221639D01*
X115122171Y-102049409D01*
X115136765Y-101957259D01*
X115150500Y-101870551D01*
X115150500Y-101693389D01*
X122899500Y-101693389D01*
X122899500Y-101866611D01*
X122926598Y-102037701D01*
X122980127Y-102202445D01*
X123058768Y-102356788D01*
X123160586Y-102496928D01*
X123283072Y-102619414D01*
X123423212Y-102721232D01*
X123577555Y-102799873D01*
X123742299Y-102853402D01*
X123913389Y-102880500D01*
X123913390Y-102880500D01*
X124086610Y-102880500D01*
X124086611Y-102880500D01*
X124257701Y-102853402D01*
X124422445Y-102799873D01*
X124576788Y-102721232D01*
X124716928Y-102619414D01*
X124839414Y-102496928D01*
X124941232Y-102356788D01*
X125019873Y-102202445D01*
X125073402Y-102037701D01*
X125100500Y-101866611D01*
X125100500Y-101693389D01*
X138139500Y-101693389D01*
X138139500Y-101866611D01*
X138166598Y-102037701D01*
X138220127Y-102202445D01*
X138298768Y-102356788D01*
X138400586Y-102496928D01*
X138523072Y-102619414D01*
X138663212Y-102721232D01*
X138817555Y-102799873D01*
X138982299Y-102853402D01*
X139153389Y-102880500D01*
X139153390Y-102880500D01*
X139326610Y-102880500D01*
X139326611Y-102880500D01*
X139497701Y-102853402D01*
X139662445Y-102799873D01*
X139816788Y-102721232D01*
X139956928Y-102619414D01*
X140079414Y-102496928D01*
X140181232Y-102356788D01*
X140259873Y-102202445D01*
X140313402Y-102037701D01*
X140340500Y-101866611D01*
X140340500Y-101693389D01*
X140313402Y-101522299D01*
X140284412Y-101433081D01*
X140282418Y-101363241D01*
X140314661Y-101307085D01*
X148420485Y-93201263D01*
X148476503Y-93104237D01*
X148505500Y-92996018D01*
X148505500Y-92883982D01*
X148505500Y-73650421D01*
X148525185Y-73583382D01*
X148573203Y-73539937D01*
X148682994Y-73483996D01*
X148829501Y-73377553D01*
X148957553Y-73249501D01*
X149063996Y-73102994D01*
X149146211Y-72941639D01*
X149202171Y-72769409D01*
X149225631Y-72621289D01*
X149227527Y-72609321D01*
X149257456Y-72546186D01*
X149316768Y-72509255D01*
X149386630Y-72510253D01*
X149444863Y-72548863D01*
X149472473Y-72609321D01*
X149497829Y-72769410D01*
X149553787Y-72941636D01*
X149553788Y-72941639D01*
X149603480Y-73039163D01*
X149632493Y-73096104D01*
X149636006Y-73102997D01*
X149742441Y-73249494D01*
X149742445Y-73249499D01*
X149870500Y-73377554D01*
X149870505Y-73377558D01*
X149957491Y-73440756D01*
X150017006Y-73483996D01*
X150122484Y-73537740D01*
X150178360Y-73566211D01*
X150178363Y-73566212D01*
X150245145Y-73587910D01*
X150350591Y-73622171D01*
X150433429Y-73635291D01*
X150529449Y-73650500D01*
X150529454Y-73650500D01*
X150710551Y-73650500D01*
X150797259Y-73636765D01*
X150889409Y-73622171D01*
X151061639Y-73566211D01*
X151222994Y-73483996D01*
X151331017Y-73405513D01*
X155759500Y-73405513D01*
X155759500Y-73594486D01*
X155789059Y-73781118D01*
X155847454Y-73960836D01*
X155888775Y-74041932D01*
X155933240Y-74129199D01*
X156044310Y-74282073D01*
X156177927Y-74415690D01*
X156330801Y-74526760D01*
X156410347Y-74567290D01*
X156499163Y-74612545D01*
X156499165Y-74612545D01*
X156499168Y-74612547D01*
X156590079Y-74642086D01*
X156678881Y-74670940D01*
X156865514Y-74700500D01*
X156865519Y-74700500D01*
X157054486Y-74700500D01*
X157241118Y-74670940D01*
X157420832Y-74612547D01*
X157589199Y-74526760D01*
X157742073Y-74415690D01*
X157875690Y-74282073D01*
X157875697Y-74282062D01*
X157878854Y-74278368D01*
X157879634Y-74279035D01*
X157931011Y-74239418D01*
X158000624Y-74233439D01*
X158062420Y-74266044D01*
X158096777Y-74326883D01*
X158100000Y-74354969D01*
X158100000Y-74447844D01*
X158106401Y-74507372D01*
X158106403Y-74507379D01*
X158156645Y-74642086D01*
X158156649Y-74642093D01*
X158242809Y-74757187D01*
X158242812Y-74757190D01*
X158357906Y-74843350D01*
X158357913Y-74843354D01*
X158492620Y-74893596D01*
X158492627Y-74893598D01*
X158552155Y-74899999D01*
X158552172Y-74900000D01*
X159250000Y-74900000D01*
X159250000Y-73875277D01*
X159326306Y-73919333D01*
X159440756Y-73950000D01*
X159559244Y-73950000D01*
X159673694Y-73919333D01*
X159750000Y-73875277D01*
X159750000Y-74900000D01*
X160447828Y-74900000D01*
X160447844Y-74899999D01*
X160507372Y-74893598D01*
X160507379Y-74893596D01*
X160642086Y-74843354D01*
X160642093Y-74843350D01*
X160757187Y-74757190D01*
X160757190Y-74757187D01*
X160843350Y-74642093D01*
X160843354Y-74642086D01*
X160893596Y-74507379D01*
X160893598Y-74507372D01*
X160899999Y-74447844D01*
X160900000Y-74447827D01*
X160900000Y-73750000D01*
X159875278Y-73750000D01*
X159919333Y-73673694D01*
X159950000Y-73559244D01*
X159950000Y-73440756D01*
X159940557Y-73405513D01*
X162259500Y-73405513D01*
X162259500Y-73594486D01*
X162289059Y-73781118D01*
X162347454Y-73960836D01*
X162388775Y-74041932D01*
X162433240Y-74129199D01*
X162544310Y-74282073D01*
X162677927Y-74415690D01*
X162830801Y-74526760D01*
X162910347Y-74567290D01*
X162999163Y-74612545D01*
X162999165Y-74612545D01*
X162999168Y-74612547D01*
X163090079Y-74642086D01*
X163178881Y-74670940D01*
X163365514Y-74700500D01*
X163365519Y-74700500D01*
X163554486Y-74700500D01*
X163741118Y-74670940D01*
X163920832Y-74612547D01*
X164089199Y-74526760D01*
X164242073Y-74415690D01*
X164375690Y-74282073D01*
X164375697Y-74282062D01*
X164378854Y-74278368D01*
X164379634Y-74279035D01*
X164431011Y-74239418D01*
X164500624Y-74233439D01*
X164562420Y-74266044D01*
X164596777Y-74326883D01*
X164600000Y-74354969D01*
X164600000Y-74447844D01*
X164606401Y-74507372D01*
X164606403Y-74507379D01*
X164656645Y-74642086D01*
X164656649Y-74642093D01*
X164742809Y-74757187D01*
X164742812Y-74757190D01*
X164857906Y-74843350D01*
X164857913Y-74843354D01*
X164992620Y-74893596D01*
X164992627Y-74893598D01*
X165052155Y-74899999D01*
X165052172Y-74900000D01*
X165750000Y-74900000D01*
X165750000Y-73875277D01*
X165826306Y-73919333D01*
X165940756Y-73950000D01*
X166059244Y-73950000D01*
X166173694Y-73919333D01*
X166250000Y-73875277D01*
X166250000Y-74900000D01*
X166947828Y-74900000D01*
X166947844Y-74899999D01*
X167007372Y-74893598D01*
X167007379Y-74893596D01*
X167142086Y-74843354D01*
X167142093Y-74843350D01*
X167257187Y-74757190D01*
X167257190Y-74757187D01*
X167343350Y-74642093D01*
X167343354Y-74642086D01*
X167393596Y-74507379D01*
X167393598Y-74507372D01*
X167399999Y-74447844D01*
X167400000Y-74447827D01*
X167400000Y-73750000D01*
X166375278Y-73750000D01*
X166419333Y-73673694D01*
X166450000Y-73559244D01*
X166450000Y-73440756D01*
X166419333Y-73326306D01*
X166375278Y-73250000D01*
X167400000Y-73250000D01*
X167400000Y-72552172D01*
X167399999Y-72552155D01*
X167393598Y-72492627D01*
X167393596Y-72492620D01*
X167365760Y-72417986D01*
X167351111Y-72378711D01*
X176649500Y-72378711D01*
X176649500Y-72621288D01*
X176681161Y-72861785D01*
X176743947Y-73096104D01*
X176836773Y-73320205D01*
X176836776Y-73320212D01*
X176958064Y-73530289D01*
X176958066Y-73530292D01*
X176958067Y-73530293D01*
X177105733Y-73722736D01*
X177105739Y-73722743D01*
X177277256Y-73894260D01*
X177277262Y-73894265D01*
X177469711Y-74041936D01*
X177679788Y-74163224D01*
X177903900Y-74256054D01*
X178138211Y-74318838D01*
X178318586Y-74342584D01*
X178378711Y-74350500D01*
X178378712Y-74350500D01*
X178621289Y-74350500D01*
X178669388Y-74344167D01*
X178861789Y-74318838D01*
X179096100Y-74256054D01*
X179320212Y-74163224D01*
X179530289Y-74041936D01*
X179722738Y-73894265D01*
X179894265Y-73722738D01*
X180041936Y-73530289D01*
X180163224Y-73320212D01*
X180256054Y-73096100D01*
X180318838Y-72861789D01*
X180350500Y-72621288D01*
X180350500Y-72378712D01*
X180318838Y-72138211D01*
X180256054Y-71903900D01*
X180163224Y-71679788D01*
X180041936Y-71469711D01*
X179894265Y-71277262D01*
X179894260Y-71277256D01*
X179722743Y-71105739D01*
X179722736Y-71105733D01*
X179530293Y-70958067D01*
X179530292Y-70958066D01*
X179530289Y-70958064D01*
X179320212Y-70836776D01*
X179320205Y-70836773D01*
X179096104Y-70743947D01*
X178861785Y-70681161D01*
X178621289Y-70649500D01*
X178621288Y-70649500D01*
X178378712Y-70649500D01*
X178378711Y-70649500D01*
X178138214Y-70681161D01*
X177903895Y-70743947D01*
X177679794Y-70836773D01*
X177679785Y-70836777D01*
X177469706Y-70958067D01*
X177277263Y-71105733D01*
X177277256Y-71105739D01*
X177105739Y-71277256D01*
X177105733Y-71277263D01*
X176958067Y-71469706D01*
X176836777Y-71679785D01*
X176836773Y-71679794D01*
X176743947Y-71903895D01*
X176681161Y-72138214D01*
X176649500Y-72378711D01*
X167351111Y-72378711D01*
X167343354Y-72357913D01*
X167343350Y-72357906D01*
X167257190Y-72242812D01*
X167257187Y-72242809D01*
X167142093Y-72156649D01*
X167142086Y-72156645D01*
X167007379Y-72106403D01*
X167007372Y-72106401D01*
X166947844Y-72100000D01*
X166250000Y-72100000D01*
X166250000Y-73124722D01*
X166173694Y-73080667D01*
X166059244Y-73050000D01*
X165940756Y-73050000D01*
X165826306Y-73080667D01*
X165750000Y-73124722D01*
X165750000Y-72100000D01*
X165052155Y-72100000D01*
X164992627Y-72106401D01*
X164992620Y-72106403D01*
X164857913Y-72156645D01*
X164857906Y-72156649D01*
X164742812Y-72242809D01*
X164742809Y-72242812D01*
X164656649Y-72357906D01*
X164656645Y-72357913D01*
X164606403Y-72492620D01*
X164606401Y-72492627D01*
X164600000Y-72552155D01*
X164600000Y-72645030D01*
X164580315Y-72712069D01*
X164527511Y-72757824D01*
X164458353Y-72767768D01*
X164394797Y-72738743D01*
X164378986Y-72721518D01*
X164378854Y-72721632D01*
X164375687Y-72717924D01*
X164242075Y-72584312D01*
X164242073Y-72584310D01*
X164089199Y-72473240D01*
X163920836Y-72387454D01*
X163741118Y-72329059D01*
X163554486Y-72299500D01*
X163554481Y-72299500D01*
X163365519Y-72299500D01*
X163365514Y-72299500D01*
X163178881Y-72329059D01*
X162999163Y-72387454D01*
X162830800Y-72473240D01*
X162779857Y-72510253D01*
X162677927Y-72584310D01*
X162677925Y-72584312D01*
X162677924Y-72584312D01*
X162544312Y-72717924D01*
X162544312Y-72717925D01*
X162544310Y-72717927D01*
X162515323Y-72757824D01*
X162433240Y-72870800D01*
X162347454Y-73039163D01*
X162289059Y-73218881D01*
X162259500Y-73405513D01*
X159940557Y-73405513D01*
X159919333Y-73326306D01*
X159875278Y-73250000D01*
X160900000Y-73250000D01*
X160900000Y-72552172D01*
X160899999Y-72552155D01*
X160893598Y-72492627D01*
X160893596Y-72492620D01*
X160843354Y-72357913D01*
X160843350Y-72357906D01*
X160757190Y-72242812D01*
X160757187Y-72242809D01*
X160642093Y-72156649D01*
X160642086Y-72156645D01*
X160507379Y-72106403D01*
X160507372Y-72106401D01*
X160447844Y-72100000D01*
X159750000Y-72100000D01*
X159750000Y-73124722D01*
X159673694Y-73080667D01*
X159559244Y-73050000D01*
X159440756Y-73050000D01*
X159326306Y-73080667D01*
X159250000Y-73124722D01*
X159250000Y-72100000D01*
X158552155Y-72100000D01*
X158492627Y-72106401D01*
X158492620Y-72106403D01*
X158357913Y-72156645D01*
X158357906Y-72156649D01*
X158242812Y-72242809D01*
X158242809Y-72242812D01*
X158156649Y-72357906D01*
X158156645Y-72357913D01*
X158106403Y-72492620D01*
X158106401Y-72492627D01*
X158100000Y-72552155D01*
X158100000Y-72645030D01*
X158080315Y-72712069D01*
X158027511Y-72757824D01*
X157958353Y-72767768D01*
X157894797Y-72738743D01*
X157878986Y-72721518D01*
X157878854Y-72721632D01*
X157875687Y-72717924D01*
X157742075Y-72584312D01*
X157742073Y-72584310D01*
X157589199Y-72473240D01*
X157420836Y-72387454D01*
X157241118Y-72329059D01*
X157054486Y-72299500D01*
X157054481Y-72299500D01*
X156865519Y-72299500D01*
X156865514Y-72299500D01*
X156678881Y-72329059D01*
X156499163Y-72387454D01*
X156330800Y-72473240D01*
X156279857Y-72510253D01*
X156177927Y-72584310D01*
X156177925Y-72584312D01*
X156177924Y-72584312D01*
X156044312Y-72717924D01*
X156044312Y-72717925D01*
X156044310Y-72717927D01*
X156015323Y-72757824D01*
X155933240Y-72870800D01*
X155847454Y-73039163D01*
X155789059Y-73218881D01*
X155759500Y-73405513D01*
X151331017Y-73405513D01*
X151369501Y-73377553D01*
X151497553Y-73249501D01*
X151603996Y-73102994D01*
X151686211Y-72941639D01*
X151742171Y-72769409D01*
X151765631Y-72621288D01*
X151770500Y-72590551D01*
X151770500Y-72409448D01*
X151745245Y-72250000D01*
X151742171Y-72230591D01*
X151686211Y-72058361D01*
X151686211Y-72058360D01*
X151615937Y-71920442D01*
X151603996Y-71897006D01*
X151585681Y-71871797D01*
X151497558Y-71750505D01*
X151497554Y-71750500D01*
X151369499Y-71622445D01*
X151369494Y-71622441D01*
X151222997Y-71516006D01*
X151222996Y-71516005D01*
X151222994Y-71516004D01*
X151171300Y-71489664D01*
X151061639Y-71433788D01*
X151061636Y-71433787D01*
X150889410Y-71377829D01*
X150710551Y-71349500D01*
X150710546Y-71349500D01*
X150529454Y-71349500D01*
X150529449Y-71349500D01*
X150350589Y-71377829D01*
X150178363Y-71433787D01*
X150178360Y-71433788D01*
X150017002Y-71516006D01*
X149870505Y-71622441D01*
X149870500Y-71622445D01*
X149742445Y-71750500D01*
X149742441Y-71750505D01*
X149636006Y-71897002D01*
X149553788Y-72058360D01*
X149553787Y-72058363D01*
X149497829Y-72230589D01*
X149472473Y-72390678D01*
X149442544Y-72453813D01*
X149383232Y-72490744D01*
X149313369Y-72489746D01*
X149255137Y-72451136D01*
X149227527Y-72390678D01*
X149205245Y-72250000D01*
X149202171Y-72230591D01*
X149146211Y-72058361D01*
X149146211Y-72058360D01*
X149075937Y-71920442D01*
X149063996Y-71897006D01*
X149045681Y-71871797D01*
X148957558Y-71750505D01*
X148957554Y-71750500D01*
X148829499Y-71622445D01*
X148829494Y-71622441D01*
X148682997Y-71516006D01*
X148682996Y-71516005D01*
X148682994Y-71516004D01*
X148631300Y-71489664D01*
X148521639Y-71433788D01*
X148521636Y-71433787D01*
X148349410Y-71377829D01*
X148170551Y-71349500D01*
X148170546Y-71349500D01*
X147989454Y-71349500D01*
X147989449Y-71349500D01*
X147810589Y-71377829D01*
X147638363Y-71433787D01*
X147638360Y-71433788D01*
X147477002Y-71516006D01*
X147330505Y-71622441D01*
X147330500Y-71622445D01*
X147202445Y-71750500D01*
X147202441Y-71750505D01*
X147096006Y-71897002D01*
X147013788Y-72058360D01*
X147013787Y-72058363D01*
X146957829Y-72230589D01*
X146932473Y-72390678D01*
X146902544Y-72453813D01*
X146843232Y-72490744D01*
X146773369Y-72489746D01*
X146715137Y-72451136D01*
X146687527Y-72390678D01*
X146665245Y-72250000D01*
X146662171Y-72230591D01*
X146606211Y-72058361D01*
X146606211Y-72058360D01*
X146535937Y-71920442D01*
X146523996Y-71897006D01*
X146505681Y-71871797D01*
X146417558Y-71750505D01*
X146417554Y-71750500D01*
X146289499Y-71622445D01*
X146289494Y-71622441D01*
X146142997Y-71516006D01*
X146142996Y-71516005D01*
X146142994Y-71516004D01*
X146091300Y-71489664D01*
X145981639Y-71433788D01*
X145981636Y-71433787D01*
X145809410Y-71377829D01*
X145630551Y-71349500D01*
X145630546Y-71349500D01*
X145449454Y-71349500D01*
X145449449Y-71349500D01*
X145270589Y-71377829D01*
X145098363Y-71433787D01*
X145098360Y-71433788D01*
X144937002Y-71516006D01*
X144790505Y-71622441D01*
X144790500Y-71622445D01*
X144662445Y-71750500D01*
X144662441Y-71750505D01*
X144574318Y-71871797D01*
X144518988Y-71914463D01*
X144449375Y-71920442D01*
X144387580Y-71887836D01*
X144353223Y-71826998D01*
X144350000Y-71798912D01*
X144350000Y-71602172D01*
X144349999Y-71602155D01*
X144343598Y-71542627D01*
X144343596Y-71542620D01*
X144293354Y-71407913D01*
X144293350Y-71407906D01*
X144207190Y-71292812D01*
X144207187Y-71292809D01*
X144092093Y-71206649D01*
X144092086Y-71206645D01*
X143957379Y-71156403D01*
X143957372Y-71156401D01*
X143897844Y-71150000D01*
X143250000Y-71150000D01*
X143250000Y-72066988D01*
X143192993Y-72034075D01*
X143065826Y-72000000D01*
X142934174Y-72000000D01*
X142807007Y-72034075D01*
X142750000Y-72066988D01*
X142750000Y-71150000D01*
X142102155Y-71150000D01*
X142042627Y-71156401D01*
X142042620Y-71156403D01*
X141907913Y-71206645D01*
X141907906Y-71206649D01*
X141792812Y-71292809D01*
X141792809Y-71292812D01*
X141706649Y-71407906D01*
X141706645Y-71407913D01*
X141656403Y-71542620D01*
X141656401Y-71542627D01*
X141650000Y-71602155D01*
X141650000Y-72250000D01*
X142566988Y-72250000D01*
X142534075Y-72307007D01*
X142500000Y-72434174D01*
X142500000Y-72565826D01*
X142534075Y-72692993D01*
X142566988Y-72750000D01*
X141650000Y-72750000D01*
X141650000Y-73397844D01*
X141656401Y-73457372D01*
X141656403Y-73457379D01*
X141706645Y-73592086D01*
X141706649Y-73592093D01*
X141792809Y-73707187D01*
X141792812Y-73707190D01*
X141907906Y-73793350D01*
X141907913Y-73793354D01*
X142042620Y-73843596D01*
X142042627Y-73843598D01*
X142102155Y-73849999D01*
X142102172Y-73850000D01*
X142750000Y-73850000D01*
X142750000Y-72933012D01*
X142807007Y-72965925D01*
X142934174Y-73000000D01*
X143065826Y-73000000D01*
X143192993Y-72965925D01*
X143250000Y-72933012D01*
X143250000Y-73850000D01*
X143897828Y-73850000D01*
X143897844Y-73849999D01*
X143957372Y-73843598D01*
X143957379Y-73843596D01*
X144092086Y-73793354D01*
X144092093Y-73793350D01*
X144207187Y-73707190D01*
X144207190Y-73707187D01*
X144293350Y-73592093D01*
X144293354Y-73592086D01*
X144343596Y-73457379D01*
X144343598Y-73457372D01*
X144349999Y-73397844D01*
X144350000Y-73397827D01*
X144350000Y-73201087D01*
X144369685Y-73134048D01*
X144422489Y-73088293D01*
X144491647Y-73078349D01*
X144555203Y-73107374D01*
X144574318Y-73128202D01*
X144662441Y-73249495D01*
X144790500Y-73377554D01*
X144790505Y-73377558D01*
X144877491Y-73440756D01*
X144937006Y-73483996D01*
X145042484Y-73537740D01*
X145098360Y-73566211D01*
X145098363Y-73566212D01*
X145165145Y-73587910D01*
X145270591Y-73622171D01*
X145353429Y-73635291D01*
X145449449Y-73650500D01*
X145449454Y-73650500D01*
X145630551Y-73650500D01*
X145717259Y-73636765D01*
X145809409Y-73622171D01*
X145981639Y-73566211D01*
X146142994Y-73483996D01*
X146289501Y-73377553D01*
X146417553Y-73249501D01*
X146523996Y-73102994D01*
X146606211Y-72941639D01*
X146662171Y-72769409D01*
X146685631Y-72621289D01*
X146687527Y-72609321D01*
X146717456Y-72546186D01*
X146776768Y-72509255D01*
X146846630Y-72510253D01*
X146904863Y-72548863D01*
X146932473Y-72609321D01*
X146957829Y-72769410D01*
X147013787Y-72941636D01*
X147013788Y-72941639D01*
X147063480Y-73039163D01*
X147092493Y-73096104D01*
X147096006Y-73102997D01*
X147202441Y-73249494D01*
X147202445Y-73249499D01*
X147330500Y-73377554D01*
X147330505Y-73377558D01*
X147477001Y-73483993D01*
X147477003Y-73483994D01*
X147477006Y-73483996D01*
X147586796Y-73539937D01*
X147637591Y-73587910D01*
X147654500Y-73650421D01*
X147654500Y-92712389D01*
X147634815Y-92779428D01*
X147618181Y-92800070D01*
X139712915Y-100705335D01*
X139651592Y-100738820D01*
X139586916Y-100735585D01*
X139497704Y-100706598D01*
X139369383Y-100686274D01*
X139326611Y-100679500D01*
X139153389Y-100679500D01*
X139113728Y-100685781D01*
X138982302Y-100706597D01*
X138817552Y-100760128D01*
X138663211Y-100838768D01*
X138583256Y-100896859D01*
X138523072Y-100940586D01*
X138523070Y-100940588D01*
X138523069Y-100940588D01*
X138400588Y-101063069D01*
X138400588Y-101063070D01*
X138400586Y-101063072D01*
X138390621Y-101076788D01*
X138298768Y-101203211D01*
X138220128Y-101357552D01*
X138220127Y-101357554D01*
X138220127Y-101357555D01*
X138195587Y-101433082D01*
X138166597Y-101522302D01*
X138158504Y-101573402D01*
X138139500Y-101693389D01*
X125100500Y-101693389D01*
X125073402Y-101522299D01*
X125019873Y-101357555D01*
X124941232Y-101203212D01*
X124839414Y-101063072D01*
X124716928Y-100940586D01*
X124576788Y-100838768D01*
X124422445Y-100760127D01*
X124257701Y-100706598D01*
X124257699Y-100706597D01*
X124257698Y-100706597D01*
X124126271Y-100685781D01*
X124086611Y-100679500D01*
X123913389Y-100679500D01*
X123873728Y-100685781D01*
X123742302Y-100706597D01*
X123577552Y-100760128D01*
X123423211Y-100838768D01*
X123343256Y-100896859D01*
X123283072Y-100940586D01*
X123283070Y-100940588D01*
X123283069Y-100940588D01*
X123160588Y-101063069D01*
X123160588Y-101063070D01*
X123160586Y-101063072D01*
X123150621Y-101076788D01*
X123058768Y-101203211D01*
X122980128Y-101357552D01*
X122980127Y-101357554D01*
X122980127Y-101357555D01*
X122955587Y-101433082D01*
X122926597Y-101522302D01*
X122918504Y-101573402D01*
X122899500Y-101693389D01*
X115150500Y-101693389D01*
X115150500Y-101689448D01*
X115132119Y-101573402D01*
X115122171Y-101510591D01*
X115073507Y-101360815D01*
X115066212Y-101338363D01*
X115066211Y-101338360D01*
X115004338Y-101216930D01*
X114983996Y-101177006D01*
X114901219Y-101063072D01*
X114877558Y-101030505D01*
X114877554Y-101030500D01*
X114749499Y-100902445D01*
X114749494Y-100902441D01*
X114602997Y-100796006D01*
X114602996Y-100796005D01*
X114602994Y-100796004D01*
X114527813Y-100757697D01*
X114441639Y-100713788D01*
X114441636Y-100713787D01*
X114269410Y-100657829D01*
X114109321Y-100632473D01*
X114046186Y-100602544D01*
X114009255Y-100543232D01*
X114010253Y-100473370D01*
X114048863Y-100415137D01*
X114109321Y-100387527D01*
X114179425Y-100376422D01*
X114269409Y-100362171D01*
X114441639Y-100306211D01*
X114602994Y-100223996D01*
X114749501Y-100117553D01*
X114877553Y-99989501D01*
X114983996Y-99842994D01*
X115066211Y-99681639D01*
X115122171Y-99509409D01*
X115139579Y-99399500D01*
X115150500Y-99330551D01*
X115150500Y-99153389D01*
X122899500Y-99153389D01*
X122899500Y-99326610D01*
X122923814Y-99480128D01*
X122926598Y-99497701D01*
X122980127Y-99662445D01*
X123058768Y-99816788D01*
X123160586Y-99956928D01*
X123283072Y-100079414D01*
X123423212Y-100181232D01*
X123577555Y-100259873D01*
X123742299Y-100313402D01*
X123913389Y-100340500D01*
X123913390Y-100340500D01*
X124086610Y-100340500D01*
X124086611Y-100340500D01*
X124257701Y-100313402D01*
X124422445Y-100259873D01*
X124576788Y-100181232D01*
X124716928Y-100079414D01*
X124839414Y-99956928D01*
X124941232Y-99816788D01*
X125019873Y-99662445D01*
X125073402Y-99497701D01*
X125100500Y-99326611D01*
X125100500Y-99153389D01*
X138139500Y-99153389D01*
X138139500Y-99326610D01*
X138163814Y-99480128D01*
X138166598Y-99497701D01*
X138220127Y-99662445D01*
X138298768Y-99816788D01*
X138400586Y-99956928D01*
X138523072Y-100079414D01*
X138663212Y-100181232D01*
X138817555Y-100259873D01*
X138982299Y-100313402D01*
X139153389Y-100340500D01*
X139153390Y-100340500D01*
X139326610Y-100340500D01*
X139326611Y-100340500D01*
X139497701Y-100313402D01*
X139662445Y-100259873D01*
X139816788Y-100181232D01*
X139956928Y-100079414D01*
X140079414Y-99956928D01*
X140181232Y-99816788D01*
X140259873Y-99662445D01*
X140313402Y-99497701D01*
X140340500Y-99326611D01*
X140340500Y-99153389D01*
X140313402Y-98982299D01*
X140259873Y-98817555D01*
X140181232Y-98663212D01*
X140079414Y-98523072D01*
X139956928Y-98400586D01*
X139816788Y-98298768D01*
X139662445Y-98220127D01*
X139497701Y-98166598D01*
X139497699Y-98166597D01*
X139497698Y-98166597D01*
X139366271Y-98145781D01*
X139326611Y-98139500D01*
X139153389Y-98139500D01*
X139113728Y-98145781D01*
X138982302Y-98166597D01*
X138817552Y-98220128D01*
X138663211Y-98298768D01*
X138583256Y-98356859D01*
X138523072Y-98400586D01*
X138523070Y-98400588D01*
X138523069Y-98400588D01*
X138400588Y-98523069D01*
X138400588Y-98523070D01*
X138400586Y-98523072D01*
X138356859Y-98583256D01*
X138298768Y-98663211D01*
X138220128Y-98817552D01*
X138166597Y-98982302D01*
X138139500Y-99153389D01*
X125100500Y-99153389D01*
X125073402Y-98982299D01*
X125019873Y-98817555D01*
X124941232Y-98663212D01*
X124839414Y-98523072D01*
X124716928Y-98400586D01*
X124576788Y-98298768D01*
X124422445Y-98220127D01*
X124257701Y-98166598D01*
X124257699Y-98166597D01*
X124257698Y-98166597D01*
X124126271Y-98145781D01*
X124086611Y-98139500D01*
X123913389Y-98139500D01*
X123873728Y-98145781D01*
X123742302Y-98166597D01*
X123577552Y-98220128D01*
X123423211Y-98298768D01*
X123343256Y-98356859D01*
X123283072Y-98400586D01*
X123283070Y-98400588D01*
X123283069Y-98400588D01*
X123160588Y-98523069D01*
X123160588Y-98523070D01*
X123160586Y-98523072D01*
X123116859Y-98583256D01*
X123058768Y-98663211D01*
X122980128Y-98817552D01*
X122926597Y-98982302D01*
X122899500Y-99153389D01*
X115150500Y-99153389D01*
X115150500Y-99149448D01*
X115134019Y-99045397D01*
X115122171Y-98970591D01*
X115094191Y-98884476D01*
X115066212Y-98798363D01*
X115066211Y-98798360D01*
X115037740Y-98742484D01*
X114983996Y-98637006D01*
X114901219Y-98523072D01*
X114877558Y-98490505D01*
X114877554Y-98490500D01*
X114749499Y-98362445D01*
X114749494Y-98362441D01*
X114602997Y-98256006D01*
X114602996Y-98256005D01*
X114602994Y-98256004D01*
X114532582Y-98220127D01*
X114441639Y-98173788D01*
X114441636Y-98173787D01*
X114269410Y-98117829D01*
X114109321Y-98092473D01*
X114046186Y-98062544D01*
X114009255Y-98003232D01*
X114010253Y-97933370D01*
X114048863Y-97875137D01*
X114109321Y-97847527D01*
X114179425Y-97836422D01*
X114269409Y-97822171D01*
X114441639Y-97766211D01*
X114602994Y-97683996D01*
X114749501Y-97577553D01*
X114877553Y-97449501D01*
X114983996Y-97302994D01*
X115066211Y-97141639D01*
X115122171Y-96969409D01*
X115148196Y-96805095D01*
X115150500Y-96790551D01*
X115150500Y-96613389D01*
X122899500Y-96613389D01*
X122899500Y-96786610D01*
X122917086Y-96897648D01*
X122926598Y-96957701D01*
X122980127Y-97122445D01*
X123058768Y-97276788D01*
X123160586Y-97416928D01*
X123283072Y-97539414D01*
X123423212Y-97641232D01*
X123577555Y-97719873D01*
X123742299Y-97773402D01*
X123913389Y-97800500D01*
X123913390Y-97800500D01*
X124086610Y-97800500D01*
X124086611Y-97800500D01*
X124257701Y-97773402D01*
X124422445Y-97719873D01*
X124576788Y-97641232D01*
X124716928Y-97539414D01*
X124839414Y-97416928D01*
X124941232Y-97276788D01*
X125019873Y-97122445D01*
X125073402Y-96957701D01*
X125100500Y-96786611D01*
X125100500Y-96613389D01*
X138139500Y-96613389D01*
X138139500Y-96786610D01*
X138157086Y-96897648D01*
X138166598Y-96957701D01*
X138220127Y-97122445D01*
X138298768Y-97276788D01*
X138400586Y-97416928D01*
X138523072Y-97539414D01*
X138663212Y-97641232D01*
X138817555Y-97719873D01*
X138982299Y-97773402D01*
X139153389Y-97800500D01*
X139153390Y-97800500D01*
X139326610Y-97800500D01*
X139326611Y-97800500D01*
X139497701Y-97773402D01*
X139662445Y-97719873D01*
X139816788Y-97641232D01*
X139956928Y-97539414D01*
X140079414Y-97416928D01*
X140181232Y-97276788D01*
X140259873Y-97122445D01*
X140313402Y-96957701D01*
X140340500Y-96786611D01*
X140340500Y-96613389D01*
X140313402Y-96442299D01*
X140259873Y-96277555D01*
X140181232Y-96123212D01*
X140079414Y-95983072D01*
X139956928Y-95860586D01*
X139816788Y-95758768D01*
X139662445Y-95680127D01*
X139497701Y-95626598D01*
X139497699Y-95626597D01*
X139497698Y-95626597D01*
X139366271Y-95605781D01*
X139326611Y-95599500D01*
X139153389Y-95599500D01*
X139113728Y-95605781D01*
X138982302Y-95626597D01*
X138817552Y-95680128D01*
X138663211Y-95758768D01*
X138583256Y-95816859D01*
X138523072Y-95860586D01*
X138523070Y-95860588D01*
X138523069Y-95860588D01*
X138400588Y-95983069D01*
X138400588Y-95983070D01*
X138400586Y-95983072D01*
X138382450Y-96008034D01*
X138298768Y-96123211D01*
X138220128Y-96277552D01*
X138166597Y-96442302D01*
X138139500Y-96613389D01*
X125100500Y-96613389D01*
X125073402Y-96442299D01*
X125019873Y-96277555D01*
X124941232Y-96123212D01*
X124839414Y-95983072D01*
X124716928Y-95860586D01*
X124576788Y-95758768D01*
X124422445Y-95680127D01*
X124257701Y-95626598D01*
X124257699Y-95626597D01*
X124257698Y-95626597D01*
X124126271Y-95605781D01*
X124086611Y-95599500D01*
X123913389Y-95599500D01*
X123873728Y-95605781D01*
X123742302Y-95626597D01*
X123577552Y-95680128D01*
X123423211Y-95758768D01*
X123343256Y-95816859D01*
X123283072Y-95860586D01*
X123283070Y-95860588D01*
X123283069Y-95860588D01*
X123160588Y-95983069D01*
X123160588Y-95983070D01*
X123160586Y-95983072D01*
X123142450Y-96008034D01*
X123058768Y-96123211D01*
X122980128Y-96277552D01*
X122926597Y-96442302D01*
X122899500Y-96613389D01*
X115150500Y-96613389D01*
X115150500Y-96609448D01*
X115133287Y-96500776D01*
X115122171Y-96430591D01*
X115085714Y-96318386D01*
X115066212Y-96258363D01*
X115066211Y-96258360D01*
X115037740Y-96202484D01*
X114983996Y-96097006D01*
X114970396Y-96078287D01*
X114877558Y-95950505D01*
X114877554Y-95950500D01*
X114749499Y-95822445D01*
X114749494Y-95822441D01*
X114602997Y-95716006D01*
X114602996Y-95716005D01*
X114602994Y-95716004D01*
X114532582Y-95680127D01*
X114441639Y-95633788D01*
X114441636Y-95633787D01*
X114269410Y-95577829D01*
X114137728Y-95556972D01*
X114074594Y-95527042D01*
X114037663Y-95467731D01*
X114038661Y-95397868D01*
X114077271Y-95339636D01*
X114141235Y-95311522D01*
X114157120Y-95310499D01*
X114894864Y-95310499D01*
X114894879Y-95310497D01*
X114894882Y-95310497D01*
X114919987Y-95307586D01*
X114919988Y-95307585D01*
X114919991Y-95307585D01*
X115022765Y-95262206D01*
X115102206Y-95182765D01*
X115147585Y-95079991D01*
X115150500Y-95054865D01*
X115150499Y-93265136D01*
X115150497Y-93265117D01*
X115147586Y-93240012D01*
X115147585Y-93240010D01*
X115147585Y-93240009D01*
X115102206Y-93137235D01*
X115022765Y-93057794D01*
X115004196Y-93049595D01*
X114919992Y-93012415D01*
X114894865Y-93009500D01*
X113105143Y-93009500D01*
X113105117Y-93009502D01*
X113080012Y-93012413D01*
X113080008Y-93012415D01*
X112977235Y-93057793D01*
X112897794Y-93137234D01*
X112852415Y-93240006D01*
X112852415Y-93240008D01*
X112849500Y-93265131D01*
X110500500Y-93265131D01*
X110500500Y-91870000D01*
X122723391Y-91870000D01*
X122732009Y-91924413D01*
X122795244Y-92119029D01*
X122888140Y-92301349D01*
X123008417Y-92466894D01*
X123008417Y-92466895D01*
X123153104Y-92611582D01*
X123318650Y-92731859D01*
X123500970Y-92824755D01*
X123661613Y-92876952D01*
X123719289Y-92916390D01*
X123746487Y-92980748D01*
X123734572Y-93049595D01*
X123687328Y-93101070D01*
X123661615Y-93112814D01*
X123577549Y-93140129D01*
X123423211Y-93218768D01*
X123359392Y-93265136D01*
X123283072Y-93320586D01*
X123283070Y-93320588D01*
X123283069Y-93320588D01*
X123160588Y-93443069D01*
X123160588Y-93443070D01*
X123160586Y-93443072D01*
X123116859Y-93503256D01*
X123058768Y-93583211D01*
X122980128Y-93737552D01*
X122926597Y-93902302D01*
X122899500Y-94073389D01*
X122899500Y-94246611D01*
X122926598Y-94417701D01*
X122980127Y-94582445D01*
X123058768Y-94736788D01*
X123160586Y-94876928D01*
X123283072Y-94999414D01*
X123423212Y-95101232D01*
X123577555Y-95179873D01*
X123742299Y-95233402D01*
X123913389Y-95260500D01*
X123913390Y-95260500D01*
X124086610Y-95260500D01*
X124086611Y-95260500D01*
X124257701Y-95233402D01*
X124422445Y-95179873D01*
X124576788Y-95101232D01*
X124716928Y-94999414D01*
X124839414Y-94876928D01*
X124941232Y-94736788D01*
X125019873Y-94582445D01*
X125073402Y-94417701D01*
X125100500Y-94246611D01*
X125100500Y-94073389D01*
X138139500Y-94073389D01*
X138139500Y-94246611D01*
X138166598Y-94417701D01*
X138220127Y-94582445D01*
X138298768Y-94736788D01*
X138400586Y-94876928D01*
X138523072Y-94999414D01*
X138663212Y-95101232D01*
X138817555Y-95179873D01*
X138982299Y-95233402D01*
X139153389Y-95260500D01*
X139153390Y-95260500D01*
X139326610Y-95260500D01*
X139326611Y-95260500D01*
X139497701Y-95233402D01*
X139662445Y-95179873D01*
X139816788Y-95101232D01*
X139956928Y-94999414D01*
X140079414Y-94876928D01*
X140181232Y-94736788D01*
X140259873Y-94582445D01*
X140313402Y-94417701D01*
X140340500Y-94246611D01*
X140340500Y-94073389D01*
X140313402Y-93902299D01*
X140259873Y-93737555D01*
X140181232Y-93583212D01*
X140079414Y-93443072D01*
X139956928Y-93320586D01*
X139816788Y-93218768D01*
X139662445Y-93140127D01*
X139497701Y-93086598D01*
X139497699Y-93086597D01*
X139497698Y-93086597D01*
X139366271Y-93065781D01*
X139326611Y-93059500D01*
X139153389Y-93059500D01*
X139113728Y-93065781D01*
X138982302Y-93086597D01*
X138817552Y-93140128D01*
X138663211Y-93218768D01*
X138599392Y-93265136D01*
X138523072Y-93320586D01*
X138523070Y-93320588D01*
X138523069Y-93320588D01*
X138400588Y-93443069D01*
X138400588Y-93443070D01*
X138400586Y-93443072D01*
X138356859Y-93503256D01*
X138298768Y-93583211D01*
X138220128Y-93737552D01*
X138166597Y-93902302D01*
X138139500Y-94073389D01*
X125100500Y-94073389D01*
X125073402Y-93902299D01*
X125019873Y-93737555D01*
X124941232Y-93583212D01*
X124839414Y-93443072D01*
X124716928Y-93320586D01*
X124576788Y-93218768D01*
X124422449Y-93140128D01*
X124338385Y-93112814D01*
X124280710Y-93073376D01*
X124253512Y-93009017D01*
X124265427Y-92940171D01*
X124312672Y-92888695D01*
X124338386Y-92876952D01*
X124499029Y-92824755D01*
X124681349Y-92731859D01*
X124846894Y-92611582D01*
X124846895Y-92611582D01*
X124991582Y-92466895D01*
X124991582Y-92466894D01*
X125111859Y-92301349D01*
X125204755Y-92119029D01*
X125267990Y-91924413D01*
X125276609Y-91870000D01*
X124433012Y-91870000D01*
X124465925Y-91812993D01*
X124500000Y-91685826D01*
X124500000Y-91554174D01*
X124494431Y-91533389D01*
X138139500Y-91533389D01*
X138139500Y-91706611D01*
X138166598Y-91877701D01*
X138220127Y-92042445D01*
X138298768Y-92196788D01*
X138400586Y-92336928D01*
X138523072Y-92459414D01*
X138663212Y-92561232D01*
X138817555Y-92639873D01*
X138982299Y-92693402D01*
X139153389Y-92720500D01*
X139153390Y-92720500D01*
X139326610Y-92720500D01*
X139326611Y-92720500D01*
X139497701Y-92693402D01*
X139662445Y-92639873D01*
X139816788Y-92561232D01*
X139956928Y-92459414D01*
X140079414Y-92336928D01*
X140181232Y-92196788D01*
X140259873Y-92042445D01*
X140313402Y-91877701D01*
X140340500Y-91706611D01*
X140340500Y-91533389D01*
X140313402Y-91362299D01*
X140259873Y-91197555D01*
X140181232Y-91043212D01*
X140079414Y-90903072D01*
X139956928Y-90780586D01*
X139816788Y-90678768D01*
X139662445Y-90600127D01*
X139497701Y-90546598D01*
X139497699Y-90546597D01*
X139497698Y-90546597D01*
X139366271Y-90525781D01*
X139326611Y-90519500D01*
X139153389Y-90519500D01*
X139113728Y-90525781D01*
X138982302Y-90546597D01*
X138817552Y-90600128D01*
X138663211Y-90678768D01*
X138583256Y-90736859D01*
X138523072Y-90780586D01*
X138523070Y-90780588D01*
X138523069Y-90780588D01*
X138400588Y-90903069D01*
X138400588Y-90903070D01*
X138400586Y-90903072D01*
X138374737Y-90938650D01*
X138298768Y-91043211D01*
X138220128Y-91197552D01*
X138166597Y-91362302D01*
X138163200Y-91383752D01*
X138139500Y-91533389D01*
X124494431Y-91533389D01*
X124465925Y-91427007D01*
X124418129Y-91344222D01*
X125273127Y-91348014D01*
X125267990Y-91315586D01*
X125204755Y-91120970D01*
X125111859Y-90938650D01*
X124991582Y-90773105D01*
X124991582Y-90773104D01*
X124846895Y-90628417D01*
X124681349Y-90508140D01*
X124499031Y-90415244D01*
X124338385Y-90363047D01*
X124280710Y-90323609D01*
X124253512Y-90259250D01*
X124265427Y-90190404D01*
X124312671Y-90138928D01*
X124338381Y-90127187D01*
X124422445Y-90099873D01*
X124576788Y-90021232D01*
X124716928Y-89919414D01*
X124839414Y-89796928D01*
X124941232Y-89656788D01*
X125019873Y-89502445D01*
X125073402Y-89337701D01*
X125100500Y-89166611D01*
X125100500Y-88993389D01*
X125073402Y-88822299D01*
X125019873Y-88657555D01*
X124941232Y-88503212D01*
X124839414Y-88363072D01*
X124716928Y-88240586D01*
X124576788Y-88138768D01*
X124422445Y-88060127D01*
X124257701Y-88006598D01*
X124257699Y-88006597D01*
X124257698Y-88006597D01*
X124126271Y-87985781D01*
X124086611Y-87979500D01*
X123913389Y-87979500D01*
X123873728Y-87985781D01*
X123742302Y-88006597D01*
X123577552Y-88060128D01*
X123423211Y-88138768D01*
X123343256Y-88196859D01*
X123283072Y-88240586D01*
X123283070Y-88240588D01*
X123283069Y-88240588D01*
X123160588Y-88363069D01*
X123160588Y-88363070D01*
X123160586Y-88363072D01*
X123132086Y-88402299D01*
X123058768Y-88503211D01*
X122980128Y-88657552D01*
X122926597Y-88822302D01*
X122911488Y-88917697D01*
X122899500Y-88993389D01*
X122899500Y-89166611D01*
X122926598Y-89337701D01*
X122980127Y-89502445D01*
X123058768Y-89656788D01*
X123160586Y-89796928D01*
X123283072Y-89919414D01*
X123423212Y-90021232D01*
X123577555Y-90099873D01*
X123661613Y-90127185D01*
X123719289Y-90166623D01*
X123746487Y-90230981D01*
X123734572Y-90299828D01*
X123687328Y-90351303D01*
X123661614Y-90363047D01*
X123500968Y-90415244D01*
X123318650Y-90508140D01*
X123153105Y-90628417D01*
X123153104Y-90628417D01*
X123008417Y-90773104D01*
X123008417Y-90773105D01*
X122888140Y-90938650D01*
X122795244Y-91120970D01*
X122732009Y-91315586D01*
X122728660Y-91336732D01*
X123584005Y-91340524D01*
X123534075Y-91427007D01*
X123500000Y-91554174D01*
X123500000Y-91685826D01*
X123534075Y-91812993D01*
X123566988Y-91870000D01*
X122723391Y-91870000D01*
X110500500Y-91870000D01*
X110500500Y-86453389D01*
X122899500Y-86453389D01*
X122899500Y-86626611D01*
X122926598Y-86797701D01*
X122980127Y-86962445D01*
X123058768Y-87116788D01*
X123160586Y-87256928D01*
X123283072Y-87379414D01*
X123423212Y-87481232D01*
X123577555Y-87559873D01*
X123742299Y-87613402D01*
X123913389Y-87640500D01*
X123913390Y-87640500D01*
X124086610Y-87640500D01*
X124086611Y-87640500D01*
X124257701Y-87613402D01*
X124422445Y-87559873D01*
X124576788Y-87481232D01*
X124716928Y-87379414D01*
X124839414Y-87256928D01*
X124941232Y-87116788D01*
X125019873Y-86962445D01*
X125073402Y-86797701D01*
X125100500Y-86626611D01*
X125100500Y-86453389D01*
X125074622Y-86290000D01*
X137963391Y-86290000D01*
X138806988Y-86290000D01*
X138774075Y-86347007D01*
X138740000Y-86474174D01*
X138740000Y-86605826D01*
X138774075Y-86732993D01*
X138806988Y-86790000D01*
X137963391Y-86790000D01*
X137972009Y-86844413D01*
X138035244Y-87039029D01*
X138128140Y-87221349D01*
X138248417Y-87386894D01*
X138248417Y-87386895D01*
X138393104Y-87531582D01*
X138558650Y-87651859D01*
X138740970Y-87744755D01*
X138901613Y-87796952D01*
X138959289Y-87836390D01*
X138986487Y-87900748D01*
X138974572Y-87969595D01*
X138927328Y-88021070D01*
X138901615Y-88032814D01*
X138817549Y-88060129D01*
X138663211Y-88138768D01*
X138583256Y-88196859D01*
X138523072Y-88240586D01*
X138523070Y-88240588D01*
X138523069Y-88240588D01*
X138400588Y-88363069D01*
X138400588Y-88363070D01*
X138400586Y-88363072D01*
X138372086Y-88402299D01*
X138298768Y-88503211D01*
X138220128Y-88657552D01*
X138166597Y-88822302D01*
X138151488Y-88917697D01*
X138139500Y-88993389D01*
X138139500Y-89166611D01*
X138166598Y-89337701D01*
X138220127Y-89502445D01*
X138298768Y-89656788D01*
X138400586Y-89796928D01*
X138523072Y-89919414D01*
X138663212Y-90021232D01*
X138817555Y-90099873D01*
X138982299Y-90153402D01*
X139153389Y-90180500D01*
X139153390Y-90180500D01*
X139326610Y-90180500D01*
X139326611Y-90180500D01*
X139497701Y-90153402D01*
X139662445Y-90099873D01*
X139816788Y-90021232D01*
X139956928Y-89919414D01*
X140079414Y-89796928D01*
X140181232Y-89656788D01*
X140259873Y-89502445D01*
X140313402Y-89337701D01*
X140340500Y-89166611D01*
X140340500Y-88993389D01*
X140313402Y-88822299D01*
X140259873Y-88657555D01*
X140181232Y-88503212D01*
X140079414Y-88363072D01*
X139956928Y-88240586D01*
X139816788Y-88138768D01*
X139662449Y-88060128D01*
X139578385Y-88032814D01*
X139520710Y-87993376D01*
X139493512Y-87929017D01*
X139505427Y-87860171D01*
X139552672Y-87808695D01*
X139578386Y-87796952D01*
X139739029Y-87744755D01*
X139921349Y-87651859D01*
X140086894Y-87531582D01*
X140086895Y-87531582D01*
X140231582Y-87386895D01*
X140231582Y-87386894D01*
X140351859Y-87221349D01*
X140444755Y-87039029D01*
X140507990Y-86844413D01*
X140516609Y-86790000D01*
X139673012Y-86790000D01*
X139705925Y-86732993D01*
X139740000Y-86605826D01*
X139740000Y-86474174D01*
X139705925Y-86347007D01*
X139673012Y-86290000D01*
X140516609Y-86290000D01*
X140507990Y-86235586D01*
X140444755Y-86040970D01*
X140351859Y-85858650D01*
X140231582Y-85693105D01*
X140231582Y-85693104D01*
X140086895Y-85548417D01*
X139921349Y-85428140D01*
X139739031Y-85335244D01*
X139578385Y-85283047D01*
X139520710Y-85243609D01*
X139493512Y-85179250D01*
X139505427Y-85110404D01*
X139552671Y-85058928D01*
X139578381Y-85047187D01*
X139662445Y-85019873D01*
X139816788Y-84941232D01*
X139956928Y-84839414D01*
X140079414Y-84716928D01*
X140181232Y-84576788D01*
X140259873Y-84422445D01*
X140313402Y-84257701D01*
X140340500Y-84086611D01*
X140340500Y-83913389D01*
X140313402Y-83742299D01*
X140259873Y-83577555D01*
X140181232Y-83423212D01*
X140079414Y-83283072D01*
X139956928Y-83160586D01*
X139816788Y-83058768D01*
X139662445Y-82980127D01*
X139497701Y-82926598D01*
X139497699Y-82926597D01*
X139497698Y-82926597D01*
X139366271Y-82905781D01*
X139326611Y-82899500D01*
X139153389Y-82899500D01*
X139113728Y-82905781D01*
X138982302Y-82926597D01*
X138817552Y-82980128D01*
X138663211Y-83058768D01*
X138583256Y-83116859D01*
X138523072Y-83160586D01*
X138523070Y-83160588D01*
X138523069Y-83160588D01*
X138400588Y-83283069D01*
X138400588Y-83283070D01*
X138400586Y-83283072D01*
X138374737Y-83318650D01*
X138298768Y-83423211D01*
X138220128Y-83577552D01*
X138166597Y-83742302D01*
X138141988Y-83897682D01*
X138139500Y-83913389D01*
X138139500Y-84086611D01*
X138166598Y-84257701D01*
X138220127Y-84422445D01*
X138298768Y-84576788D01*
X138400586Y-84716928D01*
X138523072Y-84839414D01*
X138663212Y-84941232D01*
X138817555Y-85019873D01*
X138901613Y-85047185D01*
X138959289Y-85086623D01*
X138986487Y-85150981D01*
X138974572Y-85219828D01*
X138927328Y-85271303D01*
X138901614Y-85283047D01*
X138740968Y-85335244D01*
X138558650Y-85428140D01*
X138393105Y-85548417D01*
X138393104Y-85548417D01*
X138248417Y-85693104D01*
X138248417Y-85693105D01*
X138128140Y-85858650D01*
X138035244Y-86040970D01*
X137972009Y-86235586D01*
X137963391Y-86290000D01*
X125074622Y-86290000D01*
X125073402Y-86282299D01*
X125019873Y-86117555D01*
X124941232Y-85963212D01*
X124839414Y-85823072D01*
X124716928Y-85700586D01*
X124576788Y-85598768D01*
X124422445Y-85520127D01*
X124257701Y-85466598D01*
X124257699Y-85466597D01*
X124257698Y-85466597D01*
X124126271Y-85445781D01*
X124086611Y-85439500D01*
X123913389Y-85439500D01*
X123873728Y-85445781D01*
X123742302Y-85466597D01*
X123577552Y-85520128D01*
X123423211Y-85598768D01*
X123368718Y-85638360D01*
X123283072Y-85700586D01*
X123283070Y-85700588D01*
X123283069Y-85700588D01*
X123160588Y-85823069D01*
X123160588Y-85823070D01*
X123160586Y-85823072D01*
X123134737Y-85858650D01*
X123058768Y-85963211D01*
X122980128Y-86117552D01*
X122926597Y-86282302D01*
X122899500Y-86453389D01*
X110500500Y-86453389D01*
X110500500Y-83155131D01*
X122899500Y-83155131D01*
X122899500Y-84844856D01*
X122899502Y-84844882D01*
X122902413Y-84869987D01*
X122902415Y-84869991D01*
X122947793Y-84972764D01*
X122947794Y-84972765D01*
X123027235Y-85052206D01*
X123130009Y-85097585D01*
X123155135Y-85100500D01*
X124844864Y-85100499D01*
X124844879Y-85100497D01*
X124844882Y-85100497D01*
X124869987Y-85097586D01*
X124869988Y-85097585D01*
X124869991Y-85097585D01*
X124972765Y-85052206D01*
X125052206Y-84972765D01*
X125097585Y-84869991D01*
X125100500Y-84844865D01*
X125100499Y-83155136D01*
X125100497Y-83155117D01*
X125097586Y-83130012D01*
X125097585Y-83130010D01*
X125097585Y-83130009D01*
X125052206Y-83027235D01*
X124972765Y-82947794D01*
X124972763Y-82947793D01*
X124869992Y-82902415D01*
X124844865Y-82899500D01*
X123155143Y-82899500D01*
X123155117Y-82899502D01*
X123130012Y-82902413D01*
X123130008Y-82902415D01*
X123027235Y-82947793D01*
X122947794Y-83027234D01*
X122902415Y-83130006D01*
X122902415Y-83130008D01*
X122899500Y-83155131D01*
X110500500Y-83155131D01*
X110500500Y-72378711D01*
X111649500Y-72378711D01*
X111649500Y-72621288D01*
X111681161Y-72861785D01*
X111743947Y-73096104D01*
X111836773Y-73320205D01*
X111836776Y-73320212D01*
X111958064Y-73530289D01*
X111958066Y-73530292D01*
X111958067Y-73530293D01*
X112105733Y-73722736D01*
X112105739Y-73722743D01*
X112277256Y-73894260D01*
X112277262Y-73894265D01*
X112469711Y-74041936D01*
X112679788Y-74163224D01*
X112903900Y-74256054D01*
X113138211Y-74318838D01*
X113318586Y-74342584D01*
X113378711Y-74350500D01*
X113378712Y-74350500D01*
X113621289Y-74350500D01*
X113669388Y-74344167D01*
X113861789Y-74318838D01*
X114096100Y-74256054D01*
X114320212Y-74163224D01*
X114530289Y-74041936D01*
X114722738Y-73894265D01*
X114894265Y-73722738D01*
X115041936Y-73530289D01*
X115163224Y-73320212D01*
X115256054Y-73096100D01*
X115318838Y-72861789D01*
X115337305Y-72721518D01*
X115342448Y-72682453D01*
X115342448Y-72682452D01*
X115350500Y-72621289D01*
X115350500Y-72378711D01*
X115331000Y-72230591D01*
X115318838Y-72138211D01*
X115256054Y-71903900D01*
X115163224Y-71679788D01*
X115041936Y-71469711D01*
X114894265Y-71277262D01*
X114894260Y-71277256D01*
X114722743Y-71105739D01*
X114722736Y-71105733D01*
X114530293Y-70958067D01*
X114530292Y-70958066D01*
X114530289Y-70958064D01*
X114320212Y-70836776D01*
X114320205Y-70836773D01*
X114096104Y-70743947D01*
X113861785Y-70681161D01*
X113621289Y-70649500D01*
X113621288Y-70649500D01*
X113378712Y-70649500D01*
X113378711Y-70649500D01*
X113138214Y-70681161D01*
X112903895Y-70743947D01*
X112679794Y-70836773D01*
X112679785Y-70836777D01*
X112469706Y-70958067D01*
X112277263Y-71105733D01*
X112277256Y-71105739D01*
X112105739Y-71277256D01*
X112105733Y-71277263D01*
X111958067Y-71469706D01*
X111836777Y-71679785D01*
X111836773Y-71679794D01*
X111743947Y-71903895D01*
X111681161Y-72138214D01*
X111649500Y-72378711D01*
X110500500Y-72378711D01*
X110500500Y-69624500D01*
X110520185Y-69557461D01*
X110572989Y-69511706D01*
X110624500Y-69500500D01*
X181375500Y-69500500D01*
X181442539Y-69520185D01*
G37*
%TD.AperFunction*%
%TD*%
M02*
