M48
; DRILL file KiCad 10.0.0 date 2026-09-27T22:30:58
; FORMAT={-:-/ absolute / metric / decimal}
; #@! TF.CreationDate,2026-09-27T22:30:58+02:00
; #@! TF.GenerationSoftware,Kicad,Pcbnew,10.0.0
; #@! TF.FileFunction,Plated,1,2,PTH
FMAT,2
METRIC
; #@! TA.AperFunction,Plated,PTH,ComponentDrill
T1C0.750
; #@! TA.AperFunction,Plated,PTH,ComponentDrill
T2C0.800
; #@! TA.AperFunction,Plated,PTH,ComponentDrill
T3C0.900
; #@! TA.AperFunction,Plated,PTH,ComponentDrill
T4C1.000
%
G90
G05
T1
X158.46Y-106.0
X159.73Y-106.0
X161.0Y-106.0
T2
X143.5Y-119.5
X144.0Y-114.5
X146.0Y-114.5
X148.5Y-119.5
X151.2Y-109.78
X151.2Y-119.94
X152.14Y-100.5
X154.3Y-109.78
X154.3Y-119.94
X156.5Y-78.5
X156.5Y-88.66
X157.4Y-109.78
X157.4Y-119.94
X160.5Y-109.78
X160.5Y-119.94
X162.3Y-100.5
X163.6Y-109.78
X163.6Y-119.94
X164.0Y-78.5
X164.0Y-88.66
X166.38Y-106.0
X166.7Y-109.78
X166.7Y-119.94
X168.0Y-85.0
X170.5Y-85.0
X174.0Y-106.0
X174.5Y-79.0
X174.5Y-84.0
T3
X156.96Y-73.5
X159.5Y-73.5
X163.46Y-73.5
X166.0Y-73.5
T4
X114.0Y-94.16
X114.0Y-96.7
X114.0Y-99.24
X114.0Y-101.78
X114.0Y-104.32
X114.0Y-106.86
X114.0Y-109.4
X114.0Y-111.94
X124.0Y-84.0
X124.0Y-86.54
X124.0Y-89.08
X124.0Y-91.62
X124.0Y-94.16
X124.0Y-96.7
X124.0Y-99.24
X124.0Y-101.78
X124.0Y-104.32
X124.0Y-106.86
X124.0Y-109.4
X124.0Y-111.94
X124.0Y-114.48
X124.0Y-117.02
X124.0Y-119.56
X139.24Y-84.0
X139.24Y-86.54
X139.24Y-89.08
X139.24Y-91.62
X139.24Y-94.16
X139.24Y-96.7
X139.24Y-99.24
X139.24Y-101.78
X139.24Y-104.32
X139.24Y-106.86
X139.24Y-109.4
X139.24Y-111.94
X139.24Y-114.48
X139.24Y-117.02
X139.24Y-119.56
X143.0Y-72.5
X143.5Y-123.16
X145.54Y-72.5
X146.04Y-123.16
X148.08Y-72.5
X148.58Y-123.16
X150.62Y-72.5
X151.12Y-123.16
X153.66Y-123.16
X156.2Y-123.16
X158.74Y-123.16
X161.28Y-123.16
X166.0Y-123.16
X166.4Y-97.0
X169.5Y-123.16
X172.5Y-117.0
X174.0Y-97.0
X178.5Y-81.0
X178.5Y-83.54
X178.5Y-86.08
M30
