%TF.GenerationSoftware,KiCad,Pcbnew,10.0.0*%
%TF.CreationDate,2026-09-27T22:37:56+02:00*%
%TF.ProjectId,Zamek_RFID_Hardware,5a616d65-6b5f-4524-9649-445f48617264,rev?*%
%TF.SameCoordinates,Original*%
%TF.FileFunction,Legend,Bot*%
%TF.FilePolarity,Positive*%
%FSLAX46Y46*%
G04 Gerber Fmt 4.6, Leading zero omitted, Abs format (unit mm)*
G04 Created by KiCad (PCBNEW 10.0.0) date 2026-09-27 22:37:56*
%MOMM*%
%LPD*%
G01*
G04 APERTURE LIST*
G04 Aperture macros list*
%AMRoundRect*
0 Rectangle with rounded corners*
0 $1 Rounding radius*
0 $2 $3 $4 $5 $6 $7 $8 $9 X,Y pos of 4 corners*
0 Add a 4 corners polygon primitive as box body*
4,1,4,$2,$3,$4,$5,$6,$7,$8,$9,$2,$3,0*
0 Add four circle primitives for the rounded corners*
1,1,$1+$1,$2,$3*
1,1,$1+$1,$4,$5*
1,1,$1+$1,$6,$7*
1,1,$1+$1,$8,$9*
0 Add four rect primitives between the rounded corners*
20,1,$1+$1,$2,$3,$4,$5,0*
20,1,$1+$1,$4,$5,$6,$7,0*
20,1,$1+$1,$6,$7,$8,$9,0*
20,1,$1+$1,$8,$9,$2,$3,0*%
G04 Aperture macros list end*
%ADD10C,0.150000*%
%ADD11R,1.050000X1.500000*%
%ADD12O,1.050000X1.500000*%
%ADD13C,1.600000*%
%ADD14C,3.200000*%
%ADD15R,1.700000X1.700000*%
%ADD16C,1.700000*%
%ADD17C,2.000000*%
%ADD18RoundRect,0.250000X-0.550000X-0.550000X0.550000X-0.550000X0.550000X0.550000X-0.550000X0.550000X0*%
%ADD19RoundRect,0.250000X0.550000X0.550000X-0.550000X0.550000X-0.550000X-0.550000X0.550000X-0.550000X0*%
%ADD20R,1.800000X1.800000*%
%ADD21C,1.800000*%
%ADD22R,1.600000X1.600000*%
%ADD23O,1.600000X1.600000*%
%ADD24R,2.000000X2.000000*%
G04 APERTURE END LIST*
D10*
X111753696Y-94318104D02*
X111791792Y-94356200D01*
X111791792Y-94356200D02*
X111906077Y-94394295D01*
X111906077Y-94394295D02*
X111982268Y-94394295D01*
X111982268Y-94394295D02*
X112096554Y-94356200D01*
X112096554Y-94356200D02*
X112172744Y-94280009D01*
X112172744Y-94280009D02*
X112210839Y-94203819D01*
X112210839Y-94203819D02*
X112248935Y-94051438D01*
X112248935Y-94051438D02*
X112248935Y-93937152D01*
X112248935Y-93937152D02*
X112210839Y-93784771D01*
X112210839Y-93784771D02*
X112172744Y-93708580D01*
X112172744Y-93708580D02*
X112096554Y-93632390D01*
X112096554Y-93632390D02*
X111982268Y-93594295D01*
X111982268Y-93594295D02*
X111906077Y-93594295D01*
X111906077Y-93594295D02*
X111791792Y-93632390D01*
X111791792Y-93632390D02*
X111753696Y-93670485D01*
X111067982Y-93860961D02*
X111067982Y-94394295D01*
X111258458Y-93556200D02*
X111448935Y-94127628D01*
X111448935Y-94127628D02*
X110953696Y-94127628D01*
X111753696Y-96818104D02*
X111791792Y-96856200D01*
X111791792Y-96856200D02*
X111906077Y-96894295D01*
X111906077Y-96894295D02*
X111982268Y-96894295D01*
X111982268Y-96894295D02*
X112096554Y-96856200D01*
X112096554Y-96856200D02*
X112172744Y-96780009D01*
X112172744Y-96780009D02*
X112210839Y-96703819D01*
X112210839Y-96703819D02*
X112248935Y-96551438D01*
X112248935Y-96551438D02*
X112248935Y-96437152D01*
X112248935Y-96437152D02*
X112210839Y-96284771D01*
X112210839Y-96284771D02*
X112172744Y-96208580D01*
X112172744Y-96208580D02*
X112096554Y-96132390D01*
X112096554Y-96132390D02*
X111982268Y-96094295D01*
X111982268Y-96094295D02*
X111906077Y-96094295D01*
X111906077Y-96094295D02*
X111791792Y-96132390D01*
X111791792Y-96132390D02*
X111753696Y-96170485D01*
X111487030Y-96094295D02*
X110991792Y-96094295D01*
X110991792Y-96094295D02*
X111258458Y-96399057D01*
X111258458Y-96399057D02*
X111144173Y-96399057D01*
X111144173Y-96399057D02*
X111067982Y-96437152D01*
X111067982Y-96437152D02*
X111029887Y-96475247D01*
X111029887Y-96475247D02*
X110991792Y-96551438D01*
X110991792Y-96551438D02*
X110991792Y-96741914D01*
X110991792Y-96741914D02*
X111029887Y-96818104D01*
X111029887Y-96818104D02*
X111067982Y-96856200D01*
X111067982Y-96856200D02*
X111144173Y-96894295D01*
X111144173Y-96894295D02*
X111372744Y-96894295D01*
X111372744Y-96894295D02*
X111448935Y-96856200D01*
X111448935Y-96856200D02*
X111487030Y-96818104D01*
X111753696Y-99318104D02*
X111791792Y-99356200D01*
X111791792Y-99356200D02*
X111906077Y-99394295D01*
X111906077Y-99394295D02*
X111982268Y-99394295D01*
X111982268Y-99394295D02*
X112096554Y-99356200D01*
X112096554Y-99356200D02*
X112172744Y-99280009D01*
X112172744Y-99280009D02*
X112210839Y-99203819D01*
X112210839Y-99203819D02*
X112248935Y-99051438D01*
X112248935Y-99051438D02*
X112248935Y-98937152D01*
X112248935Y-98937152D02*
X112210839Y-98784771D01*
X112210839Y-98784771D02*
X112172744Y-98708580D01*
X112172744Y-98708580D02*
X112096554Y-98632390D01*
X112096554Y-98632390D02*
X111982268Y-98594295D01*
X111982268Y-98594295D02*
X111906077Y-98594295D01*
X111906077Y-98594295D02*
X111791792Y-98632390D01*
X111791792Y-98632390D02*
X111753696Y-98670485D01*
X111448935Y-98670485D02*
X111410839Y-98632390D01*
X111410839Y-98632390D02*
X111334649Y-98594295D01*
X111334649Y-98594295D02*
X111144173Y-98594295D01*
X111144173Y-98594295D02*
X111067982Y-98632390D01*
X111067982Y-98632390D02*
X111029887Y-98670485D01*
X111029887Y-98670485D02*
X110991792Y-98746676D01*
X110991792Y-98746676D02*
X110991792Y-98822866D01*
X110991792Y-98822866D02*
X111029887Y-98937152D01*
X111029887Y-98937152D02*
X111487030Y-99394295D01*
X111487030Y-99394295D02*
X110991792Y-99394295D01*
X111753696Y-102318104D02*
X111791792Y-102356200D01*
X111791792Y-102356200D02*
X111906077Y-102394295D01*
X111906077Y-102394295D02*
X111982268Y-102394295D01*
X111982268Y-102394295D02*
X112096554Y-102356200D01*
X112096554Y-102356200D02*
X112172744Y-102280009D01*
X112172744Y-102280009D02*
X112210839Y-102203819D01*
X112210839Y-102203819D02*
X112248935Y-102051438D01*
X112248935Y-102051438D02*
X112248935Y-101937152D01*
X112248935Y-101937152D02*
X112210839Y-101784771D01*
X112210839Y-101784771D02*
X112172744Y-101708580D01*
X112172744Y-101708580D02*
X112096554Y-101632390D01*
X112096554Y-101632390D02*
X111982268Y-101594295D01*
X111982268Y-101594295D02*
X111906077Y-101594295D01*
X111906077Y-101594295D02*
X111791792Y-101632390D01*
X111791792Y-101632390D02*
X111753696Y-101670485D01*
X110991792Y-102394295D02*
X111448935Y-102394295D01*
X111220363Y-102394295D02*
X111220363Y-101594295D01*
X111220363Y-101594295D02*
X111296554Y-101708580D01*
X111296554Y-101708580D02*
X111372744Y-101784771D01*
X111372744Y-101784771D02*
X111448935Y-101822866D01*
X111753696Y-104394295D02*
X112020363Y-104013342D01*
X112210839Y-104394295D02*
X112210839Y-103594295D01*
X112210839Y-103594295D02*
X111906077Y-103594295D01*
X111906077Y-103594295D02*
X111829887Y-103632390D01*
X111829887Y-103632390D02*
X111791792Y-103670485D01*
X111791792Y-103670485D02*
X111753696Y-103746676D01*
X111753696Y-103746676D02*
X111753696Y-103860961D01*
X111753696Y-103860961D02*
X111791792Y-103937152D01*
X111791792Y-103937152D02*
X111829887Y-103975247D01*
X111829887Y-103975247D02*
X111906077Y-104013342D01*
X111906077Y-104013342D02*
X112210839Y-104013342D01*
X110991792Y-104394295D02*
X111448935Y-104394295D01*
X111220363Y-104394295D02*
X111220363Y-103594295D01*
X111220363Y-103594295D02*
X111296554Y-103708580D01*
X111296554Y-103708580D02*
X111372744Y-103784771D01*
X111372744Y-103784771D02*
X111448935Y-103822866D01*
X111753696Y-107394295D02*
X112020363Y-107013342D01*
X112210839Y-107394295D02*
X112210839Y-106594295D01*
X112210839Y-106594295D02*
X111906077Y-106594295D01*
X111906077Y-106594295D02*
X111829887Y-106632390D01*
X111829887Y-106632390D02*
X111791792Y-106670485D01*
X111791792Y-106670485D02*
X111753696Y-106746676D01*
X111753696Y-106746676D02*
X111753696Y-106860961D01*
X111753696Y-106860961D02*
X111791792Y-106937152D01*
X111791792Y-106937152D02*
X111829887Y-106975247D01*
X111829887Y-106975247D02*
X111906077Y-107013342D01*
X111906077Y-107013342D02*
X112210839Y-107013342D01*
X111448935Y-106670485D02*
X111410839Y-106632390D01*
X111410839Y-106632390D02*
X111334649Y-106594295D01*
X111334649Y-106594295D02*
X111144173Y-106594295D01*
X111144173Y-106594295D02*
X111067982Y-106632390D01*
X111067982Y-106632390D02*
X111029887Y-106670485D01*
X111029887Y-106670485D02*
X110991792Y-106746676D01*
X110991792Y-106746676D02*
X110991792Y-106822866D01*
X110991792Y-106822866D02*
X111029887Y-106937152D01*
X111029887Y-106937152D02*
X111487030Y-107394295D01*
X111487030Y-107394295D02*
X110991792Y-107394295D01*
X111753696Y-109894295D02*
X112020363Y-109513342D01*
X112210839Y-109894295D02*
X112210839Y-109094295D01*
X112210839Y-109094295D02*
X111906077Y-109094295D01*
X111906077Y-109094295D02*
X111829887Y-109132390D01*
X111829887Y-109132390D02*
X111791792Y-109170485D01*
X111791792Y-109170485D02*
X111753696Y-109246676D01*
X111753696Y-109246676D02*
X111753696Y-109360961D01*
X111753696Y-109360961D02*
X111791792Y-109437152D01*
X111791792Y-109437152D02*
X111829887Y-109475247D01*
X111829887Y-109475247D02*
X111906077Y-109513342D01*
X111906077Y-109513342D02*
X112210839Y-109513342D01*
X111487030Y-109094295D02*
X110991792Y-109094295D01*
X110991792Y-109094295D02*
X111258458Y-109399057D01*
X111258458Y-109399057D02*
X111144173Y-109399057D01*
X111144173Y-109399057D02*
X111067982Y-109437152D01*
X111067982Y-109437152D02*
X111029887Y-109475247D01*
X111029887Y-109475247D02*
X110991792Y-109551438D01*
X110991792Y-109551438D02*
X110991792Y-109741914D01*
X110991792Y-109741914D02*
X111029887Y-109818104D01*
X111029887Y-109818104D02*
X111067982Y-109856200D01*
X111067982Y-109856200D02*
X111144173Y-109894295D01*
X111144173Y-109894295D02*
X111372744Y-109894295D01*
X111372744Y-109894295D02*
X111448935Y-109856200D01*
X111448935Y-109856200D02*
X111487030Y-109818104D01*
X111753696Y-112394295D02*
X112020363Y-112013342D01*
X112210839Y-112394295D02*
X112210839Y-111594295D01*
X112210839Y-111594295D02*
X111906077Y-111594295D01*
X111906077Y-111594295D02*
X111829887Y-111632390D01*
X111829887Y-111632390D02*
X111791792Y-111670485D01*
X111791792Y-111670485D02*
X111753696Y-111746676D01*
X111753696Y-111746676D02*
X111753696Y-111860961D01*
X111753696Y-111860961D02*
X111791792Y-111937152D01*
X111791792Y-111937152D02*
X111829887Y-111975247D01*
X111829887Y-111975247D02*
X111906077Y-112013342D01*
X111906077Y-112013342D02*
X112210839Y-112013342D01*
X111067982Y-111860961D02*
X111067982Y-112394295D01*
X111258458Y-111556200D02*
X111448935Y-112127628D01*
X111448935Y-112127628D02*
X110953696Y-112127628D01*
X143291792Y-74632390D02*
X143367982Y-74594295D01*
X143367982Y-74594295D02*
X143482268Y-74594295D01*
X143482268Y-74594295D02*
X143596554Y-74632390D01*
X143596554Y-74632390D02*
X143672744Y-74708580D01*
X143672744Y-74708580D02*
X143710839Y-74784771D01*
X143710839Y-74784771D02*
X143748935Y-74937152D01*
X143748935Y-74937152D02*
X143748935Y-75051438D01*
X143748935Y-75051438D02*
X143710839Y-75203819D01*
X143710839Y-75203819D02*
X143672744Y-75280009D01*
X143672744Y-75280009D02*
X143596554Y-75356200D01*
X143596554Y-75356200D02*
X143482268Y-75394295D01*
X143482268Y-75394295D02*
X143406077Y-75394295D01*
X143406077Y-75394295D02*
X143291792Y-75356200D01*
X143291792Y-75356200D02*
X143253696Y-75318104D01*
X143253696Y-75318104D02*
X143253696Y-75051438D01*
X143253696Y-75051438D02*
X143406077Y-75051438D01*
X142910839Y-75394295D02*
X142910839Y-74594295D01*
X142910839Y-74594295D02*
X142453696Y-75394295D01*
X142453696Y-75394295D02*
X142453696Y-74594295D01*
X142072744Y-75394295D02*
X142072744Y-74594295D01*
X142072744Y-74594295D02*
X141882268Y-74594295D01*
X141882268Y-74594295D02*
X141767982Y-74632390D01*
X141767982Y-74632390D02*
X141691792Y-74708580D01*
X141691792Y-74708580D02*
X141653697Y-74784771D01*
X141653697Y-74784771D02*
X141615601Y-74937152D01*
X141615601Y-74937152D02*
X141615601Y-75051438D01*
X141615601Y-75051438D02*
X141653697Y-75203819D01*
X141653697Y-75203819D02*
X141691792Y-75280009D01*
X141691792Y-75280009D02*
X141767982Y-75356200D01*
X141767982Y-75356200D02*
X141882268Y-75394295D01*
X141882268Y-75394295D02*
X142072744Y-75394295D01*
X145329887Y-74594295D02*
X145710839Y-74594295D01*
X145710839Y-74594295D02*
X145748935Y-74975247D01*
X145748935Y-74975247D02*
X145710839Y-74937152D01*
X145710839Y-74937152D02*
X145634649Y-74899057D01*
X145634649Y-74899057D02*
X145444173Y-74899057D01*
X145444173Y-74899057D02*
X145367982Y-74937152D01*
X145367982Y-74937152D02*
X145329887Y-74975247D01*
X145329887Y-74975247D02*
X145291792Y-75051438D01*
X145291792Y-75051438D02*
X145291792Y-75241914D01*
X145291792Y-75241914D02*
X145329887Y-75318104D01*
X145329887Y-75318104D02*
X145367982Y-75356200D01*
X145367982Y-75356200D02*
X145444173Y-75394295D01*
X145444173Y-75394295D02*
X145634649Y-75394295D01*
X145634649Y-75394295D02*
X145710839Y-75356200D01*
X145710839Y-75356200D02*
X145748935Y-75318104D01*
X145063220Y-74594295D02*
X144796553Y-75394295D01*
X144796553Y-75394295D02*
X144529887Y-74594295D01*
X148748935Y-75356200D02*
X148634649Y-75394295D01*
X148634649Y-75394295D02*
X148444173Y-75394295D01*
X148444173Y-75394295D02*
X148367982Y-75356200D01*
X148367982Y-75356200D02*
X148329887Y-75318104D01*
X148329887Y-75318104D02*
X148291792Y-75241914D01*
X148291792Y-75241914D02*
X148291792Y-75165723D01*
X148291792Y-75165723D02*
X148329887Y-75089533D01*
X148329887Y-75089533D02*
X148367982Y-75051438D01*
X148367982Y-75051438D02*
X148444173Y-75013342D01*
X148444173Y-75013342D02*
X148596554Y-74975247D01*
X148596554Y-74975247D02*
X148672744Y-74937152D01*
X148672744Y-74937152D02*
X148710839Y-74899057D01*
X148710839Y-74899057D02*
X148748935Y-74822866D01*
X148748935Y-74822866D02*
X148748935Y-74746676D01*
X148748935Y-74746676D02*
X148710839Y-74670485D01*
X148710839Y-74670485D02*
X148672744Y-74632390D01*
X148672744Y-74632390D02*
X148596554Y-74594295D01*
X148596554Y-74594295D02*
X148406077Y-74594295D01*
X148406077Y-74594295D02*
X148291792Y-74632390D01*
X147948934Y-75394295D02*
X147948934Y-74594295D01*
X147948934Y-74594295D02*
X147758458Y-74594295D01*
X147758458Y-74594295D02*
X147644172Y-74632390D01*
X147644172Y-74632390D02*
X147567982Y-74708580D01*
X147567982Y-74708580D02*
X147529887Y-74784771D01*
X147529887Y-74784771D02*
X147491791Y-74937152D01*
X147491791Y-74937152D02*
X147491791Y-75051438D01*
X147491791Y-75051438D02*
X147529887Y-75203819D01*
X147529887Y-75203819D02*
X147567982Y-75280009D01*
X147567982Y-75280009D02*
X147644172Y-75356200D01*
X147644172Y-75356200D02*
X147758458Y-75394295D01*
X147758458Y-75394295D02*
X147948934Y-75394295D01*
X147187030Y-75165723D02*
X146806077Y-75165723D01*
X147263220Y-75394295D02*
X146996553Y-74594295D01*
X146996553Y-74594295D02*
X146729887Y-75394295D01*
X151248935Y-75356200D02*
X151134649Y-75394295D01*
X151134649Y-75394295D02*
X150944173Y-75394295D01*
X150944173Y-75394295D02*
X150867982Y-75356200D01*
X150867982Y-75356200D02*
X150829887Y-75318104D01*
X150829887Y-75318104D02*
X150791792Y-75241914D01*
X150791792Y-75241914D02*
X150791792Y-75165723D01*
X150791792Y-75165723D02*
X150829887Y-75089533D01*
X150829887Y-75089533D02*
X150867982Y-75051438D01*
X150867982Y-75051438D02*
X150944173Y-75013342D01*
X150944173Y-75013342D02*
X151096554Y-74975247D01*
X151096554Y-74975247D02*
X151172744Y-74937152D01*
X151172744Y-74937152D02*
X151210839Y-74899057D01*
X151210839Y-74899057D02*
X151248935Y-74822866D01*
X151248935Y-74822866D02*
X151248935Y-74746676D01*
X151248935Y-74746676D02*
X151210839Y-74670485D01*
X151210839Y-74670485D02*
X151172744Y-74632390D01*
X151172744Y-74632390D02*
X151096554Y-74594295D01*
X151096554Y-74594295D02*
X150906077Y-74594295D01*
X150906077Y-74594295D02*
X150791792Y-74632390D01*
X149991791Y-75318104D02*
X150029887Y-75356200D01*
X150029887Y-75356200D02*
X150144172Y-75394295D01*
X150144172Y-75394295D02*
X150220363Y-75394295D01*
X150220363Y-75394295D02*
X150334649Y-75356200D01*
X150334649Y-75356200D02*
X150410839Y-75280009D01*
X150410839Y-75280009D02*
X150448934Y-75203819D01*
X150448934Y-75203819D02*
X150487030Y-75051438D01*
X150487030Y-75051438D02*
X150487030Y-74937152D01*
X150487030Y-74937152D02*
X150448934Y-74784771D01*
X150448934Y-74784771D02*
X150410839Y-74708580D01*
X150410839Y-74708580D02*
X150334649Y-74632390D01*
X150334649Y-74632390D02*
X150220363Y-74594295D01*
X150220363Y-74594295D02*
X150144172Y-74594295D01*
X150144172Y-74594295D02*
X150029887Y-74632390D01*
X150029887Y-74632390D02*
X149991791Y-74670485D01*
X149267982Y-75394295D02*
X149648934Y-75394295D01*
X149648934Y-75394295D02*
X149648934Y-74594295D01*
X167775125Y-124744295D02*
X167317982Y-124744295D01*
X167546554Y-125544295D02*
X167546554Y-124744295D01*
X167051315Y-125544295D02*
X167051315Y-124744295D01*
X167051315Y-124744295D02*
X166746553Y-124744295D01*
X166746553Y-124744295D02*
X166670363Y-124782390D01*
X166670363Y-124782390D02*
X166632268Y-124820485D01*
X166632268Y-124820485D02*
X166594172Y-124896676D01*
X166594172Y-124896676D02*
X166594172Y-125010961D01*
X166594172Y-125010961D02*
X166632268Y-125087152D01*
X166632268Y-125087152D02*
X166670363Y-125125247D01*
X166670363Y-125125247D02*
X166746553Y-125163342D01*
X166746553Y-125163342D02*
X167051315Y-125163342D01*
X165832268Y-125544295D02*
X166289411Y-125544295D01*
X166060839Y-125544295D02*
X166060839Y-124744295D01*
X166060839Y-124744295D02*
X166137030Y-124858580D01*
X166137030Y-124858580D02*
X166213220Y-124934771D01*
X166213220Y-124934771D02*
X166289411Y-124972866D01*
X165489410Y-125468104D02*
X165451315Y-125506200D01*
X165451315Y-125506200D02*
X165489410Y-125544295D01*
X165489410Y-125544295D02*
X165527506Y-125506200D01*
X165527506Y-125506200D02*
X165489410Y-125468104D01*
X165489410Y-125468104D02*
X165489410Y-125544295D01*
X165489410Y-125049057D02*
X165451315Y-125087152D01*
X165451315Y-125087152D02*
X165489410Y-125125247D01*
X165489410Y-125125247D02*
X165527506Y-125087152D01*
X165527506Y-125087152D02*
X165489410Y-125049057D01*
X165489410Y-125049057D02*
X165489410Y-125125247D01*
X165184649Y-124744295D02*
X164689411Y-124744295D01*
X164689411Y-124744295D02*
X164956077Y-125049057D01*
X164956077Y-125049057D02*
X164841792Y-125049057D01*
X164841792Y-125049057D02*
X164765601Y-125087152D01*
X164765601Y-125087152D02*
X164727506Y-125125247D01*
X164727506Y-125125247D02*
X164689411Y-125201438D01*
X164689411Y-125201438D02*
X164689411Y-125391914D01*
X164689411Y-125391914D02*
X164727506Y-125468104D01*
X164727506Y-125468104D02*
X164765601Y-125506200D01*
X164765601Y-125506200D02*
X164841792Y-125544295D01*
X164841792Y-125544295D02*
X165070363Y-125544295D01*
X165070363Y-125544295D02*
X165146554Y-125506200D01*
X165146554Y-125506200D02*
X165184649Y-125468104D01*
X164460839Y-124744295D02*
X164194172Y-125544295D01*
X164194172Y-125544295D02*
X163927506Y-124744295D01*
X163737030Y-124744295D02*
X163241792Y-124744295D01*
X163241792Y-124744295D02*
X163508458Y-125049057D01*
X163508458Y-125049057D02*
X163394173Y-125049057D01*
X163394173Y-125049057D02*
X163317982Y-125087152D01*
X163317982Y-125087152D02*
X163279887Y-125125247D01*
X163279887Y-125125247D02*
X163241792Y-125201438D01*
X163241792Y-125201438D02*
X163241792Y-125391914D01*
X163241792Y-125391914D02*
X163279887Y-125468104D01*
X163279887Y-125468104D02*
X163317982Y-125506200D01*
X163317982Y-125506200D02*
X163394173Y-125544295D01*
X163394173Y-125544295D02*
X163622744Y-125544295D01*
X163622744Y-125544295D02*
X163698935Y-125506200D01*
X163698935Y-125506200D02*
X163737030Y-125468104D01*
X173325125Y-120594295D02*
X172867982Y-120594295D01*
X173096554Y-121394295D02*
X173096554Y-120594295D01*
X172601315Y-121394295D02*
X172601315Y-120594295D01*
X172601315Y-120594295D02*
X172296553Y-120594295D01*
X172296553Y-120594295D02*
X172220363Y-120632390D01*
X172220363Y-120632390D02*
X172182268Y-120670485D01*
X172182268Y-120670485D02*
X172144172Y-120746676D01*
X172144172Y-120746676D02*
X172144172Y-120860961D01*
X172144172Y-120860961D02*
X172182268Y-120937152D01*
X172182268Y-120937152D02*
X172220363Y-120975247D01*
X172220363Y-120975247D02*
X172296553Y-121013342D01*
X172296553Y-121013342D02*
X172601315Y-121013342D01*
X171839411Y-120670485D02*
X171801315Y-120632390D01*
X171801315Y-120632390D02*
X171725125Y-120594295D01*
X171725125Y-120594295D02*
X171534649Y-120594295D01*
X171534649Y-120594295D02*
X171458458Y-120632390D01*
X171458458Y-120632390D02*
X171420363Y-120670485D01*
X171420363Y-120670485D02*
X171382268Y-120746676D01*
X171382268Y-120746676D02*
X171382268Y-120822866D01*
X171382268Y-120822866D02*
X171420363Y-120937152D01*
X171420363Y-120937152D02*
X171877506Y-121394295D01*
X171877506Y-121394295D02*
X171382268Y-121394295D01*
X171039410Y-121318104D02*
X171001315Y-121356200D01*
X171001315Y-121356200D02*
X171039410Y-121394295D01*
X171039410Y-121394295D02*
X171077506Y-121356200D01*
X171077506Y-121356200D02*
X171039410Y-121318104D01*
X171039410Y-121318104D02*
X171039410Y-121394295D01*
X171039410Y-120899057D02*
X171001315Y-120937152D01*
X171001315Y-120937152D02*
X171039410Y-120975247D01*
X171039410Y-120975247D02*
X171077506Y-120937152D01*
X171077506Y-120937152D02*
X171039410Y-120899057D01*
X171039410Y-120899057D02*
X171039410Y-120975247D01*
X170239411Y-120632390D02*
X170315601Y-120594295D01*
X170315601Y-120594295D02*
X170429887Y-120594295D01*
X170429887Y-120594295D02*
X170544173Y-120632390D01*
X170544173Y-120632390D02*
X170620363Y-120708580D01*
X170620363Y-120708580D02*
X170658458Y-120784771D01*
X170658458Y-120784771D02*
X170696554Y-120937152D01*
X170696554Y-120937152D02*
X170696554Y-121051438D01*
X170696554Y-121051438D02*
X170658458Y-121203819D01*
X170658458Y-121203819D02*
X170620363Y-121280009D01*
X170620363Y-121280009D02*
X170544173Y-121356200D01*
X170544173Y-121356200D02*
X170429887Y-121394295D01*
X170429887Y-121394295D02*
X170353696Y-121394295D01*
X170353696Y-121394295D02*
X170239411Y-121356200D01*
X170239411Y-121356200D02*
X170201315Y-121318104D01*
X170201315Y-121318104D02*
X170201315Y-121051438D01*
X170201315Y-121051438D02*
X170353696Y-121051438D01*
X169858458Y-121394295D02*
X169858458Y-120594295D01*
X169858458Y-120594295D02*
X169401315Y-121394295D01*
X169401315Y-121394295D02*
X169401315Y-120594295D01*
X169020363Y-121394295D02*
X169020363Y-120594295D01*
X169020363Y-120594295D02*
X168829887Y-120594295D01*
X168829887Y-120594295D02*
X168715601Y-120632390D01*
X168715601Y-120632390D02*
X168639411Y-120708580D01*
X168639411Y-120708580D02*
X168601316Y-120784771D01*
X168601316Y-120784771D02*
X168563220Y-120937152D01*
X168563220Y-120937152D02*
X168563220Y-121051438D01*
X168563220Y-121051438D02*
X168601316Y-121203819D01*
X168601316Y-121203819D02*
X168639411Y-121280009D01*
X168639411Y-121280009D02*
X168715601Y-121356200D01*
X168715601Y-121356200D02*
X168829887Y-121394295D01*
X168829887Y-121394295D02*
X169020363Y-121394295D01*
X177825125Y-116594295D02*
X177367982Y-116594295D01*
X177596554Y-117394295D02*
X177596554Y-116594295D01*
X177101315Y-117394295D02*
X177101315Y-116594295D01*
X177101315Y-116594295D02*
X176796553Y-116594295D01*
X176796553Y-116594295D02*
X176720363Y-116632390D01*
X176720363Y-116632390D02*
X176682268Y-116670485D01*
X176682268Y-116670485D02*
X176644172Y-116746676D01*
X176644172Y-116746676D02*
X176644172Y-116860961D01*
X176644172Y-116860961D02*
X176682268Y-116937152D01*
X176682268Y-116937152D02*
X176720363Y-116975247D01*
X176720363Y-116975247D02*
X176796553Y-117013342D01*
X176796553Y-117013342D02*
X177101315Y-117013342D01*
X176377506Y-116594295D02*
X175882268Y-116594295D01*
X175882268Y-116594295D02*
X176148934Y-116899057D01*
X176148934Y-116899057D02*
X176034649Y-116899057D01*
X176034649Y-116899057D02*
X175958458Y-116937152D01*
X175958458Y-116937152D02*
X175920363Y-116975247D01*
X175920363Y-116975247D02*
X175882268Y-117051438D01*
X175882268Y-117051438D02*
X175882268Y-117241914D01*
X175882268Y-117241914D02*
X175920363Y-117318104D01*
X175920363Y-117318104D02*
X175958458Y-117356200D01*
X175958458Y-117356200D02*
X176034649Y-117394295D01*
X176034649Y-117394295D02*
X176263220Y-117394295D01*
X176263220Y-117394295D02*
X176339411Y-117356200D01*
X176339411Y-117356200D02*
X176377506Y-117318104D01*
X175539410Y-117318104D02*
X175501315Y-117356200D01*
X175501315Y-117356200D02*
X175539410Y-117394295D01*
X175539410Y-117394295D02*
X175577506Y-117356200D01*
X175577506Y-117356200D02*
X175539410Y-117318104D01*
X175539410Y-117318104D02*
X175539410Y-117394295D01*
X175539410Y-116899057D02*
X175501315Y-116937152D01*
X175501315Y-116937152D02*
X175539410Y-116975247D01*
X175539410Y-116975247D02*
X175577506Y-116937152D01*
X175577506Y-116937152D02*
X175539410Y-116899057D01*
X175539410Y-116899057D02*
X175539410Y-116975247D01*
X174777506Y-116594295D02*
X175158458Y-116594295D01*
X175158458Y-116594295D02*
X175196554Y-116975247D01*
X175196554Y-116975247D02*
X175158458Y-116937152D01*
X175158458Y-116937152D02*
X175082268Y-116899057D01*
X175082268Y-116899057D02*
X174891792Y-116899057D01*
X174891792Y-116899057D02*
X174815601Y-116937152D01*
X174815601Y-116937152D02*
X174777506Y-116975247D01*
X174777506Y-116975247D02*
X174739411Y-117051438D01*
X174739411Y-117051438D02*
X174739411Y-117241914D01*
X174739411Y-117241914D02*
X174777506Y-117318104D01*
X174777506Y-117318104D02*
X174815601Y-117356200D01*
X174815601Y-117356200D02*
X174891792Y-117394295D01*
X174891792Y-117394295D02*
X175082268Y-117394295D01*
X175082268Y-117394295D02*
X175158458Y-117356200D01*
X175158458Y-117356200D02*
X175196554Y-117318104D01*
X174510839Y-116594295D02*
X174244172Y-117394295D01*
X174244172Y-117394295D02*
X173977506Y-116594295D01*
X144490476Y-124762295D02*
X143995238Y-124762295D01*
X143995238Y-124762295D02*
X144261904Y-125067057D01*
X144261904Y-125067057D02*
X144147619Y-125067057D01*
X144147619Y-125067057D02*
X144071428Y-125105152D01*
X144071428Y-125105152D02*
X144033333Y-125143247D01*
X144033333Y-125143247D02*
X143995238Y-125219438D01*
X143995238Y-125219438D02*
X143995238Y-125409914D01*
X143995238Y-125409914D02*
X144033333Y-125486104D01*
X144033333Y-125486104D02*
X144071428Y-125524200D01*
X144071428Y-125524200D02*
X144147619Y-125562295D01*
X144147619Y-125562295D02*
X144376190Y-125562295D01*
X144376190Y-125562295D02*
X144452381Y-125524200D01*
X144452381Y-125524200D02*
X144490476Y-125486104D01*
X143766666Y-124762295D02*
X143499999Y-125562295D01*
X143499999Y-125562295D02*
X143233333Y-124762295D01*
X143042857Y-124762295D02*
X142547619Y-124762295D01*
X142547619Y-124762295D02*
X142814285Y-125067057D01*
X142814285Y-125067057D02*
X142700000Y-125067057D01*
X142700000Y-125067057D02*
X142623809Y-125105152D01*
X142623809Y-125105152D02*
X142585714Y-125143247D01*
X142585714Y-125143247D02*
X142547619Y-125219438D01*
X142547619Y-125219438D02*
X142547619Y-125409914D01*
X142547619Y-125409914D02*
X142585714Y-125486104D01*
X142585714Y-125486104D02*
X142623809Y-125524200D01*
X142623809Y-125524200D02*
X142700000Y-125562295D01*
X142700000Y-125562295D02*
X142928571Y-125562295D01*
X142928571Y-125562295D02*
X143004762Y-125524200D01*
X143004762Y-125524200D02*
X143042857Y-125486104D01*
X146478094Y-121862295D02*
X146744761Y-121481342D01*
X146935237Y-121862295D02*
X146935237Y-121062295D01*
X146935237Y-121062295D02*
X146630475Y-121062295D01*
X146630475Y-121062295D02*
X146554285Y-121100390D01*
X146554285Y-121100390D02*
X146516190Y-121138485D01*
X146516190Y-121138485D02*
X146478094Y-121214676D01*
X146478094Y-121214676D02*
X146478094Y-121328961D01*
X146478094Y-121328961D02*
X146516190Y-121405152D01*
X146516190Y-121405152D02*
X146554285Y-121443247D01*
X146554285Y-121443247D02*
X146630475Y-121481342D01*
X146630475Y-121481342D02*
X146935237Y-121481342D01*
X146173333Y-121824200D02*
X146059047Y-121862295D01*
X146059047Y-121862295D02*
X145868571Y-121862295D01*
X145868571Y-121862295D02*
X145792380Y-121824200D01*
X145792380Y-121824200D02*
X145754285Y-121786104D01*
X145754285Y-121786104D02*
X145716190Y-121709914D01*
X145716190Y-121709914D02*
X145716190Y-121633723D01*
X145716190Y-121633723D02*
X145754285Y-121557533D01*
X145754285Y-121557533D02*
X145792380Y-121519438D01*
X145792380Y-121519438D02*
X145868571Y-121481342D01*
X145868571Y-121481342D02*
X146020952Y-121443247D01*
X146020952Y-121443247D02*
X146097142Y-121405152D01*
X146097142Y-121405152D02*
X146135237Y-121367057D01*
X146135237Y-121367057D02*
X146173333Y-121290866D01*
X146173333Y-121290866D02*
X146173333Y-121214676D01*
X146173333Y-121214676D02*
X146135237Y-121138485D01*
X146135237Y-121138485D02*
X146097142Y-121100390D01*
X146097142Y-121100390D02*
X146020952Y-121062295D01*
X146020952Y-121062295D02*
X145830475Y-121062295D01*
X145830475Y-121062295D02*
X145716190Y-121100390D01*
X145487618Y-121062295D02*
X145030475Y-121062295D01*
X145259047Y-121862295D02*
X145259047Y-121062295D01*
X149189523Y-124800390D02*
X149265713Y-124762295D01*
X149265713Y-124762295D02*
X149379999Y-124762295D01*
X149379999Y-124762295D02*
X149494285Y-124800390D01*
X149494285Y-124800390D02*
X149570475Y-124876580D01*
X149570475Y-124876580D02*
X149608570Y-124952771D01*
X149608570Y-124952771D02*
X149646666Y-125105152D01*
X149646666Y-125105152D02*
X149646666Y-125219438D01*
X149646666Y-125219438D02*
X149608570Y-125371819D01*
X149608570Y-125371819D02*
X149570475Y-125448009D01*
X149570475Y-125448009D02*
X149494285Y-125524200D01*
X149494285Y-125524200D02*
X149379999Y-125562295D01*
X149379999Y-125562295D02*
X149303808Y-125562295D01*
X149303808Y-125562295D02*
X149189523Y-125524200D01*
X149189523Y-125524200D02*
X149151427Y-125486104D01*
X149151427Y-125486104D02*
X149151427Y-125219438D01*
X149151427Y-125219438D02*
X149303808Y-125219438D01*
X148808570Y-125562295D02*
X148808570Y-124762295D01*
X148808570Y-124762295D02*
X148351427Y-125562295D01*
X148351427Y-125562295D02*
X148351427Y-124762295D01*
X147970475Y-125562295D02*
X147970475Y-124762295D01*
X147970475Y-124762295D02*
X147779999Y-124762295D01*
X147779999Y-124762295D02*
X147665713Y-124800390D01*
X147665713Y-124800390D02*
X147589523Y-124876580D01*
X147589523Y-124876580D02*
X147551428Y-124952771D01*
X147551428Y-124952771D02*
X147513332Y-125105152D01*
X147513332Y-125105152D02*
X147513332Y-125219438D01*
X147513332Y-125219438D02*
X147551428Y-125371819D01*
X147551428Y-125371819D02*
X147589523Y-125448009D01*
X147589523Y-125448009D02*
X147665713Y-125524200D01*
X147665713Y-125524200D02*
X147779999Y-125562295D01*
X147779999Y-125562295D02*
X147970475Y-125562295D01*
X151939046Y-121862295D02*
X151939046Y-121062295D01*
X151100951Y-121862295D02*
X151367618Y-121481342D01*
X151558094Y-121862295D02*
X151558094Y-121062295D01*
X151558094Y-121062295D02*
X151253332Y-121062295D01*
X151253332Y-121062295D02*
X151177142Y-121100390D01*
X151177142Y-121100390D02*
X151139047Y-121138485D01*
X151139047Y-121138485D02*
X151100951Y-121214676D01*
X151100951Y-121214676D02*
X151100951Y-121328961D01*
X151100951Y-121328961D02*
X151139047Y-121405152D01*
X151139047Y-121405152D02*
X151177142Y-121443247D01*
X151177142Y-121443247D02*
X151253332Y-121481342D01*
X151253332Y-121481342D02*
X151558094Y-121481342D01*
X150224761Y-121938485D02*
X150300951Y-121900390D01*
X150300951Y-121900390D02*
X150377142Y-121824200D01*
X150377142Y-121824200D02*
X150491428Y-121709914D01*
X150491428Y-121709914D02*
X150567618Y-121671819D01*
X150567618Y-121671819D02*
X150643809Y-121671819D01*
X150605713Y-121862295D02*
X150681904Y-121824200D01*
X150681904Y-121824200D02*
X150758094Y-121748009D01*
X150758094Y-121748009D02*
X150796190Y-121595628D01*
X150796190Y-121595628D02*
X150796190Y-121328961D01*
X150796190Y-121328961D02*
X150758094Y-121176580D01*
X150758094Y-121176580D02*
X150681904Y-121100390D01*
X150681904Y-121100390D02*
X150605713Y-121062295D01*
X150605713Y-121062295D02*
X150453332Y-121062295D01*
X150453332Y-121062295D02*
X150377142Y-121100390D01*
X150377142Y-121100390D02*
X150300951Y-121176580D01*
X150300951Y-121176580D02*
X150262856Y-121328961D01*
X150262856Y-121328961D02*
X150262856Y-121595628D01*
X150262856Y-121595628D02*
X150300951Y-121748009D01*
X150300951Y-121748009D02*
X150377142Y-121824200D01*
X150377142Y-121824200D02*
X150453332Y-121862295D01*
X150453332Y-121862295D02*
X150605713Y-121862295D01*
X154917142Y-125562295D02*
X154917142Y-124762295D01*
X154917142Y-124762295D02*
X154650476Y-125333723D01*
X154650476Y-125333723D02*
X154383809Y-124762295D01*
X154383809Y-124762295D02*
X154383809Y-125562295D01*
X154002856Y-125562295D02*
X154002856Y-124762295D01*
X153660000Y-125524200D02*
X153545714Y-125562295D01*
X153545714Y-125562295D02*
X153355238Y-125562295D01*
X153355238Y-125562295D02*
X153279047Y-125524200D01*
X153279047Y-125524200D02*
X153240952Y-125486104D01*
X153240952Y-125486104D02*
X153202857Y-125409914D01*
X153202857Y-125409914D02*
X153202857Y-125333723D01*
X153202857Y-125333723D02*
X153240952Y-125257533D01*
X153240952Y-125257533D02*
X153279047Y-125219438D01*
X153279047Y-125219438D02*
X153355238Y-125181342D01*
X153355238Y-125181342D02*
X153507619Y-125143247D01*
X153507619Y-125143247D02*
X153583809Y-125105152D01*
X153583809Y-125105152D02*
X153621904Y-125067057D01*
X153621904Y-125067057D02*
X153660000Y-124990866D01*
X153660000Y-124990866D02*
X153660000Y-124914676D01*
X153660000Y-124914676D02*
X153621904Y-124838485D01*
X153621904Y-124838485D02*
X153583809Y-124800390D01*
X153583809Y-124800390D02*
X153507619Y-124762295D01*
X153507619Y-124762295D02*
X153317142Y-124762295D01*
X153317142Y-124762295D02*
X153202857Y-124800390D01*
X152707618Y-124762295D02*
X152555237Y-124762295D01*
X152555237Y-124762295D02*
X152479047Y-124800390D01*
X152479047Y-124800390D02*
X152402856Y-124876580D01*
X152402856Y-124876580D02*
X152364761Y-125028961D01*
X152364761Y-125028961D02*
X152364761Y-125295628D01*
X152364761Y-125295628D02*
X152402856Y-125448009D01*
X152402856Y-125448009D02*
X152479047Y-125524200D01*
X152479047Y-125524200D02*
X152555237Y-125562295D01*
X152555237Y-125562295D02*
X152707618Y-125562295D01*
X152707618Y-125562295D02*
X152783809Y-125524200D01*
X152783809Y-125524200D02*
X152859999Y-125448009D01*
X152859999Y-125448009D02*
X152898095Y-125295628D01*
X152898095Y-125295628D02*
X152898095Y-125028961D01*
X152898095Y-125028961D02*
X152859999Y-124876580D01*
X152859999Y-124876580D02*
X152783809Y-124800390D01*
X152783809Y-124800390D02*
X152707618Y-124762295D01*
X157457142Y-121862295D02*
X157457142Y-121062295D01*
X157457142Y-121062295D02*
X157190476Y-121633723D01*
X157190476Y-121633723D02*
X156923809Y-121062295D01*
X156923809Y-121062295D02*
X156923809Y-121862295D01*
X156390475Y-121062295D02*
X156238094Y-121062295D01*
X156238094Y-121062295D02*
X156161904Y-121100390D01*
X156161904Y-121100390D02*
X156085713Y-121176580D01*
X156085713Y-121176580D02*
X156047618Y-121328961D01*
X156047618Y-121328961D02*
X156047618Y-121595628D01*
X156047618Y-121595628D02*
X156085713Y-121748009D01*
X156085713Y-121748009D02*
X156161904Y-121824200D01*
X156161904Y-121824200D02*
X156238094Y-121862295D01*
X156238094Y-121862295D02*
X156390475Y-121862295D01*
X156390475Y-121862295D02*
X156466666Y-121824200D01*
X156466666Y-121824200D02*
X156542856Y-121748009D01*
X156542856Y-121748009D02*
X156580952Y-121595628D01*
X156580952Y-121595628D02*
X156580952Y-121328961D01*
X156580952Y-121328961D02*
X156542856Y-121176580D01*
X156542856Y-121176580D02*
X156466666Y-121100390D01*
X156466666Y-121100390D02*
X156390475Y-121062295D01*
X155742857Y-121824200D02*
X155628571Y-121862295D01*
X155628571Y-121862295D02*
X155438095Y-121862295D01*
X155438095Y-121862295D02*
X155361904Y-121824200D01*
X155361904Y-121824200D02*
X155323809Y-121786104D01*
X155323809Y-121786104D02*
X155285714Y-121709914D01*
X155285714Y-121709914D02*
X155285714Y-121633723D01*
X155285714Y-121633723D02*
X155323809Y-121557533D01*
X155323809Y-121557533D02*
X155361904Y-121519438D01*
X155361904Y-121519438D02*
X155438095Y-121481342D01*
X155438095Y-121481342D02*
X155590476Y-121443247D01*
X155590476Y-121443247D02*
X155666666Y-121405152D01*
X155666666Y-121405152D02*
X155704761Y-121367057D01*
X155704761Y-121367057D02*
X155742857Y-121290866D01*
X155742857Y-121290866D02*
X155742857Y-121214676D01*
X155742857Y-121214676D02*
X155704761Y-121138485D01*
X155704761Y-121138485D02*
X155666666Y-121100390D01*
X155666666Y-121100390D02*
X155590476Y-121062295D01*
X155590476Y-121062295D02*
X155399999Y-121062295D01*
X155399999Y-121062295D02*
X155285714Y-121100390D01*
X154942856Y-121862295D02*
X154942856Y-121062295D01*
X159768571Y-125524200D02*
X159654285Y-125562295D01*
X159654285Y-125562295D02*
X159463809Y-125562295D01*
X159463809Y-125562295D02*
X159387618Y-125524200D01*
X159387618Y-125524200D02*
X159349523Y-125486104D01*
X159349523Y-125486104D02*
X159311428Y-125409914D01*
X159311428Y-125409914D02*
X159311428Y-125333723D01*
X159311428Y-125333723D02*
X159349523Y-125257533D01*
X159349523Y-125257533D02*
X159387618Y-125219438D01*
X159387618Y-125219438D02*
X159463809Y-125181342D01*
X159463809Y-125181342D02*
X159616190Y-125143247D01*
X159616190Y-125143247D02*
X159692380Y-125105152D01*
X159692380Y-125105152D02*
X159730475Y-125067057D01*
X159730475Y-125067057D02*
X159768571Y-124990866D01*
X159768571Y-124990866D02*
X159768571Y-124914676D01*
X159768571Y-124914676D02*
X159730475Y-124838485D01*
X159730475Y-124838485D02*
X159692380Y-124800390D01*
X159692380Y-124800390D02*
X159616190Y-124762295D01*
X159616190Y-124762295D02*
X159425713Y-124762295D01*
X159425713Y-124762295D02*
X159311428Y-124800390D01*
X158511427Y-125486104D02*
X158549523Y-125524200D01*
X158549523Y-125524200D02*
X158663808Y-125562295D01*
X158663808Y-125562295D02*
X158739999Y-125562295D01*
X158739999Y-125562295D02*
X158854285Y-125524200D01*
X158854285Y-125524200D02*
X158930475Y-125448009D01*
X158930475Y-125448009D02*
X158968570Y-125371819D01*
X158968570Y-125371819D02*
X159006666Y-125219438D01*
X159006666Y-125219438D02*
X159006666Y-125105152D01*
X159006666Y-125105152D02*
X158968570Y-124952771D01*
X158968570Y-124952771D02*
X158930475Y-124876580D01*
X158930475Y-124876580D02*
X158854285Y-124800390D01*
X158854285Y-124800390D02*
X158739999Y-124762295D01*
X158739999Y-124762295D02*
X158663808Y-124762295D01*
X158663808Y-124762295D02*
X158549523Y-124800390D01*
X158549523Y-124800390D02*
X158511427Y-124838485D01*
X158168570Y-125562295D02*
X158168570Y-124762295D01*
X157711427Y-125562295D02*
X158054285Y-125105152D01*
X157711427Y-124762295D02*
X158168570Y-125219438D01*
X162251428Y-121824200D02*
X162137142Y-121862295D01*
X162137142Y-121862295D02*
X161946666Y-121862295D01*
X161946666Y-121862295D02*
X161870475Y-121824200D01*
X161870475Y-121824200D02*
X161832380Y-121786104D01*
X161832380Y-121786104D02*
X161794285Y-121709914D01*
X161794285Y-121709914D02*
X161794285Y-121633723D01*
X161794285Y-121633723D02*
X161832380Y-121557533D01*
X161832380Y-121557533D02*
X161870475Y-121519438D01*
X161870475Y-121519438D02*
X161946666Y-121481342D01*
X161946666Y-121481342D02*
X162099047Y-121443247D01*
X162099047Y-121443247D02*
X162175237Y-121405152D01*
X162175237Y-121405152D02*
X162213332Y-121367057D01*
X162213332Y-121367057D02*
X162251428Y-121290866D01*
X162251428Y-121290866D02*
X162251428Y-121214676D01*
X162251428Y-121214676D02*
X162213332Y-121138485D01*
X162213332Y-121138485D02*
X162175237Y-121100390D01*
X162175237Y-121100390D02*
X162099047Y-121062295D01*
X162099047Y-121062295D02*
X161908570Y-121062295D01*
X161908570Y-121062295D02*
X161794285Y-121100390D01*
X161451427Y-121862295D02*
X161451427Y-121062295D01*
X161451427Y-121062295D02*
X161260951Y-121062295D01*
X161260951Y-121062295D02*
X161146665Y-121100390D01*
X161146665Y-121100390D02*
X161070475Y-121176580D01*
X161070475Y-121176580D02*
X161032380Y-121252771D01*
X161032380Y-121252771D02*
X160994284Y-121405152D01*
X160994284Y-121405152D02*
X160994284Y-121519438D01*
X160994284Y-121519438D02*
X161032380Y-121671819D01*
X161032380Y-121671819D02*
X161070475Y-121748009D01*
X161070475Y-121748009D02*
X161146665Y-121824200D01*
X161146665Y-121824200D02*
X161260951Y-121862295D01*
X161260951Y-121862295D02*
X161451427Y-121862295D01*
X160689523Y-121633723D02*
X160308570Y-121633723D01*
X160765713Y-121862295D02*
X160499046Y-121062295D01*
X160499046Y-121062295D02*
X160232380Y-121862295D01*
X181174295Y-79969160D02*
X180374295Y-79969160D01*
X181174295Y-80350112D02*
X180374295Y-80350112D01*
X180374295Y-80350112D02*
X181174295Y-80807255D01*
X181174295Y-80807255D02*
X180374295Y-80807255D01*
X180412390Y-83208207D02*
X180374295Y-83132017D01*
X180374295Y-83132017D02*
X180374295Y-83017731D01*
X180374295Y-83017731D02*
X180412390Y-82903445D01*
X180412390Y-82903445D02*
X180488580Y-82827255D01*
X180488580Y-82827255D02*
X180564771Y-82789160D01*
X180564771Y-82789160D02*
X180717152Y-82751064D01*
X180717152Y-82751064D02*
X180831438Y-82751064D01*
X180831438Y-82751064D02*
X180983819Y-82789160D01*
X180983819Y-82789160D02*
X181060009Y-82827255D01*
X181060009Y-82827255D02*
X181136200Y-82903445D01*
X181136200Y-82903445D02*
X181174295Y-83017731D01*
X181174295Y-83017731D02*
X181174295Y-83093922D01*
X181174295Y-83093922D02*
X181136200Y-83208207D01*
X181136200Y-83208207D02*
X181098104Y-83246303D01*
X181098104Y-83246303D02*
X180831438Y-83246303D01*
X180831438Y-83246303D02*
X180831438Y-83093922D01*
X181174295Y-83589160D02*
X180374295Y-83589160D01*
X180374295Y-83589160D02*
X181174295Y-84046303D01*
X181174295Y-84046303D02*
X180374295Y-84046303D01*
X181174295Y-84427255D02*
X180374295Y-84427255D01*
X180374295Y-84427255D02*
X180374295Y-84617731D01*
X180374295Y-84617731D02*
X180412390Y-84732017D01*
X180412390Y-84732017D02*
X180488580Y-84808207D01*
X180488580Y-84808207D02*
X180564771Y-84846302D01*
X180564771Y-84846302D02*
X180717152Y-84884398D01*
X180717152Y-84884398D02*
X180831438Y-84884398D01*
X180831438Y-84884398D02*
X180983819Y-84846302D01*
X180983819Y-84846302D02*
X181060009Y-84808207D01*
X181060009Y-84808207D02*
X181136200Y-84732017D01*
X181136200Y-84732017D02*
X181174295Y-84617731D01*
X181174295Y-84617731D02*
X181174295Y-84427255D01*
X180374295Y-86700112D02*
X180374295Y-86319160D01*
X180374295Y-86319160D02*
X180755247Y-86281064D01*
X180755247Y-86281064D02*
X180717152Y-86319160D01*
X180717152Y-86319160D02*
X180679057Y-86395350D01*
X180679057Y-86395350D02*
X180679057Y-86585826D01*
X180679057Y-86585826D02*
X180717152Y-86662017D01*
X180717152Y-86662017D02*
X180755247Y-86700112D01*
X180755247Y-86700112D02*
X180831438Y-86738207D01*
X180831438Y-86738207D02*
X181021914Y-86738207D01*
X181021914Y-86738207D02*
X181098104Y-86700112D01*
X181098104Y-86700112D02*
X181136200Y-86662017D01*
X181136200Y-86662017D02*
X181174295Y-86585826D01*
X181174295Y-86585826D02*
X181174295Y-86395350D01*
X181174295Y-86395350D02*
X181136200Y-86319160D01*
X181136200Y-86319160D02*
X181098104Y-86281064D01*
X180374295Y-86966779D02*
X181174295Y-87233446D01*
X181174295Y-87233446D02*
X180374295Y-87500112D01*
%LPC*%
D11*
%TO.C,Q1*%
X161000000Y-106000000D03*
D12*
X159730000Y-106000000D03*
X158460000Y-106000000D03*
%TD*%
D13*
%TO.C,R6*%
X154299999Y-109780000D03*
X154299999Y-119940000D03*
%TD*%
D14*
%TO.C,H4*%
X178500000Y-122660000D03*
%TD*%
D15*
%TO.C,J3*%
X143000000Y-72500000D03*
D16*
X145540000Y-72500000D03*
X148080000Y-72500000D03*
X150620000Y-72500000D03*
%TD*%
D15*
%TO.C,J4*%
X178500000Y-81000000D03*
D16*
X178500000Y-83540000D03*
X178500000Y-86080000D03*
%TD*%
D14*
%TO.C,H3*%
X113500000Y-122660000D03*
%TD*%
D17*
%TO.C,TP3*%
X172500000Y-117000000D03*
%TD*%
D13*
%TO.C,C4*%
X143500000Y-119500000D03*
X148500000Y-119500000D03*
%TD*%
%TO.C,R3*%
X163600000Y-109780000D03*
X163600000Y-119940000D03*
%TD*%
D18*
%TO.C,C1*%
X168000000Y-85000000D03*
D13*
X170500000Y-85000000D03*
%TD*%
%TO.C,C2*%
X174500000Y-79000000D03*
X174500000Y-84000000D03*
%TD*%
D18*
%TO.C,C3*%
X144000000Y-114500000D03*
D13*
X146000000Y-114500000D03*
%TD*%
D19*
%TO.C,D3*%
X174000000Y-106000000D03*
D13*
X166380000Y-106000000D03*
%TD*%
D20*
%TO.C,D1*%
X159500000Y-73500000D03*
D21*
X156960000Y-73500000D03*
%TD*%
D14*
%TO.C,H2*%
X178500000Y-72500000D03*
%TD*%
D13*
%TO.C,R7*%
X157399999Y-109780000D03*
X157399999Y-119940000D03*
%TD*%
%TO.C,R9*%
X162300000Y-100500000D03*
X152140000Y-100500000D03*
%TD*%
D17*
%TO.C,TP1*%
X166000000Y-123160000D03*
%TD*%
D15*
%TO.C,J1*%
X143500000Y-123160000D03*
D16*
X146040000Y-123160000D03*
X148580000Y-123160000D03*
X151120000Y-123160000D03*
X153660000Y-123160000D03*
X156200000Y-123160000D03*
X158740000Y-123160000D03*
X161280000Y-123160000D03*
%TD*%
D13*
%TO.C,R8*%
X160500000Y-109780000D03*
X160500000Y-119940000D03*
%TD*%
D17*
%TO.C,TP2*%
X169500000Y-123160000D03*
%TD*%
D13*
%TO.C,R5*%
X166700000Y-109780000D03*
X166700000Y-119940000D03*
%TD*%
%TO.C,R1*%
X156500000Y-78500000D03*
X156500000Y-88660000D03*
%TD*%
%TO.C,R4*%
X151200000Y-109780000D03*
X151200000Y-119940000D03*
%TD*%
D15*
%TO.C,J2*%
X114000000Y-94160000D03*
D16*
X114000000Y-96700000D03*
X114000000Y-99240000D03*
X114000000Y-101780000D03*
X114000000Y-104320000D03*
X114000000Y-106860000D03*
X114000000Y-109400000D03*
X114000000Y-111940000D03*
%TD*%
D13*
%TO.C,R2*%
X164000000Y-78500000D03*
X164000000Y-88660000D03*
%TD*%
D14*
%TO.C,H1*%
X113500000Y-72500000D03*
%TD*%
D22*
%TO.C,A1*%
X124000000Y-84000000D03*
D23*
X124000000Y-86540000D03*
X124000000Y-89080000D03*
X124000000Y-91620000D03*
X124000000Y-94160000D03*
X124000000Y-96700000D03*
X124000000Y-99240000D03*
X124000000Y-101780000D03*
X124000000Y-104320000D03*
X124000000Y-106860000D03*
X124000000Y-109400000D03*
X124000000Y-111940000D03*
X124000000Y-114480000D03*
X124000000Y-117020000D03*
X124000000Y-119560000D03*
X139240000Y-119560000D03*
X139240000Y-117020000D03*
X139240000Y-114480000D03*
X139240000Y-111940000D03*
X139240000Y-109400000D03*
X139240000Y-106860000D03*
X139240000Y-104320000D03*
X139240000Y-101780000D03*
X139240000Y-99240000D03*
X139240000Y-96700000D03*
X139240000Y-94160000D03*
X139240000Y-91620000D03*
X139240000Y-89080000D03*
X139240000Y-86540000D03*
X139240000Y-84000000D03*
%TD*%
D20*
%TO.C,D2*%
X166000000Y-73500000D03*
D21*
X163460000Y-73500000D03*
%TD*%
D24*
%TO.C,BZ1*%
X174000000Y-97000000D03*
D17*
X166400000Y-97000000D03*
%TD*%
%LPD*%
M02*
