%TF.GenerationSoftware,KiCad,Pcbnew,10.0.0*%
%TF.CreationDate,2026-09-27T22:37:56+02:00*%
%TF.ProjectId,Zamek_RFID_Hardware,5a616d65-6b5f-4524-9649-445f48617264,rev?*%
%TF.SameCoordinates,Original*%
%TF.FileFunction,Legend,Top*%
%TF.FilePolarity,Positive*%
%FSLAX46Y46*%
G04 Gerber Fmt 4.6, Leading zero omitted, Abs format (unit mm)*
G04 Created by KiCad (PCBNEW 10.0.0) date 2026-09-27 22:37:56*
%MOMM*%
%LPD*%
G01*
G04 APERTURE LIST*
G04 Aperture macros list*
%AMRoundRect*
0 Rectangle with rounded corners*
0 $1 Rounding radius*
0 $2 $3 $4 $5 $6 $7 $8 $9 X,Y pos of 4 corners*
0 Add a 4 corners polygon primitive as box body*
4,1,4,$2,$3,$4,$5,$6,$7,$8,$9,$2,$3,0*
0 Add four circle primitives for the rounded corners*
1,1,$1+$1,$2,$3*
1,1,$1+$1,$4,$5*
1,1,$1+$1,$6,$7*
1,1,$1+$1,$8,$9*
0 Add four rect primitives between the rounded corners*
20,1,$1+$1,$2,$3,$4,$5,0*
20,1,$1+$1,$4,$5,$6,$7,0*
20,1,$1+$1,$6,$7,$8,$9,0*
20,1,$1+$1,$8,$9,$2,$3,0*%
G04 Aperture macros list end*
%ADD10C,0.150000*%
%ADD11C,0.120000*%
%ADD12R,1.050000X1.500000*%
%ADD13O,1.050000X1.500000*%
%ADD14C,1.600000*%
%ADD15C,3.200000*%
%ADD16R,1.700000X1.700000*%
%ADD17C,1.700000*%
%ADD18C,2.000000*%
%ADD19RoundRect,0.250000X-0.550000X-0.550000X0.550000X-0.550000X0.550000X0.550000X-0.550000X0.550000X0*%
%ADD20RoundRect,0.250000X0.550000X0.550000X-0.550000X0.550000X-0.550000X-0.550000X0.550000X-0.550000X0*%
%ADD21R,1.800000X1.800000*%
%ADD22C,1.800000*%
%ADD23R,1.600000X1.600000*%
%ADD24O,1.600000X1.600000*%
%ADD25R,2.000000X2.000000*%
G04 APERTURE END LIST*
D10*
X111789160Y-89894295D02*
X111789160Y-89094295D01*
X112246303Y-89894295D02*
X111903445Y-89437152D01*
X112246303Y-89094295D02*
X111789160Y-89551438D01*
X112589160Y-89475247D02*
X112855826Y-89475247D01*
X112970112Y-89894295D02*
X112589160Y-89894295D01*
X112589160Y-89894295D02*
X112589160Y-89094295D01*
X112589160Y-89094295D02*
X112970112Y-89094295D01*
X113465351Y-89513342D02*
X113465351Y-89894295D01*
X113198684Y-89094295D02*
X113465351Y-89513342D01*
X113465351Y-89513342D02*
X113732017Y-89094295D01*
X113998684Y-89894295D02*
X113998684Y-89094295D01*
X113998684Y-89094295D02*
X114303446Y-89094295D01*
X114303446Y-89094295D02*
X114379636Y-89132390D01*
X114379636Y-89132390D02*
X114417731Y-89170485D01*
X114417731Y-89170485D02*
X114455827Y-89246676D01*
X114455827Y-89246676D02*
X114455827Y-89360961D01*
X114455827Y-89360961D02*
X114417731Y-89437152D01*
X114417731Y-89437152D02*
X114379636Y-89475247D01*
X114379636Y-89475247D02*
X114303446Y-89513342D01*
X114303446Y-89513342D02*
X113998684Y-89513342D01*
X114760588Y-89665723D02*
X115141541Y-89665723D01*
X114684398Y-89894295D02*
X114951065Y-89094295D01*
X114951065Y-89094295D02*
X115217731Y-89894295D01*
X115484398Y-89894295D02*
X115484398Y-89094295D01*
X115484398Y-89094295D02*
X115674874Y-89094295D01*
X115674874Y-89094295D02*
X115789160Y-89132390D01*
X115789160Y-89132390D02*
X115865350Y-89208580D01*
X115865350Y-89208580D02*
X115903445Y-89284771D01*
X115903445Y-89284771D02*
X115941541Y-89437152D01*
X115941541Y-89437152D02*
X115941541Y-89551438D01*
X115941541Y-89551438D02*
X115903445Y-89703819D01*
X115903445Y-89703819D02*
X115865350Y-89780009D01*
X115865350Y-89780009D02*
X115789160Y-89856200D01*
X115789160Y-89856200D02*
X115674874Y-89894295D01*
X115674874Y-89894295D02*
X115484398Y-89894295D01*
X118751064Y-75356200D02*
X118865350Y-75394295D01*
X118865350Y-75394295D02*
X119055826Y-75394295D01*
X119055826Y-75394295D02*
X119132017Y-75356200D01*
X119132017Y-75356200D02*
X119170112Y-75318104D01*
X119170112Y-75318104D02*
X119208207Y-75241914D01*
X119208207Y-75241914D02*
X119208207Y-75165723D01*
X119208207Y-75165723D02*
X119170112Y-75089533D01*
X119170112Y-75089533D02*
X119132017Y-75051438D01*
X119132017Y-75051438D02*
X119055826Y-75013342D01*
X119055826Y-75013342D02*
X118903445Y-74975247D01*
X118903445Y-74975247D02*
X118827255Y-74937152D01*
X118827255Y-74937152D02*
X118789160Y-74899057D01*
X118789160Y-74899057D02*
X118751064Y-74822866D01*
X118751064Y-74822866D02*
X118751064Y-74746676D01*
X118751064Y-74746676D02*
X118789160Y-74670485D01*
X118789160Y-74670485D02*
X118827255Y-74632390D01*
X118827255Y-74632390D02*
X118903445Y-74594295D01*
X118903445Y-74594295D02*
X119093922Y-74594295D01*
X119093922Y-74594295D02*
X119208207Y-74632390D01*
X119551065Y-75394295D02*
X119551065Y-74594295D01*
X119551065Y-74594295D02*
X119817731Y-75165723D01*
X119817731Y-75165723D02*
X120084398Y-74594295D01*
X120084398Y-74594295D02*
X120084398Y-75394295D01*
X120427255Y-75165723D02*
X120808208Y-75165723D01*
X120351065Y-75394295D02*
X120617732Y-74594295D01*
X120617732Y-74594295D02*
X120884398Y-75394295D01*
X121608208Y-75394295D02*
X121341541Y-75013342D01*
X121151065Y-75394295D02*
X121151065Y-74594295D01*
X121151065Y-74594295D02*
X121455827Y-74594295D01*
X121455827Y-74594295D02*
X121532017Y-74632390D01*
X121532017Y-74632390D02*
X121570112Y-74670485D01*
X121570112Y-74670485D02*
X121608208Y-74746676D01*
X121608208Y-74746676D02*
X121608208Y-74860961D01*
X121608208Y-74860961D02*
X121570112Y-74937152D01*
X121570112Y-74937152D02*
X121532017Y-74975247D01*
X121532017Y-74975247D02*
X121455827Y-75013342D01*
X121455827Y-75013342D02*
X121151065Y-75013342D01*
X121836779Y-74594295D02*
X122293922Y-74594295D01*
X122065350Y-75394295D02*
X122065350Y-74594295D01*
X123132017Y-75165723D02*
X123512970Y-75165723D01*
X123055827Y-75394295D02*
X123322494Y-74594295D01*
X123322494Y-74594295D02*
X123589160Y-75394295D01*
X124312970Y-75318104D02*
X124274874Y-75356200D01*
X124274874Y-75356200D02*
X124160589Y-75394295D01*
X124160589Y-75394295D02*
X124084398Y-75394295D01*
X124084398Y-75394295D02*
X123970112Y-75356200D01*
X123970112Y-75356200D02*
X123893922Y-75280009D01*
X123893922Y-75280009D02*
X123855827Y-75203819D01*
X123855827Y-75203819D02*
X123817731Y-75051438D01*
X123817731Y-75051438D02*
X123817731Y-74937152D01*
X123817731Y-74937152D02*
X123855827Y-74784771D01*
X123855827Y-74784771D02*
X123893922Y-74708580D01*
X123893922Y-74708580D02*
X123970112Y-74632390D01*
X123970112Y-74632390D02*
X124084398Y-74594295D01*
X124084398Y-74594295D02*
X124160589Y-74594295D01*
X124160589Y-74594295D02*
X124274874Y-74632390D01*
X124274874Y-74632390D02*
X124312970Y-74670485D01*
X125112970Y-75318104D02*
X125074874Y-75356200D01*
X125074874Y-75356200D02*
X124960589Y-75394295D01*
X124960589Y-75394295D02*
X124884398Y-75394295D01*
X124884398Y-75394295D02*
X124770112Y-75356200D01*
X124770112Y-75356200D02*
X124693922Y-75280009D01*
X124693922Y-75280009D02*
X124655827Y-75203819D01*
X124655827Y-75203819D02*
X124617731Y-75051438D01*
X124617731Y-75051438D02*
X124617731Y-74937152D01*
X124617731Y-74937152D02*
X124655827Y-74784771D01*
X124655827Y-74784771D02*
X124693922Y-74708580D01*
X124693922Y-74708580D02*
X124770112Y-74632390D01*
X124770112Y-74632390D02*
X124884398Y-74594295D01*
X124884398Y-74594295D02*
X124960589Y-74594295D01*
X124960589Y-74594295D02*
X125074874Y-74632390D01*
X125074874Y-74632390D02*
X125112970Y-74670485D01*
X125455827Y-74975247D02*
X125722493Y-74975247D01*
X125836779Y-75394295D02*
X125455827Y-75394295D01*
X125455827Y-75394295D02*
X125455827Y-74594295D01*
X125455827Y-74594295D02*
X125836779Y-74594295D01*
X126141541Y-75356200D02*
X126255827Y-75394295D01*
X126255827Y-75394295D02*
X126446303Y-75394295D01*
X126446303Y-75394295D02*
X126522494Y-75356200D01*
X126522494Y-75356200D02*
X126560589Y-75318104D01*
X126560589Y-75318104D02*
X126598684Y-75241914D01*
X126598684Y-75241914D02*
X126598684Y-75165723D01*
X126598684Y-75165723D02*
X126560589Y-75089533D01*
X126560589Y-75089533D02*
X126522494Y-75051438D01*
X126522494Y-75051438D02*
X126446303Y-75013342D01*
X126446303Y-75013342D02*
X126293922Y-74975247D01*
X126293922Y-74975247D02*
X126217732Y-74937152D01*
X126217732Y-74937152D02*
X126179637Y-74899057D01*
X126179637Y-74899057D02*
X126141541Y-74822866D01*
X126141541Y-74822866D02*
X126141541Y-74746676D01*
X126141541Y-74746676D02*
X126179637Y-74670485D01*
X126179637Y-74670485D02*
X126217732Y-74632390D01*
X126217732Y-74632390D02*
X126293922Y-74594295D01*
X126293922Y-74594295D02*
X126484399Y-74594295D01*
X126484399Y-74594295D02*
X126598684Y-74632390D01*
X126903446Y-75356200D02*
X127017732Y-75394295D01*
X127017732Y-75394295D02*
X127208208Y-75394295D01*
X127208208Y-75394295D02*
X127284399Y-75356200D01*
X127284399Y-75356200D02*
X127322494Y-75318104D01*
X127322494Y-75318104D02*
X127360589Y-75241914D01*
X127360589Y-75241914D02*
X127360589Y-75165723D01*
X127360589Y-75165723D02*
X127322494Y-75089533D01*
X127322494Y-75089533D02*
X127284399Y-75051438D01*
X127284399Y-75051438D02*
X127208208Y-75013342D01*
X127208208Y-75013342D02*
X127055827Y-74975247D01*
X127055827Y-74975247D02*
X126979637Y-74937152D01*
X126979637Y-74937152D02*
X126941542Y-74899057D01*
X126941542Y-74899057D02*
X126903446Y-74822866D01*
X126903446Y-74822866D02*
X126903446Y-74746676D01*
X126903446Y-74746676D02*
X126941542Y-74670485D01*
X126941542Y-74670485D02*
X126979637Y-74632390D01*
X126979637Y-74632390D02*
X127055827Y-74594295D01*
X127055827Y-74594295D02*
X127246304Y-74594295D01*
X127246304Y-74594295D02*
X127360589Y-74632390D01*
X128236780Y-74860961D02*
X128427256Y-75394295D01*
X128427256Y-75394295D02*
X128617733Y-74860961D01*
X129341542Y-75394295D02*
X128884399Y-75394295D01*
X129112971Y-75394295D02*
X129112971Y-74594295D01*
X129112971Y-74594295D02*
X129036780Y-74708580D01*
X129036780Y-74708580D02*
X128960590Y-74784771D01*
X128960590Y-74784771D02*
X128884399Y-74822866D01*
X129684400Y-75318104D02*
X129722495Y-75356200D01*
X129722495Y-75356200D02*
X129684400Y-75394295D01*
X129684400Y-75394295D02*
X129646304Y-75356200D01*
X129646304Y-75356200D02*
X129684400Y-75318104D01*
X129684400Y-75318104D02*
X129684400Y-75394295D01*
X130484399Y-75394295D02*
X130027256Y-75394295D01*
X130255828Y-75394295D02*
X130255828Y-74594295D01*
X130255828Y-74594295D02*
X130179637Y-74708580D01*
X130179637Y-74708580D02*
X130103447Y-74784771D01*
X130103447Y-74784771D02*
X130027256Y-74822866D01*
X124251064Y-76670485D02*
X124289160Y-76632390D01*
X124289160Y-76632390D02*
X124365350Y-76594295D01*
X124365350Y-76594295D02*
X124555826Y-76594295D01*
X124555826Y-76594295D02*
X124632017Y-76632390D01*
X124632017Y-76632390D02*
X124670112Y-76670485D01*
X124670112Y-76670485D02*
X124708207Y-76746676D01*
X124708207Y-76746676D02*
X124708207Y-76822866D01*
X124708207Y-76822866D02*
X124670112Y-76937152D01*
X124670112Y-76937152D02*
X124212969Y-77394295D01*
X124212969Y-77394295D02*
X124708207Y-77394295D01*
X125203446Y-76594295D02*
X125279636Y-76594295D01*
X125279636Y-76594295D02*
X125355827Y-76632390D01*
X125355827Y-76632390D02*
X125393922Y-76670485D01*
X125393922Y-76670485D02*
X125432017Y-76746676D01*
X125432017Y-76746676D02*
X125470112Y-76899057D01*
X125470112Y-76899057D02*
X125470112Y-77089533D01*
X125470112Y-77089533D02*
X125432017Y-77241914D01*
X125432017Y-77241914D02*
X125393922Y-77318104D01*
X125393922Y-77318104D02*
X125355827Y-77356200D01*
X125355827Y-77356200D02*
X125279636Y-77394295D01*
X125279636Y-77394295D02*
X125203446Y-77394295D01*
X125203446Y-77394295D02*
X125127255Y-77356200D01*
X125127255Y-77356200D02*
X125089160Y-77318104D01*
X125089160Y-77318104D02*
X125051065Y-77241914D01*
X125051065Y-77241914D02*
X125012969Y-77089533D01*
X125012969Y-77089533D02*
X125012969Y-76899057D01*
X125012969Y-76899057D02*
X125051065Y-76746676D01*
X125051065Y-76746676D02*
X125089160Y-76670485D01*
X125089160Y-76670485D02*
X125127255Y-76632390D01*
X125127255Y-76632390D02*
X125203446Y-76594295D01*
X125774874Y-76670485D02*
X125812970Y-76632390D01*
X125812970Y-76632390D02*
X125889160Y-76594295D01*
X125889160Y-76594295D02*
X126079636Y-76594295D01*
X126079636Y-76594295D02*
X126155827Y-76632390D01*
X126155827Y-76632390D02*
X126193922Y-76670485D01*
X126193922Y-76670485D02*
X126232017Y-76746676D01*
X126232017Y-76746676D02*
X126232017Y-76822866D01*
X126232017Y-76822866D02*
X126193922Y-76937152D01*
X126193922Y-76937152D02*
X125736779Y-77394295D01*
X125736779Y-77394295D02*
X126232017Y-77394295D01*
X126917732Y-76594295D02*
X126765351Y-76594295D01*
X126765351Y-76594295D02*
X126689160Y-76632390D01*
X126689160Y-76632390D02*
X126651065Y-76670485D01*
X126651065Y-76670485D02*
X126574875Y-76784771D01*
X126574875Y-76784771D02*
X126536779Y-76937152D01*
X126536779Y-76937152D02*
X126536779Y-77241914D01*
X126536779Y-77241914D02*
X126574875Y-77318104D01*
X126574875Y-77318104D02*
X126612970Y-77356200D01*
X126612970Y-77356200D02*
X126689160Y-77394295D01*
X126689160Y-77394295D02*
X126841541Y-77394295D01*
X126841541Y-77394295D02*
X126917732Y-77356200D01*
X126917732Y-77356200D02*
X126955827Y-77318104D01*
X126955827Y-77318104D02*
X126993922Y-77241914D01*
X126993922Y-77241914D02*
X126993922Y-77051438D01*
X126993922Y-77051438D02*
X126955827Y-76975247D01*
X126955827Y-76975247D02*
X126917732Y-76937152D01*
X126917732Y-76937152D02*
X126841541Y-76899057D01*
X126841541Y-76899057D02*
X126689160Y-76899057D01*
X126689160Y-76899057D02*
X126612970Y-76937152D01*
X126612970Y-76937152D02*
X126574875Y-76975247D01*
X126574875Y-76975247D02*
X126536779Y-77051438D01*
X127336780Y-77318104D02*
X127374875Y-77356200D01*
X127374875Y-77356200D02*
X127336780Y-77394295D01*
X127336780Y-77394295D02*
X127298684Y-77356200D01*
X127298684Y-77356200D02*
X127336780Y-77318104D01*
X127336780Y-77318104D02*
X127336780Y-77394295D01*
X127870113Y-76594295D02*
X127946303Y-76594295D01*
X127946303Y-76594295D02*
X128022494Y-76632390D01*
X128022494Y-76632390D02*
X128060589Y-76670485D01*
X128060589Y-76670485D02*
X128098684Y-76746676D01*
X128098684Y-76746676D02*
X128136779Y-76899057D01*
X128136779Y-76899057D02*
X128136779Y-77089533D01*
X128136779Y-77089533D02*
X128098684Y-77241914D01*
X128098684Y-77241914D02*
X128060589Y-77318104D01*
X128060589Y-77318104D02*
X128022494Y-77356200D01*
X128022494Y-77356200D02*
X127946303Y-77394295D01*
X127946303Y-77394295D02*
X127870113Y-77394295D01*
X127870113Y-77394295D02*
X127793922Y-77356200D01*
X127793922Y-77356200D02*
X127755827Y-77318104D01*
X127755827Y-77318104D02*
X127717732Y-77241914D01*
X127717732Y-77241914D02*
X127679636Y-77089533D01*
X127679636Y-77089533D02*
X127679636Y-76899057D01*
X127679636Y-76899057D02*
X127717732Y-76746676D01*
X127717732Y-76746676D02*
X127755827Y-76670485D01*
X127755827Y-76670485D02*
X127793922Y-76632390D01*
X127793922Y-76632390D02*
X127870113Y-76594295D01*
X128517732Y-77394295D02*
X128670113Y-77394295D01*
X128670113Y-77394295D02*
X128746303Y-77356200D01*
X128746303Y-77356200D02*
X128784399Y-77318104D01*
X128784399Y-77318104D02*
X128860589Y-77203819D01*
X128860589Y-77203819D02*
X128898684Y-77051438D01*
X128898684Y-77051438D02*
X128898684Y-76746676D01*
X128898684Y-76746676D02*
X128860589Y-76670485D01*
X128860589Y-76670485D02*
X128822494Y-76632390D01*
X128822494Y-76632390D02*
X128746303Y-76594295D01*
X128746303Y-76594295D02*
X128593922Y-76594295D01*
X128593922Y-76594295D02*
X128517732Y-76632390D01*
X128517732Y-76632390D02*
X128479637Y-76670485D01*
X128479637Y-76670485D02*
X128441541Y-76746676D01*
X128441541Y-76746676D02*
X128441541Y-76937152D01*
X128441541Y-76937152D02*
X128479637Y-77013342D01*
X128479637Y-77013342D02*
X128517732Y-77051438D01*
X128517732Y-77051438D02*
X128593922Y-77089533D01*
X128593922Y-77089533D02*
X128746303Y-77089533D01*
X128746303Y-77089533D02*
X128822494Y-77051438D01*
X128822494Y-77051438D02*
X128860589Y-77013342D01*
X128860589Y-77013342D02*
X128898684Y-76937152D01*
X131170112Y-72894295D02*
X130789160Y-72894295D01*
X130789160Y-72894295D02*
X130789160Y-72094295D01*
X131893922Y-72818104D02*
X131855826Y-72856200D01*
X131855826Y-72856200D02*
X131741541Y-72894295D01*
X131741541Y-72894295D02*
X131665350Y-72894295D01*
X131665350Y-72894295D02*
X131551064Y-72856200D01*
X131551064Y-72856200D02*
X131474874Y-72780009D01*
X131474874Y-72780009D02*
X131436779Y-72703819D01*
X131436779Y-72703819D02*
X131398683Y-72551438D01*
X131398683Y-72551438D02*
X131398683Y-72437152D01*
X131398683Y-72437152D02*
X131436779Y-72284771D01*
X131436779Y-72284771D02*
X131474874Y-72208580D01*
X131474874Y-72208580D02*
X131551064Y-72132390D01*
X131551064Y-72132390D02*
X131665350Y-72094295D01*
X131665350Y-72094295D02*
X131741541Y-72094295D01*
X131741541Y-72094295D02*
X131855826Y-72132390D01*
X131855826Y-72132390D02*
X131893922Y-72170485D01*
X132236779Y-72894295D02*
X132236779Y-72094295D01*
X132236779Y-72094295D02*
X132427255Y-72094295D01*
X132427255Y-72094295D02*
X132541541Y-72132390D01*
X132541541Y-72132390D02*
X132617731Y-72208580D01*
X132617731Y-72208580D02*
X132655826Y-72284771D01*
X132655826Y-72284771D02*
X132693922Y-72437152D01*
X132693922Y-72437152D02*
X132693922Y-72551438D01*
X132693922Y-72551438D02*
X132655826Y-72703819D01*
X132655826Y-72703819D02*
X132617731Y-72780009D01*
X132617731Y-72780009D02*
X132541541Y-72856200D01*
X132541541Y-72856200D02*
X132427255Y-72894295D01*
X132427255Y-72894295D02*
X132236779Y-72894295D01*
X133646303Y-72894295D02*
X133646303Y-72094295D01*
X133989159Y-72170485D02*
X134027255Y-72132390D01*
X134027255Y-72132390D02*
X134103445Y-72094295D01*
X134103445Y-72094295D02*
X134293921Y-72094295D01*
X134293921Y-72094295D02*
X134370112Y-72132390D01*
X134370112Y-72132390D02*
X134408207Y-72170485D01*
X134408207Y-72170485D02*
X134446302Y-72246676D01*
X134446302Y-72246676D02*
X134446302Y-72322866D01*
X134446302Y-72322866D02*
X134408207Y-72437152D01*
X134408207Y-72437152D02*
X133951064Y-72894295D01*
X133951064Y-72894295D02*
X134446302Y-72894295D01*
X135246303Y-72818104D02*
X135208207Y-72856200D01*
X135208207Y-72856200D02*
X135093922Y-72894295D01*
X135093922Y-72894295D02*
X135017731Y-72894295D01*
X135017731Y-72894295D02*
X134903445Y-72856200D01*
X134903445Y-72856200D02*
X134827255Y-72780009D01*
X134827255Y-72780009D02*
X134789160Y-72703819D01*
X134789160Y-72703819D02*
X134751064Y-72551438D01*
X134751064Y-72551438D02*
X134751064Y-72437152D01*
X134751064Y-72437152D02*
X134789160Y-72284771D01*
X134789160Y-72284771D02*
X134827255Y-72208580D01*
X134827255Y-72208580D02*
X134903445Y-72132390D01*
X134903445Y-72132390D02*
X135017731Y-72094295D01*
X135017731Y-72094295D02*
X135093922Y-72094295D01*
X135093922Y-72094295D02*
X135208207Y-72132390D01*
X135208207Y-72132390D02*
X135246303Y-72170485D01*
X137246303Y-124894295D02*
X136979636Y-124513342D01*
X136789160Y-124894295D02*
X136789160Y-124094295D01*
X136789160Y-124094295D02*
X137093922Y-124094295D01*
X137093922Y-124094295D02*
X137170112Y-124132390D01*
X137170112Y-124132390D02*
X137208207Y-124170485D01*
X137208207Y-124170485D02*
X137246303Y-124246676D01*
X137246303Y-124246676D02*
X137246303Y-124360961D01*
X137246303Y-124360961D02*
X137208207Y-124437152D01*
X137208207Y-124437152D02*
X137170112Y-124475247D01*
X137170112Y-124475247D02*
X137093922Y-124513342D01*
X137093922Y-124513342D02*
X136789160Y-124513342D01*
X137855826Y-124475247D02*
X137589160Y-124475247D01*
X137589160Y-124894295D02*
X137589160Y-124094295D01*
X137589160Y-124094295D02*
X137970112Y-124094295D01*
X138274874Y-124894295D02*
X138274874Y-124094295D01*
X138655826Y-124894295D02*
X138655826Y-124094295D01*
X138655826Y-124094295D02*
X138846302Y-124094295D01*
X138846302Y-124094295D02*
X138960588Y-124132390D01*
X138960588Y-124132390D02*
X139036778Y-124208580D01*
X139036778Y-124208580D02*
X139074873Y-124284771D01*
X139074873Y-124284771D02*
X139112969Y-124437152D01*
X139112969Y-124437152D02*
X139112969Y-124551438D01*
X139112969Y-124551438D02*
X139074873Y-124703819D01*
X139074873Y-124703819D02*
X139036778Y-124780009D01*
X139036778Y-124780009D02*
X138960588Y-124856200D01*
X138960588Y-124856200D02*
X138846302Y-124894295D01*
X138846302Y-124894295D02*
X138655826Y-124894295D01*
X175246303Y-91894295D02*
X174979636Y-91513342D01*
X174789160Y-91894295D02*
X174789160Y-91094295D01*
X174789160Y-91094295D02*
X175093922Y-91094295D01*
X175093922Y-91094295D02*
X175170112Y-91132390D01*
X175170112Y-91132390D02*
X175208207Y-91170485D01*
X175208207Y-91170485D02*
X175246303Y-91246676D01*
X175246303Y-91246676D02*
X175246303Y-91360961D01*
X175246303Y-91360961D02*
X175208207Y-91437152D01*
X175208207Y-91437152D02*
X175170112Y-91475247D01*
X175170112Y-91475247D02*
X175093922Y-91513342D01*
X175093922Y-91513342D02*
X174789160Y-91513342D01*
X175589160Y-91475247D02*
X175855826Y-91475247D01*
X175970112Y-91894295D02*
X175589160Y-91894295D01*
X175589160Y-91894295D02*
X175589160Y-91094295D01*
X175589160Y-91094295D02*
X175970112Y-91094295D01*
X176693922Y-91894295D02*
X176312970Y-91894295D01*
X176312970Y-91894295D02*
X176312970Y-91094295D01*
X176922493Y-91665723D02*
X177303446Y-91665723D01*
X176846303Y-91894295D02*
X177112970Y-91094295D01*
X177112970Y-91094295D02*
X177379636Y-91894295D01*
X177798684Y-91513342D02*
X177798684Y-91894295D01*
X177532017Y-91094295D02*
X177798684Y-91513342D01*
X177798684Y-91513342D02*
X178065350Y-91094295D01*
X155059761Y-106910057D02*
X154964523Y-106862438D01*
X154964523Y-106862438D02*
X154869285Y-106767200D01*
X154869285Y-106767200D02*
X154726428Y-106624342D01*
X154726428Y-106624342D02*
X154631190Y-106576723D01*
X154631190Y-106576723D02*
X154535952Y-106576723D01*
X154583571Y-106814819D02*
X154488333Y-106767200D01*
X154488333Y-106767200D02*
X154393095Y-106671961D01*
X154393095Y-106671961D02*
X154345476Y-106481485D01*
X154345476Y-106481485D02*
X154345476Y-106148152D01*
X154345476Y-106148152D02*
X154393095Y-105957676D01*
X154393095Y-105957676D02*
X154488333Y-105862438D01*
X154488333Y-105862438D02*
X154583571Y-105814819D01*
X154583571Y-105814819D02*
X154774047Y-105814819D01*
X154774047Y-105814819D02*
X154869285Y-105862438D01*
X154869285Y-105862438D02*
X154964523Y-105957676D01*
X154964523Y-105957676D02*
X155012142Y-106148152D01*
X155012142Y-106148152D02*
X155012142Y-106481485D01*
X155012142Y-106481485D02*
X154964523Y-106671961D01*
X154964523Y-106671961D02*
X154869285Y-106767200D01*
X154869285Y-106767200D02*
X154774047Y-106814819D01*
X154774047Y-106814819D02*
X154583571Y-106814819D01*
X155964523Y-106814819D02*
X155393095Y-106814819D01*
X155678809Y-106814819D02*
X155678809Y-105814819D01*
X155678809Y-105814819D02*
X155583571Y-105957676D01*
X155583571Y-105957676D02*
X155488333Y-106052914D01*
X155488333Y-106052914D02*
X155393095Y-106100533D01*
X154754818Y-115026666D02*
X154278627Y-115359999D01*
X154754818Y-115598094D02*
X153754818Y-115598094D01*
X153754818Y-115598094D02*
X153754818Y-115217142D01*
X153754818Y-115217142D02*
X153802437Y-115121904D01*
X153802437Y-115121904D02*
X153850056Y-115074285D01*
X153850056Y-115074285D02*
X153945294Y-115026666D01*
X153945294Y-115026666D02*
X154088151Y-115026666D01*
X154088151Y-115026666D02*
X154183389Y-115074285D01*
X154183389Y-115074285D02*
X154231008Y-115121904D01*
X154231008Y-115121904D02*
X154278627Y-115217142D01*
X154278627Y-115217142D02*
X154278627Y-115598094D01*
X153754818Y-114169523D02*
X153754818Y-114359999D01*
X153754818Y-114359999D02*
X153802437Y-114455237D01*
X153802437Y-114455237D02*
X153850056Y-114502856D01*
X153850056Y-114502856D02*
X153992913Y-114598094D01*
X153992913Y-114598094D02*
X154183389Y-114645713D01*
X154183389Y-114645713D02*
X154564341Y-114645713D01*
X154564341Y-114645713D02*
X154659579Y-114598094D01*
X154659579Y-114598094D02*
X154707199Y-114550475D01*
X154707199Y-114550475D02*
X154754818Y-114455237D01*
X154754818Y-114455237D02*
X154754818Y-114264761D01*
X154754818Y-114264761D02*
X154707199Y-114169523D01*
X154707199Y-114169523D02*
X154659579Y-114121904D01*
X154659579Y-114121904D02*
X154564341Y-114074285D01*
X154564341Y-114074285D02*
X154326246Y-114074285D01*
X154326246Y-114074285D02*
X154231008Y-114121904D01*
X154231008Y-114121904D02*
X154183389Y-114169523D01*
X154183389Y-114169523D02*
X154135770Y-114264761D01*
X154135770Y-114264761D02*
X154135770Y-114455237D01*
X154135770Y-114455237D02*
X154183389Y-114550475D01*
X154183389Y-114550475D02*
X154231008Y-114598094D01*
X154231008Y-114598094D02*
X154326246Y-114645713D01*
X172445625Y-123114819D02*
X172445625Y-122114819D01*
X172445625Y-122591009D02*
X173017053Y-122591009D01*
X173017053Y-123114819D02*
X173017053Y-122114819D01*
X173921815Y-122448152D02*
X173921815Y-123114819D01*
X173683720Y-122067200D02*
X173445625Y-122781485D01*
X173445625Y-122781485D02*
X174064672Y-122781485D01*
X146476666Y-74669819D02*
X146476666Y-75384104D01*
X146476666Y-75384104D02*
X146429047Y-75526961D01*
X146429047Y-75526961D02*
X146333809Y-75622200D01*
X146333809Y-75622200D02*
X146190952Y-75669819D01*
X146190952Y-75669819D02*
X146095714Y-75669819D01*
X146857619Y-74669819D02*
X147476666Y-74669819D01*
X147476666Y-74669819D02*
X147143333Y-75050771D01*
X147143333Y-75050771D02*
X147286190Y-75050771D01*
X147286190Y-75050771D02*
X147381428Y-75098390D01*
X147381428Y-75098390D02*
X147429047Y-75146009D01*
X147429047Y-75146009D02*
X147476666Y-75241247D01*
X147476666Y-75241247D02*
X147476666Y-75479342D01*
X147476666Y-75479342D02*
X147429047Y-75574580D01*
X147429047Y-75574580D02*
X147381428Y-75622200D01*
X147381428Y-75622200D02*
X147286190Y-75669819D01*
X147286190Y-75669819D02*
X147000476Y-75669819D01*
X147000476Y-75669819D02*
X146905238Y-75622200D01*
X146905238Y-75622200D02*
X146857619Y-75574580D01*
X178166666Y-77739819D02*
X178166666Y-78454104D01*
X178166666Y-78454104D02*
X178119047Y-78596961D01*
X178119047Y-78596961D02*
X178023809Y-78692200D01*
X178023809Y-78692200D02*
X177880952Y-78739819D01*
X177880952Y-78739819D02*
X177785714Y-78739819D01*
X179071428Y-78073152D02*
X179071428Y-78739819D01*
X178833333Y-77692200D02*
X178595238Y-78406485D01*
X178595238Y-78406485D02*
X179214285Y-78406485D01*
X118033094Y-123114819D02*
X118033094Y-122114819D01*
X118033094Y-122591009D02*
X118604522Y-122591009D01*
X118604522Y-123114819D02*
X118604522Y-122114819D01*
X118985475Y-122114819D02*
X119604522Y-122114819D01*
X119604522Y-122114819D02*
X119271189Y-122495771D01*
X119271189Y-122495771D02*
X119414046Y-122495771D01*
X119414046Y-122495771D02*
X119509284Y-122543390D01*
X119509284Y-122543390D02*
X119556903Y-122591009D01*
X119556903Y-122591009D02*
X119604522Y-122686247D01*
X119604522Y-122686247D02*
X119604522Y-122924342D01*
X119604522Y-122924342D02*
X119556903Y-123019580D01*
X119556903Y-123019580D02*
X119509284Y-123067200D01*
X119509284Y-123067200D02*
X119414046Y-123114819D01*
X119414046Y-123114819D02*
X119128332Y-123114819D01*
X119128332Y-123114819D02*
X119033094Y-123067200D01*
X119033094Y-123067200D02*
X118985475Y-123019580D01*
X171239375Y-114007266D02*
X171810803Y-114007266D01*
X171525089Y-115007266D02*
X171525089Y-114007266D01*
X172144137Y-115007266D02*
X172144137Y-114007266D01*
X172144137Y-114007266D02*
X172525089Y-114007266D01*
X172525089Y-114007266D02*
X172620327Y-114054885D01*
X172620327Y-114054885D02*
X172667946Y-114102504D01*
X172667946Y-114102504D02*
X172715565Y-114197742D01*
X172715565Y-114197742D02*
X172715565Y-114340599D01*
X172715565Y-114340599D02*
X172667946Y-114435837D01*
X172667946Y-114435837D02*
X172620327Y-114483456D01*
X172620327Y-114483456D02*
X172525089Y-114531075D01*
X172525089Y-114531075D02*
X172144137Y-114531075D01*
X173048899Y-114007266D02*
X173667946Y-114007266D01*
X173667946Y-114007266D02*
X173334613Y-114388218D01*
X173334613Y-114388218D02*
X173477470Y-114388218D01*
X173477470Y-114388218D02*
X173572708Y-114435837D01*
X173572708Y-114435837D02*
X173620327Y-114483456D01*
X173620327Y-114483456D02*
X173667946Y-114578694D01*
X173667946Y-114578694D02*
X173667946Y-114816789D01*
X173667946Y-114816789D02*
X173620327Y-114912027D01*
X173620327Y-114912027D02*
X173572708Y-114959647D01*
X173572708Y-114959647D02*
X173477470Y-115007266D01*
X173477470Y-115007266D02*
X173191756Y-115007266D01*
X173191756Y-115007266D02*
X173096518Y-114959647D01*
X173096518Y-114959647D02*
X173048899Y-114912027D01*
X145833333Y-119859580D02*
X145785714Y-119907200D01*
X145785714Y-119907200D02*
X145642857Y-119954819D01*
X145642857Y-119954819D02*
X145547619Y-119954819D01*
X145547619Y-119954819D02*
X145404762Y-119907200D01*
X145404762Y-119907200D02*
X145309524Y-119811961D01*
X145309524Y-119811961D02*
X145261905Y-119716723D01*
X145261905Y-119716723D02*
X145214286Y-119526247D01*
X145214286Y-119526247D02*
X145214286Y-119383390D01*
X145214286Y-119383390D02*
X145261905Y-119192914D01*
X145261905Y-119192914D02*
X145309524Y-119097676D01*
X145309524Y-119097676D02*
X145404762Y-119002438D01*
X145404762Y-119002438D02*
X145547619Y-118954819D01*
X145547619Y-118954819D02*
X145642857Y-118954819D01*
X145642857Y-118954819D02*
X145785714Y-119002438D01*
X145785714Y-119002438D02*
X145833333Y-119050057D01*
X146690476Y-119288152D02*
X146690476Y-119954819D01*
X146452381Y-118907200D02*
X146214286Y-119621485D01*
X146214286Y-119621485D02*
X146833333Y-119621485D01*
X164054819Y-115026666D02*
X163578628Y-115359999D01*
X164054819Y-115598094D02*
X163054819Y-115598094D01*
X163054819Y-115598094D02*
X163054819Y-115217142D01*
X163054819Y-115217142D02*
X163102438Y-115121904D01*
X163102438Y-115121904D02*
X163150057Y-115074285D01*
X163150057Y-115074285D02*
X163245295Y-115026666D01*
X163245295Y-115026666D02*
X163388152Y-115026666D01*
X163388152Y-115026666D02*
X163483390Y-115074285D01*
X163483390Y-115074285D02*
X163531009Y-115121904D01*
X163531009Y-115121904D02*
X163578628Y-115217142D01*
X163578628Y-115217142D02*
X163578628Y-115598094D01*
X163054819Y-114693332D02*
X163054819Y-114074285D01*
X163054819Y-114074285D02*
X163435771Y-114407618D01*
X163435771Y-114407618D02*
X163435771Y-114264761D01*
X163435771Y-114264761D02*
X163483390Y-114169523D01*
X163483390Y-114169523D02*
X163531009Y-114121904D01*
X163531009Y-114121904D02*
X163626247Y-114074285D01*
X163626247Y-114074285D02*
X163864342Y-114074285D01*
X163864342Y-114074285D02*
X163959580Y-114121904D01*
X163959580Y-114121904D02*
X164007200Y-114169523D01*
X164007200Y-114169523D02*
X164054819Y-114264761D01*
X164054819Y-114264761D02*
X164054819Y-114550475D01*
X164054819Y-114550475D02*
X164007200Y-114645713D01*
X164007200Y-114645713D02*
X163959580Y-114693332D01*
X169084578Y-80512089D02*
X169036959Y-80559709D01*
X169036959Y-80559709D02*
X168894102Y-80607328D01*
X168894102Y-80607328D02*
X168798864Y-80607328D01*
X168798864Y-80607328D02*
X168656007Y-80559709D01*
X168656007Y-80559709D02*
X168560769Y-80464470D01*
X168560769Y-80464470D02*
X168513150Y-80369232D01*
X168513150Y-80369232D02*
X168465531Y-80178756D01*
X168465531Y-80178756D02*
X168465531Y-80035899D01*
X168465531Y-80035899D02*
X168513150Y-79845423D01*
X168513150Y-79845423D02*
X168560769Y-79750185D01*
X168560769Y-79750185D02*
X168656007Y-79654947D01*
X168656007Y-79654947D02*
X168798864Y-79607328D01*
X168798864Y-79607328D02*
X168894102Y-79607328D01*
X168894102Y-79607328D02*
X169036959Y-79654947D01*
X169036959Y-79654947D02*
X169084578Y-79702566D01*
X170036959Y-80607328D02*
X169465531Y-80607328D01*
X169751245Y-80607328D02*
X169751245Y-79607328D01*
X169751245Y-79607328D02*
X169656007Y-79750185D01*
X169656007Y-79750185D02*
X169560769Y-79845423D01*
X169560769Y-79845423D02*
X169465531Y-79893042D01*
X174333333Y-86854580D02*
X174285714Y-86902200D01*
X174285714Y-86902200D02*
X174142857Y-86949819D01*
X174142857Y-86949819D02*
X174047619Y-86949819D01*
X174047619Y-86949819D02*
X173904762Y-86902200D01*
X173904762Y-86902200D02*
X173809524Y-86806961D01*
X173809524Y-86806961D02*
X173761905Y-86711723D01*
X173761905Y-86711723D02*
X173714286Y-86521247D01*
X173714286Y-86521247D02*
X173714286Y-86378390D01*
X173714286Y-86378390D02*
X173761905Y-86187914D01*
X173761905Y-86187914D02*
X173809524Y-86092676D01*
X173809524Y-86092676D02*
X173904762Y-85997438D01*
X173904762Y-85997438D02*
X174047619Y-85949819D01*
X174047619Y-85949819D02*
X174142857Y-85949819D01*
X174142857Y-85949819D02*
X174285714Y-85997438D01*
X174285714Y-85997438D02*
X174333333Y-86045057D01*
X174714286Y-86045057D02*
X174761905Y-85997438D01*
X174761905Y-85997438D02*
X174857143Y-85949819D01*
X174857143Y-85949819D02*
X175095238Y-85949819D01*
X175095238Y-85949819D02*
X175190476Y-85997438D01*
X175190476Y-85997438D02*
X175238095Y-86045057D01*
X175238095Y-86045057D02*
X175285714Y-86140295D01*
X175285714Y-86140295D02*
X175285714Y-86235533D01*
X175285714Y-86235533D02*
X175238095Y-86378390D01*
X175238095Y-86378390D02*
X174666667Y-86949819D01*
X174666667Y-86949819D02*
X175285714Y-86949819D01*
X144834587Y-110667089D02*
X144786968Y-110714709D01*
X144786968Y-110714709D02*
X144644111Y-110762328D01*
X144644111Y-110762328D02*
X144548873Y-110762328D01*
X144548873Y-110762328D02*
X144406016Y-110714709D01*
X144406016Y-110714709D02*
X144310778Y-110619470D01*
X144310778Y-110619470D02*
X144263159Y-110524232D01*
X144263159Y-110524232D02*
X144215540Y-110333756D01*
X144215540Y-110333756D02*
X144215540Y-110190899D01*
X144215540Y-110190899D02*
X144263159Y-110000423D01*
X144263159Y-110000423D02*
X144310778Y-109905185D01*
X144310778Y-109905185D02*
X144406016Y-109809947D01*
X144406016Y-109809947D02*
X144548873Y-109762328D01*
X144548873Y-109762328D02*
X144644111Y-109762328D01*
X144644111Y-109762328D02*
X144786968Y-109809947D01*
X144786968Y-109809947D02*
X144834587Y-109857566D01*
X145167921Y-109762328D02*
X145786968Y-109762328D01*
X145786968Y-109762328D02*
X145453635Y-110143280D01*
X145453635Y-110143280D02*
X145596492Y-110143280D01*
X145596492Y-110143280D02*
X145691730Y-110190899D01*
X145691730Y-110190899D02*
X145739349Y-110238518D01*
X145739349Y-110238518D02*
X145786968Y-110333756D01*
X145786968Y-110333756D02*
X145786968Y-110571851D01*
X145786968Y-110571851D02*
X145739349Y-110667089D01*
X145739349Y-110667089D02*
X145691730Y-110714709D01*
X145691730Y-110714709D02*
X145596492Y-110762328D01*
X145596492Y-110762328D02*
X145310778Y-110762328D01*
X145310778Y-110762328D02*
X145215540Y-110714709D01*
X145215540Y-110714709D02*
X145167921Y-110667089D01*
X176156905Y-106454819D02*
X176156905Y-105454819D01*
X176156905Y-105454819D02*
X176395000Y-105454819D01*
X176395000Y-105454819D02*
X176537857Y-105502438D01*
X176537857Y-105502438D02*
X176633095Y-105597676D01*
X176633095Y-105597676D02*
X176680714Y-105692914D01*
X176680714Y-105692914D02*
X176728333Y-105883390D01*
X176728333Y-105883390D02*
X176728333Y-106026247D01*
X176728333Y-106026247D02*
X176680714Y-106216723D01*
X176680714Y-106216723D02*
X176633095Y-106311961D01*
X176633095Y-106311961D02*
X176537857Y-106407200D01*
X176537857Y-106407200D02*
X176395000Y-106454819D01*
X176395000Y-106454819D02*
X176156905Y-106454819D01*
X177061667Y-105454819D02*
X177680714Y-105454819D01*
X177680714Y-105454819D02*
X177347381Y-105835771D01*
X177347381Y-105835771D02*
X177490238Y-105835771D01*
X177490238Y-105835771D02*
X177585476Y-105883390D01*
X177585476Y-105883390D02*
X177633095Y-105931009D01*
X177633095Y-105931009D02*
X177680714Y-106026247D01*
X177680714Y-106026247D02*
X177680714Y-106264342D01*
X177680714Y-106264342D02*
X177633095Y-106359580D01*
X177633095Y-106359580D02*
X177585476Y-106407200D01*
X177585476Y-106407200D02*
X177490238Y-106454819D01*
X177490238Y-106454819D02*
X177204524Y-106454819D01*
X177204524Y-106454819D02*
X177109286Y-106407200D01*
X177109286Y-106407200D02*
X177061667Y-106359580D01*
X173738095Y-108254819D02*
X173738095Y-107254819D01*
X174309523Y-108254819D02*
X173880952Y-107683390D01*
X174309523Y-107254819D02*
X173738095Y-107826247D01*
X153161905Y-73954819D02*
X153161905Y-72954819D01*
X153161905Y-72954819D02*
X153400000Y-72954819D01*
X153400000Y-72954819D02*
X153542857Y-73002438D01*
X153542857Y-73002438D02*
X153638095Y-73097676D01*
X153638095Y-73097676D02*
X153685714Y-73192914D01*
X153685714Y-73192914D02*
X153733333Y-73383390D01*
X153733333Y-73383390D02*
X153733333Y-73526247D01*
X153733333Y-73526247D02*
X153685714Y-73716723D01*
X153685714Y-73716723D02*
X153638095Y-73811961D01*
X153638095Y-73811961D02*
X153542857Y-73907200D01*
X153542857Y-73907200D02*
X153400000Y-73954819D01*
X153400000Y-73954819D02*
X153161905Y-73954819D01*
X154685714Y-73954819D02*
X154114286Y-73954819D01*
X154400000Y-73954819D02*
X154400000Y-72954819D01*
X154400000Y-72954819D02*
X154304762Y-73097676D01*
X154304762Y-73097676D02*
X154209524Y-73192914D01*
X154209524Y-73192914D02*
X154114286Y-73240533D01*
X172445625Y-72954819D02*
X172445625Y-71954819D01*
X172445625Y-72431009D02*
X173017053Y-72431009D01*
X173017053Y-72954819D02*
X173017053Y-71954819D01*
X173445625Y-72050057D02*
X173493244Y-72002438D01*
X173493244Y-72002438D02*
X173588482Y-71954819D01*
X173588482Y-71954819D02*
X173826577Y-71954819D01*
X173826577Y-71954819D02*
X173921815Y-72002438D01*
X173921815Y-72002438D02*
X173969434Y-72050057D01*
X173969434Y-72050057D02*
X174017053Y-72145295D01*
X174017053Y-72145295D02*
X174017053Y-72240533D01*
X174017053Y-72240533D02*
X173969434Y-72383390D01*
X173969434Y-72383390D02*
X173398006Y-72954819D01*
X173398006Y-72954819D02*
X174017053Y-72954819D01*
X157854817Y-115026666D02*
X157378626Y-115359999D01*
X157854817Y-115598094D02*
X156854817Y-115598094D01*
X156854817Y-115598094D02*
X156854817Y-115217142D01*
X156854817Y-115217142D02*
X156902436Y-115121904D01*
X156902436Y-115121904D02*
X156950055Y-115074285D01*
X156950055Y-115074285D02*
X157045293Y-115026666D01*
X157045293Y-115026666D02*
X157188150Y-115026666D01*
X157188150Y-115026666D02*
X157283388Y-115074285D01*
X157283388Y-115074285D02*
X157331007Y-115121904D01*
X157331007Y-115121904D02*
X157378626Y-115217142D01*
X157378626Y-115217142D02*
X157378626Y-115598094D01*
X156854817Y-114693332D02*
X156854817Y-114026666D01*
X156854817Y-114026666D02*
X157854817Y-114455237D01*
X149078332Y-100954819D02*
X148744999Y-100478628D01*
X148506904Y-100954819D02*
X148506904Y-99954819D01*
X148506904Y-99954819D02*
X148887856Y-99954819D01*
X148887856Y-99954819D02*
X148983094Y-100002438D01*
X148983094Y-100002438D02*
X149030713Y-100050057D01*
X149030713Y-100050057D02*
X149078332Y-100145295D01*
X149078332Y-100145295D02*
X149078332Y-100288152D01*
X149078332Y-100288152D02*
X149030713Y-100383390D01*
X149030713Y-100383390D02*
X148983094Y-100431009D01*
X148983094Y-100431009D02*
X148887856Y-100478628D01*
X148887856Y-100478628D02*
X148506904Y-100478628D01*
X149554523Y-100954819D02*
X149744999Y-100954819D01*
X149744999Y-100954819D02*
X149840237Y-100907200D01*
X149840237Y-100907200D02*
X149887856Y-100859580D01*
X149887856Y-100859580D02*
X149983094Y-100716723D01*
X149983094Y-100716723D02*
X150030713Y-100526247D01*
X150030713Y-100526247D02*
X150030713Y-100145295D01*
X150030713Y-100145295D02*
X149983094Y-100050057D01*
X149983094Y-100050057D02*
X149935475Y-100002438D01*
X149935475Y-100002438D02*
X149840237Y-99954819D01*
X149840237Y-99954819D02*
X149649761Y-99954819D01*
X149649761Y-99954819D02*
X149554523Y-100002438D01*
X149554523Y-100002438D02*
X149506904Y-100050057D01*
X149506904Y-100050057D02*
X149459285Y-100145295D01*
X149459285Y-100145295D02*
X149459285Y-100383390D01*
X149459285Y-100383390D02*
X149506904Y-100478628D01*
X149506904Y-100478628D02*
X149554523Y-100526247D01*
X149554523Y-100526247D02*
X149649761Y-100573866D01*
X149649761Y-100573866D02*
X149840237Y-100573866D01*
X149840237Y-100573866D02*
X149935475Y-100526247D01*
X149935475Y-100526247D02*
X149983094Y-100478628D01*
X149983094Y-100478628D02*
X150030713Y-100383390D01*
X164990476Y-120962295D02*
X165447619Y-120962295D01*
X165219047Y-121762295D02*
X165219047Y-120962295D01*
X165714286Y-121762295D02*
X165714286Y-120962295D01*
X165714286Y-120962295D02*
X166019048Y-120962295D01*
X166019048Y-120962295D02*
X166095238Y-121000390D01*
X166095238Y-121000390D02*
X166133333Y-121038485D01*
X166133333Y-121038485D02*
X166171429Y-121114676D01*
X166171429Y-121114676D02*
X166171429Y-121228961D01*
X166171429Y-121228961D02*
X166133333Y-121305152D01*
X166133333Y-121305152D02*
X166095238Y-121343247D01*
X166095238Y-121343247D02*
X166019048Y-121381342D01*
X166019048Y-121381342D02*
X165714286Y-121381342D01*
X166933333Y-121762295D02*
X166476190Y-121762295D01*
X166704762Y-121762295D02*
X166704762Y-120962295D01*
X166704762Y-120962295D02*
X166628571Y-121076580D01*
X166628571Y-121076580D02*
X166552381Y-121152771D01*
X166552381Y-121152771D02*
X166476190Y-121190866D01*
X141012295Y-123426666D02*
X141583723Y-123426666D01*
X141583723Y-123426666D02*
X141698009Y-123464761D01*
X141698009Y-123464761D02*
X141774200Y-123540952D01*
X141774200Y-123540952D02*
X141812295Y-123655237D01*
X141812295Y-123655237D02*
X141812295Y-123731428D01*
X141812295Y-122626666D02*
X141812295Y-123083809D01*
X141812295Y-122855237D02*
X141012295Y-122855237D01*
X141012295Y-122855237D02*
X141126580Y-122931428D01*
X141126580Y-122931428D02*
X141202771Y-123007618D01*
X141202771Y-123007618D02*
X141240866Y-123083809D01*
X160954819Y-115026666D02*
X160478628Y-115359999D01*
X160954819Y-115598094D02*
X159954819Y-115598094D01*
X159954819Y-115598094D02*
X159954819Y-115217142D01*
X159954819Y-115217142D02*
X160002438Y-115121904D01*
X160002438Y-115121904D02*
X160050057Y-115074285D01*
X160050057Y-115074285D02*
X160145295Y-115026666D01*
X160145295Y-115026666D02*
X160288152Y-115026666D01*
X160288152Y-115026666D02*
X160383390Y-115074285D01*
X160383390Y-115074285D02*
X160431009Y-115121904D01*
X160431009Y-115121904D02*
X160478628Y-115217142D01*
X160478628Y-115217142D02*
X160478628Y-115598094D01*
X160383390Y-114455237D02*
X160335771Y-114550475D01*
X160335771Y-114550475D02*
X160288152Y-114598094D01*
X160288152Y-114598094D02*
X160192914Y-114645713D01*
X160192914Y-114645713D02*
X160145295Y-114645713D01*
X160145295Y-114645713D02*
X160050057Y-114598094D01*
X160050057Y-114598094D02*
X160002438Y-114550475D01*
X160002438Y-114550475D02*
X159954819Y-114455237D01*
X159954819Y-114455237D02*
X159954819Y-114264761D01*
X159954819Y-114264761D02*
X160002438Y-114169523D01*
X160002438Y-114169523D02*
X160050057Y-114121904D01*
X160050057Y-114121904D02*
X160145295Y-114074285D01*
X160145295Y-114074285D02*
X160192914Y-114074285D01*
X160192914Y-114074285D02*
X160288152Y-114121904D01*
X160288152Y-114121904D02*
X160335771Y-114169523D01*
X160335771Y-114169523D02*
X160383390Y-114264761D01*
X160383390Y-114264761D02*
X160383390Y-114455237D01*
X160383390Y-114455237D02*
X160431009Y-114550475D01*
X160431009Y-114550475D02*
X160478628Y-114598094D01*
X160478628Y-114598094D02*
X160573866Y-114645713D01*
X160573866Y-114645713D02*
X160764342Y-114645713D01*
X160764342Y-114645713D02*
X160859580Y-114598094D01*
X160859580Y-114598094D02*
X160907200Y-114550475D01*
X160907200Y-114550475D02*
X160954819Y-114455237D01*
X160954819Y-114455237D02*
X160954819Y-114264761D01*
X160954819Y-114264761D02*
X160907200Y-114169523D01*
X160907200Y-114169523D02*
X160859580Y-114121904D01*
X160859580Y-114121904D02*
X160764342Y-114074285D01*
X160764342Y-114074285D02*
X160573866Y-114074285D01*
X160573866Y-114074285D02*
X160478628Y-114121904D01*
X160478628Y-114121904D02*
X160431009Y-114169523D01*
X160431009Y-114169523D02*
X160383390Y-114264761D01*
X168239375Y-120167266D02*
X168810803Y-120167266D01*
X168525089Y-121167266D02*
X168525089Y-120167266D01*
X169144137Y-121167266D02*
X169144137Y-120167266D01*
X169144137Y-120167266D02*
X169525089Y-120167266D01*
X169525089Y-120167266D02*
X169620327Y-120214885D01*
X169620327Y-120214885D02*
X169667946Y-120262504D01*
X169667946Y-120262504D02*
X169715565Y-120357742D01*
X169715565Y-120357742D02*
X169715565Y-120500599D01*
X169715565Y-120500599D02*
X169667946Y-120595837D01*
X169667946Y-120595837D02*
X169620327Y-120643456D01*
X169620327Y-120643456D02*
X169525089Y-120691075D01*
X169525089Y-120691075D02*
X169144137Y-120691075D01*
X170096518Y-120262504D02*
X170144137Y-120214885D01*
X170144137Y-120214885D02*
X170239375Y-120167266D01*
X170239375Y-120167266D02*
X170477470Y-120167266D01*
X170477470Y-120167266D02*
X170572708Y-120214885D01*
X170572708Y-120214885D02*
X170620327Y-120262504D01*
X170620327Y-120262504D02*
X170667946Y-120357742D01*
X170667946Y-120357742D02*
X170667946Y-120452980D01*
X170667946Y-120452980D02*
X170620327Y-120595837D01*
X170620327Y-120595837D02*
X170048899Y-121167266D01*
X170048899Y-121167266D02*
X170667946Y-121167266D01*
X167154819Y-115026666D02*
X166678628Y-115359999D01*
X167154819Y-115598094D02*
X166154819Y-115598094D01*
X166154819Y-115598094D02*
X166154819Y-115217142D01*
X166154819Y-115217142D02*
X166202438Y-115121904D01*
X166202438Y-115121904D02*
X166250057Y-115074285D01*
X166250057Y-115074285D02*
X166345295Y-115026666D01*
X166345295Y-115026666D02*
X166488152Y-115026666D01*
X166488152Y-115026666D02*
X166583390Y-115074285D01*
X166583390Y-115074285D02*
X166631009Y-115121904D01*
X166631009Y-115121904D02*
X166678628Y-115217142D01*
X166678628Y-115217142D02*
X166678628Y-115598094D01*
X166154819Y-114121904D02*
X166154819Y-114598094D01*
X166154819Y-114598094D02*
X166631009Y-114645713D01*
X166631009Y-114645713D02*
X166583390Y-114598094D01*
X166583390Y-114598094D02*
X166535771Y-114502856D01*
X166535771Y-114502856D02*
X166535771Y-114264761D01*
X166535771Y-114264761D02*
X166583390Y-114169523D01*
X166583390Y-114169523D02*
X166631009Y-114121904D01*
X166631009Y-114121904D02*
X166726247Y-114074285D01*
X166726247Y-114074285D02*
X166964342Y-114074285D01*
X166964342Y-114074285D02*
X167059580Y-114121904D01*
X167059580Y-114121904D02*
X167107200Y-114169523D01*
X167107200Y-114169523D02*
X167154819Y-114264761D01*
X167154819Y-114264761D02*
X167154819Y-114502856D01*
X167154819Y-114502856D02*
X167107200Y-114598094D01*
X167107200Y-114598094D02*
X167059580Y-114645713D01*
X152988333Y-84034819D02*
X152655000Y-83558628D01*
X152416905Y-84034819D02*
X152416905Y-83034819D01*
X152416905Y-83034819D02*
X152797857Y-83034819D01*
X152797857Y-83034819D02*
X152893095Y-83082438D01*
X152893095Y-83082438D02*
X152940714Y-83130057D01*
X152940714Y-83130057D02*
X152988333Y-83225295D01*
X152988333Y-83225295D02*
X152988333Y-83368152D01*
X152988333Y-83368152D02*
X152940714Y-83463390D01*
X152940714Y-83463390D02*
X152893095Y-83511009D01*
X152893095Y-83511009D02*
X152797857Y-83558628D01*
X152797857Y-83558628D02*
X152416905Y-83558628D01*
X153940714Y-84034819D02*
X153369286Y-84034819D01*
X153655000Y-84034819D02*
X153655000Y-83034819D01*
X153655000Y-83034819D02*
X153559762Y-83177676D01*
X153559762Y-83177676D02*
X153464524Y-83272914D01*
X153464524Y-83272914D02*
X153369286Y-83320533D01*
X151654819Y-115026666D02*
X151178628Y-115359999D01*
X151654819Y-115598094D02*
X150654819Y-115598094D01*
X150654819Y-115598094D02*
X150654819Y-115217142D01*
X150654819Y-115217142D02*
X150702438Y-115121904D01*
X150702438Y-115121904D02*
X150750057Y-115074285D01*
X150750057Y-115074285D02*
X150845295Y-115026666D01*
X150845295Y-115026666D02*
X150988152Y-115026666D01*
X150988152Y-115026666D02*
X151083390Y-115074285D01*
X151083390Y-115074285D02*
X151131009Y-115121904D01*
X151131009Y-115121904D02*
X151178628Y-115217142D01*
X151178628Y-115217142D02*
X151178628Y-115598094D01*
X150988152Y-114169523D02*
X151654819Y-114169523D01*
X150607200Y-114407618D02*
X151321485Y-114645713D01*
X151321485Y-114645713D02*
X151321485Y-114026666D01*
X113666666Y-90899819D02*
X113666666Y-91614104D01*
X113666666Y-91614104D02*
X113619047Y-91756961D01*
X113619047Y-91756961D02*
X113523809Y-91852200D01*
X113523809Y-91852200D02*
X113380952Y-91899819D01*
X113380952Y-91899819D02*
X113285714Y-91899819D01*
X114095238Y-90995057D02*
X114142857Y-90947438D01*
X114142857Y-90947438D02*
X114238095Y-90899819D01*
X114238095Y-90899819D02*
X114476190Y-90899819D01*
X114476190Y-90899819D02*
X114571428Y-90947438D01*
X114571428Y-90947438D02*
X114619047Y-90995057D01*
X114619047Y-90995057D02*
X114666666Y-91090295D01*
X114666666Y-91090295D02*
X114666666Y-91185533D01*
X114666666Y-91185533D02*
X114619047Y-91328390D01*
X114619047Y-91328390D02*
X114047619Y-91899819D01*
X114047619Y-91899819D02*
X114666666Y-91899819D01*
X160488333Y-84034819D02*
X160155000Y-83558628D01*
X159916905Y-84034819D02*
X159916905Y-83034819D01*
X159916905Y-83034819D02*
X160297857Y-83034819D01*
X160297857Y-83034819D02*
X160393095Y-83082438D01*
X160393095Y-83082438D02*
X160440714Y-83130057D01*
X160440714Y-83130057D02*
X160488333Y-83225295D01*
X160488333Y-83225295D02*
X160488333Y-83368152D01*
X160488333Y-83368152D02*
X160440714Y-83463390D01*
X160440714Y-83463390D02*
X160393095Y-83511009D01*
X160393095Y-83511009D02*
X160297857Y-83558628D01*
X160297857Y-83558628D02*
X159916905Y-83558628D01*
X160869286Y-83130057D02*
X160916905Y-83082438D01*
X160916905Y-83082438D02*
X161012143Y-83034819D01*
X161012143Y-83034819D02*
X161250238Y-83034819D01*
X161250238Y-83034819D02*
X161345476Y-83082438D01*
X161345476Y-83082438D02*
X161393095Y-83130057D01*
X161393095Y-83130057D02*
X161440714Y-83225295D01*
X161440714Y-83225295D02*
X161440714Y-83320533D01*
X161440714Y-83320533D02*
X161393095Y-83463390D01*
X161393095Y-83463390D02*
X160821667Y-84034819D01*
X160821667Y-84034819D02*
X161440714Y-84034819D01*
X118033094Y-72954819D02*
X118033094Y-71954819D01*
X118033094Y-72431009D02*
X118604522Y-72431009D01*
X118604522Y-72954819D02*
X118604522Y-71954819D01*
X119604522Y-72954819D02*
X119033094Y-72954819D01*
X119318808Y-72954819D02*
X119318808Y-71954819D01*
X119318808Y-71954819D02*
X119223570Y-72097676D01*
X119223570Y-72097676D02*
X119128332Y-72192914D01*
X119128332Y-72192914D02*
X119033094Y-72240533D01*
X119910713Y-103219104D02*
X120386903Y-103219104D01*
X119815475Y-103504819D02*
X120148808Y-102504819D01*
X120148808Y-102504819D02*
X120482141Y-103504819D01*
X121339284Y-103504819D02*
X120767856Y-103504819D01*
X121053570Y-103504819D02*
X121053570Y-102504819D01*
X121053570Y-102504819D02*
X120958332Y-102647676D01*
X120958332Y-102647676D02*
X120863094Y-102742914D01*
X120863094Y-102742914D02*
X120767856Y-102790533D01*
X130358095Y-119014819D02*
X130358095Y-119824342D01*
X130358095Y-119824342D02*
X130405714Y-119919580D01*
X130405714Y-119919580D02*
X130453333Y-119967200D01*
X130453333Y-119967200D02*
X130548571Y-120014819D01*
X130548571Y-120014819D02*
X130739047Y-120014819D01*
X130739047Y-120014819D02*
X130834285Y-119967200D01*
X130834285Y-119967200D02*
X130881904Y-119919580D01*
X130881904Y-119919580D02*
X130929523Y-119824342D01*
X130929523Y-119824342D02*
X130929523Y-119014819D01*
X131358095Y-119967200D02*
X131500952Y-120014819D01*
X131500952Y-120014819D02*
X131739047Y-120014819D01*
X131739047Y-120014819D02*
X131834285Y-119967200D01*
X131834285Y-119967200D02*
X131881904Y-119919580D01*
X131881904Y-119919580D02*
X131929523Y-119824342D01*
X131929523Y-119824342D02*
X131929523Y-119729104D01*
X131929523Y-119729104D02*
X131881904Y-119633866D01*
X131881904Y-119633866D02*
X131834285Y-119586247D01*
X131834285Y-119586247D02*
X131739047Y-119538628D01*
X131739047Y-119538628D02*
X131548571Y-119491009D01*
X131548571Y-119491009D02*
X131453333Y-119443390D01*
X131453333Y-119443390D02*
X131405714Y-119395771D01*
X131405714Y-119395771D02*
X131358095Y-119300533D01*
X131358095Y-119300533D02*
X131358095Y-119205295D01*
X131358095Y-119205295D02*
X131405714Y-119110057D01*
X131405714Y-119110057D02*
X131453333Y-119062438D01*
X131453333Y-119062438D02*
X131548571Y-119014819D01*
X131548571Y-119014819D02*
X131786666Y-119014819D01*
X131786666Y-119014819D02*
X131929523Y-119062438D01*
X132691428Y-119491009D02*
X132834285Y-119538628D01*
X132834285Y-119538628D02*
X132881904Y-119586247D01*
X132881904Y-119586247D02*
X132929523Y-119681485D01*
X132929523Y-119681485D02*
X132929523Y-119824342D01*
X132929523Y-119824342D02*
X132881904Y-119919580D01*
X132881904Y-119919580D02*
X132834285Y-119967200D01*
X132834285Y-119967200D02*
X132739047Y-120014819D01*
X132739047Y-120014819D02*
X132358095Y-120014819D01*
X132358095Y-120014819D02*
X132358095Y-119014819D01*
X132358095Y-119014819D02*
X132691428Y-119014819D01*
X132691428Y-119014819D02*
X132786666Y-119062438D01*
X132786666Y-119062438D02*
X132834285Y-119110057D01*
X132834285Y-119110057D02*
X132881904Y-119205295D01*
X132881904Y-119205295D02*
X132881904Y-119300533D01*
X132881904Y-119300533D02*
X132834285Y-119395771D01*
X132834285Y-119395771D02*
X132786666Y-119443390D01*
X132786666Y-119443390D02*
X132691428Y-119491009D01*
X132691428Y-119491009D02*
X132358095Y-119491009D01*
X169046905Y-73954819D02*
X169046905Y-72954819D01*
X169046905Y-72954819D02*
X169285000Y-72954819D01*
X169285000Y-72954819D02*
X169427857Y-73002438D01*
X169427857Y-73002438D02*
X169523095Y-73097676D01*
X169523095Y-73097676D02*
X169570714Y-73192914D01*
X169570714Y-73192914D02*
X169618333Y-73383390D01*
X169618333Y-73383390D02*
X169618333Y-73526247D01*
X169618333Y-73526247D02*
X169570714Y-73716723D01*
X169570714Y-73716723D02*
X169523095Y-73811961D01*
X169523095Y-73811961D02*
X169427857Y-73907200D01*
X169427857Y-73907200D02*
X169285000Y-73954819D01*
X169285000Y-73954819D02*
X169046905Y-73954819D01*
X169999286Y-73050057D02*
X170046905Y-73002438D01*
X170046905Y-73002438D02*
X170142143Y-72954819D01*
X170142143Y-72954819D02*
X170380238Y-72954819D01*
X170380238Y-72954819D02*
X170475476Y-73002438D01*
X170475476Y-73002438D02*
X170523095Y-73050057D01*
X170523095Y-73050057D02*
X170570714Y-73145295D01*
X170570714Y-73145295D02*
X170570714Y-73240533D01*
X170570714Y-73240533D02*
X170523095Y-73383390D01*
X170523095Y-73383390D02*
X169951667Y-73954819D01*
X169951667Y-73954819D02*
X170570714Y-73954819D01*
X160771578Y-96931008D02*
X160914435Y-96978627D01*
X160914435Y-96978627D02*
X160962054Y-97026246D01*
X160962054Y-97026246D02*
X161009673Y-97121484D01*
X161009673Y-97121484D02*
X161009673Y-97264341D01*
X161009673Y-97264341D02*
X160962054Y-97359579D01*
X160962054Y-97359579D02*
X160914435Y-97407199D01*
X160914435Y-97407199D02*
X160819197Y-97454818D01*
X160819197Y-97454818D02*
X160438245Y-97454818D01*
X160438245Y-97454818D02*
X160438245Y-96454818D01*
X160438245Y-96454818D02*
X160771578Y-96454818D01*
X160771578Y-96454818D02*
X160866816Y-96502437D01*
X160866816Y-96502437D02*
X160914435Y-96550056D01*
X160914435Y-96550056D02*
X160962054Y-96645294D01*
X160962054Y-96645294D02*
X160962054Y-96740532D01*
X160962054Y-96740532D02*
X160914435Y-96835770D01*
X160914435Y-96835770D02*
X160866816Y-96883389D01*
X160866816Y-96883389D02*
X160771578Y-96931008D01*
X160771578Y-96931008D02*
X160438245Y-96931008D01*
X161343007Y-96454818D02*
X162009673Y-96454818D01*
X162009673Y-96454818D02*
X161343007Y-97454818D01*
X161343007Y-97454818D02*
X162009673Y-97454818D01*
X162914435Y-97454818D02*
X162343007Y-97454818D01*
X162628721Y-97454818D02*
X162628721Y-96454818D01*
X162628721Y-96454818D02*
X162533483Y-96597675D01*
X162533483Y-96597675D02*
X162438245Y-96692913D01*
X162438245Y-96692913D02*
X162343007Y-96740532D01*
X173629048Y-99613866D02*
X174390953Y-99613866D01*
X174010000Y-99994819D02*
X174010000Y-99232914D01*
%TO.C,Q1*%
D11*
X161530000Y-104150000D02*
X157930000Y-104150000D01*
X159730000Y-108600000D02*
G75*
G02*
X157891522Y-104161522I0J2600000D01*
G01*
X161568478Y-104161522D02*
G75*
G02*
X159730000Y-108600001I-1838478J-1838478D01*
G01*
%TO.C,R6*%
X154299999Y-110820000D02*
X154299999Y-111590000D01*
X154299999Y-118900000D02*
X154299999Y-118130000D01*
X152929999Y-111590000D02*
X155669999Y-111590000D01*
X155669999Y-118130000D01*
X152929999Y-118130000D01*
X152929999Y-111590000D01*
%TO.C,J3*%
X141620000Y-73880000D02*
X141620000Y-72500000D01*
X143000000Y-73880000D02*
X141620000Y-73880000D01*
X144270000Y-71120000D02*
X152000000Y-71120000D01*
X144270000Y-73880000D02*
X144270000Y-71120000D01*
X144270000Y-73880000D02*
X152000000Y-73880000D01*
X152000000Y-73880000D02*
X152000000Y-71120000D01*
%TO.C,J4*%
X177120000Y-79620000D02*
X178500000Y-79620000D01*
X177120000Y-81000000D02*
X177120000Y-79620000D01*
X177120000Y-82270000D02*
X177120000Y-87460000D01*
X177120000Y-82270000D02*
X179880000Y-82270000D01*
X177120000Y-87460000D02*
X179880000Y-87460000D01*
X179880000Y-82270000D02*
X179880000Y-87460000D01*
%TO.C,TP3*%
X173700000Y-117000000D02*
G75*
G02*
X171300000Y-117000000I-1200000J0D01*
G01*
X171300000Y-117000000D02*
G75*
G02*
X173700000Y-117000000I1200000J0D01*
G01*
%TO.C,C4*%
X143380000Y-118130000D02*
X148620000Y-118130000D01*
X143380000Y-118467000D02*
X143380000Y-118130000D01*
X143380000Y-120870000D02*
X143380000Y-120533000D01*
X148620000Y-118130000D02*
X148620000Y-118467000D01*
X148620000Y-120533000D02*
X148620000Y-120870000D01*
X148620000Y-120870000D02*
X143380000Y-120870000D01*
%TO.C,R3*%
X163600000Y-110820000D02*
X163600000Y-111590000D01*
X163600000Y-118900000D02*
X163600000Y-118130000D01*
X162230000Y-111590000D02*
X164970000Y-111590000D01*
X164970000Y-118130000D01*
X162230000Y-118130000D01*
X162230000Y-111590000D01*
%TO.C,C1*%
X165749759Y-83161000D02*
X166379759Y-83161000D01*
X166064759Y-82846000D02*
X166064759Y-83476000D01*
X169250000Y-81770000D02*
X169250000Y-88230000D01*
X169290000Y-81770000D02*
X169290000Y-88230000D01*
X169330000Y-81771000D02*
X169330000Y-88229000D01*
X169370000Y-81772000D02*
X169370000Y-88228000D01*
X169410000Y-81774000D02*
X169410000Y-88226000D01*
X169450000Y-81776000D02*
X169450000Y-88224000D01*
X169490000Y-81779000D02*
X169490000Y-83960000D01*
X169490000Y-86040000D02*
X169490000Y-88221000D01*
X169530000Y-81782000D02*
X169530000Y-83960000D01*
X169530000Y-86040000D02*
X169530000Y-88218000D01*
X169570000Y-81786000D02*
X169570000Y-83960000D01*
X169570000Y-86040000D02*
X169570000Y-88214000D01*
X169610000Y-81790000D02*
X169610000Y-83960000D01*
X169610000Y-86040000D02*
X169610000Y-88210000D01*
X169650000Y-81795000D02*
X169650000Y-83960000D01*
X169650000Y-86040000D02*
X169650000Y-88205000D01*
X169690000Y-81800000D02*
X169690000Y-83960000D01*
X169690000Y-86040000D02*
X169690000Y-88200000D01*
X169730000Y-81805000D02*
X169730000Y-83960000D01*
X169730000Y-86040000D02*
X169730000Y-88195000D01*
X169770000Y-81812000D02*
X169770000Y-83960000D01*
X169770000Y-86040000D02*
X169770000Y-88188000D01*
X169810000Y-81818000D02*
X169810000Y-83960000D01*
X169810000Y-86040000D02*
X169810000Y-88182000D01*
X169850000Y-81826000D02*
X169850000Y-83960000D01*
X169850000Y-86040000D02*
X169850000Y-88174000D01*
X169890000Y-81833000D02*
X169890000Y-83960000D01*
X169890000Y-86040000D02*
X169890000Y-88167000D01*
X169930000Y-81841000D02*
X169930000Y-83960000D01*
X169930000Y-86040000D02*
X169930000Y-88159000D01*
X169970000Y-81850000D02*
X169970000Y-83960000D01*
X169970000Y-86040000D02*
X169970000Y-88150000D01*
X170010000Y-81860000D02*
X170010000Y-83960000D01*
X170010000Y-86040000D02*
X170010000Y-88140000D01*
X170050000Y-81869000D02*
X170050000Y-83960000D01*
X170050000Y-86040000D02*
X170050000Y-88131000D01*
X170090000Y-81880000D02*
X170090000Y-83960000D01*
X170090000Y-86040000D02*
X170090000Y-88120000D01*
X170130000Y-81891000D02*
X170130000Y-83960000D01*
X170130000Y-86040000D02*
X170130000Y-88109000D01*
X170170000Y-81902000D02*
X170170000Y-83960000D01*
X170170000Y-86040000D02*
X170170000Y-88098000D01*
X170210000Y-81914000D02*
X170210000Y-83960000D01*
X170210000Y-86040000D02*
X170210000Y-88086000D01*
X170250000Y-81927000D02*
X170250000Y-83960000D01*
X170250000Y-86040000D02*
X170250000Y-88073000D01*
X170290000Y-81940000D02*
X170290000Y-83960000D01*
X170290000Y-86040000D02*
X170290000Y-88060000D01*
X170330000Y-81953000D02*
X170330000Y-83960000D01*
X170330000Y-86040000D02*
X170330000Y-88047000D01*
X170370000Y-81968000D02*
X170370000Y-83960000D01*
X170370000Y-86040000D02*
X170370000Y-88032000D01*
X170410000Y-81983000D02*
X170410000Y-83960000D01*
X170410000Y-86040000D02*
X170410000Y-88017000D01*
X170450000Y-81998000D02*
X170450000Y-83960000D01*
X170450000Y-86040000D02*
X170450000Y-88002000D01*
X170490000Y-82014000D02*
X170490000Y-83960000D01*
X170490000Y-86040000D02*
X170490000Y-87986000D01*
X170530000Y-82031000D02*
X170530000Y-83960000D01*
X170530000Y-86040000D02*
X170530000Y-87969000D01*
X170570000Y-82048000D02*
X170570000Y-83960000D01*
X170570000Y-86040000D02*
X170570000Y-87952000D01*
X170610000Y-82066000D02*
X170610000Y-83960000D01*
X170610000Y-86040000D02*
X170610000Y-87934000D01*
X170650000Y-82085000D02*
X170650000Y-83960000D01*
X170650000Y-86040000D02*
X170650000Y-87915000D01*
X170690000Y-82104000D02*
X170690000Y-83960000D01*
X170690000Y-86040000D02*
X170690000Y-87896000D01*
X170730000Y-82124000D02*
X170730000Y-83960000D01*
X170730000Y-86040000D02*
X170730000Y-87876000D01*
X170770000Y-82145000D02*
X170770000Y-83960000D01*
X170770000Y-86040000D02*
X170770000Y-87855000D01*
X170810000Y-82166000D02*
X170810000Y-83960000D01*
X170810000Y-86040000D02*
X170810000Y-87834000D01*
X170850000Y-82188000D02*
X170850000Y-83960000D01*
X170850000Y-86040000D02*
X170850000Y-87812000D01*
X170890000Y-82211000D02*
X170890000Y-83960000D01*
X170890000Y-86040000D02*
X170890000Y-87789000D01*
X170930000Y-82235000D02*
X170930000Y-83960000D01*
X170930000Y-86040000D02*
X170930000Y-87765000D01*
X170970000Y-82259000D02*
X170970000Y-83960000D01*
X170970000Y-86040000D02*
X170970000Y-87741000D01*
X171010000Y-82284000D02*
X171010000Y-83960000D01*
X171010000Y-86040000D02*
X171010000Y-87716000D01*
X171050000Y-82310000D02*
X171050000Y-83960000D01*
X171050000Y-86040000D02*
X171050000Y-87690000D01*
X171090000Y-82337000D02*
X171090000Y-83960000D01*
X171090000Y-86040000D02*
X171090000Y-87663000D01*
X171130000Y-82364000D02*
X171130000Y-83960000D01*
X171130000Y-86040000D02*
X171130000Y-87636000D01*
X171170000Y-82393000D02*
X171170000Y-83960000D01*
X171170000Y-86040000D02*
X171170000Y-87607000D01*
X171210000Y-82423000D02*
X171210000Y-83960000D01*
X171210000Y-86040000D02*
X171210000Y-87577000D01*
X171250000Y-82453000D02*
X171250000Y-83960000D01*
X171250000Y-86040000D02*
X171250000Y-87547000D01*
X171290000Y-82484000D02*
X171290000Y-83960000D01*
X171290000Y-86040000D02*
X171290000Y-87516000D01*
X171330000Y-82517000D02*
X171330000Y-83960000D01*
X171330000Y-86040000D02*
X171330000Y-87483000D01*
X171370000Y-82550000D02*
X171370000Y-83960000D01*
X171370000Y-86040000D02*
X171370000Y-87450000D01*
X171410000Y-82585000D02*
X171410000Y-83960000D01*
X171410000Y-86040000D02*
X171410000Y-87415000D01*
X171450000Y-82621000D02*
X171450000Y-83960000D01*
X171450000Y-86040000D02*
X171450000Y-87379000D01*
X171490000Y-82658000D02*
X171490000Y-83960000D01*
X171490000Y-86040000D02*
X171490000Y-87342000D01*
X171530000Y-82696000D02*
X171530000Y-83960000D01*
X171530000Y-86040000D02*
X171530000Y-87304000D01*
X171570000Y-82736000D02*
X171570000Y-87264000D01*
X171610000Y-82777000D02*
X171610000Y-87223000D01*
X171650000Y-82819000D02*
X171650000Y-87181000D01*
X171690000Y-82863000D02*
X171690000Y-87137000D01*
X171730000Y-82909000D02*
X171730000Y-87091000D01*
X171770000Y-82956000D02*
X171770000Y-87044000D01*
X171810000Y-83005000D02*
X171810000Y-86995000D01*
X171850000Y-83057000D02*
X171850000Y-86943000D01*
X171890000Y-83110000D02*
X171890000Y-86890000D01*
X171930000Y-83166000D02*
X171930000Y-86834000D01*
X171970000Y-83225000D02*
X171970000Y-86775000D01*
X172010000Y-83286000D02*
X172010000Y-86714000D01*
X172050000Y-83351000D02*
X172050000Y-86649000D01*
X172090000Y-83419000D02*
X172090000Y-86581000D01*
X172130000Y-83491000D02*
X172130000Y-86509000D01*
X172170000Y-83568000D02*
X172170000Y-86432000D01*
X172210000Y-83650000D02*
X172210000Y-86350000D01*
X172250000Y-83739000D02*
X172250000Y-86261000D01*
X172290000Y-83835000D02*
X172290000Y-86165000D01*
X172330000Y-83942000D02*
X172330000Y-86058000D01*
X172370000Y-84061000D02*
X172370000Y-85939000D01*
X172410000Y-84199000D02*
X172410000Y-85801000D01*
X172450000Y-84367000D02*
X172450000Y-85633000D01*
X172490000Y-84598000D02*
X172490000Y-85402000D01*
X172520000Y-85000000D02*
G75*
G02*
X165980000Y-85000000I-3270000J0D01*
G01*
X165980000Y-85000000D02*
G75*
G02*
X172520000Y-85000000I3270000J0D01*
G01*
%TO.C,C2*%
X173130000Y-78880000D02*
X173467000Y-78880000D01*
X173130000Y-84120000D02*
X173130000Y-78880000D01*
X173467000Y-84120000D02*
X173130000Y-84120000D01*
X175533000Y-78880000D02*
X175870000Y-78880000D01*
X175870000Y-78880000D02*
X175870000Y-84120000D01*
X175870000Y-84120000D02*
X175533000Y-84120000D01*
%TO.C,C3*%
X142195225Y-113025000D02*
X142695225Y-113025000D01*
X142445225Y-112775000D02*
X142445225Y-113275000D01*
X145000000Y-111920000D02*
X145000000Y-113460000D01*
X145000000Y-115540000D02*
X145000000Y-117080000D01*
X145040000Y-111920000D02*
X145040000Y-113460000D01*
X145040000Y-115540000D02*
X145040000Y-117080000D01*
X145080000Y-111921000D02*
X145080000Y-113460000D01*
X145080000Y-115540000D02*
X145080000Y-117079000D01*
X145120000Y-111923000D02*
X145120000Y-113460000D01*
X145120000Y-115540000D02*
X145120000Y-117077000D01*
X145160000Y-111925000D02*
X145160000Y-113460000D01*
X145160000Y-115540000D02*
X145160000Y-117075000D01*
X145200000Y-111928000D02*
X145200000Y-113460000D01*
X145200000Y-115540000D02*
X145200000Y-117072000D01*
X145240000Y-111931000D02*
X145240000Y-113460000D01*
X145240000Y-115540000D02*
X145240000Y-117069000D01*
X145280000Y-111935000D02*
X145280000Y-113460000D01*
X145280000Y-115540000D02*
X145280000Y-117065000D01*
X145320000Y-111940000D02*
X145320000Y-113460000D01*
X145320000Y-115540000D02*
X145320000Y-117060000D01*
X145360000Y-111945000D02*
X145360000Y-113460000D01*
X145360000Y-115540000D02*
X145360000Y-117055000D01*
X145400000Y-111951000D02*
X145400000Y-113460000D01*
X145400000Y-115540000D02*
X145400000Y-117049000D01*
X145440000Y-111957000D02*
X145440000Y-113460000D01*
X145440000Y-115540000D02*
X145440000Y-117043000D01*
X145480000Y-111964000D02*
X145480000Y-113460000D01*
X145480000Y-115540000D02*
X145480000Y-117036000D01*
X145520000Y-111972000D02*
X145520000Y-113460000D01*
X145520000Y-115540000D02*
X145520000Y-117028000D01*
X145560000Y-111981000D02*
X145560000Y-113460000D01*
X145560000Y-115540000D02*
X145560000Y-117019000D01*
X145600000Y-111990000D02*
X145600000Y-113460000D01*
X145600000Y-115540000D02*
X145600000Y-117010000D01*
X145640000Y-111999000D02*
X145640000Y-113460000D01*
X145640000Y-115540000D02*
X145640000Y-117001000D01*
X145680000Y-112010000D02*
X145680000Y-113460000D01*
X145680000Y-115540000D02*
X145680000Y-116990000D01*
X145720000Y-112021000D02*
X145720000Y-113460000D01*
X145720000Y-115540000D02*
X145720000Y-116979000D01*
X145760000Y-112033000D02*
X145760000Y-113460000D01*
X145760000Y-115540000D02*
X145760000Y-116967000D01*
X145800000Y-112045000D02*
X145800000Y-113460000D01*
X145800000Y-115540000D02*
X145800000Y-116955000D01*
X145840000Y-112058000D02*
X145840000Y-113460000D01*
X145840000Y-115540000D02*
X145840000Y-116942000D01*
X145880000Y-112072000D02*
X145880000Y-113460000D01*
X145880000Y-115540000D02*
X145880000Y-116928000D01*
X145920000Y-112087000D02*
X145920000Y-113460000D01*
X145920000Y-115540000D02*
X145920000Y-116913000D01*
X145960000Y-112102000D02*
X145960000Y-113460000D01*
X145960000Y-115540000D02*
X145960000Y-116898000D01*
X146000000Y-112118000D02*
X146000000Y-113460000D01*
X146000000Y-115540000D02*
X146000000Y-116882000D01*
X146040000Y-112135000D02*
X146040000Y-113460000D01*
X146040000Y-115540000D02*
X146040000Y-116865000D01*
X146080000Y-112153000D02*
X146080000Y-113460000D01*
X146080000Y-115540000D02*
X146080000Y-116847000D01*
X146120000Y-112171000D02*
X146120000Y-113460000D01*
X146120000Y-115540000D02*
X146120000Y-116829000D01*
X146160000Y-112191000D02*
X146160000Y-113460000D01*
X146160000Y-115540000D02*
X146160000Y-116809000D01*
X146200000Y-112211000D02*
X146200000Y-113460000D01*
X146200000Y-115540000D02*
X146200000Y-116789000D01*
X146240000Y-112232000D02*
X146240000Y-113460000D01*
X146240000Y-115540000D02*
X146240000Y-116768000D01*
X146280000Y-112254000D02*
X146280000Y-113460000D01*
X146280000Y-115540000D02*
X146280000Y-116746000D01*
X146320000Y-112277000D02*
X146320000Y-113460000D01*
X146320000Y-115540000D02*
X146320000Y-116723000D01*
X146360000Y-112301000D02*
X146360000Y-113460000D01*
X146360000Y-115540000D02*
X146360000Y-116699000D01*
X146400000Y-112325000D02*
X146400000Y-113460000D01*
X146400000Y-115540000D02*
X146400000Y-116675000D01*
X146440000Y-112351000D02*
X146440000Y-113460000D01*
X146440000Y-115540000D02*
X146440000Y-116649000D01*
X146480000Y-112378000D02*
X146480000Y-113460000D01*
X146480000Y-115540000D02*
X146480000Y-116622000D01*
X146520000Y-112406000D02*
X146520000Y-113460000D01*
X146520000Y-115540000D02*
X146520000Y-116594000D01*
X146560000Y-112435000D02*
X146560000Y-113460000D01*
X146560000Y-115540000D02*
X146560000Y-116565000D01*
X146600000Y-112465000D02*
X146600000Y-113460000D01*
X146600000Y-115540000D02*
X146600000Y-116535000D01*
X146640000Y-112497000D02*
X146640000Y-113460000D01*
X146640000Y-115540000D02*
X146640000Y-116503000D01*
X146680000Y-112530000D02*
X146680000Y-113460000D01*
X146680000Y-115540000D02*
X146680000Y-116470000D01*
X146720000Y-112564000D02*
X146720000Y-113460000D01*
X146720000Y-115540000D02*
X146720000Y-116436000D01*
X146760000Y-112599000D02*
X146760000Y-113460000D01*
X146760000Y-115540000D02*
X146760000Y-116401000D01*
X146800000Y-112636000D02*
X146800000Y-113460000D01*
X146800000Y-115540000D02*
X146800000Y-116364000D01*
X146840000Y-112675000D02*
X146840000Y-113460000D01*
X146840000Y-115540000D02*
X146840000Y-116325000D01*
X146880000Y-112715000D02*
X146880000Y-113460000D01*
X146880000Y-115540000D02*
X146880000Y-116285000D01*
X146920000Y-112757000D02*
X146920000Y-113460000D01*
X146920000Y-115540000D02*
X146920000Y-116243000D01*
X146960000Y-112801000D02*
X146960000Y-113460000D01*
X146960000Y-115540000D02*
X146960000Y-116199000D01*
X147000000Y-112848000D02*
X147000000Y-113460000D01*
X147000000Y-115540000D02*
X147000000Y-116152000D01*
X147040000Y-112896000D02*
X147040000Y-116104000D01*
X147080000Y-112947000D02*
X147080000Y-116053000D01*
X147120000Y-113001000D02*
X147120000Y-115999000D01*
X147160000Y-113057000D02*
X147160000Y-115943000D01*
X147200000Y-113117000D02*
X147200000Y-115883000D01*
X147240000Y-113181000D02*
X147240000Y-115819000D01*
X147280000Y-113249000D02*
X147280000Y-115751000D01*
X147320000Y-113323000D02*
X147320000Y-115677000D01*
X147360000Y-113402000D02*
X147360000Y-115598000D01*
X147400000Y-113489000D02*
X147400000Y-115511000D01*
X147440000Y-113586000D02*
X147440000Y-115414000D01*
X147480000Y-113695000D02*
X147480000Y-115305000D01*
X147520000Y-113823000D02*
X147520000Y-115177000D01*
X147560000Y-113983000D02*
X147560000Y-115017000D01*
X147600000Y-114217000D02*
X147600000Y-114783000D01*
X147620000Y-114500000D02*
G75*
G02*
X142380000Y-114500000I-2620000J0D01*
G01*
X142380000Y-114500000D02*
G75*
G02*
X147620000Y-114500000I2620000J0D01*
G01*
%TO.C,D3*%
X167420000Y-106000000D02*
X168070000Y-106000000D01*
X171470000Y-107120000D02*
X171470000Y-104880000D01*
X171590000Y-107120000D02*
X171590000Y-104880000D01*
X171710000Y-107120000D02*
X171710000Y-104880000D01*
X172960000Y-106000000D02*
X172310000Y-106000000D01*
X168070000Y-104880000D02*
X172310000Y-104880000D01*
X172310000Y-107120000D01*
X168070000Y-107120000D01*
X168070000Y-104880000D01*
%TO.C,D1*%
X160790000Y-75045000D02*
X160790000Y-71955000D01*
X155240000Y-73500000D02*
G75*
G02*
X160790000Y-71955170I2990000J0D01*
G01*
X160790000Y-75044830D02*
G75*
G02*
X155240000Y-73500000I-2560000J1544830D01*
G01*
X160730000Y-73500000D02*
G75*
G02*
X155730000Y-73500000I-2500000J0D01*
G01*
X155730000Y-73500000D02*
G75*
G02*
X160730000Y-73500000I2500000J0D01*
G01*
%TO.C,R7*%
X157399999Y-110820000D02*
X157399999Y-111590000D01*
X157399999Y-118900000D02*
X157399999Y-118130000D01*
X156029999Y-111590000D02*
X158769999Y-111590000D01*
X158769999Y-118130000D01*
X156029999Y-118130000D01*
X156029999Y-111590000D01*
%TO.C,R9*%
X153180000Y-100500000D02*
X153950000Y-100500000D01*
X161260000Y-100500000D02*
X160490000Y-100500000D01*
X153950000Y-99130000D02*
X160490000Y-99130000D01*
X160490000Y-101870000D01*
X153950000Y-101870000D01*
X153950000Y-99130000D01*
%TO.C,TP1*%
X167200000Y-123160000D02*
G75*
G02*
X164800000Y-123160000I-1200000J0D01*
G01*
X164800000Y-123160000D02*
G75*
G02*
X167200000Y-123160000I1200000J0D01*
G01*
%TO.C,J1*%
X142120000Y-124540000D02*
X142120000Y-123160000D01*
X143500000Y-124540000D02*
X142120000Y-124540000D01*
X144770000Y-121780000D02*
X162660000Y-121780000D01*
X144770000Y-124540000D02*
X144770000Y-121780000D01*
X144770000Y-124540000D02*
X162660000Y-124540000D01*
X162660000Y-124540000D02*
X162660000Y-121780000D01*
%TO.C,R8*%
X160500000Y-110820000D02*
X160500000Y-111590000D01*
X160500000Y-118900000D02*
X160500000Y-118130000D01*
X159130000Y-111590000D02*
X161870000Y-111590000D01*
X161870000Y-118130000D01*
X159130000Y-118130000D01*
X159130000Y-111590000D01*
%TO.C,TP2*%
X170700000Y-123160000D02*
G75*
G02*
X168300000Y-123160000I-1200000J0D01*
G01*
X168300000Y-123160000D02*
G75*
G02*
X170700000Y-123160000I1200000J0D01*
G01*
%TO.C,R5*%
X166700000Y-110820000D02*
X166700000Y-111590000D01*
X166700000Y-118900000D02*
X166700000Y-118130000D01*
X165330000Y-111590000D02*
X168070000Y-111590000D01*
X168070000Y-118130000D01*
X165330000Y-118130000D01*
X165330000Y-111590000D01*
%TO.C,R1*%
X156500000Y-79540000D02*
X156500000Y-80310000D01*
X156500000Y-87620000D02*
X156500000Y-86850000D01*
X155130000Y-80310000D02*
X157870000Y-80310000D01*
X157870000Y-86850000D01*
X155130000Y-86850000D01*
X155130000Y-80310000D01*
%TO.C,R4*%
X151200000Y-110820000D02*
X151200000Y-111590000D01*
X151200000Y-118900000D02*
X151200000Y-118130000D01*
X149830000Y-111590000D02*
X152570000Y-111590000D01*
X152570000Y-118130000D01*
X149830000Y-118130000D01*
X149830000Y-111590000D01*
%TO.C,J2*%
X112620000Y-92780000D02*
X114000000Y-92780000D01*
X112620000Y-94160000D02*
X112620000Y-92780000D01*
X112620000Y-95430000D02*
X112620000Y-113320000D01*
X112620000Y-95430000D02*
X115380000Y-95430000D01*
X112620000Y-113320000D02*
X115380000Y-113320000D01*
X115380000Y-95430000D02*
X115380000Y-113320000D01*
%TO.C,R2*%
X164000000Y-79540000D02*
X164000000Y-80310000D01*
X164000000Y-87620000D02*
X164000000Y-86850000D01*
X162630000Y-80310000D02*
X165370000Y-80310000D01*
X165370000Y-86850000D01*
X162630000Y-86850000D01*
X162630000Y-80310000D01*
%TO.C,A1*%
X122600000Y-80060000D02*
X122600000Y-82730000D01*
X122600000Y-85270000D02*
X122600000Y-123500000D01*
X122600000Y-123500000D02*
X127680000Y-123500000D01*
X125270000Y-82730000D02*
X122600000Y-82730000D01*
X125270000Y-85270000D02*
X122600000Y-85270000D01*
X125270000Y-85270000D02*
X125270000Y-82730000D01*
X125270000Y-85270000D02*
X125270000Y-120830000D01*
X125270000Y-120830000D02*
X122600000Y-120830000D01*
X127680000Y-115620000D02*
X135560000Y-115620000D01*
X127680000Y-126040000D02*
X127680000Y-115620000D01*
X135560000Y-115620000D02*
X135560000Y-126040000D01*
X135560000Y-126040000D02*
X127680000Y-126040000D01*
X137970000Y-82730000D02*
X137970000Y-120830000D01*
X137970000Y-82730000D02*
X140640000Y-82730000D01*
X137970000Y-120830000D02*
X140640000Y-120830000D01*
X140640000Y-80060000D02*
X122600000Y-80060000D01*
X140640000Y-123500000D02*
X135560000Y-123500000D01*
X140640000Y-123500000D02*
X140640000Y-80060000D01*
%TO.C,D2*%
X167290000Y-75045000D02*
X167290000Y-71955000D01*
X161740000Y-73500000D02*
G75*
G02*
X167290000Y-71955170I2990000J0D01*
G01*
X167290000Y-75044830D02*
G75*
G02*
X161740000Y-73500000I-2560000J1544830D01*
G01*
X167230000Y-73500000D02*
G75*
G02*
X162230000Y-73500000I-2500000J0D01*
G01*
X162230000Y-73500000D02*
G75*
G02*
X167230000Y-73500000I2500000J0D01*
G01*
%TO.C,BZ1*%
X176300000Y-97000000D02*
G75*
G02*
X164100000Y-97000000I-6100000J0D01*
G01*
X164100000Y-97000000D02*
G75*
G02*
X176300000Y-97000000I6100000J0D01*
G01*
%TD*%
%LPC*%
D12*
%TO.C,Q1*%
X161000000Y-106000000D03*
D13*
X159730000Y-106000000D03*
X158460000Y-106000000D03*
%TD*%
D14*
%TO.C,R6*%
X154299999Y-109780000D03*
X154299999Y-119940000D03*
%TD*%
D15*
%TO.C,H4*%
X178500000Y-122660000D03*
%TD*%
D16*
%TO.C,J3*%
X143000000Y-72500000D03*
D17*
X145540000Y-72500000D03*
X148080000Y-72500000D03*
X150620000Y-72500000D03*
%TD*%
D16*
%TO.C,J4*%
X178500000Y-81000000D03*
D17*
X178500000Y-83540000D03*
X178500000Y-86080000D03*
%TD*%
D15*
%TO.C,H3*%
X113500000Y-122660000D03*
%TD*%
D18*
%TO.C,TP3*%
X172500000Y-117000000D03*
%TD*%
D14*
%TO.C,C4*%
X143500000Y-119500000D03*
X148500000Y-119500000D03*
%TD*%
%TO.C,R3*%
X163600000Y-109780000D03*
X163600000Y-119940000D03*
%TD*%
D19*
%TO.C,C1*%
X168000000Y-85000000D03*
D14*
X170500000Y-85000000D03*
%TD*%
%TO.C,C2*%
X174500000Y-79000000D03*
X174500000Y-84000000D03*
%TD*%
D19*
%TO.C,C3*%
X144000000Y-114500000D03*
D14*
X146000000Y-114500000D03*
%TD*%
D20*
%TO.C,D3*%
X174000000Y-106000000D03*
D14*
X166380000Y-106000000D03*
%TD*%
D21*
%TO.C,D1*%
X159500000Y-73500000D03*
D22*
X156960000Y-73500000D03*
%TD*%
D15*
%TO.C,H2*%
X178500000Y-72500000D03*
%TD*%
D14*
%TO.C,R7*%
X157399999Y-109780000D03*
X157399999Y-119940000D03*
%TD*%
%TO.C,R9*%
X162300000Y-100500000D03*
X152140000Y-100500000D03*
%TD*%
D18*
%TO.C,TP1*%
X166000000Y-123160000D03*
%TD*%
D16*
%TO.C,J1*%
X143500000Y-123160000D03*
D17*
X146040000Y-123160000D03*
X148580000Y-123160000D03*
X151120000Y-123160000D03*
X153660000Y-123160000D03*
X156200000Y-123160000D03*
X158740000Y-123160000D03*
X161280000Y-123160000D03*
%TD*%
D14*
%TO.C,R8*%
X160500000Y-109780000D03*
X160500000Y-119940000D03*
%TD*%
D18*
%TO.C,TP2*%
X169500000Y-123160000D03*
%TD*%
D14*
%TO.C,R5*%
X166700000Y-109780000D03*
X166700000Y-119940000D03*
%TD*%
%TO.C,R1*%
X156500000Y-78500000D03*
X156500000Y-88660000D03*
%TD*%
%TO.C,R4*%
X151200000Y-109780000D03*
X151200000Y-119940000D03*
%TD*%
D16*
%TO.C,J2*%
X114000000Y-94160000D03*
D17*
X114000000Y-96700000D03*
X114000000Y-99240000D03*
X114000000Y-101780000D03*
X114000000Y-104320000D03*
X114000000Y-106860000D03*
X114000000Y-109400000D03*
X114000000Y-111940000D03*
%TD*%
D14*
%TO.C,R2*%
X164000000Y-78500000D03*
X164000000Y-88660000D03*
%TD*%
D15*
%TO.C,H1*%
X113500000Y-72500000D03*
%TD*%
D23*
%TO.C,A1*%
X124000000Y-84000000D03*
D24*
X124000000Y-86540000D03*
X124000000Y-89080000D03*
X124000000Y-91620000D03*
X124000000Y-94160000D03*
X124000000Y-96700000D03*
X124000000Y-99240000D03*
X124000000Y-101780000D03*
X124000000Y-104320000D03*
X124000000Y-106860000D03*
X124000000Y-109400000D03*
X124000000Y-111940000D03*
X124000000Y-114480000D03*
X124000000Y-117020000D03*
X124000000Y-119560000D03*
X139240000Y-119560000D03*
X139240000Y-117020000D03*
X139240000Y-114480000D03*
X139240000Y-111940000D03*
X139240000Y-109400000D03*
X139240000Y-106860000D03*
X139240000Y-104320000D03*
X139240000Y-101780000D03*
X139240000Y-99240000D03*
X139240000Y-96700000D03*
X139240000Y-94160000D03*
X139240000Y-91620000D03*
X139240000Y-89080000D03*
X139240000Y-86540000D03*
X139240000Y-84000000D03*
%TD*%
D21*
%TO.C,D2*%
X166000000Y-73500000D03*
D22*
X163460000Y-73500000D03*
%TD*%
D25*
%TO.C,BZ1*%
X174000000Y-97000000D03*
D18*
X166400000Y-97000000D03*
%TD*%
%LPD*%
M02*
