%TF.GenerationSoftware,KiCad,Pcbnew,10.0.0*%
%TF.CreationDate,2026-09-27T22:37:56+02:00*%
%TF.ProjectId,Zamek_RFID_Hardware,5a616d65-6b5f-4524-9649-445f48617264,rev?*%
%TF.SameCoordinates,Original*%
%TF.FileFunction,Soldermask,Top*%
%TF.FilePolarity,Negative*%
%FSLAX46Y46*%
G04 Gerber Fmt 4.6, Leading zero omitted, Abs format (unit mm)*
G04 Created by KiCad (PCBNEW 10.0.0) date 2026-09-27 22:37:56*
%MOMM*%
%LPD*%
G01*
G04 APERTURE LIST*
G04 Aperture macros list*
%AMRoundRect*
0 Rectangle with rounded corners*
0 $1 Rounding radius*
0 $2 $3 $4 $5 $6 $7 $8 $9 X,Y pos of 4 corners*
0 Add a 4 corners polygon primitive as box body*
4,1,4,$2,$3,$4,$5,$6,$7,$8,$9,$2,$3,0*
0 Add four circle primitives for the rounded corners*
1,1,$1+$1,$2,$3*
1,1,$1+$1,$4,$5*
1,1,$1+$1,$6,$7*
1,1,$1+$1,$8,$9*
0 Add four rect primitives between the rounded corners*
20,1,$1+$1,$2,$3,$4,$5,0*
20,1,$1+$1,$4,$5,$6,$7,0*
20,1,$1+$1,$6,$7,$8,$9,0*
20,1,$1+$1,$8,$9,$2,$3,0*%
G04 Aperture macros list end*
%ADD10R,1.050000X1.500000*%
%ADD11O,1.050000X1.500000*%
%ADD12C,1.600000*%
%ADD13C,3.200000*%
%ADD14R,1.700000X1.700000*%
%ADD15C,1.700000*%
%ADD16C,2.000000*%
%ADD17RoundRect,0.250000X-0.550000X-0.550000X0.550000X-0.550000X0.550000X0.550000X-0.550000X0.550000X0*%
%ADD18RoundRect,0.250000X0.550000X0.550000X-0.550000X0.550000X-0.550000X-0.550000X0.550000X-0.550000X0*%
%ADD19R,1.800000X1.800000*%
%ADD20C,1.800000*%
%ADD21R,1.600000X1.600000*%
%ADD22O,1.600000X1.600000*%
%ADD23R,2.000000X2.000000*%
G04 APERTURE END LIST*
D10*
%TO.C,Q1*%
X161000000Y-106000000D03*
D11*
X159730000Y-106000000D03*
X158460000Y-106000000D03*
%TD*%
D12*
%TO.C,R6*%
X154299999Y-109780000D03*
X154299999Y-119940000D03*
%TD*%
D13*
%TO.C,H4*%
X178500000Y-122660000D03*
%TD*%
D14*
%TO.C,J3*%
X143000000Y-72500000D03*
D15*
X145540000Y-72500000D03*
X148080000Y-72500000D03*
X150620000Y-72500000D03*
%TD*%
D14*
%TO.C,J4*%
X178500000Y-81000000D03*
D15*
X178500000Y-83540000D03*
X178500000Y-86080000D03*
%TD*%
D13*
%TO.C,H3*%
X113500000Y-122660000D03*
%TD*%
D16*
%TO.C,TP3*%
X172500000Y-117000000D03*
%TD*%
D12*
%TO.C,C4*%
X143500000Y-119500000D03*
X148500000Y-119500000D03*
%TD*%
%TO.C,R3*%
X163600000Y-109780000D03*
X163600000Y-119940000D03*
%TD*%
D17*
%TO.C,C1*%
X168000000Y-85000000D03*
D12*
X170500000Y-85000000D03*
%TD*%
%TO.C,C2*%
X174500000Y-79000000D03*
X174500000Y-84000000D03*
%TD*%
D17*
%TO.C,C3*%
X144000000Y-114500000D03*
D12*
X146000000Y-114500000D03*
%TD*%
D18*
%TO.C,D3*%
X174000000Y-106000000D03*
D12*
X166380000Y-106000000D03*
%TD*%
D19*
%TO.C,D1*%
X159500000Y-73500000D03*
D20*
X156960000Y-73500000D03*
%TD*%
D13*
%TO.C,H2*%
X178500000Y-72500000D03*
%TD*%
D12*
%TO.C,R7*%
X157399999Y-109780000D03*
X157399999Y-119940000D03*
%TD*%
%TO.C,R9*%
X162300000Y-100500000D03*
X152140000Y-100500000D03*
%TD*%
D16*
%TO.C,TP1*%
X166000000Y-123160000D03*
%TD*%
D14*
%TO.C,J1*%
X143500000Y-123160000D03*
D15*
X146040000Y-123160000D03*
X148580000Y-123160000D03*
X151120000Y-123160000D03*
X153660000Y-123160000D03*
X156200000Y-123160000D03*
X158740000Y-123160000D03*
X161280000Y-123160000D03*
%TD*%
D12*
%TO.C,R8*%
X160500000Y-109780000D03*
X160500000Y-119940000D03*
%TD*%
D16*
%TO.C,TP2*%
X169500000Y-123160000D03*
%TD*%
D12*
%TO.C,R5*%
X166700000Y-109780000D03*
X166700000Y-119940000D03*
%TD*%
%TO.C,R1*%
X156500000Y-78500000D03*
X156500000Y-88660000D03*
%TD*%
%TO.C,R4*%
X151200000Y-109780000D03*
X151200000Y-119940000D03*
%TD*%
D14*
%TO.C,J2*%
X114000000Y-94160000D03*
D15*
X114000000Y-96700000D03*
X114000000Y-99240000D03*
X114000000Y-101780000D03*
X114000000Y-104320000D03*
X114000000Y-106860000D03*
X114000000Y-109400000D03*
X114000000Y-111940000D03*
%TD*%
D12*
%TO.C,R2*%
X164000000Y-78500000D03*
X164000000Y-88660000D03*
%TD*%
D13*
%TO.C,H1*%
X113500000Y-72500000D03*
%TD*%
D21*
%TO.C,A1*%
X124000000Y-84000000D03*
D22*
X124000000Y-86540000D03*
X124000000Y-89080000D03*
X124000000Y-91620000D03*
X124000000Y-94160000D03*
X124000000Y-96700000D03*
X124000000Y-99240000D03*
X124000000Y-101780000D03*
X124000000Y-104320000D03*
X124000000Y-106860000D03*
X124000000Y-109400000D03*
X124000000Y-111940000D03*
X124000000Y-114480000D03*
X124000000Y-117020000D03*
X124000000Y-119560000D03*
X139240000Y-119560000D03*
X139240000Y-117020000D03*
X139240000Y-114480000D03*
X139240000Y-111940000D03*
X139240000Y-109400000D03*
X139240000Y-106860000D03*
X139240000Y-104320000D03*
X139240000Y-101780000D03*
X139240000Y-99240000D03*
X139240000Y-96700000D03*
X139240000Y-94160000D03*
X139240000Y-91620000D03*
X139240000Y-89080000D03*
X139240000Y-86540000D03*
X139240000Y-84000000D03*
%TD*%
D19*
%TO.C,D2*%
X166000000Y-73500000D03*
D20*
X163460000Y-73500000D03*
%TD*%
D23*
%TO.C,BZ1*%
X174000000Y-97000000D03*
D16*
X166400000Y-97000000D03*
%TD*%
M02*
